<?xml version="1.0" encoding="utf-8"?>
<!-- Generator: Adobe Illustrator 24.1.2, SVG Export Plug-In . SVG Version: 6.00 Build 0)  -->
<svg version="1.1" id="Layer_1" xmlns="http://www.w3.org/2000/svg" xmlns:xlink="http://www.w3.org/1999/xlink" x="0px" y="0px"
	 viewBox="0 0 87.99 75.31" style="enable-background:new 0 0 87.99 75.31;" xml:space="preserve">
<style type="text/css">
	.st0{fill-rule:evenodd;clip-rule:evenodd;fill:#C1272D;}
	.st1{fill-rule:evenodd;clip-rule:evenodd;fill:#FFFFFF;}
</style>
<g>
	<path class="st0" d="M40.15,7.07c16.37,0,29.63,13.2,29.63,29.48S56.53,66.04,40.15,66.04s-29.63-13.2-29.63-29.48
		S23.78,7.07,40.15,7.07L40.15,7.07z"/>
	<path class="st1" d="M38.45,47.21l2.75,4.85h0.03l2.72,4.76l-3.74,6.44l-7.93-13.59l-15.77-0.03l3.71-6.47h8.59l0,0h3.02h0.93h3.44
		l0,0L38.45,47.21L38.45,47.21z M40.15,8.78l7.93,13.59l15.77,0.03l-3.68,6.38h-8.26h-0.24H51.2h-3.62h-0.24h-0.48h-3.62l0,0
		l-7.27-12.78L40.15,8.78L40.15,8.78z M31.92,22.52l0.54-0.33c0.18-0.09,0.39-0.06,0.51,0.12l4.07,6.85
		c0.09,0.18,0.06,0.42-0.12,0.51L36.38,30c-0.18,0.09-0.39,0.06-0.51-0.12l-4.07-6.85C31.68,22.88,31.74,22.64,31.92,22.52
		L31.92,22.52z M34.71,18.98c-0.15-0.24-0.15-0.6-0.03-0.78l0.33-0.6c0.12-0.21,0.33-0.18,0.45,0.06c1.95,3.32,4.94,8.35,6.88,11.67
		c1.44,2.45,0.57,5.63-1.98,7.12c-2.54,1.47-5.75,0.69-7.21-1.77c-1.95-3.32-5.06-8.56-7-11.88c-0.15-0.24-0.06-0.42,0.18-0.42h0.75
		c0.24,0,0.54,0.18,0.69,0.42l4.82,8.05c0.69,1.2,2.72,1.26,4.07,0.66c-1.08,0.9-1.23,2.27-0.51,3.53c0.81,1.38,2.6,1.86,3.98,1.05
		c1.38-0.81,1.86-2.57,1.05-3.95c-0.75-1.26-2.04-1.77-3.35-1.29c1.41-1.02,2.07-2.78,1.44-3.86L34.71,18.98L34.71,18.98z
		 M45.6,43.59l1.8-3.5c0.33-0.63,0.15-1.8-0.27-2.54l-2.01-3.41c-0.45-0.75-1.05-0.84-1.35-0.18l-1.38,3.08
		c-0.3,0.66-0.15,1.8,0.27,2.54l2.01,3.41C45.15,43.71,45.33,44.13,45.6,43.59L45.6,43.59z M44.04,44.52l-3.95-0.15
		c-0.72-0.03-1.65-0.75-2.1-1.5l-2.01-3.41c-0.45-0.75-0.24-1.32,0.48-1.26l3.35,0.33c0.72,0.06,1.65,0.75,2.1,1.5l2.01,3.41
		C44.4,44.16,44.64,44.52,44.04,44.52L44.04,44.52z M45.03,44.99l0.51-0.3c0.06-0.03,0.15-0.03,0.21,0.06l3.5,5.93
		c0.03,0.06,0.03,0.15-0.06,0.21l-0.51,0.3c-0.06,0.03-0.15,0.03-0.21-0.06l-3.5-5.93C44.94,45.11,44.97,45.02,45.03,44.99
		L45.03,44.99z M33.69,19.88l-0.36,0.63c-0.12,0.18-0.12,0.51,0,0.75l3.83,6.5c0.12,0.21,0.33,0.24,0.45,0.06L38,27.25
		c0.12-0.18,0.12-0.51,0-0.75l-3.86-6.53C34.02,19.7,33.81,19.67,33.69,19.88L33.69,19.88z M29.17,22.4h0.72
		c0.24,0,0.51,0.15,0.66,0.36l3.92,6.58c0.12,0.21,0.06,0.42-0.18,0.42l-0.72,0.06c-0.24,0.03-0.51-0.15-0.66-0.36l-3.92-6.61
		C28.84,22.61,28.93,22.4,29.17,22.4L29.17,22.4z M59.64,29.73l-3.62,6.29l7.87,13.62l-8.77,0.03l-1.41-2.45l-6.14-10.78l0,0l0,0
		l2.18-3.83l1.62-2.87L59.64,29.73L59.64,29.73z M20.73,42.24l3.59-6.23L16.45,22.4l7.81-0.03l7.51,13.14l-2.16,3.83l-1.65,2.87
		L20.73,42.24L20.73,42.24z"/>
</g>
</svg>
