<?xml version="1.0" encoding="utf-8"?>
<!-- Generator: Adobe Illustrator 24.1.2, SVG Export Plug-In . SVG Version: 6.00 Build 0)  -->
<svg version="1.1" id="Layer_1" xmlns="http://www.w3.org/2000/svg" xmlns:xlink="http://www.w3.org/1999/xlink" x="0px" y="0px"
	 viewBox="0 0 283 272.1" style="enable-background:new 0 0 283 272.1;" xml:space="preserve">
<style type="text/css">
	.st0{opacity:0.15;fill:#231F20;enable-background:new    ;}
	.st1{fill:#FEF8CB;}
	.st2{fill:#433E40;}
	.st3{fill:#49494B;}
	.st4{opacity:0.05;fill:#FFFFFF;enable-background:new    ;}
	.st5{fill-rule:evenodd;clip-rule:evenodd;fill:#ED1C24;}
	.st6{fill-rule:evenodd;clip-rule:evenodd;fill:#FFFFFF;}
	.st7{fill:#DCDDDE;}
	.st8{fill:#E9E9EA;}
	.st9{fill:none;}
	.st10{enable-background:new    ;}
	.st11{fill:#231F20;}
	.st12{fill:#86888A;}
	.st13{clip-path:url(#SVGID_2_);}
	.st14{clip-path:url(#SVGID_4_);}
	.st15{clip-path:url(#SVGID_6_);fill:url(#SVGID_7_);}
	.st16{clip-path:url(#SVGID_9_);fill:#FFFFFF;}
	.st17{fill-rule:evenodd;clip-rule:evenodd;fill:#ED1C2D;}
	.st18{fill:#4C4D4F;}
</style>
<g>
	<polyline class="st0" points="154.7,256.8 276.1,210 177.5,210 167.7,213.1 	"/>
	<g>
		<path class="st1" d="M151.4,6.3h-118c-11.3,0-20.5,9.2-20.5,20.5v211.4c0,11.3,9.2,20.5,20.5,20.5h118c11.3,0,20.5-9.2,20.5-20.4
			V26.8C171.9,15.5,162.7,6.3,151.4,6.3z M45.3,81c-0.4,0-0.8-0.1-1.2-0.1c-0.1,0.2-0.2,0.3-0.4,0.3c-0.1,0-0.2,0-0.3-0.1
			c-0.1,0-0.1,0.1-0.2,0.1c-0.3,0-0.5-0.3-0.5-0.5c0-0.1-0.1-0.2-0.1-0.3c0-0.3,0.2-0.5,0.5-0.5c0.7-0.1,1.5,0.1,2.2,0.1
			c0.3,0,0.5,0.2,0.5,0.5C45.9,80.8,45.6,81,45.3,81z M70,81.1c-0.6,0-1.3,0-1.9-0.1c-0.3,0-0.5-0.2-0.5-0.5c0-0.1,0.1-0.3,0.1-0.4
			c0.1-0.1,0.2-0.2,0.4-0.1c0.6,0.1,1.3,0.1,1.9,0.1c0.3,0,0.5,0.2,0.5,0.5S70.3,81.1,70,81.1z M91.7,81.1c-0.7,0-1.4,0-2.1-0.2
			c-0.3-0.1-0.4-0.3-0.3-0.6c0.1-0.3,0.4-0.4,0.6-0.3c0.2,0,0.3,0.1,0.5,0.1h0.1c0,0,0,0,0.1,0s0.1,0,0.2,0c0.3,0,0.7,0,1,0
			s0.5,0.2,0.5,0.5C92.3,80.9,92,81.1,91.7,81.1z M99.1,81.1c-0.1,0.1-0.2,0.1-0.4,0.1c-0.4,0-0.9,0-1.3-0.1
			c-0.5-0.1-0.9-0.4-1.1-0.8c-0.1-0.2,0-0.5,0.2-0.7c0.2-0.1,0.6,0,0.7,0.2c0,0,0,0,0,0.1c0,0,0,0,0.1,0.1l0,0l0,0l0,0
			c0.1,0,0.2,0.1,0.2,0.1l0,0h0.1c0.1,0,0.2,0,0.3,0.1H98l0,0l0,0c0.2,0,0.3,0,0.5,0c0.3,0,0.5,0.3,0.5,0.5
			C99.2,80.8,99.1,81,99.1,81.1z M113.8,81.1c-0.1,0.1-0.2,0.2-0.4,0.1c-0.4,0-0.8-0.1-1.2-0.3c-0.4-0.2-0.7-0.4-1-0.8
			c-0.1-0.1-0.1-0.3-0.1-0.4s0.1-0.2,0.2-0.3c0.1-0.1,0.3-0.1,0.4-0.1s0.2,0.1,0.3,0.2c-0.1-0.1,0,0,0,0s0,0.1,0.1,0.1l0.1,0.1l0,0
			c0.1,0.1,0.2,0.2,0.4,0.2l0,0h0.1c0.1,0,0.1,0,0.2,0.1c0.1,0,0.3,0.1,0.4,0.1l0,0l0,0l0,0l0,0c0.1,0,0.2,0.1,0.3,0.1
			c0.1,0.1,0.1,0.2,0.1,0.4C114,80.8,113.9,81,113.8,81.1z M119.1,80.9c-0.5,0.3-1.1,0.4-1.7,0.3c-0.3,0-0.6-0.1-0.8-0.3
			c-0.3-0.2-0.5-0.5-0.6-0.8s0.1-0.5,0.3-0.6c0.3-0.1,0.5,0.1,0.6,0.3c-0.1-0.2,0,0,0,0s0,0,0,0.1c-0.1-0.1,0-0.1,0,0L117,80l0,0
			c0,0,0,0,0.1,0c0,0,0,0,0.1,0l0,0c0,0,0,0,0.1,0s0.1,0,0.2,0l0,0l0,0c0.1,0,0.2,0,0.3,0c0.1,0,0.1,0,0.2,0c0,0,0,0,0.1,0
			s0.2,0,0.3-0.1c0,0,0.2-0.1,0.1,0c0,0,0.1,0,0.1-0.1c0.2-0.1,0.5-0.1,0.7,0.2C119.4,80.5,119.3,80.8,119.1,80.9z"/>
		<path class="st2" d="M19.5,27.3v198.3h143V27.3H19.5z M45.3,81c-0.4,0-0.8-0.1-1.2-0.1c-0.1,0.2-0.2,0.3-0.4,0.3
			c-0.1,0-0.2,0-0.3-0.1c-0.1,0-0.1,0.1-0.2,0.1c-0.3,0-0.5-0.3-0.5-0.5c0-0.1-0.1-0.2-0.1-0.3c0-0.3,0.2-0.5,0.5-0.5
			c0.7-0.1,1.5,0.1,2.2,0.1c0.3,0,0.5,0.2,0.5,0.5C45.9,80.8,45.6,81,45.3,81z M70,81.1c-0.6,0-1.3,0-1.9-0.1
			c-0.3,0-0.5-0.2-0.5-0.5c0-0.1,0.1-0.3,0.1-0.4c0.1-0.1,0.2-0.2,0.4-0.1c0.6,0.1,1.3,0.1,1.9,0.1c0.3,0,0.5,0.2,0.5,0.5
			S70.3,81.1,70,81.1z M91.7,81.1c-0.7,0-1.4,0-2.1-0.2c-0.3-0.1-0.4-0.3-0.3-0.6c0.1-0.3,0.4-0.4,0.6-0.3c0.2,0,0.3,0.1,0.5,0.1
			h0.1c0,0,0,0,0.1,0s0.1,0,0.2,0c0.3,0,0.7,0,1,0s0.5,0.2,0.5,0.5C92.3,80.9,92,81.1,91.7,81.1z M99.1,81.1
			c-0.1,0.1-0.2,0.1-0.4,0.1c-0.4,0-0.9,0-1.3-0.1c-0.5-0.1-0.9-0.4-1.1-0.8c-0.1-0.2,0-0.5,0.2-0.7c0.2-0.1,0.6,0,0.7,0.2
			c0,0,0,0,0,0.1c0,0,0,0,0.1,0.1l0,0l0,0l0,0c0.1,0,0.2,0.1,0.2,0.1l0,0h0.1c0.1,0,0.2,0,0.3,0.1H98l0,0l0,0c0.2,0,0.3,0,0.5,0
			c0.3,0,0.5,0.3,0.5,0.5C99.2,80.8,99.1,81,99.1,81.1z M113.8,81.1c-0.1,0.1-0.2,0.2-0.4,0.1c-0.4,0-0.8-0.1-1.2-0.3
			c-0.4-0.2-0.7-0.4-1-0.8c-0.1-0.1-0.1-0.3-0.1-0.4s0.1-0.2,0.2-0.3c0.1-0.1,0.3-0.1,0.4-0.1s0.2,0.1,0.3,0.2c-0.1-0.1,0,0,0,0
			s0,0.1,0.1,0.1l0.1,0.1l0,0c0.1,0.1,0.2,0.2,0.4,0.2l0,0h0.1c0.1,0,0.1,0,0.2,0.1c0.1,0,0.3,0.1,0.4,0.1l0,0l0,0l0,0l0,0
			c0.1,0,0.2,0.1,0.3,0.1c0.1,0.1,0.1,0.2,0.1,0.4C114,80.8,113.9,81,113.8,81.1z M119.1,80.9c-0.5,0.3-1.1,0.4-1.7,0.3
			c-0.3,0-0.6-0.1-0.8-0.3c-0.3-0.2-0.5-0.5-0.6-0.8s0.1-0.5,0.3-0.6c0.3-0.1,0.5,0.1,0.6,0.3c-0.1-0.2,0,0,0,0s0,0,0,0.1
			c-0.1-0.1,0-0.1,0,0L117,80l0,0c0,0,0,0,0.1,0c0,0,0,0,0.1,0l0,0c0,0,0,0,0.1,0s0.1,0,0.2,0l0,0l0,0c0.1,0,0.2,0,0.3,0
			c0.1,0,0.1,0,0.2,0c0,0,0,0,0.1,0s0.2,0,0.3-0.1c0,0,0.2-0.1,0.1,0c0,0,0.1,0,0.1-0.1c0.2-0.1,0.5-0.1,0.7,0.2
			C119.4,80.5,119.3,80.8,119.1,80.9z"/>
		<ellipse class="st3" cx="92.4" cy="243.4" rx="10.7" ry="10"/>
		<g>
			<path class="st3" d="M107.5,20.5c0,0.4-0.9,0.8-2,0.8H75.3c-1.1,0-2-0.3-2-0.8s0.9-0.8,2-0.8h30.2
				C106.6,19.8,107.5,20.1,107.5,20.5z"/>
		</g>
		<path class="st4" d="M19.5,27.3l143.1,198.3V27.3H19.5z M70,81.1c-0.6,0-1.3,0-1.9-0.1c-0.3,0-0.5-0.2-0.5-0.5
			c0-0.1,0.1-0.3,0.1-0.4c0.1-0.1,0.2-0.2,0.4-0.1c0.6,0.1,1.3,0.1,1.9,0.1c0.3,0,0.5,0.2,0.5,0.5S70.3,81.1,70,81.1z M91.7,81.1
			c-0.7,0-1.4,0-2.1-0.2c-0.3-0.1-0.4-0.3-0.3-0.6c0.1-0.3,0.4-0.4,0.6-0.3c0.2,0,0.3,0.1,0.5,0.1h0.1c0,0,0,0,0.1,0s0.1,0,0.2,0
			c0.3,0,0.7,0,1,0s0.5,0.2,0.5,0.5C92.3,80.9,92,81.1,91.7,81.1z M99.1,81.1c-0.1,0.1-0.2,0.1-0.4,0.1c-0.4,0-0.9,0-1.3-0.1
			c-0.5-0.1-0.9-0.4-1.1-0.8c-0.1-0.2,0-0.5,0.2-0.7c0.2-0.1,0.6,0,0.7,0.2c0,0,0,0,0,0.1c0,0,0,0,0.1,0.1l0,0l0,0l0,0
			c0.1,0,0.2,0.1,0.2,0.1l0,0h0.1c0.1,0,0.2,0,0.3,0.1H98l0,0l0,0c0.2,0,0.3,0,0.5,0c0.3,0,0.5,0.3,0.5,0.5
			C99.2,80.8,99.1,81,99.1,81.1z M113.8,81.1c-0.1,0.1-0.2,0.2-0.4,0.1c-0.4,0-0.8-0.1-1.2-0.3c-0.4-0.2-0.7-0.4-1-0.8
			c-0.1-0.1-0.1-0.3-0.1-0.4s0.1-0.2,0.2-0.3c0.1-0.1,0.3-0.1,0.4-0.1s0.2,0.1,0.3,0.2c-0.1-0.1,0,0,0,0s0,0.1,0.1,0.1l0.1,0.1l0,0
			c0.1,0.1,0.2,0.2,0.4,0.2l0,0h0.1c0.1,0,0.1,0,0.2,0.1c0.1,0,0.3,0.1,0.4,0.1l0,0l0,0l0,0l0,0c0.1,0,0.2,0.1,0.3,0.1
			c0.1,0.1,0.1,0.2,0.1,0.4C114,80.8,113.9,81,113.8,81.1z M119.1,80.9c-0.5,0.3-1.1,0.4-1.7,0.3c-0.3,0-0.6-0.1-0.8-0.3
			c-0.3-0.2-0.5-0.5-0.6-0.8s0.1-0.5,0.3-0.6c0.3-0.1,0.5,0.1,0.6,0.3c-0.1-0.2,0,0,0,0s0,0,0,0.1c-0.1-0.1,0-0.1,0,0L117,80l0,0
			c0,0,0,0,0.1,0c0,0,0,0,0.1,0l0,0c0,0,0,0,0.1,0s0.1,0,0.2,0l0,0l0,0c0.1,0,0.2,0,0.3,0c0.1,0,0.1,0,0.2,0c0,0,0,0,0.1,0
			s0.2,0,0.3-0.1c0,0,0.2-0.1,0.1,0c0,0,0.1,0,0.1-0.1c0.2-0.1,0.5-0.1,0.7,0.2C119.4,80.5,119.3,80.8,119.1,80.9z"/>
	</g>
	<g>
		<path class="st5" d="M81.7,45.8c2.6,0,4.7,2.2,4.7,4.9s-2.1,4.9-4.6,4.9s-4.7-2.2-4.7-4.9C77,48.1,79.1,45.9,81.7,45.8L81.7,45.8z
			"/>
		<path class="st6" d="M81.4,52.6l0.4,0.8l0,0l0.4,0.8l-0.6,1.1L80.5,53H78l0.6-1.1h1.3l0,0h0.5h0.2h0.5l0,0L81.4,52.6L81.4,52.6z
			 M81.7,46.2l1.2,2.3h2.5l-0.6,1.1h-1.3l0,0h-0.1h-0.6l0,0h-0.1h-0.6l0,0L81,47.4L81.7,46.2L81.7,46.2z M80.4,48.5L80.4,48.5
			c0.1-0.1,0.1-0.1,0.2,0l0.6,1.1v0.1h-0.1H81L80.4,48.5C80.3,48.6,80.4,48.5,80.4,48.5L80.4,48.5z M80.8,47.9L80.8,47.9l0.1-0.2H81
			c0.3,0.5,0.8,1.4,1.1,1.9c0.2,0.4,0.1,0.9-0.3,1.2c-0.4,0.2-0.9,0.1-1.1-0.3c-0.3-0.5-0.8-1.4-1.1-2v-0.1h0.1c0,0,0.1,0,0.1,0.1
			l0.8,1.3c0.1,0.2,0.4,0.2,0.6,0.1c-0.2,0.2-0.2,0.4-0.1,0.6c0.1,0.2,0.4,0.3,0.6,0.2s0.3-0.4,0.2-0.7c-0.1-0.2-0.3-0.3-0.5-0.2
			c0.2-0.2,0.3-0.5,0.2-0.6L80.8,47.9L80.8,47.9z M82.6,52l0.3-0.6c0.1-0.1,0-0.3,0-0.4l-0.3-0.6c-0.1-0.1-0.2-0.1-0.2,0l-0.2,0.5
			c0,0.1,0,0.3,0,0.4L82.6,52C82.5,52,82.5,52.1,82.6,52L82.6,52z M82.3,52.2h-0.6c-0.1,0-0.3-0.1-0.3-0.2L81,51.3
			c-0.1-0.1,0-0.2,0.1-0.2h0.5c0.1,0,0.3,0.1,0.3,0.2l0.3,0.6C82.4,52.1,82.4,52.2,82.3,52.2L82.3,52.2z M82.5,52.2L82.5,52.2
			C82.6,52.1,82.6,52.2,82.5,52.2l0.7,1l0,0h-0.1l0,0L82.5,52.2C82.4,52.3,82.4,52.2,82.5,52.2L82.5,52.2z M80.7,48.1L80.7,48.1
			l-0.1,0.2l0.6,1.1h0.1l0.1-0.1v-0.1L80.7,48.1C80.7,48,80.7,48,80.7,48.1L80.7,48.1z M79.9,48.5L79.9,48.5c0.1,0,0.2,0,0.2,0.1
			l0.6,1.1v0.1h-0.1c0,0-0.1,0-0.1-0.1L79.9,48.5L79.9,48.5L79.9,48.5z M84.7,49.7l-0.6,1l1.2,2.3H84l-0.2-0.4l-1-1.8l0,0l0,0
			l0.3-0.6l0.2-0.5H84.7L84.7,49.7z M78.7,51.8l0.6-1L78,48.5h1.2l1.2,2.2L80,51.3l-0.2,0.5H78.7L78.7,51.8z"/>
	</g>
</g>
<path class="st7" d="M148.1,43H33.5c-5.8,0-10.6,5.3-10.6,11.7v21.2c0,6.5,4.8,11.7,10.6,11.7h114.6c5.8,0,10.6-5.3,10.6-11.7V54.7
	C158.7,48.2,153.9,43,148.1,43z"/>
<path class="st8" d="M148.1,43H33.5c-5.8,0-10.6,5.2-10.6,11.7v2h135.8v-2C158.7,48.2,153.9,43,148.1,43z"/>
<rect x="31.8" y="61.4" class="st9" width="85.9" height="9.8"/>
<g>
	<g class="st10">
		<path class="st11" d="M32.8,62.3h0.8v2.5h2.8v-2.5H37v5.9h-0.8v-2.8h-2.8v2.8h-0.8v-5.9C32.6,62.3,32.8,62.3,32.8,62.3z"/>
		<path class="st11" d="M38.3,67.1c0-0.9,0.8-1.4,2.7-1.6c0-0.6-0.2-1.1-0.9-1.1c-0.5,0-1,0.2-1.3,0.5l-0.3-0.5
			c0.4-0.3,1-0.6,1.7-0.6c1.1,0,1.5,0.7,1.5,1.8v2.7h-0.6L41,67.8l0,0c-0.4,0.3-0.9,0.6-1.5,0.6S38.3,67.9,38.3,67.1z M41,67.2V66
			c-1.5,0.2-2,0.5-2,1.1c0,0.5,0.3,0.7,0.8,0.7C40.2,67.8,40.6,67.6,41,67.2z"/>
		<path class="st11" d="M43.8,67.8L43.8,67.8l-0.1,0.4h-0.6v-6.4h0.7v1.8v0.8c0.4-0.3,0.9-0.6,1.4-0.6c1.1,0,1.7,0.9,1.7,2.2
			c0,1.5-0.9,2.4-1.9,2.4C44.7,68.4,44.2,68.2,43.8,67.8z M46.2,66c0-1-0.3-1.6-1.2-1.6c-0.4,0-0.8,0.2-1.2,0.6v2.3
			c0.4,0.3,0.8,0.5,1.1,0.5C45.7,67.7,46.2,67.1,46.2,66z"/>
		<path class="st11" d="M47.8,66.1c0-1.5,1-2.3,2-2.3s2,0.8,2,2.3c0,1.4-1,2.3-2,2.3S47.8,67.5,47.8,66.1z M51.1,66.1
			c0-1-0.5-1.7-1.3-1.7s-1.3,0.7-1.3,1.7s0.5,1.7,1.3,1.7C50.6,67.7,51.1,67.1,51.1,66.1z"/>
		<path class="st11" d="M53,63.9h0.6l0.1,0.6l0,0c0.4-0.4,0.9-0.7,1.5-0.7c0.9,0,1.3,0.6,1.3,1.7v2.8h-0.7v-2.7
			c0-0.8-0.2-1.2-0.8-1.2c-0.5,0-0.8,0.2-1.2,0.7v3.2H53V63.9L53,63.9z"/>
		<path class="st11" d="M57.8,62.5c0-0.3,0.2-0.5,0.5-0.5s0.5,0.2,0.5,0.5S58.6,63,58.3,63S57.8,62.8,57.8,62.5z M57.9,63.9h0.7v4.4
			h-0.7V63.9z"/>
		<path class="st11" d="M60.1,63.9h0.6l0.1,0.6l0,0c0.4-0.4,0.8-0.7,1.4-0.7c0.7,0,1,0.3,1.2,0.8c0.5-0.5,0.9-0.8,1.4-0.8
			c0.9,0,1.3,0.6,1.3,1.7v2.8h-0.7v-2.7c0-0.8-0.3-1.2-0.8-1.2c-0.3,0-0.7,0.2-1.1,0.7v3.2h-0.7v-2.7c0-0.8-0.3-1.2-0.8-1.2
			c-0.3,0-0.7,0.2-1.1,0.7v3.2h-0.7L60.1,63.9L60.1,63.9z"/>
		<path class="st11" d="M69.5,62.3H71c1.8,0,2.8,1.1,2.8,2.9c0,1.8-1,3-2.8,3h-1.5V62.3z M70.9,67.6c1.4,0,2.1-0.9,2.1-2.4
			s-0.7-2.3-2.1-2.3h-0.7v4.7H70.9z"/>
		<path class="st11" d="M74.9,63.9h0.6l0.1,0.8l0,0c0.3-0.6,0.8-0.9,1.2-0.9c0.2,0,0.3,0,0.5,0.1l-0.1,0.7c-0.2-0.1-0.2-0.1-0.4-0.1
			c-0.4,0-0.8,0.3-1.1,1v2.8H75L74.9,63.9L74.9,63.9z"/>
		<path class="st11" d="M77.7,66.1c0-1.5,1-2.3,2-2.3s2,0.8,2,2.3c0,1.4-1,2.3-2,2.3S77.7,67.5,77.7,66.1z M81,66.1
			c0-1-0.5-1.7-1.3-1.7s-1.3,0.7-1.3,1.7s0.5,1.7,1.3,1.7S81,67.1,81,66.1z"/>
		<path class="st11" d="M82.9,63.9h0.6l0.1,0.8l0,0c0.3-0.6,0.8-0.9,1.2-0.9c0.2,0,0.3,0,0.5,0.1l-0.1,0.7c-0.2-0.1-0.2-0.1-0.4-0.1
			c-0.4,0-0.8,0.3-1.1,1v2.8H83L82.9,63.9L82.9,63.9z"/>
		<path class="st11" d="M87.9,62.3h1.8c1.2,0,2,0.4,2,1.5c0,0.6-0.3,1.1-0.9,1.3l0,0c0.7,0.1,1.2,0.6,1.2,1.4c0,1.2-0.9,1.7-2.2,1.7
			h-1.9V62.3L87.9,62.3z M89.5,64.9c1,0,1.4-0.4,1.4-1c0-0.7-0.5-1-1.4-1h-0.9v1.9L89.5,64.9L89.5,64.9z M89.7,67.7
			c1,0,1.6-0.4,1.6-1.2c0-0.7-0.6-1.1-1.6-1.1h-1v2.2L89.7,67.7L89.7,67.7z"/>
		<path class="st11" d="M93.1,63.9h0.6l0.1,0.8l0,0c0.3-0.6,0.8-0.9,1.2-0.9c0.2,0,0.3,0,0.5,0.1l-0.1,0.7c-0.2-0.1-0.2-0.1-0.4-0.1
			c-0.4,0-0.8,0.3-1.1,1v2.8h-0.7L93.1,63.9L93.1,63.9z"/>
		<path class="st11" d="M96,67.1c0-0.9,0.8-1.4,2.7-1.6c0-0.6-0.2-1.1-0.9-1.1c-0.5,0-1,0.2-1.3,0.5l-0.3-0.5c0.4-0.3,1-0.6,1.7-0.6
			c1.1,0,1.5,0.7,1.5,1.8v2.7h-0.6l-0.1-0.5l0,0c-0.4,0.3-0.9,0.6-1.4,0.6C96.5,68.4,96,67.9,96,67.1z M98.7,67.2V66
			c-1.5,0.2-2,0.5-2,1.1c0,0.5,0.3,0.7,0.8,0.7C97.9,67.8,98.2,67.6,98.7,67.2z"/>
		<path class="st11" d="M100.3,67.8l0.4-0.5c0.4,0.3,0.8,0.5,1.3,0.5c0.6,0,0.9-0.3,0.9-0.7c0-0.4-0.5-0.7-1-0.8
			c-0.6-0.2-1.3-0.5-1.3-1.3c0-0.7,0.6-1.2,1.5-1.2c0.5,0,1,0.2,1.4,0.5l-0.3,0.5c-0.3-0.2-0.6-0.4-1-0.4c-0.6,0-0.8,0.3-0.8,0.6
			c0,0.4,0.5,0.6,1,0.8c0.6,0.2,1.3,0.5,1.3,1.3c0,0.7-0.6,1.3-1.6,1.3C101.3,68.4,100.7,68.1,100.3,67.8z"/>
		<path class="st11" d="M104.4,62.5c0-0.3,0.2-0.5,0.5-0.5s0.5,0.2,0.5,0.5s-0.2,0.5-0.5,0.5S104.4,62.8,104.4,62.5z M104.6,63.9
			h0.7v4.4h-0.7V63.9z"/>
		<path class="st11" d="M106.8,67.4v-5.5h0.7v5.6c0,0.2,0.1,0.3,0.2,0.3c0,0,0.1,0,0.2,0l0.1,0.6c-0.1,0-0.2,0.1-0.4,0.1
			C107,68.4,106.8,68,106.8,67.4z"/>
	</g>
</g>
<g>
	<g>
		<path class="st12" d="M135.3,48.9h0.2v0.5l0,0c0.3-0.3,0.6-0.5,1-0.5c0.6,0,0.9,0.4,0.9,1.1v1.8h-0.3V50c0-0.6-0.2-0.9-0.7-0.9
			c-0.3,0-0.6,0.2-0.9,0.5v2.2h-0.3L135.3,48.9L135.3,48.9z"/>
		<path class="st12" d="M138.3,50.3c0-1,0.6-1.5,1.3-1.5s1.3,0.5,1.3,1.5s-0.6,1.5-1.3,1.5S138.3,51.3,138.3,50.3z M140.6,50.3
			c0-0.8-0.4-1.3-1-1.3s-1,0.5-1,1.3s0.4,1.3,1,1.3S140.6,51.1,140.6,50.3z"/>
		<path class="st12" d="M141.4,48.9h0.3l0.5,1.9c0.1,0.3,0.1,0.5,0.2,0.8l0,0c0.1-0.3,0.1-0.5,0.2-0.8l0.5-1.9h0.3l0.5,1.9
			c0.1,0.3,0.1,0.5,0.2,0.8l0,0c0.1-0.3,0.1-0.5,0.2-0.8l0.5-1.9h0.3l-0.8,2.9H144l-0.5-1.8c-0.1-0.3-0.1-0.5-0.2-0.8l0,0
			c-0.1,0.3-0.1,0.6-0.2,0.8l-0.5,1.8h-0.3L141.4,48.9z"/>
	</g>
</g>
<g>
	<g>
		<g>
			<g>
				<g>
					<g>
						<g>
							<g>
								<defs>
									<rect id="SVGID_1_" x="23.8" y="30.1" width="28.1" height="39.8"/>
								</defs>
								<clipPath id="SVGID_2_">
									<use xlink:href="#SVGID_1_"  style="overflow:visible;"/>
								</clipPath>
								<g class="st13">
									<g>
										<g>
											<g>
												<g>
													<g>
														<g>
															<defs>
																<rect id="SVGID_3_" x="23.8" y="30.1" width="28.1" height="39.8"/>
															</defs>
															<clipPath id="SVGID_4_">
																<use xlink:href="#SVGID_3_"  style="overflow:visible;"/>
															</clipPath>
															<g class="st14">
																<g>
																	<g>
																		<g>
																			<g>
																				<g>
																					<g>
																						<defs>
																							<path id="SVGID_5_" d="M43.7,52.9c0,0.1,0,0.2,0,0.3c0,0.3,0,0.6-0.1,0.8c0,0.2-0.1,0.4-0.2,0.6
																								c-0.1,0.2-0.2,0.4-0.4,0.6c-0.2,0.2-0.3,0.3-0.6,0.4c-0.2,0.1-0.4,0.2-0.6,0.2c-0.2,0-0.5,0-0.7,0.1
																								c-0.1,0-0.2,0-0.3,0h-5.7c-0.1,0-0.2,0-0.3,0c-0.3,0-0.6,0-0.8-0.1c-0.2,0-0.4-0.1-0.6-0.2
																								c-0.2-0.1-0.4-0.2-0.6-0.4c-0.2-0.2-0.3-0.3-0.4-0.6c-0.1-0.2-0.2-0.4-0.2-0.6c0-0.2,0-0.5-0.1-0.7
																								c0-0.1,0-0.2,0-0.3v-5.7c0-0.1,0-0.2,0-0.3c0-0.3,0-0.6,0.1-0.8c0-0.2,0.1-0.4,0.2-0.6
																								c0.1-0.2,0.2-0.4,0.4-0.6c0.2-0.2,0.3-0.3,0.6-0.4c0.2-0.1,0.4-0.2,0.6-0.2c0.2,0,0.5,0,0.7-0.1
																								c0.1,0,0.2,0,0.3,0h5.7c0.1,0,0.2,0,0.3,0c0.3,0,0.6,0,0.8,0.1c0.2,0,0.4,0.1,0.6,0.2
																								c0.2,0.1,0.4,0.2,0.6,0.4c0.2,0.2,0.3,0.3,0.4,0.6c0.1,0.2,0.2,0.4,0.2,0.6c0,0.2,0,0.5,0.1,0.7
																								c0,0.1,0,0.2,0,0.3V52.9z"/>
																						</defs>
																						<clipPath id="SVGID_6_">
																							<use xlink:href="#SVGID_5_"  style="overflow:visible;"/>
																						</clipPath>
																						
																							<linearGradient id="SVGID_7_" gradientUnits="userSpaceOnUse" x1="-1637.066" y1="266.3992" x2="-1637.0187" y2="266.3992" gradientTransform="matrix(-1.530000e-05 243.9644 -243.9644 -1.530000e-05 65029.8555 399430.1562)">
																							<stop  offset="0" style="stop-color:#61FD7D"/>
																							<stop  offset="1" style="stop-color:#2BB826"/>
																						</linearGradient>
																						<rect x="32.2" y="44.3" class="st15" width="11.5" height="11.5"/>
																					</g>
																				</g>
																			</g>
																		</g>
																	</g>
																</g>
															</g>
														</g>
													</g>
												</g>
											</g>
										</g>
									</g>
									<g>
										<g>
											<g>
												<g>
													<g>
														<g>
															<defs>
																<rect id="SVGID_8_" x="23.8" y="30.1" width="28.1" height="39.8"/>
															</defs>
															<clipPath id="SVGID_9_">
																<use xlink:href="#SVGID_8_"  style="overflow:visible;"/>
															</clipPath>
															<path class="st16" d="M41,47c-0.8-0.8-1.8-1.2-2.9-1.2c-2.3,0-4.1,1.9-4.1,4.1c0,0.7,0.2,1.4,0.5,2.1l-0.6,2.1
																l2.2-0.6c0.6,0.3,1.3,0.5,2,0.5l0,0l0,0c2.3,0,4.1-1.9,4.1-4.1C42.2,48.9,41.8,47.8,41,47 M38.1,53.4L38.1,53.4
																c-0.6,0-1.2-0.2-1.8-0.5l-0.1-0.1l-1.3,0.3l0.3-1.3l-0.1-0.1c-0.3-0.5-0.5-1.2-0.5-1.8c0-1.9,1.5-3.4,3.4-3.4
																c0.9,0,1.8,0.4,2.4,1c0.7,0.7,1,1.5,1,2.4C41.5,51.9,40,53.4,38.1,53.4 M40,50.8c-0.1,0-0.6-0.3-0.7-0.3
																c-0.1,0-0.2,0-0.2,0s-0.3,0.3-0.3,0.4s-0.1,0.1-0.2,0c-0.1,0-0.4-0.2-0.8-0.5c-0.3-0.3-0.5-0.6-0.6-0.7s0-0.2,0-0.2
																s0.1-0.1,0.2-0.2c0-0.1,0.1-0.1,0.1-0.2s0-0.1,0-0.2s-0.2-0.6-0.3-0.8S37,47.9,37,47.9c-0.1,0-0.1,0-0.2,0
																s-0.2,0-0.3,0.1s-0.4,0.3-0.4,0.9c0,0.5,0.4,1,0.4,1.1s0.7,1.1,1.8,1.6c0.2,0.1,0.4,0.2,0.6,0.2
																c0.2,0.1,0.5,0.1,0.7,0c0.2,0,0.6-0.2,0.7-0.5s0.1-0.5,0.1-0.5C40.1,50.9,40.1,50.9,40,50.8"/>
														</g>
													</g>
												</g>
											</g>
										</g>
									</g>
								</g>
							</g>
						</g>
					</g>
				</g>
			</g>
		</g>
	</g>
</g>
<g>
	<path class="st9" d="M142.6,63.1c5.1,0,9.2,4.1,9.2,9.2s-4.1,9.2-9.2,9.2s-9.2-4.1-9.2-9.2S137.5,63.1,142.6,63.1L142.6,63.1z"/>
	<path class="st17" d="M140,74.7l1,1.7l0,0l1,1.7l-1.3,2.3l-2.8-4.9h-5.6l1.3-2.3h3.1l0,0h1.1h0.3h1.2l0,0L140,74.7L140,74.7z
		 M140.6,60.9l2.8,4.9h5.6l-1.3,2.3h-2.9h-0.1h-0.2h-1.3h-0.1H143h-1.3l0,0l-2.6-4.6L140.6,60.9L140.6,60.9z M137.7,65.8l0.2-0.1
		c0.1,0,0.1,0,0.2,0.1l1.4,2.5c0,0.1,0,0.1-0.1,0.2l-0.2,0.1c-0.1,0-0.1,0-0.2-0.1l-1.4-2.5C137.6,65.9,137.6,65.9,137.7,65.8
		L137.7,65.8z M138.6,64.6c-0.1-0.1-0.1-0.2,0-0.3l0.1-0.2c0-0.1,0.1-0.1,0.2,0c0.7,1.2,1.8,3,2.4,4.2c0.5,0.9,0.2,2-0.7,2.6
		c-0.9,0.5-2.1,0.2-2.6-0.6c-0.7-1.2-1.8-3.1-2.5-4.2c-0.1-0.1,0-0.2,0.1-0.2h0.3c0.1,0,0.2,0.1,0.2,0.2l1.7,2.9
		c0.2,0.4,1,0.4,1.4,0.2c-0.4,0.3-0.4,0.8-0.2,1.3c0.3,0.5,0.9,0.7,1.4,0.4c0.5-0.3,0.7-0.9,0.4-1.4c-0.3-0.4-0.7-0.6-1.2-0.5
		c0.5-0.4,0.7-1,0.5-1.4L138.6,64.6L138.6,64.6z M142.5,73.4l0.6-1.2c0.1-0.2,0.1-0.7-0.1-0.9l-0.7-1.2c-0.2-0.3-0.4-0.3-0.5-0.1
		l-0.5,1.1c-0.1,0.2-0.1,0.7,0.1,0.9l0.7,1.2C142.4,73.4,142.4,73.6,142.5,73.4L142.5,73.4z M142,73.7l-1.4-0.1
		c-0.2,0-0.6-0.3-0.8-0.5l-0.7-1.2c-0.2-0.3-0.1-0.5,0.2-0.4l1.2,0.1c0.2,0,0.6,0.3,0.8,0.5l0.7,1.2C142.1,73.6,142.2,73.7,142,73.7
		L142,73.7z M142.3,73.9l0.2-0.1h0.1l1.2,2.1V76l-0.2,0.1h-0.1L142.3,73.9L142.3,73.9L142.3,73.9z M138.3,64.9l-0.1,0.2
		c0,0.1-0.1,0.2,0,0.3l1.4,2.3c0.1,0.1,0.1,0.1,0.2,0l0.1-0.2c0.1-0.1,0.1-0.2,0-0.3l-1.4-2.3C138.4,64.8,138.3,64.8,138.3,64.9
		L138.3,64.9z M136.7,65.8h0.3c0.1,0,0.2,0.1,0.2,0.1l1.4,2.4c0.1,0.1,0,0.2-0.1,0.2h-0.2c-0.1,0-0.2-0.1-0.2-0.1l-1.4-2.4
		C136.6,65.8,136.6,65.8,136.7,65.8L136.7,65.8z M147.5,68.4l-1.3,2.2l2.8,4.9h-3.1l-0.5-0.9l-2.2-3.9l0,0l0,0l0.8-1.4l0.6-1
		L147.5,68.4L147.5,68.4z M133.7,72.9l1.3-2.2l-2.8-4.9h2.8l2.7,4.7l-0.8,1.4l-0.6,1H133.7L133.7,72.9z"/>
</g>
<rect x="168.2" y="45.8" class="st1" width="7.4" height="17.3"/>
<rect x="9.2" y="74.3" class="st1" width="7.4" height="17.3"/>
<rect x="9.2" y="94.4" class="st1" width="7.4" height="17.3"/>
<g>
	<path class="st18" d="M34.83,76.99h-2.87v2.3h3.1v0.46H31.5v-5.63h3.45v0.46h-2.99v2.07h2.87V76.99z"/>
	<path class="st18" d="M36.21,78.6c0.11,0.57,0.46,0.8,1.15,0.8s1.03-0.34,1.03-0.8s-0.23-0.69-1.03-0.92
		c-1.03-0.23-1.26-0.57-1.26-1.15c0-0.57,0.46-1.03,1.38-1.03s1.38,0.57,1.38,1.15H38.4c-0.11-0.34-0.34-0.8-1.03-0.8
		s-0.92,0.34-0.92,0.69c0,0.34,0.23,0.57,1.03,0.69c1.15,0.23,1.38,0.69,1.38,1.26c0,0.69-0.57,1.15-1.49,1.15s-1.49-0.46-1.61-1.26
		h0.46v0.22H36.21z"/>
	<path class="st18" d="M39.09,75.73h0.69v-1.26h0.46v1.26h0.92v0.34h-0.92v2.64c0,0.46,0.11,0.69,0.46,0.69c0.11,0,0.23,0,0.46,0
		v0.34c-0.11,0-0.34,0.11-0.46,0.11c-0.57,0-0.8-0.23-0.8-0.92v-2.76h-0.7v-0.46h-0.11V75.73z"/>
	<path class="st18" d="M44.83,78.95c0,0.34,0,0.69,0,0.8h-0.34c0-0.11,0-0.23-0.11-0.57c-0.11,0.34-0.46,0.69-1.26,0.69
		c-0.92,0-1.38-0.57-1.38-1.26c0-0.92,0.69-1.26,1.84-1.26c0.34,0,0.57,0,0.8,0v-0.46c0-0.34-0.11-0.92-1.03-0.92
		c-0.8,0-0.92,0.46-1.03,0.8h-0.46c0-0.46,0.34-1.15,1.49-1.15c0.92,0,1.49,0.34,1.49,1.26C44.83,76.88,44.83,78.95,44.83,78.95z
		 M44.49,77.68c-0.11,0-0.57,0-0.8,0c-0.92,0-1.49,0.23-1.49,0.92c0,0.46,0.34,0.8,0.92,0.8c1.15,0,1.26-0.8,1.26-1.61v-0.11H44.49z
		 M44.72,73.66l-1.15,1.26h-0.46l1.15-1.26H44.72z"/>
	<path class="st18" d="M51.27,78.49c-0.23,0.69-0.69,1.26-1.61,1.26c-1.03,0-1.72-0.8-1.72-2.07c0-1.15,0.57-2.18,1.72-2.18
		c1.03,0,1.49,0.69,1.49,1.26h-0.46c-0.11-0.46-0.46-0.92-1.15-0.92c-0.8,0-1.38,0.69-1.38,1.72c0,0.92,0.46,1.72,1.26,1.72
		c0.57,0,0.92-0.34,1.15-0.92h0.69v0.13H51.27z"/>
	<path class="st18" d="M55.52,77.68c0,1.15-0.57,2.07-1.84,2.07c-1.03,0-1.72-0.92-1.72-2.07s0.69-2.07,1.84-2.07
		C54.71,75.61,55.52,76.42,55.52,77.68z M52.3,77.68c0,0.92,0.46,1.72,1.38,1.72c0.92,0,1.38-0.69,1.38-1.72
		c0-0.92-0.46-1.72-1.38-1.72S52.3,76.76,52.3,77.68z"/>
	<path class="st18" d="M56.44,76.76c0-0.34,0-0.69,0-1.03h0.46c0,0.11,0,0.46,0,0.69c0.11-0.34,0.57-0.8,1.15-0.8
		c0.57,0,1.03,0.23,1.15,0.8c0.23-0.46,0.57-0.8,1.26-0.8c0.57,0,1.26,0.34,1.26,1.49v2.64h-0.46v-2.64c0-0.57-0.23-1.15-0.92-1.15
		c-0.8,0-1.15,0.57-1.15,1.38v2.3h-0.46V77c0-0.57-0.23-1.15-0.92-1.15c-0.8,0-1.15,0.69-1.15,1.49v2.41h-0.23L56.44,76.76
		L56.44,76.76z"/>
	<path class="st18" d="M68.05,78.95c0,0.34,0,0.69,0,0.8H67.7c0-0.11,0-0.23-0.11-0.57c-0.11,0.34-0.46,0.69-1.26,0.69
		c-0.92,0-1.38-0.57-1.38-1.26c0-0.92,0.69-1.26,1.84-1.26c0.34,0,0.57,0,0.8,0v-0.46c0-0.34-0.11-0.92-1.03-0.92
		c-0.8,0-0.92,0.46-1.03,0.8h-0.46c0-0.46,0.34-1.15,1.49-1.15c0.92,0,1.49,0.34,1.49,1.26C68.05,76.88,68.05,78.95,68.05,78.95z
		 M67.59,77.68c-0.11,0-0.57,0-0.8,0c-0.92,0-1.49,0.23-1.49,0.92c0,0.46,0.34,0.8,0.92,0.8c1.15,0,1.26-0.8,1.26-1.61v-0.11H67.59z
		"/>
	<path class="st18" d="M69.31,79.75v-5.98h0.46v5.98H69.31z"/>
	<path class="st18" d="M74.14,79.41c0,1.26-0.57,1.95-1.72,1.95c-1.03,0-1.49-0.57-1.61-1.15h0.46c0.11,0.57,0.57,0.8,1.15,0.8
		c1.03,0,1.38-0.69,1.38-1.72v-0.46c-0.23,0.57-0.57,0.8-1.38,0.8c-0.92,0-1.72-0.8-1.72-2.07c0-1.38,0.8-2.07,1.72-2.07
		c0.8,0,1.15,0.34,1.26,0.69c0-0.23,0-0.46,0-0.57h0.34c0,0.11,0,0.8,0,1.15v2.64L74.14,79.41L74.14,79.41z M71.15,77.68
		c0,0.92,0.46,1.61,1.26,1.61c1.03,0,1.26-0.69,1.26-1.72s-0.34-1.61-1.26-1.61S71.15,76.76,71.15,77.68z"/>
	<path class="st18" d="M78.5,78.49c0,0.34,0,1.03,0,1.15h-0.46c0-0.11,0-0.34,0-0.69c-0.11,0.46-0.57,0.8-1.26,0.8
		c-0.57,0-1.26-0.23-1.26-1.49v-2.64h0.46v2.53c0,0.57,0.23,1.15,0.92,1.15c0.92,0,1.26-0.46,1.26-1.61v-2.07h0.46v2.87
		C78.62,78.49,78.5,78.49,78.5,78.49z"/>
	<path class="st18" d="M79.77,76.76c0-0.34,0-0.69,0-1.03h0.46c0,0.11,0,0.46,0,0.69c0.11-0.34,0.57-0.8,1.15-0.8
		c0.57,0,1.03,0.23,1.15,0.8c0.23-0.46,0.57-0.8,1.26-0.8c0.57,0,1.26,0.34,1.26,1.49v2.64H84.6v-2.64c0-0.57-0.23-1.15-0.92-1.15
		c-0.8,0-1.15,0.57-1.15,1.38v2.3h-0.46V77c0-0.57-0.23-1.15-0.92-1.15c-0.8,0-1.15,0.69-1.15,1.49v2.41h-0.46v-2.99H79.77z"/>
	<path class="st18" d="M89.19,78.95c0,0.34,0,0.69,0,0.8h-0.34c0-0.11,0-0.23-0.11-0.57c-0.11,0.23-0.46,0.57-1.26,0.57
		c-0.92,0-1.38-0.57-1.38-1.26c0-0.92,0.69-1.26,1.84-1.26c0.34,0,0.57,0,0.8,0v-0.46c0-0.34-0.11-0.92-1.03-0.92
		c-0.8,0-0.92,0.46-1.03,0.8h-0.34c0-0.46,0.34-1.15,1.49-1.15c0.92,0,1.49,0.34,1.49,1.26v2.18L89.19,78.95L89.19,78.95z
		 M88.73,77.68c-0.11,0-0.57,0-0.8,0c-0.92,0-1.49,0.23-1.49,0.92c0,0.46,0.34,0.8,0.92,0.8c1.15,0,1.26-0.8,1.26-1.61v-0.11H88.73z
		"/>
	<path class="st18" d="M95.74,73.77v4.83c0,0.34,0,0.8,0,1.15H95.4c0-0.11,0-0.46,0-0.69c-0.23,0.46-0.69,0.8-1.38,0.8
		c-1.03,0-1.72-0.8-1.72-2.07c0-1.26,0.69-2.18,1.84-2.18c0.8,0,1.15,0.34,1.26,0.57v-2.41H95.74z M92.76,77.68
		c0,1.15,0.57,1.72,1.26,1.72c1.03,0,1.38-0.69,1.38-1.84c0-1.03-0.23-1.61-1.26-1.61C93.21,75.96,92.76,76.65,92.76,77.68z"/>
	<path class="st18" d="M100.11,78.49c0,0.34,0,1.03,0,1.15h-0.46c0-0.11,0-0.34,0-0.69c-0.11,0.46-0.57,0.8-1.26,0.8
		c-0.57,0-1.26-0.23-1.26-1.49v-2.64h0.46v2.53c0,0.57,0.23,1.15,0.92,1.15c0.92,0,1.26-0.46,1.26-1.61v-2.07h0.34
		C100.11,75.62,100.11,78.49,100.11,78.49z M99.88,73.66l-1.15,1.26h-0.46l1.15-1.26H99.88z"/>
	<path class="st18" d="M101.26,75.73c0.69,1.84,1.15,3.1,1.26,3.56l0,0c0.11-0.34,0.57-1.49,1.26-3.56h0.46l-1.49,4.02h-0.46
		l-1.38-4.02H101.26z"/>
	<path class="st18" d="M105.05,73.77h0.46v0.8h-0.46V73.77z M105.05,75.73h0.46v4.02h-0.46V75.73z"/>
	<path class="st18" d="M109.99,73.77v4.83c0,0.34,0,0.8,0,1.15h-0.34c0-0.11,0-0.46,0-0.69c-0.34,0.46-0.8,0.69-1.49,0.69
		c-1.03,0-1.72-0.8-1.72-2.07s0.69-2.18,1.84-2.18c0.8,0,1.15,0.34,1.26,0.57v-2.41H110v0.11H109.99z M106.89,77.68
		c0,1.15,0.57,1.72,1.26,1.72c1.03,0,1.38-0.69,1.38-1.84c0-1.03-0.23-1.61-1.26-1.61C107.47,75.96,106.89,76.65,106.89,77.68z"/>
	<path class="st18" d="M114.02,78.95c0,0.34,0,0.69,0,0.8h-0.34c0-0.11,0-0.23-0.11-0.57c-0.11,0.34-0.46,0.69-1.26,0.69
		c-0.92,0-1.38-0.57-1.38-1.26c0-0.92,0.69-1.26,1.84-1.26c0.34,0,0.57,0,0.8,0v-0.46c0-0.34-0.11-0.92-1.03-0.92
		c-0.8,0-0.92,0.46-1.03,0.8h-0.46c0-0.46,0.34-1.15,1.49-1.15c0.92,0,1.49,0.34,1.49,1.26v2.07H114.02z M113.56,77.68
		c-0.11,0-0.57,0-0.8,0c-0.92,0-1.49,0.23-1.49,0.92c0,0.46,0.34,0.8,0.92,0.8c1.15,0,1.26-0.8,1.26-1.61v-0.11H113.56z"/>
	<path class="st18" d="M116.32,78.03L116.32,78.03c0-0.46,0.11-0.92,0.69-1.49c0.57-0.46,0.57-0.8,0.57-1.26s-0.23-1.03-1.03-1.03
		c-0.69,0-1.03,0.46-1.15,1.03h-0.34c0-0.34,0.34-1.49,1.61-1.49c1.03,0,1.49,0.8,1.49,1.38c0,0.57-0.23,1.03-0.8,1.49
		c-0.46,0.34-0.57,0.69-0.57,1.15l0,0h-0.46v0.22H116.32z M116.32,79.75v-0.92h0.46v0.92H116.32z"/>
</g>
<g>
	<path class="st12" d="M52.5,50.4c0-1,0-1.9,0-2.4l0,0c-0.2,0.7-1.2,3.1-1.8,4.6h-0.4c-0.5-1.2-1.5-3.9-1.7-4.6l0,0
		c0,0.6,0,1.7,0,2.5v2.1h-0.4v-4.9h0.6c0.7,1.7,1.5,3.9,1.7,4.4l0,0c0.1-0.4,1.1-2.8,1.8-4.4h0.6v4.9h-0.4
		C52.5,52.6,52.5,50.4,52.5,50.4z"/>
	<path class="st12" d="M54.2,50.9c0,0.9,0.5,1.5,1.1,1.5c0.7,0,0.9-0.4,1-0.7h0.4c-0.1,0.5-0.5,1-1.4,1c-1.1,0-1.5-0.9-1.5-1.8
		c0-1,0.5-1.9,1.5-1.9c1.1,0,1.4,0.9,1.4,1.6c0,0.1,0,0.2,0,0.3C56.7,50.9,54.2,50.9,54.2,50.9z M56.4,50.6c0-0.7-0.4-1.2-1.1-1.2
		c-0.7,0-1,0.5-1.1,1.2H56.4z"/>
	<path class="st12" d="M57.6,50c0-0.3,0-0.6,0-0.9H58c0,0.1,0,0.6,0,0.7c0.2-0.4,0.4-0.7,1.2-0.7c0.6,0,1.2,0.4,1.2,1.3v2.3H60v-2.2
		c0-0.6-0.3-1-0.9-1c-0.8,0-1.1,0.7-1.1,1.4v1.8h-0.4V50z"/>
	<path class="st12" d="M61.5,51.6c0.1,0.5,0.4,0.7,1,0.7s0.9-0.3,0.9-0.7s-0.2-0.6-0.9-0.8c-0.9-0.2-1.1-0.5-1.1-1s0.4-0.9,1.2-0.9
		s1.2,0.5,1.2,1h-0.4c-0.1-0.3-0.3-0.7-0.9-0.7c-0.6,0-0.8,0.3-0.8,0.6s0.2,0.5,0.9,0.6c1,0.2,1.2,0.6,1.2,1.1c0,0.6-0.5,1-1.3,1
		s-1.3-0.4-1.4-1.1h0.4C61.5,51.4,61.5,51.6,61.5,51.6z"/>
	<path class="st12" d="M67,51.9c0,0.3,0,0.6,0,0.7h-0.3c0-0.1,0-0.2-0.1-0.5c-0.1,0.3-0.4,0.6-1.1,0.6c-0.8,0-1.2-0.5-1.2-1.1
		c0-0.8,0.6-1.1,1.6-1.1c0.3,0,0.5,0,0.7,0v-0.4c0-0.3-0.1-0.8-0.9-0.8c-0.7,0-0.8,0.4-0.9,0.7h-0.4c0-0.4,0.3-1,1.3-1
		c0.8,0,1.3,0.3,1.3,1.1V51.9z M66.7,50.8c-0.1,0-0.5,0-0.7,0c-0.8,0-1.3,0.2-1.3,0.8c0,0.4,0.3,0.7,0.8,0.7c1,0,1.1-0.7,1.1-1.4
		v-0.1H66.7z"/>
	<path class="st12" d="M70.9,52.4c0,1.1-0.5,1.7-1.5,1.7c-0.9,0-1.3-0.5-1.4-1h0.4c0.1,0.5,0.5,0.7,1,0.7c0.9,0,1.2-0.6,1.2-1.5
		v-0.4c-0.2,0.5-0.5,0.7-1.2,0.7c-0.8,0-1.5-0.7-1.5-1.8c0-1.2,0.7-1.8,1.5-1.8c0.7,0,1,0.3,1.1,0.6c0-0.2,0-0.4,0-0.5h0.3
		c0,0.1,0,0.7,0,1v2.3H70.9z M68.3,50.8c0,0.8,0.4,1.4,1.1,1.4c0.9,0,1.1-0.6,1.1-1.5s-0.3-1.4-1.1-1.4C68.6,49.4,68.3,50,68.3,50.8
		z"/>
	<path class="st12" d="M72.1,50.9c0,0.9,0.5,1.5,1.1,1.5c0.7,0,0.9-0.4,1-0.7h0.4c-0.1,0.5-0.5,1-1.4,1c-1.1,0-1.5-0.9-1.5-1.8
		c0-1,0.5-1.9,1.5-1.9c1.1,0,1.4,0.9,1.4,1.6c0,0.1,0,0.2,0,0.3C74.6,50.9,72.1,50.9,72.1,50.9z M74.3,50.6c0-0.7-0.4-1.2-1.1-1.2
		s-1,0.5-1.1,1.2H74.3z"/>
	<path class="st12" d="M75.5,50c0-0.3,0-0.6,0-0.9h0.4c0,0.1,0,0.4,0,0.6c0.1-0.3,0.5-0.7,1-0.7s0.9,0.2,1,0.7
		c0.2-0.4,0.5-0.7,1.1-0.7c0.5,0,1.1,0.3,1.1,1.3v2.3h-0.4v-2.3c0-0.5-0.2-1-0.8-1c-0.7,0-1,0.5-1,1.2v2h-0.4v-2.3
		c0-0.5-0.2-1-0.8-1c-0.7,0-1,0.6-1,1.3v1.9h-0.4V50H75.5z"/>
</g>
</svg>
