<?xml version="1.0" encoding="utf-8"?>
<!-- Generator: Adobe Illustrator 24.1.2, SVG Export Plug-In . SVG Version: 6.00 Build 0)  -->
<svg version="1.1" id="Layer_1" xmlns="http://www.w3.org/2000/svg" xmlns:xlink="http://www.w3.org/1999/xlink" x="0px" y="0px"
	 viewBox="0 0 588.7 305.5" style="enable-background:new 0 0 588.7 305.5;" xml:space="preserve">
<style type="text/css">
	.st0{fill:#BEC0C2;}
	.st1{fill:#542C37;}
	.st2{fill:#FFFFFF;}
	.st3{clip-path:url(#SVGID_2_);}
	.st4{fill:#E4E0D0;}
	.st5{fill:#DF0031;}
	.st6{opacity:0.35;fill:#DF0031;enable-background:new    ;}
	.st7{fill:#F5AE00;}
	.st8{fill:#25B1B6;}
	.st9{clip-path:url(#SVGID_4_);}
	.st10{fill:#A1B0AE;}
	.st11{opacity:0.35;fill:#A1B0AE;enable-background:new    ;}
	.st12{clip-path:url(#SVGID_6_);}
	.st13{opacity:0.35;fill:#542C37;enable-background:new    ;}
	.st14{fill:none;}
	.st15{enable-background:new    ;}
	.st16{fill-rule:evenodd;clip-rule:evenodd;fill:#C1272D;}
	.st17{fill-rule:evenodd;clip-rule:evenodd;fill:#FFFFFF;}
	.st18{fill:#E8E3FF;}
	.st19{fill:#FFB5B8;}
	.st20{fill:#010101;}
	.st21{fill:#3F3E3C;}
	.st22{fill:#FF7450;}
	.st23{fill:none;stroke:#FF7450;stroke-width:0.6545;stroke-miterlimit:10;}
	.st24{fill:none;stroke:#010101;stroke-width:1.309;stroke-miterlimit:10;}
	.st25{fill:#FFA700;}
	.st26{fill:#4765FF;}
	.st27{fill:#004F87;}
	.st28{fill:#9BE0F8;}
	.st29{fill:#003961;}
	.st30{fill:#AE592B;}
	.st31{fill:#893D20;}
	.st32{fill:#FFDB88;}
	.st33{fill:#FFB239;}
	.st34{fill:#79C1ED;}
	.st35{fill:#F52314;}
</style>
<polygon class="st0" points="87.2,130.8 569.9,16.4 575.2,277.1 87.2,155.9 87.2,134.7 "/>
<g>
	<g>
		<polygon class="st1" points="276.4,162.7 310.5,143 310.5,86.6 276.4,106.3 		"/>
		<path class="st2" d="M276.4,106.6l34-19.5c0,0,0.3,1,2.8,2.9c2.5,2,7.3,2.7,7.3,2.7l-34.9,20c0,0-4,0.1-6-1.7
			C277.6,109.2,276.4,106.6,276.4,106.6z"/>
		<g>
			<g>
				<g>
					<defs>
						<path id="SVGID_1_" d="M276.4,106.6l34-19.5c0,0,0.3,1,2.8,2.9c2.5,2,7.3,2.7,7.3,2.7l-34.9,20c0,0-4,0.1-6-1.7
							C277.6,109.2,276.4,106.6,276.4,106.6z"/>
					</defs>
					<clipPath id="SVGID_2_">
						<use xlink:href="#SVGID_1_"  style="overflow:visible;"/>
					</clipPath>
					<g class="st3">
						<g>
							<polygon class="st4" points="326.2,79.6 267,113.8 266.7,113.6 325.9,79.4 							"/>
						</g>
						<g>
							<polygon class="st4" points="327.3,80.3 268.2,114.4 267.9,114.2 327,80.1 							"/>
						</g>
						<g>
							<polygon class="st4" points="328.5,80.9 269.4,115.1 269.1,114.9 328.2,80.8 							"/>
						</g>
						<g>
							<polygon class="st4" points="329.7,81.6 270.5,115.8 270.2,115.6 329.4,81.4 							"/>
						</g>
						<g>
							<polygon class="st4" points="330.8,82.3 271.7,116.4 271.4,116.3 330.5,82.1 							"/>
						</g>
						<g>
							<polygon class="st4" points="332,83 272.9,117.1 272.6,116.9 331.7,82.8 							"/>
						</g>
						<g>
							<polygon class="st4" points="333.1,83.6 274,117.8 273.7,117.6 332.9,83.5 							"/>
						</g>
					</g>
				</g>
			</g>
		</g>
		<polygon class="st1" points="286.3,168.6 320.5,148.8 320.5,92.4 286.3,112.1 		"/>
		<g>
			<g>
				<path class="st5" d="M276.4,162.7c3,4.2,7.1,6.1,10.2,5.9c0-18.8,0-37.6,0-56.5c-3,0.2-7.1-1.7-10.2-5.9
					C276.4,125.1,276.4,143.9,276.4,162.7z"/>
				<path class="st6" d="M281.6,110.9c0,18.8,0,37.6,0,56.5c-1.8-1-3.7-2.5-5.2-4.7c0-18.8,0-37.6,0-56.5
					C277.9,108.4,279.8,109.9,281.6,110.9z"/>
				<path class="st7" d="M276.4,112.2c3,4.2,7.1,6.1,10.2,5.9c0-0.2,0-0.5,0-0.8c-3,0.2-7.1-1.7-10.2-5.9
					C276.4,111.8,276.4,112,276.4,112.2z"/>
				<path class="st7" d="M276.4,114.9c3,4.2,7.1,6.1,10.2,5.9c0-0.2,0-0.5,0-0.8c-3,0.2-7.1-1.7-10.2-5.9
					C276.4,114.4,276.4,114.7,276.4,114.9z"/>
				<g>
					<path class="st7" d="M276.4,131.4c3,4.2,7.1,6.1,10.2,5.9c0-0.2,0-0.5,0-0.8c-3,0.2-7.1-1.7-10.2-5.9
						C276.4,130.9,276.4,131.2,276.4,131.4z"/>
					<path class="st7" d="M276.4,134.1c3,4.2,7.1,6.1,10.2,5.9c0-0.2,0-0.5,0-0.8c-3,0.2-7.1-1.7-10.2-5.9
						C276.4,133.6,276.4,133.9,276.4,134.1z"/>
				</g>
				<g>
					<path class="st7" d="M276.4,155.3c3,4.2,7.1,6.1,10.2,5.9c0-0.2,0-0.5,0-0.8c-3,0.2-7.1-1.7-10.2-5.9
						C276.4,154.8,276.4,155,276.4,155.3z"/>
					<path class="st7" d="M276.4,158c3,4.2,7.1,6.1,10.2,5.9c0-0.2,0-0.5,0-0.8c-3,0.2-7.1-1.7-10.2-5.9
						C276.4,157.5,276.4,157.7,276.4,158z"/>
				</g>
			</g>
		</g>
	</g>
	<g>
		<polygon class="st8" points="293.3,166.9 327.4,147.2 327.4,90.8 293.3,110.5 		"/>
		<path class="st2" d="M293.3,110.8l34-19.6c0,0,0.3,1,2.8,2.9c2.5,2,7.3,2.7,7.3,2.7l-34.9,20c0,0-4,0.1-6-1.7
			C294.5,113.5,293.3,110.8,293.3,110.8z"/>
		<g>
			<g>
				<g>
					<defs>
						<path id="SVGID_3_" d="M293.3,110.7l34-19.5c0,0,0.3,1,2.8,2.9c2.5,2,7.3,2.7,7.3,2.7l-34.9,20c0,0-4,0.1-6-1.7
							C294.5,113.4,293.3,110.7,293.3,110.7z"/>
					</defs>
					<clipPath id="SVGID_4_">
						<use xlink:href="#SVGID_3_"  style="overflow:visible;"/>
					</clipPath>
					<g class="st9">
						<g>
							<polygon class="st4" points="343,83.7 283.9,117.9 283.6,117.7 342.8,83.6 							"/>
						</g>
						<g>
							<polygon class="st4" points="344.2,84.4 285.1,118.5 284.8,118.4 343.9,84.2 							"/>
						</g>
						<g>
							<polygon class="st4" points="345.4,85.1 286.2,119.2 285.9,119 345.1,84.9 							"/>
						</g>
						<g>
							<polygon class="st4" points="346.5,85.7 287.4,119.9 287.1,119.7 346.2,85.6 							"/>
						</g>
						<g>
							<polygon class="st4" points="347.7,86.4 288.6,120.6 288.3,120.4 347.4,86.2 							"/>
						</g>
						<g>
							<polygon class="st4" points="348.9,87.1 289.7,121.2 289.4,121.1 348.6,86.9 							"/>
						</g>
						<g>
							<polygon class="st4" points="350,87.8 290.9,121.9 290.6,121.7 349.7,87.6 							"/>
						</g>
					</g>
				</g>
			</g>
		</g>
		<polygon class="st8" points="303.2,172.8 337.4,153.1 337.4,96.6 303.2,116.3 		"/>
		<g>
			<g>
				<path class="st10" d="M293.3,166.9c3,4.2,7.1,6.1,10.2,5.9c0-18.8,0-37.6,0-56.5c-3,0.2-7.1-1.7-10.2-5.9
					C293.3,129.3,293.3,148.1,293.3,166.9z"/>
				<path class="st11" d="M298.5,115.1c0,18.8,0,37.6,0,56.5c-1.8-1-3.7-2.5-5.2-4.7c0-18.8,0-37.6,0-56.5
					C294.8,112.6,296.7,114.1,298.5,115.1z"/>
				<path class="st7" d="M293.3,116.5c3,4.2,7.1,6.1,10.2,5.9c0-0.2,0-0.5,0-0.8c-3,0.2-7.1-1.7-10.2-5.9
					C293.3,116,293.3,116.2,293.3,116.5z"/>
				<path class="st7" d="M293.3,119.2c3,4.2,7.1,6.1,10.2,5.9c0-0.2,0-0.5,0-0.8c-3,0.2-7.1-1.7-10.2-5.9
					C293.3,118.7,293.3,118.9,293.3,119.2z"/>
				<g>
					<path class="st7" d="M293.3,135.6c3,4.2,7.1,6.1,10.2,5.9c0-0.2,0-0.5,0-0.8c-3,0.2-7.1-1.7-10.2-5.9
						C293.3,135.1,293.3,135.4,293.3,135.6z"/>
					<path class="st7" d="M293.3,138.3c3,4.2,7.1,6.1,10.2,5.9c0-0.2,0-0.5,0-0.8c-3,0.2-7.1-1.7-10.2-5.9
						C293.3,137.8,293.3,138.1,293.3,138.3z"/>
				</g>
				<g>
					<path class="st7" d="M293.3,159.5c3,4.2,7.1,6.1,10.2,5.9c0-0.2,0-0.5,0-0.8c-3,0.2-7.1-1.7-10.2-5.9
						C293.3,159,293.3,159.2,293.3,159.5z"/>
					<path class="st7" d="M293.3,162.2c3,4.2,7.1,6.1,10.2,5.9c0-0.2,0-0.5,0-0.8c-3,0.2-7.1-1.7-10.2-5.9
						C293.3,161.7,293.3,161.9,293.3,162.2z"/>
				</g>
			</g>
		</g>
	</g>
	<g>
		<polygon class="st5" points="309.5,171.1 343.7,151.4 343.7,95 309.5,114.7 		"/>
		<path class="st2" d="M309.6,115l34-19.5c0,0,0.3,1,2.8,2.9c2.5,2,7.3,2.7,7.3,2.7l-34.9,20c0,0-4,0.1-6-1.7
			C310.8,117.7,309.6,115,309.6,115z"/>
		<g>
			<g>
				<g>
					<defs>
						<path id="SVGID_5_" d="M309.6,115l34-19.5c0,0,0.3,1,2.8,2.9c2.5,2,7.3,2.7,7.3,2.7l-34.9,20c0,0-4,0.1-6-1.7
							C310.8,117.6,309.6,115,309.6,115z"/>
					</defs>
					<clipPath id="SVGID_6_">
						<use xlink:href="#SVGID_5_"  style="overflow:visible;"/>
					</clipPath>
					<g class="st12">
						<g>
							<polygon class="st4" points="359.4,88 300.2,122.1 299.9,121.9 359.1,87.8 							"/>
						</g>
						<g>
							<polygon class="st4" points="360.5,88.6 301.4,122.8 301.1,122.6 360.2,88.5 							"/>
						</g>
						<g>
							<polygon class="st4" points="361.7,89.3 302.6,123.5 302.3,123.3 361.4,89.2 							"/>
						</g>
						<g>
							<polygon class="st4" points="362.9,90 303.7,124.1 303.4,124 362.6,89.8 							"/>
						</g>
						<g>
							<polygon class="st4" points="364,90.7 304.9,124.8 304.6,124.6 363.7,90.5 							"/>
						</g>
						<g>
							<polygon class="st4" points="365.2,91.3 306,125.5 305.8,125.3 364.9,91.2 							"/>
						</g>
						<g>
							<polygon class="st4" points="366.4,92 307.2,126.2 306.9,126 366.1,91.8 							"/>
						</g>
					</g>
				</g>
			</g>
		</g>
		<polygon class="st5" points="319.5,176.9 353.6,157.2 353.6,100.8 319.5,120.5 		"/>
		<g>
			<g>
				<path class="st1" d="M309.5,171.1c3,4.2,7.1,6.1,10.2,5.9c0-18.8,0-37.6,0-56.5c-3,0.2-7.1-1.7-10.2-5.9
					C309.5,133.4,309.5,152.3,309.5,171.1z"/>
				<path class="st13" d="M314.8,119.3c0,18.8,0,37.6,0,56.5c-1.8-1-3.7-2.5-5.2-4.7c0-18.8,0-37.6,0-56.5
					C311.1,116.8,312.9,118.3,314.8,119.3z"/>
				<path class="st7" d="M309.5,120.7c3,4.2,7.1,6.1,10.2,5.9c0-0.2,0-0.5,0-0.8c-3,0.2-7.1-1.7-10.2-5.9
					C309.5,120.2,309.5,120.4,309.5,120.7z"/>
				<path class="st7" d="M309.5,123.3c3,4.2,7.1,6.1,10.2,5.9c0-0.2,0-0.5,0-0.8c-3,0.2-7.1-1.7-10.2-5.9
					C309.5,122.8,309.5,123.1,309.5,123.3z"/>
				<g>
					<path class="st7" d="M309.5,139.8c3,4.2,7.1,6.1,10.2,5.9c0-0.2,0-0.5,0-0.8c-3,0.2-7.1-1.7-10.2-5.9
						C309.5,139.3,309.5,139.6,309.5,139.8z"/>
					<path class="st7" d="M309.5,142.5c3,4.2,7.1,6.1,10.2,5.9c0-0.2,0-0.5,0-0.8c-3,0.2-7.1-1.7-10.2-5.9
						C309.5,142,309.5,142.2,309.5,142.5z"/>
				</g>
				<g>
					<path class="st7" d="M309.5,163.7c3,4.2,7.1,6.1,10.2,5.9c0-0.2,0-0.5,0-0.8c-3,0.2-7.1-1.7-10.2-5.9
						C309.5,163.2,309.5,163.4,309.5,163.7z"/>
					<path class="st7" d="M309.5,166.4c3,4.2,7.1,6.1,10.2,5.9c0-0.2,0-0.5,0-0.8c-3,0.2-7.1-1.7-10.2-5.9
						C309.5,165.9,309.5,166.1,309.5,166.4z"/>
				</g>
			</g>
		</g>
	</g>
</g>
<g id="DESIGNED_BY_FREEPIK">
</g>
<rect x="355.1" y="74.5" class="st14" width="128.4" height="40.3"/>
<g>
	<g class="st15">
		<path d="M384.4,111.5h-2.9c0-0.9,0-2.7,0-5.2s0-5.7,0-9.4c-0.2,0-1.2,0-3.1,0s-3.3,0-4.3,0c-1.2,0-2.6,0-4.2,0s-2.5,0-2.6,0
			c0,4.3,0,7.6,0,9.9s0,3.8,0,4.8h-2.9c0-0.9,0-2.6,0.1-5s0-6.4,0-12.1c0-1.7,0-3.8,0-6.3s0-5.1-0.1-8h2.9c0,2.4,0,4.7,0,7
			s0,4.5,0,6.5c0.1,0,0.9,0,2.3,0s2.9,0,4.5,0c1.3,0,2.8,0,4.6,0s2.7,0,2.8,0c0-2.1,0-4.2,0-6.5s0-4.6,0-7h2.9c0,2.4,0,5.1-0.1,8.2
			s0,5.6,0,7.6c0,4.6,0,8.1,0,10.6S384.4,110.6,384.4,111.5z"/>
		<path d="M412.3,96c0,2.8-0.5,5.2-1.5,7.2c-1,2.1-2.3,3.8-3.9,5c-1.4,1.1-3,2-4.7,2.5c-1.7,0.6-3.7,0.9-5.8,0.9c-0.8,0-1.6,0-2.4,0
			s-1.2,0-1.3,0c0-0.1,0-1.9,0-5.4s0-6.9,0-10c0-1.7,0-3.8,0-6.4s0-5.8-0.1-9.6c0.1,0,0.7,0,1.6,0c1,0,1.5,0,1.5,0
			c2.4,0,4.6,0.3,6.5,0.9s3.6,1.5,5,2.7c1.7,1.5,3,3.2,3.8,5.2S412.3,93.3,412.3,96z M409.3,96c0-2-0.3-3.9-1-5.5s-1.7-3.1-3.1-4.3
			c-1.3-1.1-2.8-1.9-4.4-2.3s-3.1-0.7-4.4-0.7c-0.2,0-0.3,0-0.5,0s-0.3,0-0.4,0c0,2.5,0,4.5,0,6.1s0,2.9,0,3.9c0,0.7,0,2.3,0,4.8
			s0,6,0,10.5c0.2,0,0.3,0,0.4,0s0.3,0,0.4,0c1.5,0,3-0.2,4.6-0.7s2.8-1.1,3.9-2c1.3-1.1,2.4-2.4,3.2-4S409.3,98.2,409.3,96z"/>
	</g>
</g>
<rect x="334.8" y="117.5" class="st14" width="203.5" height="62.8"/>
<g class="st15">
	<path d="M358,152.3v7.3c-0.1,2.2-0.5,4.1-1.3,5.8c-0.6,1.4-1.7,2.8-3.1,3.9c-1.4,1.2-3.4,1.8-6,1.8c-2.6,0-4.6-0.6-6-1.8
		c-1.4-1.1-2.4-2.4-3-3.9c-0.8-1.7-1.2-3.6-1.3-5.8v-31.2c0.1-2.1,0.5-4,1.3-5.7c0.6-1.4,1.6-2.9,3-4s3.5-1.8,6-1.8
		c2.6,0,4.5,0.7,6,1.8c1.4,1.1,2.4,2.5,3.1,4c0.8,1.7,1.2,3.6,1.3,5.7v7.3h-7.3v-7.3c0-1.4-0.4-2.4-1.2-3.3c-0.4-0.4-1-0.6-1.8-0.6
		c-1.4,0-2,1-2.4,1.9c-0.2,0.6-0.3,1.2-0.4,1.9v31.2c0.1,1.5,0.5,2.5,1.2,3.3c0.4,0.4,0.9,0.6,1.5,0.6c1.7,0,2.3-0.9,2.7-1.9
		c0.2-0.5,0.3-1.2,0.3-1.9v-7.3H358z"/>
	<path d="M383.3,117.5v42.1c-0.1,2.2-0.5,4.1-1.3,5.8c-0.6,1.4-1.7,2.8-3.1,3.9c-1.4,1.2-3.4,1.8-6,1.8c-2.6,0-4.6-0.6-6-1.8
		c-1.4-1.1-2.4-2.4-3-3.9c-0.8-1.7-1.2-3.6-1.3-5.8v-42.1h7.8v42.1c0,1.5,0.4,2.5,1.1,3.3c0.4,0.4,0.9,0.6,1.5,0.6
		c1.4,0,2-0.9,2.3-1.9c0.2-0.5,0.3-1.2,0.3-1.9v-42.1H383.3z"/>
	<path d="M389,117.5h7.8v45.7h10.3v7.2H389V117.5z"/>
	<path d="M407.5,125.5v-8H430v8h-7.3v44.9h-7.8v-44.9H407.5z"/>
	<path d="M453.6,117.5v42.1c-0.1,2.2-0.5,4.1-1.3,5.8c-0.6,1.4-1.7,2.8-3.1,3.9c-1.4,1.2-3.4,1.8-6,1.8c-2.6,0-4.6-0.6-6-1.8
		c-1.4-1.1-2.4-2.4-3-3.9c-0.8-1.7-1.2-3.6-1.3-5.8v-42.1h7.8v42.1c0,1.5,0.4,2.5,1.1,3.3c0.4,0.4,0.9,0.6,1.5,0.6
		c1.4,0,2-0.9,2.3-1.9c0.2-0.5,0.3-1.2,0.3-1.9v-42.1H453.6z"/>
	<path d="M473.2,170.4l-4-22.3h-2.1v22.3h-7.8v-52.9h7.8c9.3,0,13.2,5.3,13.2,15.3c0,5.3-1.4,10-4.3,12l5,25.6H473.2z M467.1,140.9
		c1.1,0,2.5-0.1,3.7-1.2s2.1-3,2.1-6.7s-0.9-5.8-2.1-6.8s-2.6-1.1-3.7-1.1V140.9z"/>
	<path d="M483.2,170.4l8-52.9h9.5l8,52.9h-7.6l-1.4-10.8h-7.5l-1.4,10.8H483.2z M496.3,134.7l-0.2-1.4h-0.4l-0.2,1.4l-2.2,16.7h5.3
		L496.3,134.7z"/>
	<path d="M512.2,117.5h7.8v45.7h10.3v7.2h-18.1V117.5z"/>
</g>
<g>
	<path class="st16" d="M441.2,70c12.5,0,22.6,10.1,22.6,22.5S453.6,115,441.2,115s-22.6-10.1-22.6-22.5S428.7,70,441.2,70L441.2,70z
		"/>
	<path class="st17" d="M439.9,100.7l2.1,3.7l0,0l2.1,3.6l-2.9,4.9l-6-10.4h-12l2.8-4.9h6.5l0,0h2.3h0.7h2.6l0,0L439.9,100.7
		L439.9,100.7z M441.2,71.3l6,10.4h12l-2.8,4.9h-6.3h-0.2h-0.4h-2.8h-0.2h-0.4h-2.8l0,0l-5.5-9.8L441.2,71.3L441.2,71.3z
		 M434.9,81.8l0.4-0.2c0.1-0.1,0.3-0.1,0.4,0.1l3.1,5.2c0.1,0.1,0,0.3-0.1,0.4l-0.4,0.2c-0.1,0.1-0.3,0.1-0.4-0.1l-3.1-5.2
		C434.7,82.1,434.7,81.9,434.9,81.8L434.9,81.8z M437,79.1c-0.1-0.2-0.1-0.5,0-0.6l0.2-0.5c0.1-0.2,0.2-0.1,0.3,0.1
		c1.5,2.5,3.8,6.4,5.2,8.9c1.1,1.9,0.4,4.3-1.5,5.4s-4.4,0.5-5.5-1.3c-1.5-2.5-3.9-6.5-5.3-9.1c-0.1-0.2,0-0.3,0.1-0.3h0.6
		c0.2,0,0.4,0.1,0.5,0.3l3.7,6.1c0.5,0.9,2.1,1,3.1,0.5c-0.8,0.7-0.9,1.7-0.4,2.7c0.6,1.1,2,1.4,3,0.8s1.4-2,0.8-3s-1.5-1.3-2.6-1
		c1.1-0.8,1.6-2.1,1.1-2.9L437,79.1L437,79.1z M445.3,97.9l1.4-2.7c0.2-0.5,0.1-1.4-0.2-1.9l-1.5-2.6c-0.3-0.6-0.8-0.6-1-0.1l-1,2.3
		c-0.2,0.5-0.1,1.4,0.2,1.9l1.5,2.6C445,98,445.1,98.3,445.3,97.9L445.3,97.9z M444.1,98.6l-3-0.1c-0.5,0-1.3-0.6-1.6-1.1l-1.5-2.6
		c-0.3-0.6-0.2-1,0.4-1L441,94c0.5,0.1,1.3,0.6,1.6,1.1l1.5,2.6C444.4,98.3,444.6,98.6,444.1,98.6L444.1,98.6z M444.9,99l0.4-0.2
		c0,0,0.1,0,0.2,0.1l2.7,4.5c0,0.1,0,0.1,0,0.2l-0.4,0.2c0,0-0.1,0-0.2-0.1l-2.7-4.5C444.8,99.1,444.8,99,444.9,99L444.9,99z
		 M436.2,79.8l-0.3,0.5c-0.1,0.1-0.1,0.4,0,0.6l2.9,4.9c0.1,0.2,0.2,0.2,0.3,0.1l0.3-0.4c0.1-0.1,0.1-0.4,0-0.6l-3-5
		C436.5,79.7,436.3,79.7,436.2,79.8L436.2,79.8z M432.8,81.7h0.5c0.2,0,0.4,0.1,0.5,0.3l3,5c0.1,0.2,0,0.3-0.1,0.3l-0.5,0.1
		c-0.2,0-0.4-0.1-0.5-0.3l-3-5.1C432.5,81.9,432.6,81.7,432.8,81.7L432.8,81.7z M456,87.3l-2.8,4.8l6,10.4h-6.7l-1.1-1.9l-4.7-8.2
		l0,0l0,0l1.7-2.9l1.2-2.2L456,87.3L456,87.3z M426.3,96.9l2.7-4.8l-6-10.4h6l5.7,10l-1.6,2.9l-1.3,2.2L426.3,96.9L426.3,96.9z"/>
</g>
<g>
	<path class="st18" d="M368.9,210.1c-1.9,1.4-7.2,2.6-7.2,2.1c0-0.6,4.5-4.6,5.8-4.2S368.9,210.1,368.9,210.1z"/>
	<path class="st18" d="M373.2,214.5c-1.3,2-5.9,5-6.1,4.5s2.7-5.9,4-6C372.5,212.8,373.2,214.5,373.2,214.5z"/>
	<g>
		<polygon class="st19" points="364.7,169.6 365.7,168.1 366.8,168.6 365.9,170.1 		"/>
		<path class="st19" d="M366.1,168.5c-0.8-0.5-0.5-1.3-0.1-1.9c0.5-0.6,1.1-0.9,1.2-0.8c0.1,0.1-0.2,0.4-0.2,0.4s0.5-0.3,0.8-0.4
			c0.1-0.1-0.3,0.6-0.3,0.7c0,0,0.6-0.6,0.7-0.5s-0.3,0.8-0.3,0.8s0.6-0.4,0.6-0.3s-1,1.1-1,1.1s0.5-0.3,0.5,0
			C368,167.9,367,169.1,366.1,168.5z"/>
	</g>
	<g>
		<polygon class="st19" points="382.6,167.3 381.9,165.6 380.7,165.9 381.3,167.6 		"/>
		<path class="st19" d="M381.4,166c0.9-0.4,0.7-1.2,0.4-1.8c-0.4-0.6-1-1.1-1-1s0.2,0.4,0.2,0.4s-0.4-0.4-0.7-0.6
			c-0.1-0.1,0.2,0.7,0.2,0.7s-0.5-0.6-0.6-0.6c-0.2,0.1,0.2,0.9,0.2,0.9s-0.5-0.5-0.5-0.4c0,0.2,0.8,1.2,0.8,1.2s-0.5-0.4-0.5-0.1
			C379.6,165,380.4,166.4,381.4,166z"/>
	</g>
	<path class="st20" d="M384.1,200.8c0,0,5.4,14.7,2,18c-2.1,2-14.1-2.3-14.1-2.3l0.8-2.4l7.3,1.1l-1.8-9.3l2.7-5.4L384.1,200.8z"/>
	<path class="st21" d="M378.4,198.7c0,0-5.7,3.6-4.9,7.2s0.3,9.3,0.3,9.3l-5-6L367,211c0,0,4.9,11.7,10.3,10
		c5.2-1.6,4.9-19.3,4.9-19.3L378.4,198.7z"/>
	<path class="st19" d="M376.6,179c0.6,1.8-0.1,3.1-1.4,3.5s-2.5-0.2-3.1-2s0-3.4,1.2-3.8C374.5,176.4,376,177.2,376.6,179z"/>
	<path class="st22" d="M373.3,205c7,0,11.2-3.8,11.2-3.8s-0.6-11.2,0.1-13.9c1-3.9,1.5-10,1.7-13.3c0.1-3.2-3.4-7.2-3.4-7.2
		l-2.6,0.5c0,0,2.1,4.1,2.1,6.6s-0.3,4.9-2.4,6.7c-4.9,4.2-10,4.6-11.6,2.4c-2.1-2.9-3.8-4.3-3.5-6.4s2.4-6.6,2.4-6.6l-2.3-0.6
		c0,0-5.8,5.6-4.5,10.4s7.4,11.8,7.4,11.8L373.3,205z"/>
	<path class="st19" d="M373.4,184.6c-0.4-0.5-0.1-3.3-0.1-3.3l2.3,0.2l0.5,2.2c0,0,0.3,1.6-0.7,1.8
		C374.4,185.7,374,185.3,373.4,184.6z"/>
	<path class="st20" d="M373.1,178.4c0,0,0.9,0.4,1-0.2c0.1-0.6,1.6,0.2,2-0.6s0.3-2.1-0.4-2.1c-0.7-0.1-1.8,1.3-2.3,0.7
		c-0.6-0.6-2.8,0.6-2.7,1.6s0,2.9,1.2,3.5s1.7-0.6,1.4-1.4C373,179.2,373.1,178.4,373.1,178.4z"/>
	<circle class="st19" cx="372.8" cy="180.1" r="0.6"/>
	<circle class="st19" cx="376.2" cy="178.9" r="0.6"/>
	<g>
		
			<ellipse transform="matrix(0.963 -0.2696 0.2696 0.963 -34.5563 107.6127)" class="st20" cx="374.5" cy="179.6" rx="0.2" ry="0.2"/>
		
			<ellipse transform="matrix(0.963 -0.2696 0.2696 0.963 -34.3956 107.951)" class="st20" cx="375.8" cy="179.2" rx="0.2" ry="0.2"/>
	</g>
	<path class="st23" d="M375.3,179.6c0,0,0.5,0.3,0.5,0.4c0,0.1-0.2,0.2-0.2,0.2"/>
	<path class="st18" d="M375.1,181.1l1-0.4c0,0,0,0.5-0.2,0.6C375.6,181.4,375.1,181.1,375.1,181.1z"/>
	<path class="st24" d="M373.6,214.9c0,0-0.2,1.3,0.8,2.6"/>
	<path class="st24" d="M373.8,207.7c0,0,1.6-1.3,2.2-2.8"/>
	<path class="st24" d="M370.4,188.9"/>
	<path class="st24" d="M381.9,203.6c0,0,1,0.9,0.1,4"/>
</g>
<g>
	<g>
		<polygon class="st19" points="559.2,119.6 560.2,118 559.1,117.2 558.1,118.7 		"/>
		<path class="st19" d="M559.5,117.8c0.8,0.5,1.4-0.1,1.7-0.8c0.3-0.7,0.3-1.4,0.2-1.5s-0.3,0.4-0.3,0.4s0.1-0.6,0-0.9
			c0-0.2-0.4,0.6-0.5,0.6c0,0,0.2-0.8,0.1-0.8c-0.1-0.1-0.6,0.7-0.6,0.7s0.2-0.7,0-0.6s-0.6,1.4-0.6,1.4s0-0.6-0.2-0.5
			C559.3,115.8,558.5,117.2,559.5,117.8z"/>
	</g>
	<g>
		<polygon class="st19" points="534,117.6 533.8,115.7 535,115.4 535.3,117.2 		"/>
		<path class="st19" d="M534.4,115.8c-1,0.1-1.2-0.7-1.2-1.4c0-0.7,0.3-1.4,0.4-1.4c0.1,0,0.1,0.5,0.1,0.5s0.2-0.6,0.3-0.8
			c0.1-0.2,0.2,0.7,0.2,0.7s0.1-0.8,0.2-0.8c0.2,0,0.3,0.9,0.3,0.9s0.2-0.7,0.3-0.6s-0.1,1.5-0.1,1.5s0.2-0.6,0.4-0.3
			S535.5,115.6,534.4,115.8z"/>
	</g>
	<path class="st25" d="M553.6,148.1l-1.1-1.1c-0.4-0.4-0.4-1.2,0.1-1.6c0,0,3.5-4.5,4-3.3s-1.5,5-1.5,5L553.6,148.1z"/>
	<path class="st25" d="M536.6,156.9c0,0,1.3,0.3,1.8,0.8s3.2,4.3,2.4,4.9c-1.8,1.2-5.6-4-5.6-4S535.2,157,536.6,156.9z"/>
	<path class="st18" d="M540.7,144.8c0,0-15.8,4.9-16.4,7.2s10.9,7.3,10.9,7.3l1.4-2.3l-2.1-2.2c0,0,4.8-2.2,7.9-1.5s11.5,6.7,14,5.3
		s-1.3-11.1-1.3-11.1h-2.4l0.2,3.4l-4.5-3.5L540.7,144.8z"/>
	<path class="st26" d="M543.9,130.2c3.6,0.8,6.6-0.1,9.2-3.8c2-2.8,5.3-8.3,5.3-8.3l1.7,1c0.2,0.8-6.9,14.8-9,20.6
		c-2.3,6.3-2.2,7.8-2.2,7.8c-4.4,1.3-9.1,0.3-11.7-1.9c0,0,2.1-9.9,0.8-13.2s-4.3-15.7-4.3-15.7l1.9-0.2
		C535.4,116.6,540.3,129.4,543.9,130.2z"/>
	<path class="st24" d="M534.6,154.8c0,0-1.9-2.2-3-2.8"/>
	<path class="st24" d="M555.9,154c0,0-1.5-2.4-3.1-3.6"/>
	<path class="st24" d="M541.9,148.1c0,0-1.1,3.6-0.3,4.7"/>
	<path class="st24" d="M535.5,146.6c0,0,1,0.8,2.8,0"/>
	<path class="st24" d="M547,147.9c0,0,2.4,1.1,3.3,0.8"/>
	<path class="st19" d="M543.5,125.3c-0.9,1.7-0.4,3.1,0.8,3.7s2.5,0.3,3.5-1.4c0.9-1.7,0.6-3.3-0.6-4
		C546,122.9,544.4,123.6,543.5,125.3z"/>
	<path class="st19" d="M546.9,131.2c0.3-0.5-0.2-3.4-0.2-3.4l-2.3,0.5l-0.3,2.3c0,0-0.3,1.1,0.8,1.2S546.4,132,546.9,131.2z"/>
	<circle class="st19" cx="543.9" cy="125.2" r="0.7"/>
	<g>
		
			<ellipse transform="matrix(0.4286 -0.9035 0.9035 0.4286 197.5656 564.9905)" class="st20" cx="545.5" cy="126.3" rx="0.2" ry="0.2"/>
		
			<ellipse transform="matrix(0.4286 -0.9035 0.9035 0.4286 197.561 563.4938)" class="st20" cx="544.3" cy="125.6" rx="0.2" ry="0.2"/>
	</g>
	<path class="st23" d="M544.6,126.1c0,0-0.5,0.2-0.5,0.4s0.2,0.3,0.2,0.3"/>
	<path class="st18" d="M544.6,127.6l-0.9-0.6c0,0-0.1,0.4,0.1,0.7C544,127.8,544.6,127.6,544.6,127.6z"/>
	<path class="st20" d="M545.5,123.7c0,0-2,1.6-1.8,0.4s2.1-1.4,2.7-3.9c0.6-2.5,3.1-1.7,3.3-2.8c0.2-1.1,3.4-0.3,3.4,0.6
		s-1,1.3-0.1,2.7c0.9,1.4-1,1.8-1.4,3.4s-2.2,1.5-2.3,2.5s-1.7,1.8-1.9,1.5s-0.7-1.5-0.7-2.5C546.8,124.7,545.1,125.3,545.5,123.7z"
		/>
	<circle class="st19" cx="547.1" cy="126.9" r="0.7"/>
</g>
<g>
	<path class="st18" d="M444.1,67.3c0.5,1.7,3.2,4.9,3.5,4.6s-0.7-4.8-1.6-5.2S444.1,67.3,444.1,67.3z"/>
	<path class="st18" d="M434,66.2c-0.2,1.8,1,5.8,1.4,5.6c0.4-0.2,1.3-4.7,0.6-5.4C435.3,65.5,434,66.2,434,66.2z"/>
	<g>
		<polygon class="st19" points="446.1,54.8 445.3,55.9 444.5,55.4 445.3,54.3 		"/>
		<path class="st19" d="M445,55.5c0.6,0.5,0.3,1-0.1,1.4s-0.9,0.6-1,0.5s0.2-0.3,0.2-0.3s-0.4,0.2-0.6,0.3c-0.1,0,0.3-0.5,0.3-0.5
			s-0.5,0.4-0.6,0.3c-0.1-0.1,0.3-0.6,0.3-0.6s-0.5,0.3-0.5,0.2c0-0.2,0.8-0.8,0.8-0.8s-0.4,0.2-0.4,0S444.3,55,445,55.5z"/>
	</g>
	<g>
		<polygon class="st19" points="433.3,20 433.8,18.7 434.7,19 434.3,20.2 		"/>
		<path class="st19" d="M434.2,19c-0.7-0.3-0.6-0.9-0.3-1.4c0.3-0.5,0.7-0.8,0.8-0.8s-0.1,0.3-0.1,0.3s0.3-0.3,0.5-0.4
			c0.1-0.1-0.2,0.5-0.1,0.5s0.4-0.5,0.5-0.5s-0.1,0.6-0.1,0.6s0.4-0.4,0.4-0.3s-0.6,1-0.6,1s0.4-0.3,0.4-0.1
			C435.5,18.3,435,19.3,434.2,19z"/>
	</g>
	<path class="st26" d="M435.5,45.4c0,0-11.1,9.7-10.2,13.2c0.6,2.1,8.6,8.4,8.6,8.4l1-1.1l-4.2-7.3l7.4-8.1l0.4-4.6L435.5,45.4z"/>
	<path class="st26" d="M440.7,45.8l1.1,4.4l-1.6,11.4l4.7,5.3l-0.5,1.3c0,0-6.8-2.3-9.6-5.5c-2.8-3.1,2.3-16.4,2.3-16.4L440.7,45.8z
		"/>
	<path class="st25" d="M444.7,44.4c-0.5,0.4-2.9,6-2.9,6c-4.9,3-8.2-3-8.2-3s0.5-8.5,0-10.6c-0.8-3-1.3-6.2-1.4-8.7s0.8-8.9,0.8-8.9
		l2,0.4c0,0,0.1,3.2,0.1,5.1s0.7,5.4,2,7s5.8,3.2,7.6,4.7c2.4,2,4.7,8.5,4.7,10.8s-3.3,8.3-3.3,8.3l-1.7-1.2c0,0,1.5-5.9,1.2-6.9
		C445.1,46.3,444.7,44.4,444.7,44.4z"/>
	<path class="st19" d="M438.8,31.4c-0.1,1.4,0.7,2.2,1.7,2.3c1,0,1.8-0.6,1.9-2.1c0.1-1.5-0.7-2.5-1.7-2.5
		C439.7,29,438.8,30,438.8,31.4z"/>
	<path class="st19" d="M441.8,35c0.3-0.4-0.4-2.4-0.4-2.4l-1.7,0.1l0.1,1.5c0,0-0.3,1.2,0.5,1.4C441,35.8,441.3,35.5,441.8,35z"/>
	<circle class="st19" cx="442.3" cy="31.5" r="0.5"/>
	<circle class="st19" cx="438.9" cy="31.3" r="0.5"/>
	<g>
		
			<ellipse transform="matrix(1.183378e-03 -1 1 1.183378e-03 409.0858 472.1693)" class="st20" cx="440.9" cy="31.3" rx="0.2" ry="0.1"/>
		
			<ellipse transform="matrix(1.183378e-03 -1 1 1.183378e-03 408.1152 471.2601)" class="st20" cx="440" cy="31.3" rx="0.2" ry="0.1"/>
	</g>
	<path class="st23" d="M440.4,31.5c0,0-0.3,0.3-0.2,0.4c0,0.1,0.2,0.1,0.2,0.1"/>
	<path class="st18" d="M440.8,32.5l-0.8-0.1c0,0,0.1,0.3,0.3,0.4C440.5,32.9,440.8,32.5,440.8,32.5z"/>
	<path class="st20" d="M438.8,29.5c-0.2,1,0.1,1.5,0.1,1.5s0.3-1,0.8-1.3c0.3-0.1,1.4-0.2,1.8,0.2c0.2,0.1,0.6,1.4,0.6,1.4l0.4-0.6
		c0,0,0.8-0.9,0.7-1.4c-0.4-1-1-0.6-1.5-0.9s-1.4-1.4-1.4-1.4l-0.2,0.7l-0.8-0.6l-0.2,1.1l-0.4-0.5L438.8,29.5z"/>
	<path class="st24" d="M434.6,54.5c0,0,0.1-1.6,0.4-2.5c0.2-0.9,1-1.9,1-1.9"/>
	<path class="st24" d="M441.4,52.9c0,0-1-1-1.3-1.7"/>
	<path class="st24" d="M434,48.2c0,0-1,0.6-1.6,0.1"/>
</g>
<g>
	<rect x="22.7" y="140.1" class="st27" width="2.2" height="6.7"/>
	<polygon class="st28" points="22.9,140.1 22.9,143.5 22.9,146.9 19.1,149.4 19.1,143.5 19.1,137.6 	"/>
	<rect x="76" y="136.3" class="st29" width="2.8" height="14.4"/>
	<polygon class="st29" points="72.3,122.8 59.6,133.9 59,133.3 73.5,120.5 	"/>
	<polygon class="st29" points="28.4,122.8 41.2,133.9 41.7,133.3 27.2,120.5 	"/>
	<path class="st30" d="M76,155.4c0,1.9-1.4,3.4-3.2,3.4H27.9c-1.8,0-3.2-1.5-3.2-3.4V131c0-1.9,1.4-3.3,3.2-3.3h44.9
		c1.8,0,3.2,1.5,3.2,3.3V155.4L76,155.4z"/>
	<path class="st31" d="M72.8,158.8c1.8,0,3.2-1.5,3.2-3.4V131c0-1.9-1.4-3.3-3.2-3.3H50.4v31.1H72.8L72.8,158.8z"/>
	<rect x="36.2" y="106.6" class="st29" width="28.4" height="0.8"/>
	<g>
		<path class="st27" d="M46.3,116.8c0,5.6-4.5,10.1-10.1,10.1s-10.1-4.5-10.1-10.1s4.5-10.1,10.1-10.1
			C41.8,106.6,46.3,111.2,46.3,116.8z"/>
		<path class="st29" d="M46.3,116.8c0-5.6-4.5-10.1-10.1-10.1v20.2C41.8,126.9,46.3,122.3,46.3,116.8z"/>
		<g>
			<path class="st32" d="M36.2,102.6c-7.9,0-14.2,6.4-14.2,14.2S28.3,131,36.2,131s14.2-6.4,14.2-14.2S44,102.6,36.2,102.6z
				 M25.6,110.6c0.9-1.6,3-2.2,4.6-1.2c1.6,0.9,2.2,3,1.2,4.6c-0.9,1.6-3,2.2-4.6,1.2C25.2,114.3,24.6,112.3,25.6,110.6z
				 M30.2,124.2c-1.6,0.9-3.8,0.4-4.7-1.3s-0.4-3.8,1.3-4.7s3.8-0.4,4.7,1.3C32.5,121.1,31.9,123.2,30.2,124.2z M36.2,128.6
				c-1.7,0-3-1.3-3-3s1.3-3,3-3s3,1.3,3,3S37.8,128.6,36.2,128.6z M36.2,111.1c-1.8,0-3.2-1.4-3.2-3.2s1.4-3.2,3.2-3.2
				s3.2,1.4,3.2,3.2S38,111.1,36.2,111.1z M42.1,109.4c1.6-0.9,3.7-0.4,4.6,1.2c0.9,1.6,0.4,3.7-1.2,4.6c-1.6,0.9-3.7,0.4-4.6-1.2
				S40.5,110.4,42.1,109.4z M46.6,122.8c-0.9,1.6-2.9,2.1-4.4,1.2s-2.1-2.9-1.2-4.4s2.9-2.1,4.4-1.2C47,119.3,47.5,121.2,46.6,122.8
				z"/>
		</g>
		<path class="st28" d="M38.7,116.8c0,1.4-1.1,2.5-2.5,2.5s-2.5-1.1-2.5-2.5s1.1-2.5,2.5-2.5C37.5,114.3,38.7,115.4,38.7,116.8z"/>
		<path class="st33" d="M39.4,107.9c0,1.8-1.4,3.2-3.2,3.2v11.4c1.7,0,3,1.3,3,3s-1.3,3-3,3v2.4c7.8,0,14.2-6.4,14.2-14.2
			s-6.4-14.2-14.2-14.2v2.2C38,104.7,39.4,106.1,39.4,107.9z M46.6,122.8c-0.9,1.6-2.9,2.1-4.4,1.2s-2.1-2.9-1.2-4.4
			s2.9-2.1,4.4-1.2C47,119.3,47.5,121.2,46.6,122.8z M42.1,109.4c1.6-0.9,3.7-0.4,4.6,1.2c0.9,1.6,0.4,3.7-1.2,4.6
			c-1.6,0.9-3.7,0.4-4.6-1.2S40.5,110.4,42.1,109.4z"/>
		<path class="st34" d="M38.7,116.8c0-1.4-1.1-2.5-2.5-2.5v5C37.5,119.3,38.7,118.1,38.7,116.8z"/>
	</g>
	<g>
		<path class="st27" d="M74.7,116.8c0,5.6-4.5,10.1-10.1,10.1s-10.1-4.5-10.1-10.1s4.5-10.1,10.1-10.1
			C70.2,106.6,74.7,111.2,74.7,116.8z"/>
		<path class="st29" d="M74.7,116.8c0-5.6-4.5-10.1-10.1-10.1v20.2C70.2,126.9,74.7,122.3,74.7,116.8z"/>
		<g>
			<path class="st32" d="M64.6,102.6c-7.8,0-14.2,6.4-14.2,14.2S56.7,131,64.6,131s14.2-6.4,14.2-14.2S72.4,102.6,64.6,102.6z
				 M54,110.6c0.9-1.6,3-2.2,4.6-1.2c1.6,0.9,2.2,3,1.2,4.6c-0.9,1.6-3,2.2-4.6,1.2C53.6,114.3,53.1,112.3,54,110.6z M58.7,124.2
				c-1.7,0.9-3.8,0.4-4.7-1.3s-0.4-3.8,1.3-4.7c1.7-0.9,3.8-0.4,4.7,1.3C60.9,121.1,60.3,123.2,58.7,124.2z M64.6,128.6
				c-1.7,0-3-1.3-3-3s1.3-3,3-3c1.7,0,3,1.3,3,3C67.6,127.2,66.2,128.6,64.6,128.6z M64.6,111.1c-1.8,0-3.2-1.4-3.2-3.2
				s1.4-3.2,3.2-3.2c1.8,0,3.2,1.4,3.2,3.2C67.8,109.7,66.4,111.1,64.6,111.1z M70.6,109.4c1.6-0.9,3.7-0.4,4.6,1.2s0.4,3.7-1.2,4.6
				s-3.7,0.4-4.6-1.2C68.4,112.4,68.9,110.4,70.6,109.4z M75,122.8c-0.9,1.6-2.9,2.1-4.4,1.2s-2.1-2.9-1.2-4.4s2.9-2.1,4.4-1.2
				C75.4,119.3,75.9,121.2,75,122.8z"/>
		</g>
		<path class="st28" d="M67.1,116.8c0,1.4-1.1,2.5-2.5,2.5s-2.5-1.1-2.5-2.5s1.1-2.5,2.5-2.5S67.1,115.4,67.1,116.8z"/>
		<path class="st33" d="M67.8,107.9c0,1.8-1.4,3.2-3.2,3.2v11.4c1.7,0,3,1.3,3,3s-1.3,3-3,3v2.4c7.8,0,14.2-6.4,14.2-14.2
			s-6.4-14.2-14.2-14.2v2.2C66.4,104.7,67.8,106.1,67.8,107.9z M75,122.8c-0.9,1.6-2.9,2.1-4.4,1.2s-2.1-2.9-1.2-4.4
			s2.9-2.1,4.4-1.2C75.4,119.3,75.9,121.2,75,122.8z M70.6,109.4c1.6-0.9,3.7-0.4,4.6,1.2s0.4,3.7-1.2,4.6s-3.7,0.4-4.6-1.2
			C68.4,112.4,68.9,110.4,70.6,109.4z"/>
		<path class="st34" d="M67.1,116.8c0-1.4-1.1-2.5-2.5-2.5v5C66,119.3,67.1,118.1,67.1,116.8z"/>
	</g>
	<polygon class="st34" points="78.8,136.3 78.8,143.5 78.8,150.7 86.9,156.1 86.9,143.5 86.9,131 	"/>
	<path class="st27" d="M47.9,153.7c0,0.5-0.4,0.9-0.9,0.9H30.8c-0.5,0-0.9-0.4-0.9-0.9v-7.8c0-0.5,0.4-0.9,0.9-0.9H47
		c0.5,0,0.9,0.4,0.9,0.9V153.7L47.9,153.7z"/>
	<rect x="31.6" y="146.4" class="st28" width="14.5" height="6.9"/>
	<path class="st28" d="M34.4,137.2c0,0.5-0.4,1-1,1h-1.8c-0.5,0-1-0.4-1-1v-1.8c0-0.5,0.4-1,1-1h1.8c0.5,0,1,0.4,1,1V137.2z"/>
	<rect x="31.7" y="135.4" class="st32" width="1.8" height="1.8"/>
	<path class="st28" d="M40.8,137.2c0,0.5-0.4,1-1,1H38c-0.5,0-1-0.4-1-1v-1.8c0-0.5,0.4-1,1-1h1.8c0.5,0,1,0.4,1,1V137.2L40.8,137.2
		z"/>
	<rect x="38" y="135.4" class="st32" width="1.8" height="1.8"/>
	<path class="st28" d="M47.1,137.2c0,0.5-0.4,1-1,1h-1.8c-0.5,0-1-0.4-1-1v-1.8c0-0.5,0.4-1,1-1h1.8c0.5,0,1,0.4,1,1V137.2z"/>
	<rect x="44.3" y="135.4" class="st32" width="1.8" height="1.8"/>
	<path class="st29" d="M72.6,151.9c0,1.5-1.2,2.7-2.7,2.7s-2.7-1.2-2.7-2.7s1.2-2.7,2.7-2.7S72.6,150.4,72.6,151.9z"/>
	<path class="st29" d="M68.4,146.5c0-0.8,0.7-1.5,1.5-1.5s1.5,0.7,1.5,1.5s-0.7,1.5-1.5,1.5S68.4,147.3,68.4,146.5z"/>
	<path class="st33" d="M71.6,151.9c0,1-0.8,1.8-1.8,1.8s-1.8-0.8-1.8-1.8s0.8-1.8,1.8-1.8C70.8,150.2,71.6,150.9,71.6,151.9z"/>
</g>
<g>
	<g>
		<path class="st33" d="M464.3,220.1c-2.1,0-4-0.9-5.2-2.7c-3.5-4.8,0.8-9.9,0.8-9.9c0.2-0.3,0.6-0.3,0.9-0.1s0.3,0.6,0.1,0.9
			c-0.1,0.2-3.6,4.4-0.8,8.4c1.5,2,3.4,2.3,4.8,2.1c3.2-0.3,6.4-2.8,8-6.2c0.4-0.9,0.8-1.9,1.2-2.9c2.1-5,4.5-10.6,10-10.1
			c0.4,0,0.6,0.3,0.6,0.7s-0.3,0.6-0.7,0.6c-4.6-0.4-6.7,4.6-8.7,9.4c-0.4,1-0.8,2-1.3,2.9c-1.8,3.8-5.4,6.6-9,7
			C464.8,220.1,464.5,220.1,464.3,220.1z"/>
	</g>
	<g>
		<g>
			<g>
				<g>
					<path class="st35" d="M453.8,196.8c0.4,0.6,0,1.6-1,2.3s-2.1,0.8-2.5,0.2s0-1.6,1-2.3S453.4,196.2,453.8,196.8z"/>
				</g>
			</g>
			<g>
				<g>
					<path class="st35" d="M459.8,194.9c0.4,0.6,0,1.6-1,2.3s-2.1,0.8-2.5,0.2s0-1.6,1-2.3S459.4,194.3,459.8,194.9z"/>
				</g>
			</g>
			<g>
				<g>
					<path class="st35" d="M459.7,195.6L459.7,195.6c-0.2,0.1-0.4-0.1-0.5-0.2l-2.3-8.4l-5.3,1.7l2.4,8.4c0,0.2,0,0.4-0.2,0.4
						c-0.2,0.1-0.4-0.1-0.4-0.2l-2.4-8.7c0-0.2,0-0.4,0.2-0.4l6-1.9c0.1,0,0.2,0,0.3,0c0.1,0,0.1,0.1,0.2,0.2l2.4,8.7
						C459.9,195.4,459.8,195.5,459.7,195.6z"/>
				</g>
			</g>
			<g>
				<g>
					<polygon class="st35" points="457.8,188.9 451.8,190.7 451.6,190.1 457.6,188.2 					"/>
				</g>
			</g>
			<g>
				<g>
					<polygon class="st35" points="457.9,189.4 452,191.3 451.8,190.6 457.7,188.7 					"/>
				</g>
			</g>
			<g>
				<g>
					<polygon class="st35" points="457.4,187.4 451.4,189.3 451.2,188.7 457.1,186.8 					"/>
				</g>
			</g>
		</g>
		<g>
			<g>
				<g>
					<path class="st28" d="M450.5,180.1c0.3,0.3,0,0.9-0.5,1.4c-0.5,0.4-1.2,0.5-1.4,0.2c-0.3-0.3,0-0.9,0.5-1.4
						C449.6,179.9,450.2,179.8,450.5,180.1z"/>
				</g>
			</g>
			<g>
				<g>
					<path class="st28" d="M453.9,178.8c0.3,0.3,0,0.9-0.5,1.4c-0.5,0.4-1.2,0.5-1.4,0.2c-0.3-0.3,0-0.9,0.5-1.4
						S453.6,178.4,453.9,178.8z"/>
				</g>
			</g>
			<g>
				<g>
					<path class="st28" d="M453.9,179.2C453.8,179.2,453.8,179.2,453.9,179.2c-0.1,0-0.2,0-0.3-0.1l-1.7-4.8l-3,1.2l1.7,4.8
						c0,0.1,0,0.2-0.1,0.3s-0.2,0-0.2-0.1l-1.7-4.9c0-0.1,0-0.2,0.1-0.3l3.4-1.3h0.1l0.1,0.1l1.7,5C454,179,454,179.1,453.9,179.2z"
						/>
				</g>
			</g>
			<g>
				<g>
					<polygon class="st28" points="452.2,174.5 448.8,175.9 448.7,175.5 452.1,174.1 					"/>
				</g>
			</g>
		</g>
		<g>
			<g>
				<g>
					<path class="st33" d="M448,188.1c0.5,0.3,0.5,1.2,0.1,2c-0.4,0.9-1.2,1.3-1.7,1.1c-0.5-0.3-0.5-1.2-0.1-2
						C446.8,188.3,447.5,187.8,448,188.1z"/>
				</g>
			</g>
			<g>
				<g>
					<path class="st33" d="M448.2,188.2l-0.5,0.5l-5.5-6.2v-0.2c0-0.1,0.1-0.7,0.8-1.4c0.3-0.3,0.9-0.6,1.5-0.8
						c0.5-0.2,0.8-0.6,0.8-0.6l0.2-0.3l0.6,0.3l-0.2,0.3c0,0-0.3,0.6-1.1,0.9c-0.5,0.2-1,0.4-1.3,0.7s-0.5,0.6-0.5,0.8L448.2,188.2z
						"/>
				</g>
			</g>
			<g>
				<g>
					<g>
						<path class="st33" d="M445.8,180.3c-0.2,0.2-0.5,0.5-1,0.7c-0.4,0.2-1,0.4-1.2,0.6c-0.4,0.4-0.5,0.8-0.5,0.8L443,183l-0.8-0.5
							l-0.2-0.2c0-0.1,0-0.8,0.8-1.6c0.4-0.3,1-0.6,1.5-0.9c0.4-0.2,0.6-0.5,0.6-0.5l0.3-0.5l1,0.6L446,180
							C446,180,445.9,180.1,445.8,180.3z"/>
					</g>
				</g>
			</g>
		</g>
	</g>
	<g>
		<g>
			<path class="st27" d="M464.1,207.7c-1.4,1.3-3.6,1.4-4.3,0.8s-0.9-2.8,0.1-4.4l13-17.9c1-1.6,2.8-2.1,4-1.1l3.3,2.8
				c1.1,1,0.9,2.8-0.4,4.1L464.1,207.7z"/>
		</g>
		<path class="st29" d="M480.2,188l-1.7-1.4l-18.5,22c0.9,0.5,2.8,0.3,4.1-0.9l15.6-15.6C481.2,190.8,481.4,188.9,480.2,188z"/>
		<g>
			<path class="st28" d="M488,189.8c-3.4,3.9-9.2,4.4-13.2,1c-3.9-3.3-4.4-9.2-1-13.2s9.2-4.4,13.2-1
				C490.9,179.9,491.3,185.9,488,189.8z"/>
		</g>
		<path class="st34" d="M488,189.8c3.4-3.9,2.9-9.8-1-13.1L475,191C478.9,194.1,484.7,193.6,488,189.8z"/>
		<g>
			<path class="st27" d="M489,190.2c-0.4,0.5-1.1,0.6-1.4,0.3L473,178.3c-0.4-0.3-0.4-1,0.1-1.5l0,0c0.4-0.5,1-0.6,1.4-0.3
				l14.6,12.2C489.5,189.1,489.5,189.7,489,190.2L489,190.2z"/>
		</g>
		<g>
			<g>
				<g>
					<path class="st28" d="M474,180.4c0.2,0.2,0.3,0.6,0.1,0.8c-0.2,0.2-0.6,0.3-0.8,0.1c-0.2-0.2-0.3-0.6-0.1-0.8
						S473.8,180.2,474,180.4z"/>
				</g>
			</g>
			<g>
				<g>
					<path class="st28" d="M475.9,182c0.2,0.2,0.3,0.6,0.1,0.8c-0.2,0.2-0.6,0.3-0.8,0.1c-0.2-0.2-0.3-0.6-0.1-0.8
						C475.3,181.9,475.7,181.8,475.9,182z"/>
				</g>
			</g>
			<g>
				<g>
					<path class="st28" d="M477.8,183.6c0.2,0.2,0.3,0.6,0.1,0.8c-0.2,0.2-0.6,0.3-0.8,0.1c-0.2-0.2-0.3-0.6-0.1-0.8
						C477.2,183.4,477.5,183.4,477.8,183.6z"/>
				</g>
			</g>
			<g>
				<g>
					<path class="st28" d="M479.7,185.2c0.2,0.2,0.3,0.6,0.1,0.8c-0.2,0.2-0.6,0.3-0.8,0.1c-0.2-0.2-0.3-0.6-0.1-0.8
						C479.1,185,479.4,185,479.7,185.2z"/>
				</g>
			</g>
			<g>
				<g>
					<path class="st28" d="M481.5,186.8c0.2,0.2,0.3,0.6,0.1,0.8c-0.2,0.2-0.6,0.3-0.8,0.1s-0.3-0.6-0.1-0.8
						C481,186.6,481.3,186.6,481.5,186.8z"/>
				</g>
			</g>
			<g>
				<g>
					<path class="st28" d="M483.4,188.3c0.2,0.2,0.3,0.6,0.1,0.8c-0.2,0.2-0.6,0.3-0.8,0.1c-0.2-0.2-0.3-0.6-0.1-0.8
						C482.8,188.2,483.2,188.1,483.4,188.3z"/>
				</g>
			</g>
			<g>
				<g>
					<path class="st28" d="M485.3,189.9c0.2,0.2,0.3,0.6,0.1,0.8c-0.2,0.2-0.6,0.3-0.8,0.1c-0.2-0.2-0.3-0.6-0.1-0.8
						C484.7,189.7,485.1,189.7,485.3,189.9z"/>
				</g>
			</g>
			<g>
				<g>
					<path class="st28" d="M473.6,182.6c0.2,0.2,0.3,0.6,0.1,0.8c-0.2,0.2-0.6,0.3-0.8,0.1c-0.2-0.2-0.3-0.6-0.1-0.8
						C473,182.5,473.4,182.4,473.6,182.6z"/>
				</g>
			</g>
			<g>
				<g>
					<path class="st28" d="M475.5,184.2c0.2,0.2,0.3,0.6,0.1,0.8c-0.2,0.2-0.6,0.3-0.8,0.1c-0.2-0.2-0.3-0.6-0.1-0.8
						C474.9,184,475.2,184,475.5,184.2z"/>
				</g>
			</g>
			<g>
				<g>
					<path class="st28" d="M477.4,185.8c0.2,0.2,0.3,0.6,0.1,0.8c-0.2,0.2-0.6,0.3-0.8,0.1c-0.2-0.2-0.3-0.6-0.1-0.8
						C476.8,185.6,477.1,185.6,477.4,185.8z"/>
				</g>
			</g>
			<g>
				<g>
					<path class="st28" d="M479.2,187.4c0.2,0.2,0.3,0.6,0.1,0.8c-0.2,0.2-0.6,0.3-0.8,0.1c-0.2-0.2-0.3-0.6-0.1-0.8
						C478.6,187.2,479,187.2,479.2,187.4z"/>
				</g>
			</g>
			<g>
				<g>
					<path class="st28" d="M481.1,188.9c0.2,0.2,0.3,0.6,0.1,0.8c-0.2,0.2-0.6,0.3-0.8,0.1c-0.2-0.2-0.3-0.6-0.1-0.8
						S480.9,188.7,481.1,188.9z"/>
				</g>
			</g>
			<g>
				<g>
					<path class="st28" d="M483,190.5c0.2,0.2,0.3,0.6,0.1,0.8c-0.2,0.2-0.6,0.3-0.8,0.1c-0.2-0.2-0.3-0.6-0.1-0.8
						C482.4,190.4,482.8,190.3,483,190.5z"/>
				</g>
			</g>
			<g>
				<g>
					<path class="st28" d="M473.2,184.8c0.2,0.2,0.3,0.6,0.1,0.8c-0.2,0.2-0.6,0.3-0.8,0.1c-0.2-0.2-0.3-0.6-0.1-0.8
						C472.6,184.7,473,184.6,473.2,184.8z"/>
				</g>
			</g>
			<g>
				<g>
					<path class="st28" d="M475.1,186.4c0.2,0.2,0.3,0.6,0.1,0.8c-0.2,0.2-0.6,0.3-0.8,0.1c-0.2-0.2-0.3-0.6-0.1-0.8
						C474.5,186.2,474.8,186.2,475.1,186.4z"/>
				</g>
			</g>
			<g>
				<g>
					<path class="st28" d="M477,188c0.2,0.2,0.3,0.6,0.1,0.8c-0.2,0.2-0.6,0.3-0.8,0.1c-0.2-0.2-0.3-0.6-0.1-0.8
						C476.3,187.8,476.7,187.8,477,188z"/>
				</g>
			</g>
			<g>
				<g>
					<path class="st28" d="M478.8,189.6c0.2,0.2,0.3,0.6,0.1,0.8c-0.2,0.2-0.6,0.3-0.8,0.1c-0.2-0.2-0.3-0.6-0.1-0.8
						C478.2,189.4,478.6,189.4,478.8,189.6z"/>
				</g>
			</g>
			<g>
				<g>
					<path class="st28" d="M480.7,191.1c0.2,0.2,0.3,0.6,0.1,0.8c-0.2,0.2-0.6,0.3-0.8,0.1c-0.2-0.2-0.3-0.6-0.1-0.8
						C480.1,191,480.5,190.9,480.7,191.1z"/>
				</g>
			</g>
			<g>
				<g>
					<path class="st28" d="M472.8,187.8c0.2-0.2,0.2-0.6-0.1-0.8c-0.2-0.1-0.4-0.2-0.6-0.1c0.1,0.4,0.3,0.7,0.5,1.1
						C472.7,188,472.8,187.9,472.8,187.8z"/>
				</g>
			</g>
			<g>
				<g>
					<path class="st28" d="M474.6,188.6c0.2,0.2,0.3,0.6,0.1,0.8c-0.2,0.2-0.6,0.3-0.8,0.1c-0.2-0.2-0.3-0.6-0.1-0.8
						C474,188.4,474.4,188.4,474.6,188.6z"/>
				</g>
			</g>
			<g>
				<g>
					<path class="st28" d="M476.5,190.2c0.2,0.2,0.3,0.6,0.1,0.8c-0.2,0.2-0.6,0.3-0.8,0.1c-0.2-0.2-0.3-0.6-0.1-0.8
						C475.9,190,476.3,190,476.5,190.2z"/>
				</g>
			</g>
			<g>
				<g>
					<path class="st28" d="M477.6,191.8c-0.1,0.2-0.2,0.4-0.1,0.6c0.3,0.1,0.6,0.2,0.8,0.3l0.1-0.1c0.2-0.2,0.2-0.6-0.1-0.8
						C478.2,191.5,477.8,191.6,477.6,191.8z"/>
				</g>
			</g>
			<g>
				<g>
					<path class="st28" d="M481.5,186.8c0.2,0.2,0.3,0.6,0.1,0.8c-0.2,0.2-0.6,0.3-0.8,0.1s-0.3-0.6-0.1-0.8
						C481,186.6,481.3,186.6,481.5,186.8z"/>
				</g>
			</g>
			<g>
				<g>
					<path class="st28" d="M483.4,188.3c0.2,0.2,0.3,0.6,0.1,0.8c-0.2,0.2-0.6,0.3-0.8,0.1c-0.2-0.2-0.3-0.6-0.1-0.8
						C482.8,188.2,483.2,188.1,483.4,188.3z"/>
				</g>
			</g>
			<g>
				<g>
					<path class="st28" d="M485.3,189.9c0.2,0.2,0.3,0.6,0.1,0.8c-0.2,0.2-0.6,0.3-0.8,0.1c-0.2-0.2-0.3-0.6-0.1-0.8
						C484.7,189.7,485.1,189.7,485.3,189.9z"/>
				</g>
			</g>
			<g>
				<g>
					<path class="st28" d="M481.1,188.9c0.2,0.2,0.3,0.6,0.1,0.8c-0.2,0.2-0.6,0.3-0.8,0.1c-0.2-0.2-0.3-0.6-0.1-0.8
						S480.9,188.7,481.1,188.9z"/>
				</g>
			</g>
			<g>
				<g>
					<path class="st28" d="M483,190.5c0.2,0.2,0.3,0.6,0.1,0.8c-0.2,0.2-0.6,0.3-0.8,0.1c-0.2-0.2-0.3-0.6-0.1-0.8
						C482.4,190.4,482.8,190.3,483,190.5z"/>
				</g>
			</g>
			<g>
				<g>
					<path class="st28" d="M484.1,192.2c-0.1,0.1-0.1,0.2-0.1,0.4c0.3-0.1,0.7-0.2,1-0.4l0,0C484.6,191.9,484.3,191.9,484.1,192.2z"
						/>
				</g>
			</g>
			<g>
				<g>
					<path class="st28" d="M480.7,191.1c0.2,0.2,0.3,0.6,0.1,0.8c-0.2,0.2-0.6,0.3-0.8,0.1c-0.2-0.2-0.3-0.6-0.1-0.8
						C480.1,191,480.5,190.9,480.7,191.1z"/>
				</g>
			</g>
			<g>
				<g>
					<path class="st28" d="M481.8,192.8c-0.1,0.1-0.1,0.1-0.1,0.2c0.4,0,0.7-0.1,1-0.1c0-0.1-0.1-0.1-0.1-0.1
						C482.3,192.5,482,192.5,481.8,192.8z"/>
				</g>
			</g>
			<g>
				<g>
					<path class="st28" d="M476.5,177.5c0.2,0.2,0.6,0.2,0.8-0.1c0.2-0.2,0.2-0.6-0.1-0.8c-0.2-0.2-0.6-0.2-0.8,0.1
						C476.2,176.9,476.3,177.3,476.5,177.5z"/>
				</g>
			</g>
			<g>
				<g>
					<path class="st28" d="M478.4,179.1c0.2,0.2,0.6,0.2,0.8-0.1c0.2-0.2,0.2-0.6-0.1-0.8c-0.2-0.2-0.6-0.2-0.8,0.1
						S478.1,178.9,478.4,179.1z"/>
				</g>
			</g>
			<g>
				<g>
					<path class="st28" d="M480.3,180.7c0.2,0.2,0.6,0.2,0.8-0.1c0.2-0.2,0.2-0.6-0.1-0.8c-0.2-0.2-0.6-0.2-0.8,0.1
						C480,180.1,480,180.5,480.3,180.7z"/>
				</g>
			</g>
			<g>
				<g>
					<path class="st28" d="M482.1,182.2c0.2,0.2,0.6,0.2,0.8-0.1c0.2-0.2,0.2-0.6-0.1-0.8c-0.2-0.2-0.6-0.2-0.8,0.1
						C481.9,181.7,481.9,182,482.1,182.2z"/>
				</g>
			</g>
			<g>
				<g>
					<path class="st28" d="M484,183.8c0.2,0.2,0.6,0.2,0.8-0.1s0.2-0.6-0.1-0.8c-0.2-0.2-0.6-0.2-0.8,0.1
						C483.7,183.2,483.8,183.6,484,183.8z"/>
				</g>
			</g>
			<g>
				<g>
					<path class="st28" d="M485.9,185.4c0.2,0.2,0.6,0.2,0.8-0.1s0.2-0.6-0.1-0.8c-0.2-0.2-0.6-0.2-0.8,0.1
						C485.6,184.8,485.7,185.2,485.9,185.4z"/>
				</g>
			</g>
			<g>
				<g>
					<path class="st28" d="M487.8,187c0.2,0.2,0.6,0.2,0.8-0.1s0.2-0.6-0.1-0.8c-0.2-0.2-0.6-0.2-0.8,0.1
						C487.5,186.4,487.5,186.8,487.8,187z"/>
				</g>
			</g>
			<g>
				<g>
					<path class="st28" d="M478.6,176.7c0.2,0.2,0.6,0.2,0.8-0.1s0.2-0.6-0.1-0.8c-0.2-0.2-0.6-0.2-0.8,0.1
						C478.3,176.1,478.3,176.5,478.6,176.7z"/>
				</g>
			</g>
			<g>
				<g>
					<path class="st28" d="M480.5,178.3c0.2,0.2,0.6,0.2,0.8-0.1s0.2-0.6-0.1-0.8c-0.2-0.2-0.6-0.2-0.8,0.1
						C480.2,177.7,480.2,178.1,480.5,178.3z"/>
				</g>
			</g>
			<g>
				<g>
					<path class="st28" d="M482.3,179.9c0.2,0.2,0.6,0.2,0.8-0.1s0.2-0.6-0.1-0.8c-0.2-0.2-0.6-0.2-0.8,0.1
						C482.1,179.3,482.1,179.7,482.3,179.9z"/>
				</g>
			</g>
			<g>
				<g>
					<path class="st28" d="M484.2,181.4c0.2,0.2,0.6,0.2,0.8-0.1s0.2-0.6-0.1-0.8c-0.2-0.2-0.6-0.2-0.8,0.1
						C484,180.9,484,181.2,484.2,181.4z"/>
				</g>
			</g>
			<g>
				<g>
					<path class="st28" d="M486.1,183c0.2,0.2,0.6,0.2,0.8-0.1s0.2-0.6-0.1-0.8c-0.2-0.2-0.6-0.2-0.8,0.1
						C485.8,182.4,485.9,182.8,486.1,183z"/>
				</g>
			</g>
			<g>
				<g>
					<path class="st28" d="M488,184.6c0.2,0.2,0.6,0.2,0.8-0.1s0.2-0.6-0.1-0.8c-0.2-0.2-0.6-0.2-0.8,0.1
						C487.7,184,487.7,184.4,488,184.6z"/>
				</g>
			</g>
			<g>
				<g>
					<path class="st28" d="M480.7,175.9c0.2,0.2,0.6,0.2,0.8-0.1c0.2-0.2,0.2-0.6-0.1-0.8c-0.2-0.2-0.6-0.2-0.8,0.1
						C480.4,175.4,480.4,175.7,480.7,175.9z"/>
				</g>
			</g>
			<g>
				<g>
					<path class="st28" d="M482.5,177.5c0.2,0.2,0.6,0.2,0.8-0.1s0.2-0.6-0.1-0.8c-0.2-0.2-0.6-0.2-0.8,0.1
						C482.3,176.9,482.3,177.3,482.5,177.5z"/>
				</g>
			</g>
			<g>
				<g>
					<path class="st28" d="M484.4,179.1c0.2,0.2,0.6,0.2,0.8-0.1c0.2-0.2,0.2-0.6-0.1-0.8c-0.2-0.2-0.6-0.2-0.8,0.1
						C484.1,178.5,484.2,178.9,484.4,179.1z"/>
				</g>
			</g>
			<g>
				<g>
					<path class="st28" d="M486.3,180.6c0.2,0.2,0.6,0.2,0.8-0.1s0.2-0.6-0.1-0.8c-0.2-0.2-0.6-0.2-0.8,0.1S486.1,180.4,486.3,180.6
						z"/>
				</g>
			</g>
			<g>
				<g>
					<path class="st28" d="M488.2,182.2c0.2,0.2,0.6,0.2,0.8-0.1c0.2-0.2,0.2-0.6-0.1-0.8c-0.2-0.2-0.6-0.2-0.8,0.1
						C487.9,181.6,487.9,182,488.2,182.2z"/>
				</g>
			</g>
			<g>
				<g>
					<path class="st28" d="M483.6,175c-0.2,0.2-0.6,0.3-0.8,0.1c-0.2-0.1-0.2-0.4-0.2-0.6c0.4,0.1,0.8,0.2,1.1,0.3
						C483.7,174.9,483.6,175,483.6,175z"/>
				</g>
			</g>
			<g>
				<g>
					<path class="st28" d="M484.6,176.7c0.2,0.2,0.6,0.2,0.8-0.1c0.2-0.2,0.2-0.6-0.1-0.8c-0.2-0.2-0.6-0.2-0.8,0.1
						C484.4,176.1,484.4,176.5,484.6,176.7z"/>
				</g>
			</g>
			<g>
				<g>
					<path class="st28" d="M486.5,178.3c0.2,0.2,0.6,0.2,0.8-0.1s0.2-0.6-0.1-0.8c-0.2-0.2-0.6-0.2-0.8,0.1
						C486.2,177.7,486.3,178.1,486.5,178.3z"/>
				</g>
			</g>
			<g>
				<g>
					<path class="st28" d="M488.3,179c0.1-0.2,0.4-0.2,0.5-0.2c0.2,0.2,0.3,0.5,0.4,0.8c0,0.1,0,0.1-0.1,0.2
						c-0.2,0.2-0.6,0.3-0.8,0.1C488.1,179.6,488.1,179.3,488.3,179z"/>
				</g>
			</g>
			<g>
				<g>
					<path class="st28" d="M484,183.8c0.2,0.2,0.6,0.2,0.8-0.1s0.2-0.6-0.1-0.8c-0.2-0.2-0.6-0.2-0.8,0.1
						C483.7,183.2,483.8,183.6,484,183.8z"/>
				</g>
			</g>
			<g>
				<g>
					<path class="st28" d="M485.9,185.4c0.2,0.2,0.6,0.2,0.8-0.1s0.2-0.6-0.1-0.8c-0.2-0.2-0.6-0.2-0.8,0.1
						C485.6,184.8,485.7,185.2,485.9,185.4z"/>
				</g>
			</g>
			<g>
				<g>
					<path class="st28" d="M487.8,187c0.2,0.2,0.6,0.2,0.8-0.1s0.2-0.6-0.1-0.8c-0.2-0.2-0.6-0.2-0.8,0.1
						C487.5,186.4,487.5,186.8,487.8,187z"/>
				</g>
			</g>
			<g>
				<g>
					<path class="st28" d="M486.1,183c0.2,0.2,0.6,0.2,0.8-0.1s0.2-0.6-0.1-0.8c-0.2-0.2-0.6-0.2-0.8,0.1
						C485.8,182.4,485.9,182.8,486.1,183z"/>
				</g>
			</g>
			<g>
				<g>
					<path class="st28" d="M488,184.6c0.2,0.2,0.6,0.2,0.8-0.1s0.2-0.6-0.1-0.8c-0.2-0.2-0.6-0.2-0.8,0.1
						C487.7,184,487.7,184.4,488,184.6z"/>
				</g>
			</g>
			<g>
				<g>
					<path class="st28" d="M489.8,185.4c0.1-0.1,0.2-0.2,0.3-0.2c0,0.4-0.1,0.7-0.2,1l0,0C489.6,186,489.6,185.6,489.8,185.4z"/>
				</g>
			</g>
			<g>
				<g>
					<path class="st28" d="M488.2,182.2c0.2,0.2,0.6,0.2,0.8-0.1c0.2-0.2,0.2-0.6-0.1-0.8c-0.2-0.2-0.6-0.2-0.8,0.1
						C487.9,181.6,487.9,182,488.2,182.2z"/>
				</g>
			</g>
			<g>
				<g>
					<path class="st28" d="M490,183c0.1-0.1,0.1-0.1,0.2-0.1c0,0.4,0,0.7,0,1.1c-0.1,0-0.1-0.1-0.2-0.1
						C489.8,183.6,489.8,183.2,490,183z"/>
				</g>
			</g>
		</g>
		<path class="st29" d="M489.1,188.8l-7.3-6.1l-1.5,1.8l7.3,6.1c0.4,0.3,1,0.2,1.4-0.3C489.5,189.7,489.5,189.1,489.1,188.8z"/>
		<path class="st2" d="M462.5,207.2c-0.4,0.4-1,0.5-1.5,0.1l0,0c-0.4-0.4-0.5-1-0.1-1.5l1-1.2c0.4-0.4,1-0.5,1.5-0.1l0,0
			c0.4,0.4,0.5,1,0.1,1.5L462.5,207.2z"/>
	</g>
</g>
</svg>
