<?xml version="1.0" encoding="utf-8"?>
<!-- Generator: Adobe Illustrator 24.1.2, SVG Export Plug-In . SVG Version: 6.00 Build 0)  -->
<svg version="1.1" id="Layer_1" xmlns="http://www.w3.org/2000/svg" xmlns:xlink="http://www.w3.org/1999/xlink" x="0px" y="0px"
	 viewBox="0 0 1317 669" style="enable-background:new 0 0 1317 669;" xml:space="preserve">
<style type="text/css">
	.st0{fill:#C25757;}
	.st1{fill:#FFFFDB;stroke:#F9F4F4;stroke-miterlimit:10;}
	.st2{fill:#DBECCC;}
	.st3{fill:#FFFAEF;}
	.st4{fill:#F05757;}
	.st5{fill:#D2373A;}
	.st6{fill:#B32D2F;}
	.st7{fill:#5C4A45;}
	.st8{opacity:0.1;fill:#5C4A45;enable-background:new    ;}
	.st9{opacity:0.1;clip-path:url(#SVGID_2_);fill:#5C4A45;enable-background:new    ;}
	.st10{clip-path:url(#SVGID_4_);}
	.st11{fill:#E67F69;}
	.st12{fill:#E9946F;}
	.st13{fill:#F6BC9F;}
	.st14{fill:#FAB217;}
	.st15{fill:#F6CA10;}
	.st16{fill:#FBE4D3;}
	.st17{fill:#50799A;}
	.st18{fill:#F69D81;}
	.st19{opacity:0.5;fill:#FBE4D3;enable-background:new    ;}
	.st20{fill:#514E78;}
	.st21{fill:#57272D;}
</style>
<rect class="st0" width="1317" height="669"/>
<g>
	<path class="st1" d="M323.56,536.79c0,1.2,0,2.4,0.14,3.6h-1.39c0.14-1.2,0.14-2.4,0.14-3.6v-28.03c0-1.01,0-1.97,0.1-2.98
		c-0.53,1.2-0.82,1.82-1.49,3.17l-13.2,27.84c-0.58,1.2-1.06,2.35-1.44,3.6h-1.49c-0.38-1.25-0.86-2.4-1.44-3.6l-13.2-27.84
		c-0.62-1.3-0.96-2.02-1.49-3.22c0.1,1.06,0.1,2.02,0.1,3.02v28.03c0,1.2,0,2.4,0.14,3.6h-1.39c0.14-1.2,0.14-2.4,0.14-3.6v-28.56
		c0-1.2,0-2.4-0.14-3.6h2.02c0.38,1.2,0.96,2.4,1.54,3.6l13.2,27.79c0.43,0.86,0.86,1.78,1.3,2.83c0.43-1.06,0.86-1.97,1.3-2.83
		l13.2-27.79c0.58-1.2,1.15-2.4,1.54-3.6h1.97c-0.14,1.2-0.14,2.4-0.14,3.6v28.57H323.56z"/>
	<path class="st1" d="M348.66,538.18c0-1.1,0.1-2.4,0.24-3.55h-0.1c-1.82,4.03-5.23,6.24-9.55,6.24c-5.28,0-8.35-2.5-8.35-6.72
		c0-5.38,4.46-7.97,13.68-7.97c1.82,0,3.02,0.05,4.03,0.14v-2.35c0-5.57-2.35-7.92-7.68-7.92c-1.78,0-3.22,0.43-4.56,1.1
		c-1.2,0.62-2.16,1.44-2.93,2.3l-0.67-0.86c1.01-1.01,2.06-1.82,3.22-2.4c1.49-0.77,3.12-1.15,5.04-1.15c5.95,0,8.69,2.74,8.69,8.79
		v12.91c0,1.44,0.05,2.45,0.14,3.65h-1.2V538.18z M348.61,527.28c-1.06-0.1-2.26-0.14-4.03-0.14c-8.64,0-12.62,2.21-12.62,7.01
		c0,3.65,2.64,5.71,7.3,5.71c4.37,0,7.49-2.11,9.36-6.24L348.61,527.28L348.61,527.28z"/>
	<path class="st1" d="M377.65,536.69c-0.53,0.58-1.1,1.1-1.82,1.68c-2.06,1.63-4.75,2.5-7.63,2.5c-6.86,0-11.62-5.28-11.62-12.96
		c0-7.78,4.56-12.82,11.67-12.82c2.35,0,4.46,0.48,6.24,1.58c1.1,0.72,2.06,1.54,2.78,2.45l-0.86,0.82
		c-0.72-1.01-1.54-1.78-2.78-2.54c-1.54-0.96-3.41-1.3-5.42-1.3c-6.43,0-10.51,4.56-10.51,11.81c0,7.2,4.18,11.95,10.51,11.95
		c2.54,0,4.94-0.67,6.67-1.97c1.01-0.82,1.54-1.3,2.02-1.97L377.65,536.69z"/>
	<path class="st1" d="M402.37,540.39c0.1-1.06,0.14-2.02,0.14-3.6v-12.34c0-5.52-2.74-8.5-7.87-8.5c-5.52,0.05-9.26,3.55-9.26,8.59
		v12.24c0,1.63,0.05,2.59,0.14,3.6h-1.39c0.1-1.01,0.14-1.97,0.14-3.6V507.5c0-1.68-0.05-2.59-0.14-3.6h1.39
		c-0.1,1.01-0.14,1.92-0.14,3.6v13.44c1.34-3.65,4.85-6,9.36-6c5.62,0,8.88,3.36,8.88,9.22v12.62c0,1.58,0.05,2.54,0.14,3.6h-1.39
		V540.39z"/>
	<path class="st1" d="M428.24,538.18c0-1.1,0.1-2.4,0.24-3.55h-0.1c-1.82,4.03-5.23,6.24-9.55,6.24c-5.28,0-8.35-2.5-8.35-6.72
		c0-5.38,4.46-7.97,13.68-7.97c1.82,0,3.02,0.05,4.03,0.14v-2.35c0-5.57-2.35-7.92-7.68-7.92c-1.78,0-3.22,0.43-4.56,1.1
		c-1.2,0.62-2.16,1.44-2.93,2.3l-0.67-0.86c1.01-1.01,2.06-1.82,3.22-2.4c1.49-0.77,3.12-1.15,5.04-1.15c5.95,0,8.69,2.74,8.69,8.79
		v12.91c0,1.44,0.05,2.45,0.14,3.65h-1.2V538.18z M428.2,527.28c-1.06-0.1-2.26-0.14-4.03-0.14c-8.64,0-12.62,2.21-12.62,7.01
		c0,3.65,2.64,5.71,7.3,5.71c4.37,0,7.49-2.11,9.36-6.24L428.2,527.28L428.2,527.28z"/>
	<path class="st1" d="M456.8,540.39c0.1-1.06,0.14-2.02,0.14-3.6v-12.34c0-5.52-2.74-8.5-7.87-8.5c-5.52,0.05-9.26,3.55-9.26,8.59
		v12.24c0,1.63,0.05,2.59,0.14,3.6h-1.39c0.1-1.01,0.14-1.97,0.14-3.6v-17.76c0-1.68-0.05-2.59-0.14-3.6h1.25v2.02
		c0,1.1-0.05,2.5-0.19,3.6h0.14c1.34-3.7,4.85-6.1,9.41-6.1c5.62,0,8.88,3.36,8.88,9.22v12.62c0,1.58,0.05,2.54,0.14,3.6h-1.39
		V540.39z"/>
	<path class="st1" d="M466.5,527.52v0.24c0,7.3,4.22,12.1,10.66,12.1c2.54,0,4.99-0.72,6.82-2.06c0.77-0.58,1.39-1.2,1.92-1.92
		l0.77,0.72c-0.43,0.53-1.2,1.25-1.82,1.73c-2.02,1.63-4.75,2.54-7.68,2.54c-6.96,0-11.76-5.33-11.76-13.1
		c0-8.07,4.32-12.96,11.38-12.96c6.72,0,10.51,4.27,10.51,11.86v0.86L466.5,527.52L466.5,527.52z M486.18,526.56
		c0-6.91-3.36-10.75-9.46-10.75c-6,0-9.79,4.03-10.18,10.75H486.18z M475.43,512.45l-0.67-0.38l6.38-9.36l0.96,0.62L475.43,512.45z"
		/>
	<path class="st1" d="M534.23,532.32c-0.72,1.25-1.54,2.4-2.3,3.31c-3.02,3.55-6.62,5.23-11.47,5.23
		c-10.18,0-16.37-7.06-16.37-18.58c0-10.85,6.24-18.15,15.55-18.15c4.66,0,8.21,1.25,10.9,3.89c1.29,1.25,2.35,2.78,3.36,4.61
		l-1.25,0.72c-0.77-1.87-1.73-3.41-2.98-4.66c-2.4-2.4-5.76-3.55-10.08-3.55c-8.69,0-14.4,6.67-14.4,17.14
		c0,11.04,5.71,17.57,15.27,17.57c4.42,0,7.68-1.44,10.66-4.8c0.72-0.86,1.39-1.92,2.21-3.36L534.23,532.32z"/>
	<path class="st1" d="M540.37,527.52v0.24c0,7.3,4.22,12.1,10.66,12.1c2.54,0,4.99-0.72,6.82-2.06c0.77-0.58,1.39-1.2,1.92-1.92
		l0.77,0.72c-0.43,0.53-1.2,1.25-1.82,1.73c-2.02,1.63-4.75,2.54-7.68,2.54c-6.96,0-11.76-5.33-11.76-13.1
		c0-8.07,4.32-12.96,11.38-12.96c6.72,0,10.51,4.27,10.51,11.86v0.86L540.37,527.52L540.37,527.52z M560.05,526.56
		c0-6.91-3.36-10.75-9.46-10.75c-6,0-9.79,4.03-10.18,10.75H560.05z"/>
	<path class="st1" d="M586.6,540.39c0.1-1.06,0.14-2.02,0.14-3.6v-12.34c0-5.52-2.74-8.5-7.87-8.5c-5.52,0.05-9.27,3.55-9.27,8.59
		v12.24c0,1.63,0.05,2.59,0.14,3.6h-1.39c0.1-1.01,0.14-1.97,0.14-3.6v-17.76c0-1.68-0.05-2.59-0.14-3.6h1.25v2.02
		c0,1.1-0.05,2.5-0.19,3.6h0.14c1.34-3.7,4.85-6.1,9.41-6.1c5.62,0,8.88,3.36,8.88,9.22v12.62c0,1.58,0.05,2.54,0.14,3.6h-1.38
		V540.39z"/>
	<path class="st1" d="M609.2,540c-1.06,0.58-2.5,0.86-3.79,0.86c-4.22,0-6.58-2.21-6.58-5.95v-18.48h-2.4
		c-1.63,0-2.59,0.05-3.65,0.14v-1.3c1.06,0.1,2.02,0.14,3.65,0.14h2.4v-4.37c0-1.68-0.05-2.64-0.14-3.65h1.39
		c-0.1,1.01-0.14,1.97-0.14,3.65v4.37h4.18c1.63,0,2.59-0.05,3.6-0.14v1.3c-1.01-0.1-1.97-0.14-3.6-0.14h-4.18v18.19
		c0,3.41,1.97,5.23,5.47,5.23c1.39,0,2.45-0.29,3.46-0.82L609.2,540z"/>
	<path class="st1" d="M614.96,521.57c1.3-3.94,4.51-6.58,8.3-6.58c1.49,0,2.88,0.24,3.79,0.72l-0.38,1.06
		c-1.25-0.53-2.35-0.77-3.75-0.77c-3.74,0-6.96,3.17-7.82,7.68v13.11c0,1.63,0.05,2.59,0.14,3.6h-1.39c0.1-1.01,0.14-1.97,0.14-3.6
		v-17.76c0-1.68-0.05-2.59-0.14-3.6h1.25v1.87c0,1.58-0.1,3.41-0.24,4.27L614.96,521.57L614.96,521.57z"/>
	<path class="st1" d="M646.5,538.18c0-1.1,0.1-2.4,0.24-3.55h-0.1c-1.82,4.03-5.23,6.24-9.55,6.24c-5.28,0-8.35-2.5-8.35-6.72
		c0-5.38,4.46-7.97,13.68-7.97c1.82,0,3.02,0.05,4.03,0.14v-2.35c0-5.57-2.35-7.92-7.68-7.92c-1.78,0-3.22,0.43-4.56,1.1
		c-1.2,0.62-2.16,1.44-2.93,2.3l-0.67-0.86c1.01-1.01,2.06-1.82,3.22-2.4c1.49-0.77,3.12-1.15,5.04-1.15c5.95,0,8.69,2.74,8.69,8.79
		v12.91c0,1.44,0.05,2.45,0.14,3.65h-1.2L646.5,538.18L646.5,538.18z M646.45,527.28c-1.06-0.1-2.26-0.14-4.03-0.14
		c-8.64,0-12.62,2.21-12.62,7.01c0,3.65,2.64,5.71,7.3,5.71c4.37,0,7.49-2.11,9.36-6.24L646.45,527.28L646.45,527.28z"/>
	<path class="st1" d="M658.69,503.9c-0.1,1.01-0.14,1.92-0.14,3.6v29.28c0,1.63,0.05,2.59,0.14,3.6h-1.39
		c0.1-1.01,0.14-1.97,0.14-3.6V507.5c0-1.68-0.05-2.59-0.14-3.6H658.69z"/>
</g>
<g>
	<g>
		<path class="st1" d="M87.13,483.37c0,1.2,0,2.4,0.14,3.6h-1.39c0.14-1.2,0.14-2.4,0.14-3.6v-28.03c0-1.01,0-1.97,0.1-2.98
			c-0.53,1.2-0.82,1.82-1.49,3.17l-13.2,27.84c-0.58,1.2-1.06,2.35-1.44,3.6H68.5c-0.38-1.25-0.86-2.4-1.44-3.6l-13.2-27.84
			c-0.62-1.3-0.96-2.02-1.49-3.22c0.1,1.06,0.1,2.02,0.1,3.02v28.03c0,1.2,0,2.4,0.14,3.6h-1.39c0.14-1.2,0.14-2.4,0.14-3.6V454.8
			c0-1.2,0-2.4-0.14-3.6h2.02c0.38,1.2,0.96,2.4,1.54,3.6l13.2,27.79c0.43,0.86,0.86,1.78,1.3,2.83c0.43-1.06,0.86-1.97,1.3-2.83
			l13.2-27.79c0.58-1.2,1.15-2.4,1.54-3.6h1.97c-0.14,1.2-0.14,2.4-0.14,3.6v28.57H87.13z"/>
		<path class="st1" d="M112.23,484.76c0-1.1,0.1-2.4,0.24-3.55h-0.1c-1.82,4.03-5.23,6.24-9.55,6.24c-5.28,0-8.35-2.5-8.35-6.72
			c0-5.38,4.46-7.97,13.68-7.97c1.82,0,3.02,0.05,4.03,0.14v-2.35c0-5.57-2.35-7.92-7.68-7.92c-1.78,0-3.22,0.43-4.56,1.1
			c-1.2,0.62-2.16,1.44-2.93,2.3l-0.67-0.86c1.01-1.01,2.06-1.82,3.22-2.4c1.49-0.77,3.12-1.15,5.04-1.15
			c5.95,0,8.69,2.74,8.69,8.79v12.91c0,1.44,0.05,2.45,0.14,3.65h-1.2C112.23,486.97,112.23,484.76,112.23,484.76z M112.18,473.86
			c-1.06-0.1-2.26-0.14-4.03-0.14c-8.64,0-12.62,2.21-12.62,7.01c0,3.65,2.64,5.71,7.3,5.71c4.37,0,7.49-2.11,9.36-6.24v-6.34
			H112.18z"/>
		<path class="st1" d="M141.22,483.27c-0.53,0.58-1.1,1.1-1.82,1.68c-2.06,1.63-4.75,2.5-7.63,2.5c-6.86,0-11.62-5.28-11.62-12.96
			c0-7.78,4.56-12.82,11.67-12.82c2.35,0,4.46,0.48,6.24,1.58c1.1,0.72,2.06,1.54,2.78,2.45l-0.86,0.82
			c-0.72-1.01-1.54-1.78-2.78-2.54c-1.54-0.96-3.41-1.3-5.42-1.3c-6.43,0-10.51,4.56-10.51,11.81c0,7.2,4.18,11.95,10.51,11.95
			c2.54,0,4.94-0.67,6.67-1.97c1.01-0.82,1.54-1.3,2.02-1.97L141.22,483.27z"/>
		<path class="st1" d="M165.94,486.97c0.1-1.06,0.14-2.02,0.14-3.6v-12.34c0-5.52-2.74-8.5-7.87-8.5c-5.52,0.05-9.26,3.55-9.26,8.59
			v12.24c0,1.63,0.05,2.59,0.14,3.6h-1.39c0.1-1.01,0.14-1.97,0.14-3.6v-29.28c0-1.68-0.05-2.59-0.14-3.6h1.39
			c-0.1,1.01-0.14,1.92-0.14,3.6v13.44c1.34-3.65,4.85-6,9.36-6c5.62,0,8.88,3.36,8.88,9.22v12.62c0,1.58,0.05,2.54,0.14,3.6h-1.39
			V486.97z"/>
		<path class="st1" d="M191.81,484.76c0-1.1,0.1-2.4,0.24-3.55h-0.1c-1.82,4.03-5.23,6.24-9.55,6.24c-5.28,0-8.35-2.5-8.35-6.72
			c0-5.38,4.46-7.97,13.68-7.97c1.82,0,3.02,0.05,4.03,0.14v-2.35c0-5.57-2.35-7.92-7.68-7.92c-1.78,0-3.22,0.43-4.56,1.1
			c-1.2,0.62-2.16,1.44-2.93,2.3l-0.67-0.86c1.01-1.01,2.06-1.82,3.22-2.4c1.49-0.77,3.12-1.15,5.04-1.15
			c5.95,0,8.69,2.74,8.69,8.79v12.91c0,1.44,0.05,2.45,0.14,3.65h-1.2V484.76z M191.76,473.86c-1.06-0.1-2.26-0.14-4.03-0.14
			c-8.64,0-12.62,2.21-12.62,7.01c0,3.65,2.64,5.71,7.3,5.71c4.37,0,7.49-2.11,9.36-6.24v-6.34H191.76z"/>
		<path class="st1" d="M220.37,486.97c0.1-1.06,0.14-2.02,0.14-3.6v-12.34c0-5.52-2.74-8.5-7.87-8.5c-5.52,0.05-9.26,3.55-9.26,8.59
			v12.24c0,1.63,0.05,2.59,0.14,3.6h-1.39c0.1-1.01,0.14-1.97,0.14-3.6V465.6c0-1.68-0.05-2.59-0.14-3.6h1.25v2.02
			c0,1.1-0.05,2.5-0.19,3.6h0.14c1.34-3.7,4.85-6.1,9.41-6.1c5.62,0,8.88,3.36,8.88,9.22v12.62c0,1.58,0.05,2.54,0.14,3.6h-1.39
			V486.97z"/>
		<path class="st1" d="M230.06,474.1v0.24c0,7.3,4.22,12.1,10.66,12.1c2.54,0,4.99-0.72,6.82-2.06c0.77-0.58,1.39-1.2,1.92-1.92
			l0.77,0.72c-0.43,0.53-1.2,1.25-1.82,1.73c-2.02,1.63-4.75,2.54-7.68,2.54c-6.96,0-11.76-5.33-11.76-13.11
			c0-8.06,4.32-12.96,11.38-12.96c6.72,0,10.51,4.27,10.51,11.86v0.86H230.06z M249.75,473.14c0-6.91-3.36-10.75-9.46-10.75
			c-6,0-9.79,4.03-10.18,10.75H249.75z M238.99,459.03l-0.67-0.38l6.38-9.36l0.96,0.62L238.99,459.03z"/>
		<path class="st1" d="M288.24,485.96c1.2,0,2.4,0,3.6-0.14v1.3c-1.2-0.14-2.4-0.14-3.6-0.14h-14.98c-1.2,0-2.5,0-3.7,0.14
			c0.14-1.2,0.14-2.4,0.14-3.6V454.9c0-1.2,0-2.4-0.14-3.6h1.39c-0.14,1.2-0.14,2.4-0.14,3.6v31.06H288.24z"/>
		<path class="st1" d="M316.85,474.54c0,7.82-4.42,12.91-11.18,12.91c-6.67,0-11.19-5.28-11.19-13.01c0-7.82,4.42-12.91,11.19-12.91
			C312.34,461.53,316.85,466.81,316.85,474.54z M315.75,474.54c0-7.25-3.94-12-10.08-12c-6.19,0-10.08,4.61-10.08,11.91
			c0,7.25,3.94,12,10.08,12C311.86,486.44,315.75,481.83,315.75,474.54z"/>
		<path class="st1" d="M343.2,483.27c-0.53,0.58-1.1,1.1-1.82,1.68c-2.06,1.63-4.75,2.5-7.63,2.5c-6.86,0-11.62-5.28-11.62-12.96
			c0-7.78,4.56-12.82,11.67-12.82c2.35,0,4.46,0.48,6.24,1.58c1.1,0.72,2.06,1.54,2.78,2.45l-0.86,0.82
			c-0.72-1.01-1.54-1.78-2.78-2.54c-1.54-0.96-3.41-1.3-5.42-1.3c-6.43,0-10.51,4.56-10.51,11.81c0,7.2,4.18,11.95,10.51,11.95
			c2.54,0,4.94-0.67,6.67-1.97c1.01-0.82,1.54-1.3,2.02-1.97L343.2,483.27z"/>
		<path class="st1" d="M365.04,484.76c0-1.1,0.1-2.4,0.24-3.55h-0.1c-1.82,4.03-5.23,6.24-9.55,6.24c-5.28,0-8.35-2.5-8.35-6.72
			c0-5.38,4.46-7.97,13.68-7.97c1.82,0,3.02,0.05,4.03,0.14v-2.35c0-5.57-2.35-7.92-7.68-7.92c-1.78,0-3.22,0.43-4.56,1.1
			c-1.2,0.62-2.16,1.44-2.93,2.3l-0.67-0.86c1.01-1.01,2.06-1.82,3.22-2.4c1.49-0.77,3.12-1.15,5.04-1.15
			c5.95,0,8.69,2.74,8.69,8.79v12.91c0,1.44,0.05,2.45,0.14,3.65h-1.2V484.76z M364.99,473.86c-1.06-0.1-2.26-0.14-4.03-0.14
			c-8.64,0-12.63,2.21-12.63,7.01c0,3.65,2.64,5.71,7.3,5.71c4.37,0,7.49-2.11,9.36-6.24L364.99,473.86L364.99,473.86z"/>
		<path class="st1" d="M377.23,450.49c-0.1,1.01-0.14,1.92-0.14,3.6v29.28c0,1.63,0.05,2.59,0.14,3.6h-1.39
			c0.1-1.01,0.14-1.97,0.14-3.6v-29.28c0-1.68-0.05-2.59-0.14-3.6H377.23z"/>
	</g>
</g>
<g>
	<path class="st1" d="M513.25,583.32c0.96,1.54,1.78,2.5,2.45,3.12c2.21,1.97,5.33,3.07,8.74,3.07c6,0,9.79-3.31,9.79-8.5
		c0-4.42-2.59-6.77-9.6-8.74c-7.44-2.06-10.27-4.7-10.27-9.46c0-5.33,4.03-8.83,10.32-8.83c2.06,0,3.98,0.43,5.71,1.3
		c1.44,0.72,2.74,1.73,4.03,2.93l-0.96,0.96c-1.06-1.3-2.26-2.3-3.65-3.02c-1.54-0.82-3.26-1.2-5.18-1.2
		c-5.67,0-9.22,3.02-9.22,7.87c0,4.37,2.21,6.34,9.89,8.59c7.3,2.16,9.99,4.7,9.99,9.6c0,5.71-4.37,9.5-10.95,9.5
		c-3.74,0-6.96-1.15-9.36-3.31c-1.01-0.86-1.87-1.92-2.64-3.12L513.25,583.32z"/>
	<path class="st1" d="M542.39,577.27v0.24c0,7.3,4.22,12.1,10.66,12.1c2.54,0,4.99-0.72,6.82-2.06c0.77-0.58,1.39-1.2,1.92-1.92
		l0.77,0.72c-0.43,0.53-1.2,1.25-1.82,1.73c-2.02,1.63-4.75,2.54-7.68,2.54c-6.96,0-11.76-5.33-11.76-13.1
		c0-8.06,4.32-12.96,11.38-12.96c6.72,0,10.51,4.27,10.51,11.86v0.86L542.39,577.27L542.39,577.27z M562.07,576.31
		c0-6.91-3.36-10.75-9.46-10.75c-6,0-9.79,4.03-10.18,10.75H562.07z"/>
	<path class="st1" d="M603.21,590.14c0.1-1.25,0.14-2.26,0.14-3.65v-11.9c0-6.1-2.21-8.88-7.01-8.88c-4.94,0.05-8.3,3.5-8.3,8.54
		v12.24c0,1.39,0.05,2.4,0.14,3.65h-1.39c0.1-1.25,0.14-2.26,0.14-3.65v-11.9c0-6.1-2.21-8.88-7.01-8.88
		c-4.94,0.05-8.3,3.5-8.3,8.54v12.29c0,1.39,0.05,2.4,0.14,3.6h-1.39c0.1-1.2,0.14-2.21,0.14-3.6v-17.76c0-1.44-0.05-2.4-0.14-3.6
		h1.25v2.02c0,1.3-0.05,2.64-0.19,3.6h0.1c1.25-3.7,4.46-6.1,8.59-6.1c4.27,0,6.91,2.26,7.68,6.53c1.06-4.03,4.32-6.53,8.74-6.53
		c5.14,0,7.92,3.26,7.92,9.41v12.38c0,1.39,0.05,2.4,0.14,3.65L603.21,590.14L603.21,590.14z"/>
	<path class="st1" d="M616.07,556.68c0,0.72-0.48,1.2-1.15,1.2s-1.2-0.48-1.2-1.2c0-0.67,0.53-1.15,1.2-1.15
		S616.07,556.01,616.07,556.68z M615.59,565.18c-0.1,1.01-0.14,1.92-0.14,3.6v17.76c0,1.63,0.05,2.59,0.14,3.6h-1.39
		c0.1-1.01,0.14-1.97,0.14-3.6v-17.76c0-1.68-0.05-2.59-0.14-3.6H615.59z"/>
	<path class="st1" d="M643.38,590.14c0.1-1.06,0.14-2.02,0.14-3.6V574.2c0-5.52-2.74-8.5-7.87-8.5c-5.52,0.05-9.26,3.55-9.26,8.59
		v12.24c0,1.63,0.05,2.59,0.14,3.6h-1.39c0.1-1.01,0.14-1.97,0.14-3.6v-17.76c0-1.68-0.05-2.59-0.14-3.6h1.25v2.02
		c0,1.1-0.05,2.5-0.19,3.6h0.14c1.34-3.7,4.85-6.1,9.41-6.1c5.62,0,8.88,3.36,8.88,9.22v12.63c0,1.58,0.05,2.54,0.14,3.6H643.38z"/>
	<path class="st1" d="M669.25,587.93c0-1.1,0.1-2.4,0.24-3.55h-0.1c-1.82,4.03-5.23,6.24-9.55,6.24c-5.28,0-8.35-2.5-8.35-6.72
		c0-5.38,4.46-7.97,13.68-7.97c1.82,0,3.02,0.05,4.03,0.14v-2.35c0-5.57-2.35-7.92-7.68-7.92c-1.78,0-3.22,0.43-4.56,1.1
		c-1.2,0.62-2.16,1.44-2.93,2.3l-0.67-0.86c1.01-1.01,2.06-1.82,3.22-2.4c1.49-0.77,3.12-1.15,5.04-1.15c5.95,0,8.69,2.74,8.69,8.78
		v12.91c0,1.44,0.05,2.45,0.14,3.65h-1.2L669.25,587.93L669.25,587.93z M669.21,577.03c-1.06-0.1-2.26-0.14-4.03-0.14
		c-8.64,0-12.63,2.21-12.63,7.01c0,3.65,2.64,5.71,7.3,5.71c4.37,0,7.49-2.11,9.36-6.24L669.21,577.03L669.21,577.03z M660.13,562.2
		l-0.67-0.38l6.38-9.36l0.96,0.62L660.13,562.2z"/>
	<path class="st1" d="M680.63,571.32c1.3-3.94,4.51-6.58,8.3-6.58c1.49,0,2.88,0.24,3.79,0.72l-0.38,1.06
		c-1.25-0.53-2.35-0.77-3.74-0.77c-3.74,0-6.96,3.17-7.82,7.68v13.11c0,1.63,0.05,2.59,0.14,3.6h-1.39c0.1-1.01,0.14-1.97,0.14-3.6
		v-17.76c0-1.68-0.05-2.59-0.14-3.6h1.25v1.87c0,1.58-0.1,3.41-0.24,4.27L680.63,571.32L680.63,571.32z"/>
	<path class="st1" d="M700.12,556.68c0,0.72-0.48,1.2-1.15,1.2s-1.2-0.48-1.2-1.2c0-0.67,0.53-1.15,1.2-1.15
		S700.12,556.01,700.12,556.68z M699.64,565.18c-0.1,1.01-0.14,1.92-0.14,3.6v17.76c0,1.63,0.05,2.59,0.14,3.6h-1.39
		c0.1-1.01,0.14-1.97,0.14-3.6v-17.76c0-1.68-0.05-2.59-0.14-3.6H699.64z"/>
	<path class="st1" d="M729.64,577.71c0,7.82-4.42,12.91-11.18,12.91c-6.67,0-11.18-5.28-11.18-13.01c0-7.82,4.42-12.91,11.18-12.91
		C725.12,564.7,729.64,569.98,729.64,577.71z M728.53,577.71c0-7.25-3.94-12-10.08-12c-6.19,0-10.08,4.61-10.08,11.9
		c0,7.25,3.94,12,10.08,12C724.64,589.61,728.53,585,728.53,577.71z"/>
	<path class="st1" d="M735.25,585c0.67,1.06,1.54,2.02,2.5,2.78c1.54,1.25,3.7,1.82,6.29,1.82c5.04,0,7.83-2.02,7.83-5.81
		c0-3.31-1.87-4.7-8.07-5.95c-5.71-1.15-7.97-2.98-7.97-6.38c0-4.08,3.26-6.77,8.16-6.77c1.78,0,3.36,0.34,4.8,0.96
		c1.2,0.53,2.4,1.39,3.17,2.26l-0.77,0.82c-0.58-0.72-1.49-1.44-2.59-2.02c-1.39-0.67-2.98-1.01-4.61-1.01
		c-4.42,0-7.06,2.16-7.06,5.76c0,2.83,1.97,4.27,7.06,5.28c6.67,1.34,8.98,3.17,8.98,6.96c0,4.32-3.36,6.91-8.98,6.91
		c-2.83,0-5.04-0.62-6.82-1.97c-1.06-0.77-2.02-1.78-2.74-2.88L735.25,585z"/>
</g>
<g>
	<path class="st1" d="M86.54,533.1c0.96,1.54,1.78,2.5,2.45,3.12c2.21,1.97,5.33,3.07,8.74,3.07c6,0,9.79-3.31,9.79-8.5
		c0-4.42-2.59-6.77-9.6-8.74c-7.44-2.06-10.27-4.7-10.27-9.46c0-5.33,4.03-8.83,10.32-8.83c2.06,0,3.98,0.43,5.71,1.3
		c1.44,0.72,2.74,1.73,4.03,2.93l-0.96,0.96c-1.06-1.3-2.26-2.3-3.65-3.02c-1.54-0.82-3.26-1.2-5.18-1.2
		c-5.66,0-9.22,3.02-9.22,7.87c0,4.37,2.21,6.34,9.89,8.59c7.3,2.16,9.98,4.7,9.98,9.6c0,5.71-4.37,9.5-10.94,9.5
		c-3.74,0-6.96-1.15-9.36-3.31c-1.01-0.86-1.87-1.92-2.64-3.12L86.54,533.1z"/>
	<path class="st1" d="M131.85,537.71c0-1.1,0.1-2.4,0.24-3.55h-0.1c-1.82,4.03-5.23,6.24-9.55,6.24c-5.28,0-8.35-2.5-8.35-6.72
		c0-5.38,4.46-7.97,13.68-7.97c1.82,0,3.02,0.05,4.03,0.14v-2.35c0-5.57-2.35-7.92-7.68-7.92c-1.78,0-3.22,0.43-4.56,1.1
		c-1.2,0.62-2.16,1.44-2.93,2.3l-0.67-0.86c1.01-1.01,2.06-1.82,3.22-2.4c1.49-0.77,3.12-1.15,5.04-1.15c5.95,0,8.69,2.74,8.69,8.79
		v12.91c0,1.44,0.05,2.45,0.14,3.65h-1.2V537.71z M131.8,526.81c-1.06-0.1-2.26-0.14-4.03-0.14c-8.64,0-12.62,2.21-12.62,7.01
		c0,3.65,2.64,5.71,7.3,5.71c4.37,0,7.49-2.11,9.36-6.24L131.8,526.81L131.8,526.81z M122.73,511.97l-0.67-0.38l6.38-9.36l0.96,0.62
		L122.73,511.97z"/>
	<path class="st1" d="M143.27,522.44c1.39-5.04,5.04-8.02,10.18-8.02c6.72,0,11.09,5.09,11.09,13.01c0,7.78-4.42,12.96-11.09,12.96
		c-5.04,0-8.74-3.02-10.13-7.97h-0.14c0.14,0.91,0.24,2.16,0.24,3.46v4.03h-1.25c0.1-1.01,0.14-1.97,0.14-3.6v-29.28
		c0-1.68-0.05-2.59-0.14-3.6h1.39c-0.1,1.01-0.14,1.92-0.14,3.6v11.81c0,1.2-0.1,2.54-0.24,3.6L143.27,522.44L143.27,522.44z
		 M163.43,527.43c0-7.34-3.84-12-9.98-12s-10.03,4.61-10.03,12c0,7.3,3.94,11.95,10.03,11.95
		C159.59,539.38,163.43,534.78,163.43,527.43z"/>
	<path class="st1" d="M187.1,537.71c0-1.1,0.1-2.4,0.24-3.55h-0.1c-1.82,4.03-5.23,6.24-9.55,6.24c-5.28,0-8.35-2.5-8.35-6.72
		c0-5.38,4.46-7.97,13.68-7.97c1.82,0,3.02,0.05,4.03,0.14v-2.35c0-5.57-2.35-7.92-7.68-7.92c-1.78,0-3.22,0.43-4.56,1.1
		c-1.2,0.62-2.16,1.44-2.93,2.3l-0.67-0.86c1.01-1.01,2.06-1.82,3.22-2.4c1.49-0.77,3.12-1.15,5.04-1.15c5.95,0,8.69,2.74,8.69,8.79
		v12.91c0,1.44,0.05,2.45,0.14,3.65h-1.2V537.71z M187.05,526.81c-1.06-0.1-2.26-0.14-4.03-0.14c-8.64,0-12.62,2.21-12.62,7.01
		c0,3.65,2.64,5.71,7.3,5.71c4.37,0,7.49-2.11,9.36-6.24v-6.34H187.05z"/>
	<path class="st1" d="M217.24,536.31c0,1.63,0.05,2.59,0.14,3.6l-1.25,0.05v-3.94c0-1.2,0.1-2.54,0.24-3.6h-0.1
		c-1.39,5.04-5.04,7.97-10.18,7.97c-6.72,0-11.09-5.14-11.09-13.06c0-7.73,4.46-12.91,11.09-12.91c5.09,0,8.74,3.02,10.13,8.02h0.14
		c-0.14-0.67-0.24-2.74-0.24-4.56v-10.85c0-1.68-0.05-2.59-0.14-3.6h1.39c-0.1,1.01-0.14,1.92-0.14,3.6v29.28H217.24z
		 M216.14,527.34c0-7.25-3.94-11.91-10.03-11.91c-6.14,0-9.98,4.61-9.98,11.91c0,7.34,3.84,12.05,9.98,12.05
		C212.3,539.38,216.14,534.78,216.14,527.34z"/>
	<path class="st1" d="M246.95,527.48c0,7.82-4.42,12.91-11.19,12.91c-6.67,0-11.19-5.28-11.19-13.01c0-7.82,4.42-12.91,11.19-12.91
		C242.44,514.47,246.95,519.75,246.95,527.48z M245.85,527.48c0-7.25-3.94-12-10.08-12c-6.19,0-10.08,4.61-10.08,11.91
		c0,7.25,3.94,12,10.08,12C241.96,539.38,245.85,534.78,245.85,527.48z"/>
	<path class="st1" d="M252.57,534.78c0.67,1.06,1.54,2.02,2.5,2.78c1.54,1.25,3.7,1.82,6.29,1.82c5.04,0,7.82-2.02,7.82-5.81
		c0-3.31-1.87-4.7-8.06-5.95c-5.71-1.15-7.97-2.98-7.97-6.38c0-4.08,3.26-6.77,8.16-6.77c1.78,0,3.36,0.34,4.8,0.96
		c1.2,0.53,2.4,1.39,3.17,2.26l-0.77,0.82c-0.58-0.72-1.49-1.44-2.59-2.02c-1.39-0.67-2.98-1.01-4.61-1.01
		c-4.42,0-7.06,2.16-7.06,5.76c0,2.83,1.97,4.27,7.06,5.28c6.67,1.34,8.98,3.17,8.98,6.96c0,4.32-3.36,6.91-8.98,6.91
		c-2.83,0-5.04-0.62-6.82-1.97c-1.06-0.77-2.02-1.78-2.74-2.88L252.57,534.78z"/>
</g>
<g>
	<g>
		<path class="st1" d="M414.23,485.23c1.2,0,2.4,0,3.6-0.14v1.3c-1.2-0.14-2.4-0.14-3.6-0.14H400.6c-1.2,0-2.5,0-3.7,0.14
			c0.14-1.2,0.14-2.4,0.14-3.6v-28.8c0-1.2,0-2.4-0.14-3.65c1.2,0.14,2.5,0.14,3.7,0.14h12.91c1.2,0,2.4,0,3.6-0.14v1.3
			c-1.2-0.14-2.4-0.14-3.6-0.14h-15.36v16.37h13.73c1.2,0,2.4,0,3.6-0.14v1.3c-1.2-0.14-2.4-0.14-3.6-0.14h-13.73v16.37h16.08
			V485.23z"/>
		<path class="st1" d="M443.51,486.23c0.1-1.06,0.14-2.02,0.14-3.6V470.3c0-5.52-2.74-8.5-7.87-8.5c-5.52,0.05-9.26,3.55-9.26,8.59
			v12.24c0,1.63,0.05,2.59,0.14,3.6h-1.39c0.1-1.01,0.14-1.97,0.14-3.6v-17.76c0-1.68-0.05-2.59-0.14-3.6h1.25v2.02
			c0,1.1-0.05,2.5-0.19,3.6h0.14c1.34-3.7,4.85-6.1,9.41-6.1c5.62,0,8.88,3.36,8.88,9.22v12.62c0,1.58,0.05,2.54,0.14,3.6
			L443.51,486.23L443.51,486.23z"/>
		<path class="st1" d="M473.17,482.54c-0.53,0.58-1.1,1.1-1.82,1.68c-2.06,1.63-4.75,2.5-7.63,2.5c-6.86,0-11.62-5.28-11.62-12.96
			c0-7.78,4.56-12.82,11.67-12.82c2.35,0,4.46,0.48,6.24,1.58c1.1,0.72,2.06,1.54,2.78,2.45l-0.86,0.82
			c-0.72-1.01-1.54-1.78-2.78-2.54c-1.54-0.96-3.41-1.3-5.42-1.3c-6.43,0-10.51,4.56-10.51,11.81c0,7.2,4.18,11.95,10.51,11.95
			c2.54,0,4.94-0.67,6.67-1.97c1.01-0.82,1.54-1.3,2.02-1.97L473.17,482.54z"/>
		<path class="st1" d="M500.1,473.8c0,7.82-4.42,12.91-11.18,12.91c-6.67,0-11.18-5.28-11.18-13.01c0-7.82,4.42-12.91,11.18-12.91
			C495.59,460.79,500.1,466.07,500.1,473.8z M499,473.8c0-7.25-3.94-12-10.08-12c-6.19,0-10.08,4.61-10.08,11.91
			c0,7.25,3.94,12,10.08,12C495.11,485.71,499,481.1,499,473.8z"/>
		<path class="st1" d="M525.54,486.23c0.1-1.06,0.14-2.02,0.14-3.6V470.3c0-5.52-2.74-8.5-7.87-8.5c-5.52,0.05-9.26,3.55-9.26,8.59
			v12.24c0,1.63,0.05,2.59,0.14,3.6h-1.39c0.1-1.01,0.14-1.97,0.14-3.6v-17.76c0-1.68-0.05-2.59-0.14-3.6h1.25v2.02
			c0,1.1-0.05,2.5-0.19,3.6h0.14c1.34-3.7,4.85-6.1,9.41-6.1c5.62,0,8.88,3.36,8.88,9.22v12.62c0,1.58,0.05,2.54,0.14,3.6
			L525.54,486.23L525.54,486.23z"/>
		<path class="st1" d="M548.15,485.85c-1.06,0.58-2.5,0.86-3.79,0.86c-4.22,0-6.58-2.21-6.58-5.95v-18.48h-2.4
			c-1.63,0-2.59,0.05-3.65,0.14v-1.3c1.06,0.1,2.02,0.14,3.65,0.14h2.4v-4.37c0-1.68-0.05-2.64-0.14-3.65h1.39
			c-0.1,1.01-0.14,1.97-0.14,3.65v4.37h4.18c1.63,0,2.59-0.05,3.6-0.14v1.3c-1.01-0.1-1.97-0.14-3.6-0.14h-4.18v18.19
			c0,3.41,1.97,5.23,5.47,5.23c1.39,0,2.45-0.29,3.46-0.82L548.15,485.85z"/>
		<path class="st1" d="M553.9,467.42c1.3-3.94,4.51-6.58,8.3-6.58c1.49,0,2.88,0.24,3.79,0.72l-0.38,1.06
			c-1.25-0.53-2.35-0.77-3.74-0.77c-3.74,0-6.96,3.17-7.82,7.68v13.1c0,1.63,0.05,2.59,0.14,3.6h-1.39c0.1-1.01,0.14-1.97,0.14-3.6
			v-17.76c0-1.68-0.05-2.59-0.14-3.6h1.25v1.87c0,1.58-0.1,3.41-0.24,4.27h0.09V467.42z"/>
		<path class="st1" d="M590.05,473.8c0,7.82-4.42,12.91-11.18,12.91c-6.67,0-11.18-5.28-11.18-13.01c0-7.82,4.42-12.91,11.18-12.91
			C585.54,460.79,590.05,466.07,590.05,473.8z M588.95,473.8c0-7.25-3.94-12-10.08-12c-6.19,0-10.08,4.61-10.08,11.91
			c0,7.25,3.94,12,10.08,12C585.06,485.71,588.95,481.1,588.95,473.8z"/>
		<path class="st1" d="M595.66,481.1c0.67,1.06,1.54,2.02,2.5,2.78c1.54,1.25,3.7,1.82,6.29,1.82c5.04,0,7.83-2.02,7.83-5.81
			c0-3.31-1.87-4.7-8.06-5.95c-5.71-1.15-7.97-2.98-7.97-6.38c0-4.08,3.26-6.77,8.16-6.77c1.78,0,3.36,0.34,4.8,0.96
			c1.2,0.53,2.4,1.39,3.17,2.26l-0.77,0.82c-0.58-0.72-1.49-1.44-2.59-2.02c-1.39-0.67-2.98-1.01-4.61-1.01
			c-4.42,0-7.06,2.16-7.06,5.76c0,2.83,1.97,4.27,7.06,5.28c6.67,1.34,8.98,3.17,8.98,6.96c0,4.32-3.36,6.91-8.98,6.91
			c-2.83,0-5.04-0.62-6.82-1.97c-1.06-0.77-2.02-1.78-2.74-2.88L595.66,481.1z"/>
	</g>
</g>
<g>
	<path class="st1" d="M639.07,451.77c6.58,0,10.71,3.7,10.71,9.6c0,6.34-4.61,10.22-12.15,10.22h-8.69v12.34c0,1.2,0,2.4,0.14,3.6
		h-1.39c0.14-1.2,0.14-2.4,0.14-3.6v-28.71c0-1.68-0.05-2.59-0.14-3.6c0.82,0.1,1.58,0.14,2.93,0.14L639.07,451.77L639.07,451.77z
		 M637.63,470.59c7.01,0,11.04-3.26,11.04-9.17c0-5.38-3.79-8.64-9.84-8.64h-9.89v17.81L637.63,470.59L637.63,470.59z"/>
	<path class="st1" d="M670.41,485.33c0-1.1,0.1-2.4,0.24-3.55h-0.1c-1.82,4.03-5.23,6.24-9.55,6.24c-5.28,0-8.35-2.5-8.35-6.72
		c0-5.38,4.46-7.97,13.68-7.97c1.82,0,3.02,0.05,4.03,0.14v-2.35c0-5.57-2.35-7.92-7.68-7.92c-1.78,0-3.22,0.43-4.56,1.1
		c-1.2,0.62-2.16,1.44-2.93,2.3l-0.67-0.86c1.01-1.01,2.06-1.82,3.22-2.4c1.49-0.77,3.12-1.15,5.04-1.15c5.95,0,8.69,2.74,8.69,8.79
		v12.91c0,1.44,0.05,2.45,0.14,3.65h-1.2L670.41,485.33L670.41,485.33z M670.36,474.43c-1.06-0.1-2.26-0.14-4.03-0.14
		c-8.64,0-12.62,2.21-12.62,7.01c0,3.65,2.64,5.71,7.3,5.71c4.37,0,7.49-2.11,9.36-6.24L670.36,474.43L670.36,474.43z"/>
	<path class="st1" d="M682.6,451.05c-0.1,1.01-0.14,1.92-0.14,3.6v29.28c0,1.63,0.05,2.59,0.14,3.6h-1.39
		c0.1-1.01,0.14-1.97,0.14-3.6v-29.28c0-1.68-0.05-2.59-0.14-3.6H682.6z"/>
	<path class="st1" d="M691.38,474.67v0.24c0,7.3,4.22,12.1,10.66,12.1c2.54,0,4.99-0.72,6.82-2.06c0.77-0.58,1.39-1.2,1.92-1.92
		l0.77,0.72c-0.43,0.53-1.2,1.25-1.82,1.73c-2.02,1.63-4.75,2.54-7.68,2.54c-6.96,0-11.76-5.33-11.76-13.1
		c0-8.07,4.32-12.96,11.38-12.96c6.72,0,10.51,4.27,10.51,11.86v0.86L691.38,474.67L691.38,474.67z M711.07,473.71
		c0-6.91-3.36-10.75-9.46-10.75c-6,0-9.79,4.03-10.18,10.75H711.07z"/>
	<path class="st1" d="M717.78,482.4c0.67,1.05,1.54,2.02,2.5,2.78c1.54,1.25,3.7,1.82,6.29,1.82c5.04,0,7.82-2.02,7.82-5.81
		c0-3.31-1.87-4.7-8.06-5.95c-5.71-1.15-7.97-2.98-7.97-6.38c0-4.08,3.26-6.77,8.16-6.77c1.78,0,3.36,0.34,4.8,0.96
		c1.2,0.53,2.4,1.39,3.17,2.26l-0.77,0.82c-0.58-0.72-1.49-1.44-2.59-2.02c-1.39-0.67-2.98-1.01-4.61-1.01
		c-4.42,0-7.06,2.16-7.06,5.76c0,2.83,1.97,4.27,7.06,5.28c6.67,1.34,8.98,3.17,8.98,6.96c0,4.32-3.36,6.91-8.98,6.91
		c-2.83,0-5.04-0.62-6.82-1.97c-1.06-0.77-2.02-1.78-2.74-2.88L717.78,482.4z"/>
	<path class="st1" d="M754.31,487.15c-1.06,0.58-2.5,0.86-3.79,0.86c-4.22,0-6.58-2.21-6.58-5.95v-18.48h-2.4
		c-1.63,0-2.59,0.05-3.65,0.14v-1.3c1.06,0.1,2.02,0.14,3.65,0.14h2.4v-4.37c0-1.68-0.05-2.64-0.14-3.65h1.39
		c-0.1,1.01-0.14,1.97-0.14,3.65v4.37h4.18c1.63,0,2.59-0.05,3.6-0.14v1.3c-1.01-0.1-1.97-0.14-3.6-0.14h-4.18v18.19
		c0,3.41,1.97,5.23,5.47,5.23c1.39,0,2.45-0.29,3.46-0.82L754.31,487.15z"/>
	<path class="st1" d="M760.07,468.72c1.3-3.94,4.51-6.58,8.3-6.58c1.49,0,2.88,0.24,3.79,0.72l-0.38,1.06
		c-1.25-0.53-2.35-0.77-3.74-0.77c-3.74,0-6.96,3.17-7.82,7.68v13.11c0,1.63,0.05,2.59,0.14,3.6h-1.39c0.1-1.01,0.14-1.97,0.14-3.6
		v-17.76c0-1.68-0.05-2.59-0.14-3.6h1.25v1.87c0,1.58-0.1,3.41-0.24,4.27L760.07,468.72L760.07,468.72z"/>
	<path class="st1" d="M791.61,485.33c0-1.1,0.1-2.4,0.24-3.55h-0.1c-1.82,4.03-5.23,6.24-9.55,6.24c-5.28,0-8.35-2.5-8.35-6.72
		c0-5.38,4.46-7.97,13.68-7.97c1.82,0,3.02,0.05,4.03,0.14v-2.35c0-5.57-2.35-7.92-7.68-7.92c-1.78,0-3.22,0.43-4.56,1.1
		c-1.2,0.62-2.16,1.44-2.93,2.3l-0.67-0.86c1.01-1.01,2.06-1.82,3.22-2.4c1.49-0.77,3.12-1.15,5.04-1.15c5.95,0,8.69,2.74,8.69,8.79
		v12.91c0,1.44,0.05,2.45,0.14,3.65h-1.2L791.61,485.33L791.61,485.33z M791.56,474.43c-1.06-0.1-2.26-0.14-4.03-0.14
		c-8.64,0-12.62,2.21-12.62,7.01c0,3.65,2.64,5.71,7.3,5.71c4.37,0,7.49-2.11,9.36-6.24L791.56,474.43L791.56,474.43z"/>
	<path class="st1" d="M800.34,482.4c0.67,1.05,1.54,2.02,2.5,2.78c1.54,1.25,3.7,1.82,6.29,1.82c5.04,0,7.82-2.02,7.82-5.81
		c0-3.31-1.87-4.7-8.06-5.95c-5.71-1.15-7.97-2.98-7.97-6.38c0-4.08,3.26-6.77,8.16-6.77c1.78,0,3.36,0.34,4.8,0.96
		c1.2,0.53,2.4,1.39,3.17,2.26l-0.77,0.82c-0.58-0.72-1.49-1.44-2.59-2.02c-1.39-0.67-2.98-1.01-4.61-1.01
		c-4.42,0-7.06,2.16-7.06,5.76c0,2.83,1.97,4.27,7.06,5.28c6.67,1.34,8.98,3.17,8.98,6.96c0,4.32-3.36,6.91-8.98,6.91
		c-2.83,0-5.04-0.62-6.82-1.97c-1.06-0.77-2.02-1.78-2.74-2.88L800.34,482.4z"/>
</g>
<g>
	<g>
		<rect x="890.76" y="407.98" class="st2" width="284.82" height="17.7"/>
		<rect x="890.76" y="208.33" class="st3" width="284.82" height="208.18"/>
		<rect x="890.76" y="159.78" class="st4" width="284.82" height="48.55"/>
		<rect x="890.76" y="159.78" class="st5" width="142.41" height="48.55"/>
		<g>
			<g>
				<path class="st6" d="M1031.8,173.42c0,4.51-3.66,8.16-8.16,8.16c-4.51,0-8.16-3.65-8.16-8.16c0-4.51,3.65-8.16,8.16-8.16
					S1031.8,168.92,1031.8,173.42z"/>
				<path class="st3" d="M1028.95,172.19c0,2.93-2.38,5.31-5.31,5.31l0,0c-2.93,0-5.31-2.38-5.31-5.31v-19.53
					c0-2.93,2.38-5.31,5.31-5.31l0,0c2.93,0,5.31,2.38,5.31,5.31V172.19z"/>
			</g>
			<g>
				<path class="st6" d="M1050.87,173.42c0,4.51-3.65,8.16-8.16,8.16s-8.16-3.65-8.16-8.16c0-4.51,3.66-8.16,8.16-8.16
					C1047.22,165.26,1050.87,168.92,1050.87,173.42z"/>
				<path class="st3" d="M1048.02,172.19c0,2.93-2.38,5.31-5.31,5.31l0,0c-2.93,0-5.31-2.38-5.31-5.31v-19.53
					c0-2.93,2.38-5.31,5.31-5.31l0,0c2.93,0,5.31,2.38,5.31,5.31V172.19z"/>
			</g>
		</g>
		<g>
			<g>
				<g>
					<path class="st6" d="M978.5,173.42c0,4.51-3.66,8.16-8.16,8.16c-4.51,0-8.16-3.65-8.16-8.16c0-4.51,3.66-8.16,8.16-8.16
						C974.85,165.26,978.5,168.92,978.5,173.42z"/>
					<path class="st3" d="M975.65,172.19c0,2.93-2.38,5.31-5.31,5.31l0,0c-2.93,0-5.31-2.38-5.31-5.31v-19.53
						c0-2.93,2.38-5.31,5.31-5.31l0,0c2.93,0,5.31,2.38,5.31,5.31V172.19z"/>
				</g>
				<g>
					<path class="st6" d="M997.58,173.42c0,4.51-3.65,8.16-8.16,8.16c-4.51,0-8.16-3.65-8.16-8.16c0-4.51,3.65-8.16,8.16-8.16
						C993.92,165.26,997.58,168.92,997.58,173.42z"/>
					<path class="st3" d="M994.72,172.19c0,2.93-2.38,5.31-5.31,5.31l0,0c-2.93,0-5.31-2.38-5.31-5.31v-19.53
						c0-2.93,2.38-5.31,5.31-5.31l0,0c2.93,0,5.31,2.38,5.31,5.31V172.19z"/>
				</g>
			</g>
			<g>
				<g>
					<circle class="st6" cx="1076.93" cy="173.42" r="8.16"/>
					<path class="st3" d="M1082.25,172.19c0,2.93-2.38,5.31-5.31,5.31l0,0c-2.93,0-5.31-2.38-5.31-5.31v-19.53
						c0-2.93,2.38-5.31,5.31-5.31l0,0c2.93,0,5.31,2.38,5.31,5.31V172.19z"/>
				</g>
				<g>
					<path class="st6" d="M1104.17,173.42c0,4.51-3.66,8.16-8.16,8.16c-4.51,0-8.16-3.65-8.16-8.16c0-4.51,3.65-8.16,8.16-8.16
						S1104.17,168.92,1104.17,173.42z"/>
					<path class="st3" d="M1101.32,172.19c0,2.93-2.38,5.31-5.31,5.31l0,0c-2.93,0-5.31-2.38-5.31-5.31v-19.53
						c0-2.93,2.38-5.31,5.31-5.31l0,0c2.93,0,5.31,2.38,5.31,5.31V172.19z"/>
				</g>
			</g>
		</g>
		<g>
			<g>
				<g>
					<path class="st6" d="M924.61,173.42c0,4.51-3.66,8.16-8.16,8.16c-4.51,0-8.16-3.65-8.16-8.16c0-4.51,3.65-8.16,8.16-8.16
						C920.95,165.26,924.61,168.92,924.61,173.42z"/>
					<path class="st3" d="M921.76,172.19c0,2.93-2.38,5.31-5.31,5.31l0,0c-2.93,0-5.31-2.38-5.31-5.31v-19.53
						c0-2.93,2.38-5.31,5.31-5.31l0,0c2.93,0,5.31,2.38,5.31,5.31V172.19z"/>
				</g>
				<g>
					<path class="st6" d="M943.68,173.42c0,4.51-3.65,8.16-8.16,8.16c-4.51,0-8.16-3.65-8.16-8.16c0-4.51,3.65-8.16,8.16-8.16
						C940.03,165.26,943.68,168.92,943.68,173.42z"/>
					<path class="st3" d="M940.83,172.19c0,2.93-2.38,5.31-5.31,5.31l0,0c-2.93,0-5.31-2.38-5.31-5.31v-19.53
						c0-2.93,2.38-5.31,5.31-5.31l0,0c2.93,0,5.31,2.38,5.31,5.31V172.19z"/>
				</g>
			</g>
			<g>
				<g>
					<path class="st6" d="M1138.99,173.42c0,4.51-3.65,8.16-8.16,8.16s-8.16-3.65-8.16-8.16c0-4.51,3.65-8.16,8.16-8.16
						S1138.99,168.92,1138.99,173.42z"/>
					<path class="st3" d="M1136.14,172.19c0,2.93-2.38,5.31-5.31,5.31l0,0c-2.93,0-5.31-2.38-5.31-5.31v-19.53
						c0-2.93,2.38-5.31,5.31-5.31l0,0c2.93,0,5.31,2.38,5.31,5.31V172.19z"/>
				</g>
				<g>
					<path class="st6" d="M1158.06,173.42c0,4.51-3.65,8.16-8.16,8.16s-8.16-3.65-8.16-8.16c0-4.51,3.66-8.16,8.16-8.16
						C1154.41,165.26,1158.06,168.92,1158.06,173.42z"/>
					<path class="st3" d="M1155.21,172.19c0,2.93-2.38,5.31-5.31,5.31l0,0c-2.93,0-5.31-2.38-5.31-5.31v-19.53
						c0-2.93,2.38-5.31,5.31-5.31l0,0c2.93,0,5.31,2.38,5.31,5.31V172.19z"/>
				</g>
			</g>
		</g>
		<rect x="1020.81" y="231.35" class="st2" width="24.73" height="23.69"/>
		<g>
			<rect x="1058.2" y="231.35" class="st2" width="24.74" height="23.69"/>
		</g>
		<g>
			<rect x="1095.13" y="231.35" class="st4" width="24.73" height="23.69"/>
		</g>
		<g>
			<rect x="1132.04" y="231.35" class="st4" width="24.73" height="23.69"/>
		</g>
		<rect x="1020.81" y="266.46" class="st2" width="24.73" height="23.7"/>
		<g>
			<rect x="983.41" y="266.46" class="st2" width="24.74" height="23.7"/>
			<rect x="1058.2" y="266.46" class="st2" width="24.74" height="23.7"/>
		</g>
		<g>
			<rect x="946.48" y="266.46" class="st2" width="24.74" height="23.7"/>
			<rect x="1095.13" y="266.46" class="st4" width="24.73" height="23.7"/>
		</g>
		<g>
			<rect x="909.57" y="266.46" class="st2" width="24.73" height="23.7"/>
			<rect x="1132.04" y="266.46" class="st4" width="24.73" height="23.7"/>
		</g>
		<rect x="1020.81" y="300.94" class="st2" width="24.73" height="23.69"/>
		<g>
			<rect x="983.41" y="300.94" class="st2" width="24.74" height="23.69"/>
			<rect x="1058.2" y="300.94" class="st2" width="24.74" height="23.69"/>
		</g>
		<g>
			<rect x="946.48" y="300.94" class="st2" width="24.74" height="23.69"/>
			<rect x="1095.13" y="300.94" class="st4" width="24.73" height="23.69"/>
		</g>
		<g>
			<rect x="909.57" y="300.94" class="st2" width="24.73" height="23.69"/>
			<rect x="1132.04" y="300.94" class="st4" width="24.73" height="23.69"/>
		</g>
		<rect x="1020.81" y="336.71" class="st2" width="24.73" height="23.69"/>
		<g>
			<rect x="983.41" y="336.71" class="st2" width="24.74" height="23.69"/>
			<rect x="1058.2" y="336.71" class="st2" width="24.74" height="23.69"/>
		</g>
		<g>
			<rect x="946.48" y="336.71" class="st2" width="24.74" height="23.69"/>
			<rect x="1095.13" y="336.71" class="st4" width="24.73" height="23.69"/>
		</g>
		<g>
			<rect x="909.57" y="336.71" class="st2" width="24.73" height="23.69"/>
			<rect x="1132.04" y="336.71" class="st4" width="24.73" height="23.69"/>
		</g>
		<rect x="1020.81" y="371.83" class="st2" width="24.73" height="23.7"/>
		<g>
			<rect x="983.41" y="371.83" class="st2" width="24.74" height="23.7"/>
			<rect x="1058.2" y="371.83" class="st2" width="24.74" height="23.7"/>
		</g>
		<g>
			<rect x="946.48" y="371.83" class="st2" width="24.74" height="23.7"/>
		</g>
		<g>
			<rect x="909.57" y="371.83" class="st2" width="24.73" height="23.7"/>
		</g>
		<path class="st7" d="M943.41,336.52c1.61-0.84,3.23-1.66,4.89-2.42c1.49-0.69,4.58-1.63-1.94,0.64c1.24-0.43,2.52-0.75,3.81-1.03
			c3.88-0.83,7.83-0.53,11.57,0.75c8.12,2.77,14.62,10.65,13.38,19.49c-0.54,3.89-3.89,7.28-6.94,9.46
			c-1.43,1.02-3.56,1.27,1.25-0.09c-1.09,0.31-2.22,0.44-3.35,0.55c-2,0.19-4.02-0.05-5.98-0.44c-8.17-1.59-14.88-7.87-17.82-15.5
			c-0.03-0.06-6.73,2.51-6.72,2.54c3.84,9.97,13.84,16.89,24.66,15.86c3.87-0.37,8.01-2.2,11.52-3.77
			c4.66-2.08,8.97-6.01,10.11-11.15c2.53-11.39-10.06-20.41-20.08-20.72c-4.46-0.14-8.71,1.45-12.81,2.99
			c-4.2,1.58-8.26,3.31-12.24,5.38C938.8,337.97,941.29,337.62,943.41,336.52L943.41,336.52z"/>
		<rect x="890.76" y="208.33" class="st8" width="284.82" height="7.54"/>
	</g>
	<g>
		<g>
			<defs>
				<rect id="SVGID_1_" x="783.17" y="36.51" width="500" height="500"/>
			</defs>
			<clipPath id="SVGID_2_">
				<use xlink:href="#SVGID_1_"  style="overflow:visible;"/>
			</clipPath>
			<path class="st9" d="M1172.14,536.51c0,0-58.16-58.66-61.23-71.66s-2.57-30.79-2.57-30.79s-48.93-33.65-54.16-51.66
				s-18.97-41.7-18.97-41.7l-49.2,2.04l54.79-18.04c0,0,49.44,16,57.74,16s12.37-35.78,12.37-35.78l17.52,16.67l0.49,83.83
				l86.76,131.09H1172.14z"/>
		</g>
		<g>
			<defs>
				<rect id="SVGID_3_" x="783.17" y="36.51" width="500" height="500"/>
			</defs>
			<clipPath id="SVGID_4_">
				<use xlink:href="#SVGID_3_"  style="overflow:visible;"/>
			</clipPath>
			<g class="st10">
				<g>
					<g>
						<path class="st11" d="M1058.38,340.07c-4.34,0-8.55-2.34-10.72-6.45c-3.14-5.92-0.89-13.26,5.03-16.4l57.93-30.74
							c5.92-3.14,13.26-0.89,16.4,5.03s0.89,13.26-5.03,16.4l-57.93,30.74C1062.25,339.61,1060.3,340.07,1058.38,340.07z"/>
						<path class="st12" d="M1044.86,324.7c-4.35,0-8.55-2.34-10.73-6.45c-3.14-5.92-0.89-13.26,5.03-16.4l57.93-30.74
							c5.92-3.14,13.26-0.89,16.4,5.03s0.89,13.26-5.03,16.4l-57.93,30.74C1048.72,324.24,1046.78,324.7,1044.86,324.7z"/>
						<path class="st13" d="M1172.09,377.98l-5.51-59.69c-0.2-2.16-0.97-4.22-2.24-5.98l-46.21-64.05c-3.6-4.99-10.36-6.5-15.73-3.5
							l-75.17,41.83c-5.85,3.26-7.96,10.65-4.7,16.5c3.26,5.85,10.64,7.96,16.5,4.7l58.56-32.59l19.39,37.71
							c0,0,4.23,60.92-38.27,24.74l7.62,23.51c-2.19,3.45-2.49,7.78-0.81,11.5l16.87,37.28c1.4,3.08,4.02,5.44,7.24,6.51
							c1.24,0.41,2.53,0.61,3.81,0.61c2.04,0,4.07-0.51,5.89-1.52l46.57-25.83C1170.11,387.37,1172.54,382.77,1172.09,377.98z
							 M1119.07,387.94l-8.74-19.31l30.3-47.72l2.1,2.91l4.48,48.51L1119.07,387.94z"/>
						<polygon class="st13" points="1121.2,283.19 1121.2,340.24 1087.34,367.69 1111.1,394.33 1150.97,376.9 1155.07,328.64 						
							"/>
						<path class="st13" d="M1185.84,501.65c-3.43,0-6.83-1.45-9.22-4.24l-72.39-84.59c-2.23-2.6-3.25-6.03-2.81-9.44
							s2.29-6.46,5.11-8.41l41.63-28.91c5.16-3.58,12.2-2.63,16.22,2.18l69.77,83.44c2.12,2.53,3.11,5.82,2.75,9.1
							s-2.04,6.27-4.65,8.29l-39.01,30.05C1191.03,500.83,1188.43,501.65,1185.84,501.65z M1131.38,407.24l56.17,65.64l19.88-15.32
							l-54.56-65.25L1131.38,407.24z"/>
						<path class="st13" d="M1146.08,358.29c2.65,5.46,77.19,100.03,77.19,100.03l-33.92,28.48l-70.06-91.93L1146.08,358.29z"/>
						<g>
							
								<rect x="1012.67" y="278.04" transform="matrix(0.8969 -0.4422 0.4422 0.8969 -15.787 512.903)" class="st14" width="159.05" height="24.55"/>
							
								<rect x="1012.69" y="285.05" transform="matrix(0.8969 -0.4422 0.4422 0.8969 -15.8366 512.9254)" class="st15" width="159.05" height="10.75"/>
							<polygon class="st16" points="986.01,342.74 1007.97,339.37 1026.33,336.55 1029.8,331.42 1023.61,331.05 1027.08,325.91 
								1020.9,325.54 1024.37,320.41 1018.18,320.03 1021.65,314.9 1015.47,314.53 							"/>
							<polygon class="st7" points="1003.65,340.03 998.9,330.4 986.01,342.74 							"/>
							
								<rect x="1163.21" y="241.32" transform="matrix(0.897 -0.4421 0.4421 0.897 8.1078 541.985)" class="st3" width="7.32" height="24.56"/>
							
								<rect x="1169.45" y="236.43" transform="matrix(0.8969 -0.4422 0.4422 0.8969 11.3214 545.9852)" class="st17" width="14.51" height="24.56"/>
						</g>
						<path class="st13" d="M1083.73,371.23c-2.99,0-5.99-1.1-8.33-3.32l-43.02-40.69c-4.87-4.6-5.08-12.28-0.48-17.15
							s12.28-5.08,17.15-0.48l43.02,40.69c4.87,4.6,5.08,12.28,0.48,17.15C1090.16,369.96,1086.95,371.23,1083.73,371.23z"/>
						<path class="st13" d="M1130.93,439.01c-2.7,0-5.41-0.9-7.65-2.72c-0.41-0.34-10.23-8.33-20.91-17.83
							c-20.32-18.1-25.33-25.24-27.42-29.45c-3.68-7.41-28.97-42.84-44.04-63.44c-3.87-5.29-2.84-12.69,2.33-16.73
							c5.16-4.03,12.6-3.23,16.79,1.8l90.23,108.47c3.99,4.8,3.69,11.84-0.7,16.29C1137.2,437.79,1134.08,439.01,1130.93,439.01z"/>
						<polygon class="st18" points="1143.07,283.19 1110.03,299.4 1108.34,296.12 1141.03,280 						"/>
						<path class="st18" d="M1124.57,257.18c0,0-89.58,47.08-97.73,45.24c-8.8-1.99-3.74-12.04-3.74-12.04s-8.95,12.09,5.49,17.69
							l97.88-48.25L1124.57,257.18z"/>
					</g>
					<path class="st19" d="M1040.71,331.16l12.42-9.47c0,0-7.47-12.42-14.6-9.13C1025.85,318.41,1040.71,331.16,1040.71,331.16z"/>
					<path class="st18" d="M1050.85,340.29l9.11-9.13C1059.96,331.16,1058.44,341.05,1050.85,340.29z"/>
					<path class="st18" d="M1055.41,344.88l9.11-9.13C1064.52,335.75,1063,345.64,1055.41,344.88z"/>
					<path class="st18" d="M1059.96,347.89l9.11-9.13C1069.07,338.76,1067.55,348.65,1059.96,347.89z"/>
					<path class="st18" d="M1029.8,323.68c0,0,37.2,51.34,50.7,65.7c11.51,12.24,28.64,23.97,45.23,25.91s55.99-26.29,55.99-26.29
						l3.62,4.33l-56.92,47.78c0,0-35.68-29.21-44.79-38.6c-9.12-9.39-17.77-24.81-21.42-29.86
						C1030.74,329.15,1035.05,332.95,1029.8,323.68z"/>
				</g>
				
					<rect x="1175.03" y="395.93" transform="matrix(0.7627 -0.6468 0.6468 0.7627 -26.484 901.8889)" class="st3" width="81.39" height="182.21"/>
				
					<rect x="1173.42" y="417.61" transform="matrix(0.7627 -0.6468 0.6468 0.7627 -31.6939 908.0458)" class="st17" width="96.16" height="159.2"/>
				
					<rect x="1178.85" y="432.11" transform="matrix(0.7627 -0.6468 0.6468 0.7627 -44.966 900.87)" class="st20" width="52.48" height="159.2"/>
			</g>
		</g>
	</g>
</g>
<g>
	<path class="st21" d="M225.83,277.39c4.34-18.69,9.01-37.32,12.85-56.11c1.47-7.19,4.42-10.18,11.9-9.43
		c8.66,0.87,17.4,0.98,26.1,1.44c5.84,0.31,8.52,2.3,6.72,8.96c-10.25,37.94-20.21,75.96-30.16,113.98
		c-1.38,5.29-4.18,8.01-9.92,8.04c-7.92,0.04-16.11-0.59-23.7,1.14c-13.35,3.04-17.83-2.91-21.21-14.64
		c-7.83-27.18-17.11-53.95-25.74-80.9c-1.57-4.91-1.57-8.43-9.59-5.09c-8.33,3.48-18.69,2.14-28.16,2.95
		c-3.48,0.3-7.64-0.14-7.55,5.17c0.09,5.27,4.28,4.68,7.72,5.01c19.82,1.91,19.37,1.86,17.32,20.71c-0.84,7.76-4.22,9.24-11.23,9.93
		c-6.3,0.62-18.14-4.73-17.3,7.36c0.7,10.05,11.54,5.03,17.66,5.24c20.17,0.71,20.19,0.28,19.45,20.16
		c-0.78,20.83-0.78,20.87-22.14,21.59c-17.03,0.58-34.07,0.85-51.09,1.65c-6.69,0.31-9.26-2.04-9.07-8.72
		c1.09-38.9,2.09-77.81,2.79-116.72c0.13-7.41,3.36-9.23,10.19-9.14c22.58,0.29,45.48-2.09,67.65,0.9c14.14,1.91,27.72,1.56,41.57,1
		c6.85-0.28,7.57,4.29,8.67,8.89c4.56,19.03,9.07,38.06,13.6,57.1C224.05,277.7,224.94,277.55,225.83,277.39z"/>
	<path class="st21" d="M425.72,281.17c-4.28,18.55-2.93,34.3-4.23,49.8c-0.73,8.68-3.52,12.01-12.86,12.02
		c-31.66,0.01-31.58,0.38-30.68-30.62c0.85-29.43,1.84-58.87,2.06-88.31c0.07-9.77,2.74-13.79,13.37-14.1
		c35.05-1.04,35.03-1.44,50.36,30.08c4.27,8.77,8.58,17.52,12.87,26.28c1.29-0.06,2.57-0.12,3.86-0.18c0-12.04-0.1-24.09,0.02-36.13
		c0.2-19.87-1.8-17.25,17.89-17.94c0.79-0.03,1.58-0.04,2.37-0.06c26.1-0.68,25.84-0.7,24.21,24.87c-1.8,28.2-3.47,56.43-4.34,84.67
		c-0.35,11.15-2.88,18.01-15.83,17.16c-5.46-0.36-11.02,0.9-16.54,1.29c-19.14,1.35-19.14,1.33-26.23-16.88
		C436.94,310.08,431.88,297.03,425.72,281.17z"/>
	<path class="st21" d="M669.05,219.34c36.5,0.4,59.3,23.91,58.87,60.73c-0.41,35.08-26.19,60.87-60.44,60.47
		c-33.08-0.39-58.85-26.74-58.59-59.92C609.15,246.17,635.84,218.98,669.05,219.34z M685.06,280.48
		c-0.22-10.96-7.35-18.82-16.99-18.72c-10,0.1-17.67,8.99-17.17,19.91c0.48,10.46,8.52,19.46,17.08,19.15
		C677.81,300.45,685.28,291.55,685.06,280.48z"/>
	<path class="st21" d="M734.56,295.3c10.18,3.28,19.26,7.31,29.16,8.33c4.73,0.48,9.49,1.07,14.15-0.41
		c2.65-0.84,5.55-1.87,5.59-5.24c0.04-3.38-2.69-4.62-5.5-5.15c-3.49-0.66-7.04-1.23-10.59-1.36c-15.45-0.6-28-6.02-34.03-21.11
		c-6.53-16.35-3.96-31.85,7.15-45.4c14.6-17.82,56.13-24.61,76.17-13.16c2.76,1.57,4.3,3.26,4.03,6.39c-0.2,2.35-0.38,4.7-0.64,7.05
		c-0.86,7.8,0.71,17.25-3.23,22.98c-5.1,7.41-14.03-1.7-21.55-0.51c-5.03,0.8-10.27,0.2-15.36,0.73c-2.77,0.29-5.63,1.82-5.78,5.03
		c-0.16,3.34,2.82,4.59,5.5,5.24c2.66,0.64,5.49,0.88,8.24,0.84c17.05-0.26,31.8,4,38.46,21.43c6.66,17.43-0.13,41.1-14.83,52.44
		c-16.59,12.79-35.68,14.44-55.35,9.78c-26.52-6.29-27.33-7.9-23.75-34.63C732.96,304.3,733.77,300.1,734.56,295.3z"/>
	<path class="st21" d="M289.02,278c0-19.24,0.26-38.48-0.13-57.71c-0.15-7.72,2.69-10.18,10.36-10.04
		c22.17,0.4,44.35,0.32,66.52,0.04c7.01-0.09,10.12,2,9.64,9.42c-1.99,31.22,3.6,25.06-26.75,27.97c-2.36,0.23-4.75,0.21-7.11,0.4
		c-3.11,0.25-6.59-0.07-6.91,4.5c-0.36,5.28,3.39,5.37,7.05,5.62c0.79,0.05,1.58,0.08,2.37,0.06c16.22-0.36,17.06-2.96,16.37,17.78
		c-0.32,9.54-3.79,13.72-13.48,12.6c-2.72-0.31-5.53,0.18-8.3,0.25c-4.7,0.13-7.47,2.12-7.31,7.16c0.16,4.97,3.75,5.46,7.45,5.54
		c7.12,0.15,14.26,0.36,21.38,0.08c7.06-0.28,9.67,2.21,9.44,9.61c-0.98,30.86-0.76,30.96-31.71,32.36
		c-13.45,0.61-26.95,0.26-40.36,1.27c-9.36,0.7-8.79-5.46-8.54-13.91c0.53-18.44,0-32.54,0-51C289.82,280,288.19,278,289.02,278z"/>
	<path class="st21" d="M560.72,211.65c12.68,0,25.42,0.69,38.03-0.21c11.06-0.78,14.37,3.58,12.46,13.63
		c-0.29,1.53-0.14,3.14-0.18,4.71c-0.59,20.34-0.55,20.68-20.78,22.65c-7.47,0.73-7.73,5.18-8.14,10.45
		c-1.68,21.95-3.73,43.87-4.9,65.84c-0.44,8.26-3.04,11.43-11.77,12.1c-29.78,2.28-29.75,2.65-29.67-27.17
		c0.04-15.33-0.4-30.69,0.27-46c0.42-9.59-2.22-13.42-12.61-12.47c-15.5,1.42-15.55,0.83-15.29-14.4
		c0.5-28.96,0.5-28.96,29.99-29.02c7.53-0.02,15.06,0,22.59,0C560.72,211.72,560.72,211.68,560.72,211.65z"/>
</g>
<g>
	<path class="st1" d="M286.78,555.01c-0.14,1.2-0.14,2.4-0.14,3.6v28.56c0,1.2,0,2.4,0.14,3.6h-1.39c0.14-1.2,0.14-2.4,0.14-3.6
		v-28.56c0-1.2,0-2.4-0.14-3.6H286.78z"/>
	<path class="st1" d="M315.58,590.77c0.1-1.06,0.14-2.02,0.14-3.6v-12.34c0-5.52-2.74-8.5-7.87-8.5c-5.52,0.05-9.26,3.55-9.26,8.59
		v12.24c0,1.63,0.05,2.59,0.14,3.6h-1.39c0.1-1.01,0.14-1.97,0.14-3.6V569.4c0-1.68-0.05-2.59-0.14-3.6h1.25v2.02
		c0,1.1-0.05,2.5-0.19,3.6h0.14c1.34-3.7,4.85-6.1,9.41-6.1c5.62,0,8.88,3.36,8.88,9.22v12.63c0,1.58,0.05,2.54,0.14,3.6H315.58z"/>
	<path class="st1" d="M338.19,590.39c-1.06,0.58-2.5,0.86-3.79,0.86c-4.22,0-6.58-2.21-6.58-5.95v-18.48h-2.4
		c-1.63,0-2.59,0.05-3.65,0.14v-1.3c1.06,0.1,2.02,0.14,3.65,0.14h2.4v-4.37c0-1.68-0.05-2.64-0.14-3.65h1.39
		c-0.1,1.01-0.14,1.97-0.14,3.65v4.37h4.18c1.63,0,2.59-0.05,3.6-0.14v1.3c-1.01-0.1-1.97-0.14-3.6-0.14h-4.18v18.19
		c0,3.41,1.97,5.23,5.47,5.23c1.39,0,2.45-0.29,3.46-0.82L338.19,590.39z"/>
	<path class="st1" d="M342.08,577.91v0.24c0,7.3,4.22,12.1,10.66,12.1c2.54,0,4.99-0.72,6.82-2.06c0.77-0.58,1.39-1.2,1.92-1.92
		l0.77,0.72c-0.43,0.53-1.2,1.25-1.82,1.73c-2.02,1.63-4.75,2.54-7.68,2.54c-6.96,0-11.76-5.33-11.76-13.1
		c0-8.06,4.32-12.96,11.38-12.96c6.72,0,10.51,4.27,10.51,11.86v0.86L342.08,577.91L342.08,577.91z M361.76,576.95
		c0-6.91-3.36-10.75-9.46-10.75c-6,0-9.79,4.03-10.18,10.75H361.76z"/>
	<path class="st1" d="M371.12,571.95c1.3-3.94,4.51-6.58,8.3-6.58c1.49,0,2.88,0.24,3.79,0.72l-0.38,1.06
		c-1.25-0.53-2.35-0.77-3.74-0.77c-3.74,0-6.96,3.17-7.82,7.68v13.11c0,1.63,0.05,2.59,0.14,3.6h-1.39c0.1-1.01,0.14-1.97,0.14-3.6
		v-17.76c0-1.68-0.05-2.59-0.14-3.6h1.25v1.87c0,1.58-0.1,3.41-0.24,4.27L371.12,571.95L371.12,571.95z"/>
	<path class="st1" d="M400.83,590.39c-1.06,0.58-2.5,0.86-3.79,0.86c-4.22,0-6.58-2.21-6.58-5.95v-18.48h-2.4
		c-1.63,0-2.59,0.05-3.65,0.14v-1.3c1.06,0.1,2.02,0.14,3.65,0.14h2.4v-4.37c0-1.68-0.05-2.64-0.14-3.65h1.39
		c-0.1,1.01-0.14,1.97-0.14,3.65v4.37h4.18c1.63,0,2.59-0.05,3.6-0.14v1.3c-1.01-0.1-1.97-0.14-3.6-0.14h-4.18v18.19
		c0,3.41,1.97,5.23,5.47,5.23c1.39,0,2.45-0.29,3.46-0.82L400.83,590.39z"/>
	<path class="st1" d="M423.77,590.77c0.1-1.06,0.14-2.02,0.14-3.6v-12.34c0-5.52-2.74-8.5-7.87-8.5c-5.52,0.05-9.26,3.55-9.26,8.59
		v12.24c0,1.63,0.05,2.59,0.14,3.6h-1.39c0.1-1.01,0.14-1.97,0.14-3.6V569.4c0-1.68-0.05-2.59-0.14-3.6h1.25v2.02
		c0,1.1-0.05,2.5-0.19,3.6h0.14c1.34-3.7,4.85-6.1,9.41-6.1c5.62,0,8.88,3.36,8.88,9.22v12.63c0,1.58,0.05,2.54,0.14,3.6H423.77z"/>
	<path class="st1" d="M453.77,587.17c0,1.63,0.05,2.59,0.14,3.6h-1.25v-2.02c0-1.1,0.05-2.5,0.14-3.6h-0.1
		c-1.34,3.7-4.85,6.1-9.41,6.1c-5.62,0-8.88-3.31-8.88-9.17v-12.67c0-1.68-0.05-2.59-0.14-3.6h1.39c-0.1,1.01-0.14,1.92-0.14,3.6
		v12.39c0,5.52,2.74,8.45,7.87,8.45c5.52-0.05,9.26-3.5,9.26-8.54v-12.29c0-1.68-0.05-2.59-0.14-3.6h1.39
		c-0.1,1.01-0.14,1.92-0.14,3.6v17.75H453.77z"/>
	<path class="st1" d="M483.44,578.34c0,7.82-4.42,12.91-11.18,12.91c-6.67,0-11.18-5.28-11.18-13.01c0-7.82,4.42-12.91,11.18-12.91
		C478.92,565.33,483.44,570.61,483.44,578.34z M482.33,578.34c0-7.25-3.94-12-10.08-12c-6.19,0-10.08,4.61-10.08,11.9
		c0,7.25,3.94,12,10.08,12C478.44,590.24,482.33,585.64,482.33,578.34z"/>
	<path class="st1" d="M502.73,590.39c-1.06,0.58-2.5,0.86-3.79,0.86c-4.22,0-6.58-2.21-6.58-5.95v-18.48h-2.4
		c-1.63,0-2.59,0.05-3.65,0.14v-1.3c1.06,0.1,2.02,0.14,3.65,0.14h2.4v-4.37c0-1.68-0.05-2.64-0.14-3.65h1.39
		c-0.1,1.01-0.14,1.97-0.14,3.65v4.37h4.18c1.63,0,2.59-0.05,3.6-0.14v1.3c-1.01-0.1-1.97-0.14-3.6-0.14h-4.18v18.19
		c0,3.41,1.97,5.23,5.47,5.23c1.39,0,2.45-0.29,3.46-0.82L502.73,590.39z"/>
</g>
<g>
	<path class="st1" d="M703.89,537.17c0,1.2,0,2.4,0.14,3.6h-1.39c0.14-1.2,0.14-2.4,0.14-3.6v-14.59h-24.63v14.59
		c0,1.2,0,2.4,0.14,3.6h-1.39c0.14-1.2,0.14-2.4,0.14-3.6v-28.56c0-1.2,0-2.4-0.14-3.6h1.39c-0.14,1.2-0.14,2.4-0.14,3.6v12.96
		h24.63v-12.96c0-1.2,0-2.4-0.14-3.6h1.39c-0.14,1.2-0.14,2.4-0.14,3.6V537.17z"/>
	<path class="st1" d="M728.99,538.56c0-1.1,0.1-2.4,0.24-3.55h-0.1c-1.82,4.03-5.23,6.24-9.55,6.24c-5.28,0-8.35-2.5-8.35-6.72
		c0-5.38,4.46-7.97,13.68-7.97c1.82,0,3.02,0.05,4.03,0.14v-2.35c0-5.57-2.35-7.92-7.68-7.92c-1.78,0-3.22,0.43-4.56,1.1
		c-1.2,0.62-2.16,1.44-2.93,2.3l-0.67-0.86c1.01-1.01,2.06-1.82,3.22-2.4c1.49-0.77,3.12-1.15,5.04-1.15c5.95,0,8.69,2.74,8.69,8.78
		v12.91c0,1.44,0.05,2.45,0.14,3.65h-1.2L728.99,538.56L728.99,538.56z M728.94,527.67c-1.06-0.1-2.26-0.14-4.03-0.14
		c-8.64,0-12.63,2.21-12.63,7.01c0,3.65,2.64,5.71,7.3,5.71c4.37,0,7.49-2.11,9.36-6.24L728.94,527.67L728.94,527.67z"/>
	<path class="st1" d="M740.41,523.3c1.39-5.04,5.04-8.02,10.18-8.02c6.72,0,11.09,5.09,11.09,13.01c0,7.78-4.42,12.96-11.09,12.96
		c-5.04,0-8.74-3.02-10.13-7.97h-0.14c0.14,0.91,0.24,2.16,0.24,3.46v4.03h-1.25c0.1-1.01,0.14-1.97,0.14-3.6v-29.28
		c0-1.68-0.05-2.59-0.14-3.6h1.39c-0.1,1.01-0.14,1.92-0.14,3.6v11.81c0,1.2-0.1,2.54-0.24,3.6L740.41,523.3L740.41,523.3z
		 M760.57,528.29c0-7.34-3.84-12-9.98-12s-10.03,4.61-10.03,12c0,7.3,3.94,11.95,10.03,11.95
		C756.73,540.24,760.57,535.64,760.57,528.29z"/>
	<path class="st1" d="M789.33,528.34c0,7.82-4.42,12.91-11.18,12.91c-6.67,0-11.18-5.28-11.18-13.01c0-7.82,4.42-12.91,11.18-12.91
		C784.81,515.33,789.33,520.61,789.33,528.34z M788.22,528.34c0-7.25-3.94-12-10.08-12c-6.19,0-10.08,4.61-10.08,11.9
		c0,7.25,3.94,12,10.08,12C784.33,540.24,788.22,535.64,788.22,528.34z"/>
	<path class="st1" d="M814.76,540.77c0.1-1.06,0.14-2.02,0.14-3.6v-12.34c0-5.52-2.74-8.5-7.87-8.5c-5.52,0.05-9.26,3.55-9.26,8.59
		v12.24c0,1.63,0.05,2.59,0.14,3.6h-1.39c0.1-1.01,0.14-1.97,0.14-3.6V519.4c0-1.68-0.05-2.59-0.14-3.6h1.25v2.02
		c0,1.1-0.05,2.5-0.19,3.6h0.14c1.34-3.7,4.85-6.1,9.41-6.1c5.62,0,8.88,3.36,8.88,9.22v12.63c0,1.58,0.05,2.54,0.14,3.6H814.76z"/>
	<path class="st1" d="M831.71,503.71l-6.67,9.12l-0.67-0.38l6.38-9.36L831.71,503.71z M827.1,515.81c-0.14,1.2-0.14,2.4-0.14,3.6
		v17.71c0,1.2,0,2.4,0.14,3.65h-1.34c0.14-1.25,0.14-2.45,0.14-3.65v-17.71c0-1.2,0-2.4-0.14-3.6H827.1z"/>
	<path class="st1" d="M852.06,538.56c0-1.1,0.1-2.4,0.24-3.55h-0.1c-1.82,4.03-5.23,6.24-9.55,6.24c-5.28,0-8.35-2.5-8.35-6.72
		c0-5.38,4.46-7.97,13.68-7.97c1.82,0,3.02,0.05,4.03,0.14v-2.35c0-5.57-2.35-7.92-7.68-7.92c-1.78,0-3.22,0.43-4.56,1.1
		c-1.2,0.62-2.16,1.44-2.93,2.3l-0.67-0.86c1.01-1.01,2.06-1.82,3.22-2.4c1.49-0.77,3.12-1.15,5.04-1.15c5.95,0,8.69,2.74,8.69,8.78
		v12.91c0,1.44,0.05,2.45,0.14,3.65h-1.2L852.06,538.56L852.06,538.56z M852.01,527.67c-1.06-0.1-2.26-0.14-4.03-0.14
		c-8.64,0-12.63,2.21-12.63,7.01c0,3.65,2.64,5.71,7.3,5.71c4.37,0,7.49-2.11,9.36-6.24L852.01,527.67L852.01,527.67z"/>
	<path class="st1" d="M882.2,537.17c0,1.63,0.05,2.59,0.14,3.6l-1.25,0.05v-3.94c0-1.2,0.1-2.54,0.24-3.6h-0.1
		c-1.39,5.04-5.04,7.97-10.18,7.97c-6.72,0-11.09-5.14-11.09-13.06c0-7.73,4.46-12.91,11.09-12.91c5.09,0,8.74,3.02,10.13,8.02h0.14
		c-0.14-0.67-0.24-2.74-0.24-4.56v-10.85c0-1.68-0.05-2.59-0.14-3.6h1.39c-0.1,1.01-0.14,1.92-0.14,3.6L882.2,537.17L882.2,537.17z
		 M881.1,528.19c0-7.25-3.94-11.9-10.03-11.9c-6.14,0-9.99,4.61-9.99,11.9c0,7.34,3.84,12.05,9.99,12.05
		C877.26,540.24,881.1,535.64,881.1,528.19z"/>
	<path class="st1" d="M906.83,538.56c0-1.1,0.1-2.4,0.24-3.55h-0.1c-1.82,4.03-5.23,6.24-9.55,6.24c-5.28,0-8.35-2.5-8.35-6.72
		c0-5.38,4.46-7.97,13.68-7.97c1.82,0,3.02,0.05,4.03,0.14v-2.35c0-5.57-2.35-7.92-7.68-7.92c-1.78,0-3.22,0.43-4.56,1.1
		c-1.2,0.62-2.16,1.44-2.93,2.3l-0.67-0.86c1.01-1.01,2.06-1.82,3.22-2.4c1.49-0.77,3.12-1.15,5.04-1.15c5.95,0,8.69,2.74,8.69,8.78
		v12.91c0,1.44,0.05,2.45,0.14,3.65h-1.2L906.83,538.56L906.83,538.56z M906.78,527.67c-1.06-0.1-2.26-0.14-4.03-0.14
		c-8.64,0-12.63,2.21-12.63,7.01c0,3.65,2.64,5.71,7.3,5.71c4.37,0,7.49-2.11,9.36-6.24L906.78,527.67L906.78,527.67z"/>
	<path class="st1" d="M915.56,535.64c0.67,1.06,1.54,2.02,2.5,2.78c1.54,1.25,3.7,1.82,6.29,1.82c5.04,0,7.83-2.02,7.83-5.81
		c0-3.31-1.87-4.71-8.06-5.95c-5.71-1.15-7.97-2.98-7.97-6.38c0-4.08,3.26-6.77,8.16-6.77c1.78,0,3.36,0.34,4.8,0.96
		c1.2,0.53,2.4,1.39,3.17,2.26l-0.77,0.82c-0.58-0.72-1.49-1.44-2.59-2.02c-1.39-0.67-2.98-1.01-4.61-1.01
		c-4.42,0-7.06,2.16-7.06,5.76c0,2.83,1.97,4.27,7.06,5.28c6.67,1.34,8.98,3.17,8.98,6.96c0,4.32-3.36,6.91-8.98,6.91
		c-2.83,0-5.04-0.62-6.82-1.97c-1.06-0.77-2.02-1.78-2.74-2.88L915.56,535.64z"/>
</g>
<g>
	<path class="st1" d="M140.16,584.51c0.96,1.54,1.78,2.5,2.45,3.12c2.21,1.97,5.33,3.07,8.74,3.07c6,0,9.79-3.31,9.79-8.5
		c0-4.42-2.59-6.77-9.6-8.74c-7.44-2.06-10.27-4.7-10.27-9.46c0-5.33,4.03-8.83,10.32-8.83c2.06,0,3.98,0.43,5.71,1.3
		c1.44,0.72,2.74,1.73,4.03,2.93l-0.96,0.96c-1.06-1.3-2.26-2.3-3.65-3.02c-1.54-0.82-3.26-1.2-5.18-1.2
		c-5.67,0-9.22,3.02-9.22,7.87c0,4.37,2.21,6.34,9.89,8.59c7.3,2.16,9.99,4.71,9.99,9.6c0,5.71-4.37,9.5-10.95,9.5
		c-3.74,0-6.96-1.15-9.36-3.31c-1.01-0.86-1.87-1.92-2.64-3.12L140.16,584.51z"/>
	<path class="st1" d="M188.35,591.33c0.1-1.06,0.14-2.02,0.14-3.6v-12.34c0-5.52-2.74-8.5-7.87-8.5c-5.52,0.05-9.26,3.55-9.26,8.59
		v12.24c0,1.63,0.05,2.59,0.14,3.6h-1.39c0.1-1.01,0.14-1.97,0.14-3.6v-29.28c0-1.68-0.05-2.59-0.14-3.6h1.39
		c-0.1,1.01-0.14,1.92-0.14,3.6v13.44c1.34-3.65,4.85-6,9.36-6c5.62,0,8.88,3.36,8.88,9.22v12.62c0,1.58,0.05,2.54,0.14,3.6h-1.39
		V591.33z"/>
	<path class="st1" d="M217.1,591.33c0.1-1.06,0.14-2.02,0.14-3.6v-12.34c0-5.52-2.74-8.5-7.87-8.5c-5.52,0.05-9.26,3.55-9.26,8.59
		v12.24c0,1.63,0.05,2.59,0.14,3.6h-1.39c0.1-1.01,0.14-1.97,0.14-3.6v-17.76c0-1.68-0.05-2.59-0.14-3.6h1.25v2.02
		c0,1.1-0.05,2.5-0.19,3.6h0.14c1.34-3.7,4.85-6.1,9.41-6.1c5.62,0,8.88,3.36,8.88,9.22v12.62c0,1.58,0.05,2.54,0.14,3.6h-1.39
		V591.33z"/>
	<path class="st1" d="M242.98,589.12c0-1.1,0.1-2.4,0.24-3.55h-0.1c-1.82,4.03-5.23,6.24-9.55,6.24c-5.28,0-8.35-2.5-8.35-6.72
		c0-5.38,4.46-7.97,13.68-7.97c1.82,0,3.02,0.05,4.03,0.14v-2.35c0-5.57-2.35-7.92-7.68-7.92c-1.78,0-3.22,0.43-4.56,1.1
		c-1.2,0.62-2.16,1.44-2.93,2.3l-0.67-0.86c1.01-1.01,2.06-1.82,3.22-2.4c1.49-0.77,3.12-1.15,5.04-1.15c5.95,0,8.69,2.74,8.69,8.79
		v12.91c0,1.44,0.05,2.45,0.14,3.65h-1.2L242.98,589.12L242.98,589.12z M242.93,578.22c-1.06-0.1-2.26-0.14-4.03-0.14
		c-8.64,0-12.63,2.21-12.63,7.01c0,3.65,2.64,5.71,7.3,5.71c4.37,0,7.49-2.11,9.36-6.24V578.22z"/>
	<path class="st1" d="M265.39,590.95c-1.06,0.58-2.5,0.86-3.79,0.86c-4.22,0-6.58-2.21-6.58-5.95v-18.48h-2.4
		c-1.63,0-2.59,0.05-3.65,0.14v-1.3c1.06,0.1,2.02,0.14,3.65,0.14h2.4V562c0-1.68-0.05-2.64-0.14-3.65h1.39
		c-0.1,1.01-0.14,1.97-0.14,3.65v4.37h4.18c1.63,0,2.59-0.05,3.6-0.14v1.3c-1.01-0.1-1.97-0.14-3.6-0.14h-4.18v18.19
		c0,3.41,1.97,5.23,5.47,5.23c1.39,0,2.45-0.29,3.46-0.82L265.39,590.95z"/>
</g>
</svg>
