<?xml version="1.0" encoding="utf-8"?>
<!-- Generator: Adobe Illustrator 24.1.2, SVG Export Plug-In . SVG Version: 6.00 Build 0)  -->
<svg version="1.1" id="Camada_1" xmlns="http://www.w3.org/2000/svg" xmlns:xlink="http://www.w3.org/1999/xlink" x="0px" y="0px"
	 viewBox="0 0 917.9 253.2" style="enable-background:new 0 0 917.9 253.2;" xml:space="preserve">
<style type="text/css">
	.st0{fill-rule:evenodd;clip-rule:evenodd;fill:#FF1D25;}
	.st1{fill-rule:evenodd;clip-rule:evenodd;fill:#FFFFFF;}
	.st2{fill:none;}
	.st3{enable-background:new    ;}
</style>
<g>
	<path class="st0" d="M506.4,20.7c58.8,0,106.1,47.3,106.1,105.9S565,232.5,506.4,232.5S400,184.9,400,126.3S447.6,20.7,506.4,20.7
		L506.4,20.7z"/>
	<path class="st1" d="M500.4,166.5l9.7,17.3l0,0l9.7,17l-13.4,23.1L478,175.4h-56.7l13.4-23.1h30.7l0,0h10.8h3.4H492l0,0
		L500.4,166.5L500.4,166.5z M506.4,28.8l28.4,48.8h56.7l-13.4,22.8h-29.5h-0.8h-1.6h-13.3h-0.8h-1.6h-13.1l0,0l-26.2-46L506.4,28.8
		L506.4,28.8z M477,78.2l1.9-1.1c0.5-0.3,1.4-0.3,1.9,0.5l14.5,24.5c0.3,0.5,0.3,1.4-0.5,1.9l-1.9,1.1c-0.5,0.3-1.4,0.3-1.9-0.5
		l-14.5-24.5C476.1,79.3,476.4,78.5,477,78.2L477,78.2z M487,65.4c-0.5-0.8-0.5-2.2,0-2.8l1.1-2.2c0.5-0.8,1.1-0.5,1.6,0.3
		c7,12,17.8,30,24.7,41.8c5.3,8.9,1.9,20.4-7,25.7c-8.9,5.3-20.7,2.4-26-6.5c-7-12-18.1-30.7-25-42.7c-0.5-0.8-0.3-1.4,0.5-1.6h2.4
		c0.8,0,1.9,0.5,2.4,1.4l17.3,28.9c2.4,4.2,9.7,4.5,14.5,2.2c-3.9,3.4-4.5,8.1-1.6,12.6c2.8,5,9.2,6.8,14.2,3.7
		c5-2.8,6.8-9.2,3.7-14.2c-2.4-4.5-7.2-6.5-12-4.7c5-3.7,7.4-10,5-13.9L487,65.4L487,65.4z M525.9,153.6l6.5-12.6
		c1.1-2.2,0.5-6.5-1.1-9.2l-7.2-12.3c-1.6-2.8-3.7-3.1-4.7-0.5l-5,11.1c-1.1,2.2-0.5,6.5,1.1,9.2l7.2,12.3
		C524.3,154.2,525,155.7,525.9,153.6L525.9,153.6z M520.4,157l-14.2-0.5c-2.4,0-5.8-2.8-7.4-5.3l-7.2-12.3c-1.6-2.8-0.8-4.7,1.6-4.5
		l12,1.1c2.4,0.3,5.8,2.8,7.4,5.3l7.2,12.3C521.6,155.7,522.7,157,520.4,157L520.4,157z M524,158.6l1.9-1.1c0.3-0.3,0.5,0,0.8,0.3
		l12.6,21.2c0.3,0.3,0,0.5-0.3,0.8l-1.9,1.1c-0.3,0.3-0.5,0-0.8-0.3l-12.6-21.2C523.5,158.9,523.7,158.6,524,158.6L524,158.6z
		 M483.3,68.7l-1.4,2.2c-0.3,0.8-0.5,1.9,0,2.4l13.7,23.1c0.5,0.8,1.1,0.8,1.6,0.3l1.4-1.9c0.5-0.5,0.5-1.9,0-2.4L484.8,69
		C484.4,68.1,483.6,67.8,483.3,68.7L483.3,68.7z M467,77.7h2.4c0.8,0,1.9,0.5,2.2,1.4l13.9,23.7c0.5,0.8,0.3,1.4-0.5,1.4l-2.4,0.3
		c-0.8,0-1.9-0.5-2.2-1.4l-13.9-23.7C465.9,78.5,466.1,77.7,467,77.7L467,77.7z M576.1,103.8L563,126.3l28.1,48.8h-31.5l-5-8.7
		l-22-38.7l0,0l0,0l7.7-13.7l5.8-10.3L576.1,103.8L576.1,103.8z M436.8,148.6l12.8-22.3l-28.1-48.8h27.9l27,47.1l-7.7,13.7
		l-5.8,10.3L436.8,148.6L436.8,148.6z"/>
</g>
<rect x="17" y="64.2" class="st2" width="315" height="46"/>
<g class="st3">
	<path d="M24.1,103.8h3l14.8,35.7h-3.7l-4.6-11.2h-16l-4.6,11.2H9.1L24.1,103.8z M32.7,125.6l-7.2-17.7l-7.3,17.7H32.7z"/>
	<path d="M46.4,102.8h3.4v30.8c0,1,0.3,1.7,0.8,2.3c0.5,0.6,1.3,0.8,2.3,0.8c0.4,0,0.8-0.1,1.3-0.2c0.5-0.1,1-0.2,1.4-0.4l0.6,2.8
		c-0.6,0.3-1.4,0.5-2.3,0.7c-0.9,0.2-1.7,0.3-2.4,0.3c-1.6,0-2.8-0.4-3.7-1.3c-0.9-0.9-1.4-2.1-1.4-3.7V102.8z"/>
	<path d="M71.3,140c-1.9,0-3.7-0.4-5.3-1.1c-1.6-0.7-3-1.7-4.2-3c-1.2-1.3-2.1-2.7-2.7-4.4c-0.7-1.6-1-3.4-1-5.3
		c0-1.8,0.3-3.6,1-5.2c0.7-1.6,1.6-3.1,2.7-4.3c1.2-1.2,2.5-2.2,4.2-2.9s3.4-1.1,5.2-1.1c1.9,0,3.7,0.4,5.3,1.1
		c1.6,0.7,3,1.7,4.1,2.9c1.1,1.2,2,2.7,2.7,4.3c0.6,1.6,1,3.3,1,5.1c0,0.3,0,0.5,0,0.8c0,0.3,0,0.5-0.1,0.6H61.7
		c0.1,1.4,0.4,2.7,1,3.9c0.6,1.2,1.3,2.2,2.1,3.1c0.9,0.9,1.9,1.6,3,2c1.1,0.5,2.3,0.7,3.6,0.7c0.8,0,1.7-0.1,2.5-0.4s1.6-0.6,2.3-1
		c0.7-0.4,1.3-0.9,1.9-1.5c0.6-0.6,1-1.2,1.3-1.9l3,0.8c-0.4,1-1,1.9-1.7,2.6c-0.7,0.8-1.6,1.5-2.6,2.1c-1,0.6-2,1-3.2,1.4
		C73.8,139.8,72.6,140,71.3,140z M81,125c-0.1-1.4-0.4-2.7-1-3.8c-0.6-1.2-1.3-2.2-2.1-3c-0.9-0.8-1.8-1.5-3-2
		c-1.1-0.5-2.3-0.7-3.6-0.7c-1.3,0-2.5,0.2-3.6,0.7c-1.1,0.5-2.1,1.1-3,2c-0.9,0.8-1.5,1.8-2.1,3c-0.5,1.2-0.8,2.4-0.9,3.8H81z
		 M65,107.1l4.9-4.3h2.5l5,4.3l-2,1.1l-4.3-3.2l-4.3,3.2L65,107.1z"/>
	<path d="M101.2,103.8l12.8,31.3l12.7-31.3h3.7l-14.9,35.7h-3.1l-14.9-35.7H101.2z"/>
	<path d="M142.9,140c-1.9,0-3.7-0.4-5.3-1.1c-1.6-0.7-3-1.7-4.2-3c-1.2-1.3-2.1-2.7-2.7-4.4c-0.7-1.6-1-3.4-1-5.3
		c0-1.8,0.3-3.6,1-5.2c0.7-1.6,1.6-3.1,2.7-4.3c1.2-1.2,2.5-2.2,4.2-2.9s3.4-1.1,5.2-1.1c1.9,0,3.7,0.4,5.3,1.1
		c1.6,0.7,3,1.7,4.1,2.9c1.1,1.2,2,2.7,2.7,4.3c0.6,1.6,1,3.3,1,5.1c0,0.3,0,0.5,0,0.8c0,0.3,0,0.5-0.1,0.6h-22.4
		c0.1,1.4,0.4,2.7,1,3.9c0.6,1.2,1.3,2.2,2.1,3.1c0.9,0.9,1.9,1.6,3,2c1.1,0.5,2.3,0.7,3.6,0.7c0.8,0,1.7-0.1,2.5-0.4s1.6-0.6,2.3-1
		c0.7-0.4,1.3-0.9,1.9-1.5c0.6-0.6,1-1.2,1.3-1.9l3,0.8c-0.4,1-1,1.9-1.7,2.6c-0.7,0.8-1.6,1.5-2.6,2.1c-1,0.6-2,1-3.2,1.4
		C145.4,139.8,144.2,140,142.9,140z M152.5,125c-0.1-1.4-0.4-2.7-1-3.8c-0.6-1.2-1.3-2.2-2.1-3c-0.9-0.8-1.8-1.5-3-2
		c-1.1-0.5-2.3-0.7-3.6-0.7c-1.3,0-2.5,0.2-3.6,0.7c-1.1,0.5-2.1,1.1-3,2c-0.9,0.8-1.5,1.8-2.1,3c-0.5,1.2-0.8,2.4-0.9,3.8H152.5z"
		/>
	<path d="M189.7,103.8v35.7h-3.5v-16.7h-21.2v16.7h-3.5v-35.7h3.5v15.9h21.2v-15.9H189.7z"/>
	<path d="M204.3,140c-1.2,0-2.4-0.2-3.4-0.6c-1.1-0.4-2-1-2.8-1.7c-0.8-0.7-1.4-1.6-1.8-2.6c-0.4-1-0.7-2.1-0.7-3.2
		c0-1.1,0.3-2.2,0.8-3.2c0.5-1,1.3-1.8,2.3-2.5c1-0.7,2.1-1.2,3.5-1.6c1.3-0.4,2.8-0.6,4.4-0.6c1.3,0,2.7,0.1,4.1,0.4
		c1.4,0.2,2.6,0.6,3.7,1v-2.4c0-2.3-0.7-4.2-2-5.5s-3.1-2-5.4-2c-1.3,0-2.7,0.3-4.1,0.8c-1.4,0.5-2.8,1.3-4.3,2.3l-1.2-2.3
		c3.4-2.3,6.7-3.4,9.9-3.4c3.3,0,5.9,0.9,7.7,2.8c1.9,1.8,2.8,4.4,2.8,7.6v11.8c0,0.9,0.4,1.4,1.3,1.4v3c-0.6,0.1-1,0.2-1.3,0.2
		c-0.9,0-1.6-0.2-2-0.7c-0.5-0.4-0.7-1-0.8-1.8l-0.1-2.1c-1.2,1.6-2.7,2.8-4.6,3.6C208.4,139.6,206.4,140,204.3,140z M205.1,137.4
		c1.8,0,3.4-0.3,4.9-1c1.5-0.7,2.6-1.6,3.4-2.7c0.3-0.3,0.5-0.6,0.7-1s0.2-0.7,0.2-1v-4.3c-1.1-0.4-2.3-0.8-3.5-1
		c-1.2-0.2-2.5-0.4-3.7-0.4c-2.4,0-4.4,0.5-5.9,1.5c-1.5,1-2.3,2.3-2.3,4c0,0.8,0.2,1.6,0.5,2.3c0.3,0.7,0.8,1.3,1.3,1.8
		c0.6,0.5,1.2,0.9,2,1.2C203.4,137.2,204.3,137.4,205.1,137.4z"/>
	<path d="M235.7,139.9c-1.8,0-3.5-0.4-5-1.1c-1.5-0.8-2.8-1.8-3.9-3c-1.1-1.2-1.9-2.7-2.5-4.3c-0.6-1.6-0.9-3.3-0.9-5
		c0-1.8,0.3-3.5,0.9-5.2c0.6-1.7,1.4-3.1,2.5-4.4c1.1-1.2,2.4-2.2,3.8-3c1.5-0.7,3.1-1.1,5-1.1c2.2,0,4.2,0.6,5.8,1.7
		c1.6,1.1,3.1,2.5,4.2,4.3v-5.5h3.1v26.3c0,1.8-0.3,3.4-1,4.8c-0.7,1.4-1.6,2.6-2.8,3.5c-1.2,0.9-2.5,1.6-4.1,2.1s-3.2,0.7-5,0.7
		c-3,0-5.5-0.5-7.3-1.6c-1.8-1.1-3.3-2.5-4.5-4.3l2.1-1.7c1,1.7,2.4,2.9,4.1,3.7c1.7,0.8,3.6,1.2,5.5,1.2c1.3,0,2.5-0.2,3.6-0.5
		c1.1-0.4,2.1-0.9,3-1.6c0.9-0.7,1.5-1.6,2-2.6c0.5-1.1,0.8-2.3,0.8-3.7v-5.2c-1,1.7-2.4,3-4.1,4
		C239.4,139.4,237.6,139.9,235.7,139.9z M236.6,137c1,0,2-0.2,3-0.6c1-0.4,1.9-0.9,2.6-1.5c0.8-0.6,1.5-1.3,2-2.1
		c0.5-0.8,0.9-1.6,1.1-2.4v-8.1c-0.4-0.9-0.9-1.8-1.5-2.6c-0.6-0.8-1.4-1.5-2.2-2.1c-0.8-0.6-1.7-1-2.6-1.4
		c-0.9-0.3-1.9-0.5-2.8-0.5c-1.5,0-2.8,0.3-3.9,0.9s-2.1,1.4-2.9,2.4c-0.8,1-1.4,2.1-1.8,3.4c-0.4,1.3-0.6,2.6-0.6,3.9
		c0,1.4,0.3,2.8,0.8,4c0.5,1.3,1.2,2.4,2.1,3.3s1.9,1.7,3.1,2.3C234,136.7,235.2,137,236.6,137z"/>
	<path d="M264.9,140c-2,0-4-0.3-6-1c-1.9-0.7-3.6-1.6-5-2.9l1.6-2.3c1.5,1.2,3,2.1,4.5,2.7c1.5,0.6,3.2,0.9,4.9,0.9
		c2.1,0,3.8-0.4,5.1-1.3c1.3-0.9,1.9-2.1,1.9-3.6c0-0.7-0.2-1.4-0.5-1.8c-0.3-0.5-0.8-0.9-1.5-1.3c-0.7-0.4-1.5-0.7-2.5-1
		c-1-0.3-2.1-0.6-3.4-0.9c-1.5-0.4-2.8-0.7-3.9-1.1c-1.1-0.4-2-0.8-2.7-1.3c-0.7-0.5-1.3-1-1.6-1.7c-0.4-0.7-0.5-1.6-0.5-2.6
		c0-1.3,0.3-2.5,0.8-3.5c0.5-1,1.2-1.8,2.1-2.5c0.9-0.7,1.9-1.1,3.1-1.5c1.2-0.3,2.5-0.5,3.8-0.5c2,0,3.8,0.3,5.5,1
		c1.6,0.7,3,1.5,4,2.6l-1.7,2c-1-1-2.2-1.8-3.5-2.3c-1.4-0.5-2.8-0.8-4.4-0.8c-0.9,0-1.7,0.1-2.5,0.3c-0.8,0.2-1.5,0.5-2,0.9
		c-0.6,0.4-1,0.9-1.4,1.5c-0.3,0.6-0.5,1.4-0.5,2.2c0,0.7,0.1,1.3,0.4,1.7c0.2,0.4,0.6,0.8,1.2,1.1c0.5,0.3,1.2,0.6,2,0.9
		c0.8,0.3,1.8,0.5,3,0.8c1.7,0.4,3.2,0.8,4.4,1.2c1.3,0.4,2.3,0.9,3.2,1.4c0.9,0.5,1.5,1.2,1.9,2c0.4,0.8,0.7,1.7,0.7,2.8
		c0,2.4-0.9,4.3-2.8,5.7C270.5,139.3,268.1,140,264.9,140z"/>
	<path d="M302.8,139.5h-3.4v-14.6c0-3-0.5-5.2-1.5-6.7c-1-1.5-2.5-2.2-4.5-2.2c-1,0-1.9,0.2-2.9,0.6c-1,0.4-1.9,0.9-2.7,1.6
		c-0.8,0.7-1.6,1.5-2.2,2.4c-0.6,0.9-1.1,1.9-1.4,3v16h-3.4v-36.7h3.4v16.5c1-2,2.5-3.5,4.3-4.7c1.8-1.1,3.8-1.7,6-1.7
		c1.5,0,2.8,0.3,3.8,0.8c1,0.6,1.9,1.3,2.6,2.3c0.7,1,1.2,2.2,1.5,3.6c0.3,1.4,0.5,2.9,0.5,4.6V139.5z"/>
	<path d="M321.4,140c-1.9,0-3.7-0.4-5.3-1.1c-1.6-0.7-3-1.7-4.2-3c-1.2-1.3-2.1-2.7-2.7-4.4c-0.7-1.6-1-3.4-1-5.3
		c0-1.8,0.3-3.6,1-5.2c0.7-1.6,1.6-3.1,2.7-4.3c1.2-1.2,2.5-2.2,4.2-2.9s3.4-1.1,5.2-1.1c1.9,0,3.7,0.4,5.3,1.1
		c1.6,0.7,3,1.7,4.1,2.9c1.1,1.2,2,2.7,2.7,4.3c0.6,1.6,1,3.3,1,5.1c0,0.3,0,0.5,0,0.8c0,0.3,0,0.5-0.1,0.6h-22.4
		c0.1,1.4,0.4,2.7,1,3.9c0.6,1.2,1.3,2.2,2.1,3.1c0.9,0.9,1.9,1.6,3,2c1.1,0.5,2.3,0.7,3.6,0.7c0.8,0,1.7-0.1,2.5-0.4s1.6-0.6,2.3-1
		c0.7-0.4,1.3-0.9,1.9-1.5c0.6-0.6,1-1.2,1.3-1.9l3,0.8c-0.4,1-1,1.9-1.7,2.6c-0.7,0.8-1.6,1.5-2.6,2.1c-1,0.6-2,1-3.2,1.4
		C323.9,139.8,322.7,140,321.4,140z M331,125c-0.1-1.4-0.4-2.7-1-3.8c-0.6-1.2-1.3-2.2-2.1-3c-0.9-0.8-1.8-1.5-3-2
		c-1.1-0.5-2.3-0.7-3.6-0.7c-1.3,0-2.5,0.2-3.6,0.7c-1.1,0.5-2.1,1.1-3,2c-0.9,0.8-1.5,1.8-2.1,3c-0.5,1.2-0.8,2.4-0.9,3.8H331z"/>
	<path d="M378.6,139.5h-3.4v-14.6c0-3.1-0.5-5.3-1.5-6.7c-1-1.4-2.4-2.2-4.3-2.2c-1,0-2,0.2-2.8,0.6c-0.9,0.4-1.7,0.9-2.5,1.6
		c-0.8,0.7-1.4,1.5-2,2.4c-0.6,0.9-1,1.9-1.3,3v16h-3.4v-14.6c0-3.1-0.5-5.4-1.4-6.8c-0.9-1.4-2.4-2.1-4.3-2.1c-2,0-3.7,0.7-5.3,2.1
		c-1.5,1.4-2.6,3.2-3.3,5.4v16h-3.4v-26.2h3.1v5.9c1.1-2,2.5-3.6,4.2-4.7c1.7-1.1,3.7-1.7,5.8-1.7c2.2,0,4,0.6,5.3,1.9
		c1.3,1.2,2.1,2.9,2.4,4.9c2.4-4.5,5.8-6.7,10.1-6.7c1.5,0,2.7,0.3,3.7,0.8c1,0.5,1.8,1.3,2.5,2.3c0.6,1,1.1,2.2,1.4,3.6
		c0.3,1.4,0.4,2.9,0.4,4.7V139.5z"/>
</g>
<g class="st3">
	<path d="M646.9,110h3l14.8,35.7H661l-4.6-11.2h-16l-4.6,11.2h-3.8L646.9,110z M655.5,131.8l-7.2-17.7l-7.3,17.7H655.5z"/>
	<path d="M669.3,109h3.4v30.8c0,1,0.3,1.7,0.8,2.3c0.5,0.6,1.3,0.8,2.3,0.8c0.4,0,0.8-0.1,1.3-0.2c0.5-0.1,1-0.2,1.4-0.4l0.6,2.8
		c-0.6,0.3-1.4,0.5-2.3,0.7c-0.9,0.2-1.7,0.3-2.4,0.3c-1.6,0-2.8-0.4-3.7-1.3c-0.9-0.9-1.4-2.1-1.4-3.7V109z"/>
	<path d="M694,146.2c-1.9,0-3.7-0.4-5.2-1.1c-1.6-0.7-2.9-1.7-4.1-2.9c-1.2-1.2-2.1-2.7-2.7-4.3c-0.6-1.6-1-3.4-1-5.2
		c0-1.8,0.3-3.6,1-5.2c0.7-1.6,1.6-3.1,2.7-4.3c1.2-1.2,2.5-2.2,4.1-3c1.6-0.7,3.3-1.1,5.2-1.1c1.9,0,3.6,0.4,5.2,1.1
		c1.6,0.7,3,1.7,4.1,3c1.2,1.2,2.1,2.7,2.7,4.3c0.7,1.6,1,3.4,1,5.2c0,1.8-0.3,3.5-1,5.2c-0.6,1.6-1.5,3.1-2.7,4.3
		c-1.2,1.2-2.5,2.2-4.1,2.9C697.6,145.9,695.9,146.2,694,146.2z M684.5,132.7c0,1.5,0.3,2.8,0.8,4.1c0.5,1.3,1.2,2.4,2,3.3
		s1.9,1.7,3,2.2c1.2,0.5,2.4,0.8,3.7,0.8c1.3,0,2.5-0.3,3.7-0.8s2.2-1.3,3-2.3s1.6-2.1,2.1-3.3c0.5-1.3,0.8-2.6,0.8-4.1
		c0-1.4-0.3-2.8-0.8-4.1c-0.5-1.3-1.2-2.4-2.1-3.4s-1.9-1.7-3-2.3c-1.2-0.6-2.4-0.8-3.7-0.8c-1.3,0-2.5,0.3-3.7,0.8
		c-1.1,0.6-2.1,1.3-3,2.3c-0.9,1-1.6,2.1-2.1,3.4C684.7,129.9,684.5,131.3,684.5,132.7z"/>
	<path d="M729.8,116.5v29.2h-3.5V110h2.7l23.6,29.7V110h3.5v35.7h-3.1L729.8,116.5z"/>
	<path d="M770.7,146.2c-1.2,0-2.4-0.2-3.4-0.6s-2-1-2.8-1.7c-0.8-0.7-1.4-1.6-1.8-2.6c-0.4-1-0.7-2.1-0.7-3.2c0-1.1,0.3-2.2,0.8-3.2
		s1.3-1.8,2.3-2.5c1-0.7,2.1-1.2,3.5-1.6s2.8-0.6,4.4-0.6c1.3,0,2.7,0.1,4.1,0.4c1.4,0.2,2.6,0.6,3.7,1v-2.4c0-2.3-0.7-4.2-2-5.5
		c-1.3-1.4-3.1-2-5.4-2c-1.3,0-2.7,0.3-4.1,0.8c-1.4,0.5-2.8,1.3-4.3,2.3l-1.2-2.3c3.4-2.3,6.7-3.4,9.9-3.4c3.3,0,5.9,0.9,7.7,2.8
		c1.9,1.8,2.8,4.4,2.8,7.6v11.8c0,0.9,0.4,1.4,1.3,1.4v3c-0.6,0.1-1,0.2-1.3,0.2c-0.9,0-1.6-0.2-2-0.7c-0.5-0.4-0.7-1-0.8-1.8
		l-0.1-2.1c-1.2,1.6-2.7,2.8-4.6,3.6C774.8,145.8,772.8,146.2,770.7,146.2z M771.5,143.6c1.8,0,3.4-0.3,4.9-1
		c1.5-0.7,2.6-1.6,3.4-2.7c0.3-0.3,0.5-0.6,0.7-1c0.2-0.4,0.2-0.7,0.2-1v-4.3c-1.1-0.4-2.3-0.8-3.5-1c-1.2-0.2-2.5-0.4-3.7-0.4
		c-2.4,0-4.4,0.5-5.9,1.5c-1.5,1-2.3,2.3-2.3,4c0,0.8,0.2,1.6,0.5,2.3c0.3,0.7,0.8,1.3,1.3,1.8c0.6,0.5,1.2,0.9,2,1.2
		C769.8,143.5,770.7,143.6,771.5,143.6z"/>
	<path d="M790.6,119.5v-9.8h3v9.8H790.6z"/>
	<path d="M809.2,110h3l14.8,35.7h-3.7l-4.6-11.2h-16l-4.6,11.2h-3.8L809.2,110z M817.8,131.8l-7.2-17.7l-7.3,17.7H817.8z"/>
	<path d="M831.6,109h3.4v30.8c0,1,0.3,1.7,0.8,2.3c0.5,0.6,1.3,0.8,2.3,0.8c0.4,0,0.8-0.1,1.3-0.2c0.5-0.1,1-0.2,1.4-0.4l0.6,2.8
		c-0.6,0.3-1.4,0.5-2.3,0.7c-0.9,0.2-1.7,0.3-2.4,0.3c-1.6,0-2.8-0.4-3.7-1.3c-0.9-0.9-1.4-2.1-1.4-3.7V109z"/>
	<path d="M856.4,146.2c-1.9,0-3.7-0.4-5.3-1.1c-1.6-0.7-3-1.7-4.2-3s-2.1-2.7-2.7-4.4s-1-3.4-1-5.3c0-1.8,0.3-3.6,1-5.2
		c0.7-1.6,1.6-3.1,2.7-4.3c1.2-1.2,2.5-2.2,4.2-2.9s3.4-1.1,5.2-1.1c1.9,0,3.7,0.4,5.3,1.1s3,1.7,4.1,2.9c1.1,1.2,2,2.7,2.7,4.3
		c0.6,1.6,1,3.3,1,5.1c0,0.3,0,0.5,0,0.8c0,0.3,0,0.5,0,0.6h-22.4c0.1,1.4,0.4,2.7,1,3.9c0.6,1.2,1.3,2.2,2.1,3.1s1.9,1.6,3,2
		c1.1,0.5,2.3,0.7,3.6,0.7c0.8,0,1.7-0.1,2.5-0.4c0.8-0.2,1.6-0.6,2.3-1c0.7-0.4,1.3-0.9,1.9-1.5c0.6-0.6,1-1.2,1.3-1.9l3,0.8
		c-0.4,1-1,1.9-1.7,2.6c-0.7,0.8-1.6,1.5-2.6,2.1s-2,1-3.2,1.4C858.9,146.1,857.7,146.2,856.4,146.2z M866.1,131.2
		c-0.1-1.4-0.4-2.7-1-3.8c-0.6-1.2-1.3-2.2-2.1-3c-0.9-0.8-1.8-1.5-3-2c-1.1-0.5-2.3-0.7-3.6-0.7s-2.5,0.2-3.6,0.7
		c-1.1,0.5-2.1,1.1-3,2c-0.9,0.8-1.5,1.8-2.1,3c-0.5,1.2-0.8,2.4-0.9,3.8H866.1z"/>
</g>
</svg>
