<?xml version="1.0" encoding="utf-8"?>
<!-- Generator: Adobe Illustrator 24.1.2, SVG Export Plug-In . SVG Version: 6.00 Build 0)  -->
<svg version="1.1" id="Layer_1" xmlns="http://www.w3.org/2000/svg" xmlns:xlink="http://www.w3.org/1999/xlink" x="0px" y="0px"
	 viewBox="0 0 1383 1301" style="enable-background:new 0 0 1383 1301;" xml:space="preserve">
<style type="text/css">
	.st0{fill:#FFFFFF;}
	.st1{fill-rule:evenodd;clip-rule:evenodd;fill:#C1272D;}
	.st2{fill-rule:evenodd;clip-rule:evenodd;fill:#FFFFFF;}
	.st3{fill:none;}
	.st4{fill:#C1272D;}
	.st5{font-family:'AardvarkCafe';}
	.st6{font-size:48px;}
	.st7{fill:none;stroke:#0A0073;stroke-width:4;stroke-miterlimit:10;}
	.st8{stroke:#0A0073;stroke-width:4;stroke-miterlimit:10;}
</style>
<g>
	<path class="st0" d="M99.82,173C81.72,173,67,158.28,67,140.18V75.82C67,57.72,81.72,43,99.82,43h149.36
		C267.28,43,282,57.72,282,75.82v64.36c0,18.1-14.72,32.82-32.82,32.82H99.82z"/>
	<path d="M249.18,44C266.73,44,281,58.27,281,75.82v64.36c0,17.54-14.27,31.82-31.82,31.82H99.82C82.27,172,68,157.73,68,140.18
		V75.82C68,58.27,82.27,44,99.82,44H249.18 M249.18,42H99.82C81.14,42,66,57.14,66,75.82v64.36C66,158.86,81.14,174,99.82,174
		h149.36c18.68,0,33.82-15.14,33.82-33.82V75.82C283,57.14,267.86,42,249.18,42L249.18,42z"/>
</g>
<g>
	<path class="st0" d="M271.82,377c-18.1,0-32.82-14.72-32.82-32.82v-64.36c0-18.1,14.72-32.82,32.82-32.82h149.36
		c18.1,0,32.82,14.72,32.82,32.82v64.36c0,18.1-14.72,32.82-32.82,32.82H271.82z"/>
	<path d="M421.18,248c17.54,0,31.82,14.27,31.82,31.82v64.36c0,17.54-14.27,31.82-31.82,31.82H271.82
		c-17.54,0-31.82-14.27-31.82-31.82v-64.36c0-17.54,14.27-31.82,31.82-31.82H421.18 M421.18,246H271.82
		c-18.68,0-33.82,15.14-33.82,33.82v64.36c0,18.68,15.14,33.82,33.82,33.82h149.36c18.68,0,33.82-15.14,33.82-33.82v-64.36
		C455,261.14,439.86,246,421.18,246L421.18,246z"/>
</g>
<g>
	<path class="st0" d="M284.82,576c-18.1,0-32.82-14.72-32.82-32.82v-64.37c0-18.1,14.72-32.82,32.82-32.82h149.36
		c18.1,0,32.82,14.72,32.82,32.82v64.37c0,18.1-14.72,32.82-32.82,32.82H284.82z"/>
	<path d="M434.18,447c17.54,0,31.82,14.27,31.82,31.82v64.36c0,17.54-14.27,31.82-31.82,31.82H284.82
		c-17.54,0-31.82-14.27-31.82-31.82v-64.36c0-17.54,14.27-31.82,31.82-31.82H434.18 M434.18,445H284.82
		c-18.68,0-33.82,15.14-33.82,33.82v64.36c0,18.68,15.14,33.82,33.82,33.82h149.36c18.68,0,33.82-15.14,33.82-33.82v-64.36
		C468,460.14,452.86,445,434.18,445L434.18,445z"/>
</g>
<g>
	<path class="st0" d="M54.82,688C36.72,688,22,673.28,22,655.18v-64.37C22,572.72,36.72,558,54.82,558h149.36
		c18.1,0,32.82,14.72,32.82,32.82v64.37c0,18.1-14.72,32.82-32.82,32.82H54.82z"/>
	<path d="M204.18,559c17.54,0,31.82,14.27,31.82,31.82v64.36c0,17.54-14.27,31.82-31.82,31.82H54.82C37.27,687,23,672.73,23,655.18
		v-64.36C23,573.27,37.27,559,54.82,559H204.18 M204.18,557H54.82C36.14,557,21,572.14,21,590.82v64.36
		C21,673.86,36.14,689,54.82,689h149.36c18.68,0,33.82-15.14,33.82-33.82v-64.36C238,572.14,222.86,557,204.18,557L204.18,557z"/>
</g>
<g>
	<path class="st0" d="M360.82,832c-18.1,0-32.82-14.72-32.82-32.82v-64.37c0-18.1,14.72-32.82,32.82-32.82h149.36
		c18.1,0,32.82,14.72,32.82,32.82v64.37c0,18.1-14.72,32.82-32.82,32.82H360.82z"/>
	<path d="M510.18,703c17.54,0,31.82,14.27,31.82,31.82v64.36c0,17.54-14.27,31.82-31.82,31.82H360.82
		c-17.54,0-31.82-14.27-31.82-31.82v-64.36c0-17.54,14.27-31.82,31.82-31.82H510.18 M510.18,701H360.82
		c-18.68,0-33.82,15.14-33.82,33.82v64.36c0,18.68,15.14,33.82,33.82,33.82h149.36c18.68,0,33.82-15.14,33.82-33.82v-64.36
		C544,716.14,528.86,701,510.18,701L510.18,701z"/>
</g>
<g>
	<path class="st0" d="M380.82,1046c-18.1,0-32.82-14.72-32.82-32.82v-64.37c0-18.1,14.72-32.82,32.82-32.82h149.36
		c18.1,0,32.82,14.72,32.82,32.82v64.37c0,18.1-14.72,32.82-32.82,32.82H380.82z"/>
	<path d="M530.18,917c17.54,0,31.82,14.27,31.82,31.82v64.36c0,17.54-14.27,31.82-31.82,31.82H380.82
		c-17.54,0-31.82-14.27-31.82-31.82v-64.36c0-17.54,14.27-31.82,31.82-31.82H530.18 M530.18,915H380.82
		c-18.68,0-33.82,15.14-33.82,33.82v64.36c0,18.68,15.14,33.82,33.82,33.82h149.36c18.68,0,33.82-15.14,33.82-33.82v-64.36
		C564,930.14,548.86,915,530.18,915L530.18,915z"/>
</g>
<g>
	<path class="st0" d="M790.82,1054c-18.1,0-32.82-14.72-32.82-32.82v-64.37c0-18.1,14.72-32.82,32.82-32.82h149.37
		c18.1,0,32.82,14.72,32.82,32.82v64.37c0,18.1-14.72,32.82-32.82,32.82H790.82z"/>
	<path d="M940.18,925c17.54,0,31.82,14.27,31.82,31.82v64.36c0,17.54-14.27,31.82-31.82,31.82H790.82
		c-17.54,0-31.82-14.27-31.82-31.82v-64.36c0-17.54,14.27-31.82,31.82-31.82H940.18 M940.18,923H790.82
		c-18.68,0-33.82,15.14-33.82,33.82v64.36c0,18.68,15.14,33.82,33.82,33.82h149.36c18.68,0,33.82-15.14,33.82-33.82v-64.36
		C974,938.14,958.86,923,940.18,923L940.18,923z"/>
</g>
<g>
	<path class="st0" d="M854.82,876c-18.1,0-32.82-14.72-32.82-32.82v-64.37c0-18.1,14.72-32.82,32.82-32.82h149.37
		c18.1,0,32.82,14.72,32.82,32.82v64.37c0,18.1-14.72,32.82-32.82,32.82H854.82z"/>
	<path d="M1004.18,747c17.54,0,31.82,14.27,31.82,31.82v64.36c0,17.54-14.27,31.82-31.82,31.82H854.82
		c-17.54,0-31.82-14.27-31.82-31.82v-64.36c0-17.54,14.27-31.82,31.82-31.82H1004.18 M1004.18,745H854.82
		c-18.68,0-33.82,15.14-33.82,33.82v64.36c0,18.68,15.14,33.82,33.82,33.82h149.36c18.68,0,33.82-15.14,33.82-33.82v-64.36
		C1038,760.14,1022.86,745,1004.18,745L1004.18,745z"/>
</g>
<g>
	<path class="st0" d="M360.82,178c-18.1,0-32.82-14.72-32.82-32.82V80.82C328,62.72,342.72,48,360.82,48h149.36
		C528.28,48,543,62.72,543,80.82v64.36c0,18.1-14.72,32.82-32.82,32.82H360.82z"/>
	<path d="M510.18,49C527.73,49,542,63.27,542,80.82v64.36c0,17.54-14.27,31.82-31.82,31.82H360.82c-17.54,0-31.82-14.27-31.82-31.82
		V80.82C329,63.27,343.27,49,360.82,49H510.18 M510.18,47H360.82C342.14,47,327,62.14,327,80.82v64.36
		c0,18.68,15.14,33.82,33.82,33.82h149.36c18.68,0,33.82-15.14,33.82-33.82V80.82C544,62.14,528.86,47,510.18,47L510.18,47z"/>
</g>
<g>
	<path class="st0" d="M646.82,178c-18.1,0-32.82-14.72-32.82-32.82V80.82C614,62.72,628.72,48,646.82,48h149.36
		C814.28,48,829,62.72,829,80.82v64.36c0,18.1-14.72,32.82-32.82,32.82H646.82z"/>
	<path d="M796.18,49C813.73,49,828,63.27,828,80.82v64.36c0,17.54-14.27,31.82-31.82,31.82H646.82c-17.54,0-31.82-14.27-31.82-31.82
		V80.82C615,63.27,629.27,49,646.82,49H796.18 M796.18,47H646.82C628.14,47,613,62.14,613,80.82v64.36
		c0,18.68,15.14,33.82,33.82,33.82h149.36c18.68,0,33.82-15.14,33.82-33.82V80.82C830,62.14,814.86,47,796.18,47L796.18,47z"/>
</g>
<g>
	<path class="st0" d="M660.82,348c-18.1,0-32.82-14.72-32.82-32.82v-64.36c0-18.1,14.72-32.82,32.82-32.82h149.36
		c18.1,0,32.82,14.72,32.82,32.82v64.36c0,18.1-14.72,32.82-32.82,32.82H660.82z"/>
	<path d="M810.18,219c17.54,0,31.82,14.27,31.82,31.82v64.36c0,17.54-14.27,31.82-31.82,31.82H660.82
		c-17.54,0-31.82-14.27-31.82-31.82v-64.36c0-17.54,14.27-31.82,31.82-31.82H810.18 M810.18,217H660.82
		c-18.68,0-33.82,15.14-33.82,33.82v64.36c0,18.68,15.14,33.82,33.82,33.82h149.36c18.68,0,33.82-15.14,33.82-33.82v-64.36
		C844,232.14,828.86,217,810.18,217L810.18,217z"/>
</g>
<g>
	<path class="st0" d="M660.82,538c-18.1,0-32.82-14.72-32.82-32.82v-64.37c0-18.1,14.72-32.82,32.82-32.82h149.36
		c18.1,0,32.82,14.72,32.82,32.82v64.37c0,18.1-14.72,32.82-32.82,32.82H660.82z"/>
	<path d="M810.18,409c17.54,0,31.82,14.27,31.82,31.82v64.36c0,17.54-14.27,31.82-31.82,31.82H660.82
		c-17.54,0-31.82-14.27-31.82-31.82v-64.36c0-17.54,14.27-31.82,31.82-31.82H810.18 M810.18,407H660.82
		c-18.68,0-33.82,15.14-33.82,33.82v64.36c0,18.68,15.14,33.82,33.82,33.82h149.36c18.68,0,33.82-15.14,33.82-33.82v-64.36
		C844,422.14,828.86,407,810.18,407L810.18,407z"/>
</g>
<g>
	<path class="st0" d="M796.82,696c-18.1,0-32.82-14.72-32.82-32.82v-64.37c0-18.1,14.72-32.82,32.82-32.82h149.37
		c18.1,0,32.82,14.72,32.82,32.82v64.37c0,18.1-14.72,32.82-32.82,32.82H796.82z"/>
	<path d="M946.18,567c17.54,0,31.82,14.27,31.82,31.82v64.36c0,17.54-14.27,31.82-31.82,31.82H796.82
		c-17.54,0-31.82-14.27-31.82-31.82v-64.36c0-17.54,14.27-31.82,31.82-31.82H946.18 M946.18,565H796.82
		c-18.68,0-33.82,15.14-33.82,33.82v64.36c0,18.68,15.14,33.82,33.82,33.82h149.36c18.68,0,33.82-15.14,33.82-33.82v-64.36
		C980,580.14,964.86,565,946.18,565L946.18,565z"/>
</g>
<g>
	<path class="st0" d="M562.82,693c-18.1,0-32.82-14.72-32.82-32.82v-64.37c0-18.1,14.72-32.82,32.82-32.82h149.36
		c18.1,0,32.82,14.72,32.82,32.82v64.37c0,18.1-14.72,32.82-32.82,32.82H562.82z"/>
	<path d="M712.18,564c17.54,0,31.82,14.27,31.82,31.82v64.36c0,17.54-14.27,31.82-31.82,31.82H562.82
		c-17.54,0-31.82-14.27-31.82-31.82v-64.36c0-17.54,14.27-31.82,31.82-31.82H712.18 M712.18,562H562.82
		c-18.68,0-33.82,15.14-33.82,33.82v64.36c0,18.68,15.14,33.82,33.82,33.82h149.36c18.68,0,33.82-15.14,33.82-33.82v-64.36
		C746,577.14,730.86,562,712.18,562L712.18,562z"/>
</g>
<g>
	<path d="M557.99,584.66c1.91-0.32,4.18-0.54,6.66-0.54c4.5,0,7.7,1.08,9.83,3.02c2.2,1.98,3.46,4.79,3.46,8.71
		c0,3.96-1.26,7.2-3.49,9.43c-2.3,2.27-6.05,3.49-10.76,3.49c-2.27,0-4.1-0.11-5.69-0.29V584.66z M561.12,606.11
		c0.79,0.11,1.94,0.14,3.17,0.14c6.73,0,10.33-3.74,10.33-10.29c0.04-5.72-3.2-9.36-9.83-9.36c-1.62,0-2.84,0.14-3.67,0.32V606.11z"
		/>
	<path d="M581.86,596.57c0-2.05-0.04-3.82-0.14-5.44h2.77l0.14,3.46h0.11c0.79-2.34,2.74-3.82,4.86-3.82c0.32,0,0.58,0.04,0.86,0.07
		v2.99c-0.32-0.07-0.65-0.07-1.08-0.07c-2.23,0-3.82,1.66-4.25,4.03c-0.07,0.43-0.11,0.97-0.11,1.48v9.29h-3.17V596.57z"/>
	<path d="M609.03,599.71c0,6.44-4.5,9.25-8.67,9.25c-4.68,0-8.35-3.46-8.35-8.96c0-5.79,3.85-9.21,8.64-9.21
		C605.65,590.78,609.03,594.41,609.03,599.71z M595.25,599.88c0,3.82,2.16,6.7,5.26,6.7c3.02,0,5.29-2.84,5.29-6.77
		c0-2.95-1.48-6.66-5.22-6.66C596.87,593.15,595.25,596.61,595.25,599.88z"/>
	<path d="M613.03,596.57c0-2.05-0.04-3.82-0.14-5.44h2.77l0.14,3.46h0.11c0.79-2.34,2.74-3.82,4.86-3.82c0.32,0,0.58,0.04,0.86,0.07
		v2.99c-0.32-0.07-0.65-0.07-1.08-0.07c-2.23,0-3.82,1.66-4.25,4.03c-0.07,0.43-0.11,0.97-0.11,1.48v9.29h-3.17V596.57z"/>
	<path d="M632.54,584.3h3.13V596h0.11c0.65-0.94,1.3-1.8,1.91-2.59l7.42-9.11h3.89l-8.78,10.29l9.47,13.97h-3.71l-7.96-11.91
		l-2.34,2.66v9.25h-3.13V584.3z"/>
	<path d="M655.84,586.24c0,1.08-0.76,1.94-2.02,1.94c-1.15,0-1.91-0.86-1.91-1.94s0.79-1.98,1.98-1.98
		C655.04,584.26,655.84,585.13,655.84,586.24z M652.31,608.56v-17.42h3.17v17.42H652.31z"/>
	<path d="M660.73,583h3.13v10.94h0.07c1.12-1.94,3.13-3.17,5.94-3.17c4.36,0,7.38,3.6,7.38,8.86c0,6.23-3.96,9.32-7.85,9.32
		c-2.52,0-4.54-0.97-5.87-3.24h-0.07l-0.18,2.84h-2.7c0.07-1.19,0.14-2.95,0.14-4.5V583z M663.86,601.58c0,0.4,0.04,0.79,0.14,1.15
		c0.58,2.2,2.45,3.71,4.75,3.71c3.35,0,5.29-2.7,5.29-6.7c0-3.49-1.8-6.48-5.22-6.48c-2.12,0-4.14,1.51-4.79,3.89
		c-0.11,0.4-0.18,0.83-0.18,1.33V601.58z"/>
	<path d="M695.79,603.77c0,1.84,0.04,3.42,0.14,4.79h-2.81l-0.18-2.84h-0.07c-0.79,1.4-2.66,3.24-5.76,3.24
		c-2.74,0-6.01-1.55-6.01-7.63v-10.19h3.17v9.61c0,3.31,1.04,5.58,3.89,5.58c2.12,0,3.6-1.48,4.18-2.92
		c0.18-0.43,0.29-1.01,0.29-1.62v-10.65h3.17V603.77z"/>
	<path d="M704.87,586.96v4.18h4.54v2.41h-4.54v9.39c0,2.16,0.61,3.38,2.38,3.38c0.86,0,1.37-0.07,1.84-0.22l0.14,2.41
		c-0.61,0.22-1.58,0.43-2.81,0.43c-1.48,0-2.66-0.5-3.42-1.33c-0.86-0.97-1.22-2.52-1.22-4.57v-9.5h-2.7v-2.41h2.7v-3.24
		L704.87,586.96z"/>
	<path d="M710.99,606.72l7.85-10.26c0.79-0.97,1.51-1.8,2.3-2.74v-0.07h-9.43v-2.52h13.25v1.98l-7.77,10.12
		c-0.76,0.97-1.44,1.87-2.23,2.74v0.07h10.15v2.52h-14.11V606.72z"/>
	<path d="M555.13,627.5v10.15h11.73V627.5h3.17v24.26h-3.17v-11.38h-11.73v11.38h-3.17V627.5H555.13z"/>
	<path d="M587.6,647.58c0,1.51,0.07,2.99,0.25,4.18H585l-0.25-2.2h-0.11c-0.97,1.37-2.84,2.59-5.33,2.59c-3.53,0-5.33-2.48-5.33-5
		c0-4.21,3.74-6.52,10.47-6.48v-0.36c0-1.4-0.4-4.03-3.96-4c-1.66,0-3.35,0.47-4.57,1.3l-0.72-2.12c1.44-0.9,3.56-1.51,5.76-1.51
		c5.33,0,6.62,3.64,6.62,7.09V647.58z M584.54,642.87c-3.46-0.07-7.38,0.54-7.38,3.92c0,2.09,1.37,3.02,2.95,3.02
		c2.3,0,3.78-1.44,4.28-2.92c0.11-0.36,0.14-0.72,0.14-1.01V642.87z"/>
	<path d="M592.71,639.05c0-1.84-0.07-3.28-0.14-4.72h2.77l0.14,2.84h0.11c0.97-1.66,2.59-3.2,5.51-3.2c2.34,0,4.14,1.44,4.9,3.49
		h0.07c0.54-1.01,1.26-1.73,1.98-2.27c1.04-0.79,2.16-1.22,3.82-1.22c2.34,0,5.76,1.51,5.76,7.56v10.22h-3.1v-9.83
		c0-3.38-1.26-5.36-3.78-5.36c-1.84,0-3.2,1.33-3.78,2.84c-0.14,0.47-0.25,1.01-0.25,1.58v10.76h-3.1v-10.44
		c0-2.77-1.22-4.75-3.64-4.75c-1.94,0-3.42,1.58-3.92,3.17c-0.18,0.43-0.25,1.01-0.25,1.55v10.47h-3.1V639.05z"/>
	<path d="M624.5,643.62c0.07,4.28,2.77,6.05,5.98,6.05c2.27,0,3.67-0.4,4.82-0.9l0.58,2.27c-1.12,0.5-3.06,1.12-5.83,1.12
		c-5.36,0-8.57-3.56-8.57-8.82c0-5.26,3.1-9.36,8.17-9.36c5.72,0,7.2,4.97,7.2,8.17c0,0.65-0.04,1.12-0.11,1.48H624.5z
		 M633.78,641.36c0.04-1.98-0.83-5.11-4.39-5.11c-3.24,0-4.61,2.92-4.86,5.11H633.78z"/>
	<path d="M655.35,646.97c0,1.84,0.04,3.42,0.14,4.79h-2.81l-0.18-2.84h-0.07c-0.79,1.4-2.66,3.24-5.76,3.24
		c-2.74,0-6.01-1.55-6.01-7.63v-10.19h3.17v9.61c0,3.31,1.04,5.58,3.89,5.58c2.12,0,3.6-1.48,4.18-2.92
		c0.18-0.43,0.29-1.01,0.29-1.62v-10.65h3.17V646.97z"/>
	<path d="M673.02,651.15c-0.83,0.4-2.66,1.01-5,1.01c-5.26,0-8.68-3.56-8.68-8.89c0-5.36,3.67-9.29,9.36-9.29
		c1.87,0,3.53,0.47,4.39,0.94l-0.72,2.41c-0.76-0.4-1.94-0.83-3.67-0.83c-4,0-6.16,2.99-6.16,6.59c0,4.03,2.59,6.51,6.05,6.51
		c1.8,0,2.99-0.43,3.89-0.83L673.02,651.15z"/>
	<path d="M676.73,626.2h3.17v10.91h0.07c0.5-0.9,1.3-1.73,2.27-2.27c0.94-0.54,2.05-0.86,3.24-0.86c2.34,0,6.08,1.44,6.08,7.42
		v10.37h-3.17v-10.01c0-2.81-1.04-5.15-4.03-5.15c-2.05,0-3.64,1.44-4.25,3.13c-0.18,0.47-0.22,0.94-0.22,1.51v10.51h-3.17V626.2z"
		/>
	<path d="M708.95,647.58c0,1.51,0.07,2.99,0.25,4.18h-2.84l-0.25-2.2H706c-0.97,1.37-2.84,2.59-5.33,2.59c-3.53,0-5.33-2.48-5.33-5
		c0-4.21,3.74-6.52,10.47-6.48v-0.36c0-1.4-0.4-4.03-3.96-4c-1.66,0-3.35,0.47-4.57,1.3l-0.72-2.12c1.44-0.9,3.56-1.51,5.76-1.51
		c5.33,0,6.62,3.64,6.62,7.09V647.58z M705.89,642.87c-3.46-0.07-7.38,0.54-7.38,3.92c0,2.09,1.37,3.02,2.95,3.02
		c2.3,0,3.78-1.44,4.28-2.92c0.11-0.36,0.14-0.72,0.14-1.01V642.87z"/>
	<path d="M729.07,626.2v21.06c0,1.55,0.07,3.31,0.14,4.5h-2.81l-0.14-3.02h-0.11c-0.94,1.94-3.02,3.42-5.87,3.42
		c-4.21,0-7.49-3.56-7.49-8.85c-0.04-5.79,3.6-9.32,7.81-9.32c2.7,0,4.46,1.26,5.26,2.63h0.07v-10.4H729.07z M725.94,641.43
		c0-0.4-0.04-0.94-0.14-1.33c-0.47-1.98-2.2-3.64-4.57-3.64c-3.28,0-5.22,2.88-5.22,6.7c0,3.53,1.76,6.44,5.15,6.44
		c2.12,0,4.07-1.44,4.64-3.78c0.11-0.43,0.14-0.86,0.14-1.37V641.43z"/>
</g>
<g>
	<path d="M796.03,573.66c1.91-0.32,4.18-0.54,6.66-0.54c4.5,0,7.7,1.08,9.83,3.02c2.2,1.98,3.46,4.79,3.46,8.71
		c0,3.96-1.26,7.2-3.49,9.43c-2.3,2.27-6.05,3.49-10.76,3.49c-2.27,0-4.1-0.11-5.69-0.29V573.66z M799.16,595.11
		c0.79,0.11,1.94,0.14,3.17,0.14c6.73,0,10.33-3.74,10.33-10.29c0.04-5.72-3.2-9.36-9.83-9.36c-1.62,0-2.84,0.14-3.67,0.32V595.11z"
		/>
	<path d="M819.9,585.57c0-2.05-0.04-3.82-0.14-5.44h2.77l0.14,3.46h0.11c0.79-2.34,2.74-3.82,4.86-3.82c0.32,0,0.58,0.04,0.86,0.07
		v2.99c-0.32-0.07-0.65-0.07-1.08-0.07c-2.23,0-3.82,1.66-4.25,4.03c-0.07,0.43-0.11,0.97-0.11,1.48v9.29h-3.17V585.57z"/>
	<path d="M847.08,588.71c0,6.44-4.5,9.25-8.67,9.25c-4.68,0-8.35-3.46-8.35-8.96c0-5.79,3.85-9.21,8.64-9.21
		C843.7,579.78,847.08,583.41,847.08,588.71z M833.29,588.88c0,3.82,2.16,6.7,5.25,6.7c3.02,0,5.29-2.84,5.29-6.77
		c0-2.95-1.48-6.66-5.22-6.66C834.91,582.15,833.29,585.61,833.29,588.88z"/>
	<path d="M851.08,585.57c0-2.05-0.04-3.82-0.14-5.44h2.77l0.14,3.46h0.11c0.79-2.34,2.74-3.82,4.86-3.82c0.32,0,0.58,0.04,0.86,0.07
		v2.99c-0.32-0.07-0.65-0.07-1.08-0.07c-2.23,0-3.82,1.66-4.25,4.03c-0.07,0.43-0.11,0.97-0.11,1.48v9.29h-3.17V585.57z"/>
	<path d="M873.72,573.3v24.26h-3.17V573.3H873.72z"/>
	<path d="M891.5,596.95c-0.83,0.4-2.66,1.01-5,1.01c-5.26,0-8.68-3.56-8.68-8.89c0-5.36,3.67-9.29,9.36-9.29
		c1.87,0,3.53,0.47,4.39,0.94l-0.72,2.41c-0.76-0.4-1.94-0.83-3.67-0.83c-4,0-6.16,2.99-6.16,6.59c0,4.03,2.59,6.51,6.05,6.51
		c1.8,0,2.99-0.43,3.89-0.83L891.5,596.95z"/>
	<path d="M895.21,572h3.17v10.91h0.07c0.5-0.9,1.3-1.73,2.27-2.27c0.94-0.54,2.05-0.86,3.24-0.86c2.34,0,6.08,1.44,6.08,7.42v10.37
		h-3.17v-10.01c0-2.81-1.04-5.15-4.03-5.15c-2.05,0-3.64,1.44-4.25,3.13c-0.18,0.47-0.22,0.94-0.22,1.51v10.51h-3.17V572z"/>
	<path d="M929.77,592.77c0,1.84,0.04,3.42,0.14,4.79h-2.81l-0.18-2.84h-0.07c-0.79,1.4-2.66,3.24-5.76,3.24
		c-2.74,0-6.01-1.55-6.01-7.63v-10.19h3.17v9.61c0,3.31,1.04,5.58,3.89,5.58c2.12,0,3.6-1.48,4.18-2.92
		c0.18-0.43,0.29-1.01,0.29-1.62v-10.65h3.17V592.77z"/>
	<path d="M950.04,572v21.06c0,1.55,0.07,3.31,0.14,4.5h-2.81l-0.14-3.02h-0.11c-0.94,1.94-3.02,3.42-5.87,3.42
		c-4.21,0-7.49-3.56-7.49-8.85c-0.04-5.79,3.6-9.32,7.81-9.32c2.7,0,4.46,1.26,5.26,2.63h0.07V572H950.04z M946.91,587.23
		c0-0.4-0.04-0.94-0.14-1.33c-0.47-1.98-2.2-3.64-4.57-3.64c-3.28,0-5.22,2.88-5.22,6.7c0,3.53,1.76,6.44,5.15,6.44
		c2.12,0,4.07-1.44,4.64-3.78c0.11-0.43,0.14-0.86,0.14-1.37V587.23z"/>
	<path d="M774.67,616.5v10.15h11.73V616.5h3.17v24.26h-3.17v-11.38h-11.73v11.38h-3.17V616.5H774.67z"/>
	<path d="M807.14,636.58c0,1.51,0.07,2.99,0.25,4.18h-2.84l-0.25-2.2h-0.11c-0.97,1.37-2.84,2.59-5.33,2.59
		c-3.53,0-5.33-2.48-5.33-5c0-4.21,3.74-6.52,10.47-6.48v-0.36c0-1.4-0.4-4.03-3.96-4c-1.66,0-3.35,0.47-4.57,1.3l-0.72-2.12
		c1.44-0.9,3.56-1.51,5.76-1.51c5.33,0,6.62,3.64,6.62,7.09V636.58z M804.08,631.87c-3.46-0.07-7.38,0.54-7.38,3.92
		c0,2.09,1.37,3.02,2.95,3.02c2.3,0,3.78-1.44,4.28-2.92c0.11-0.36,0.14-0.72,0.14-1.01V631.87z"/>
	<path d="M815.38,631.33h0.07c0.43-0.61,1.01-1.37,1.51-1.98l5.15-6.01h3.78l-6.7,7.16l7.67,10.26h-3.89l-5.98-8.35l-1.62,1.8v6.55
		h-3.13V615.2h3.13V631.33z"/>
	<path d="M830.83,623.34l3.42,9.75c0.58,1.62,1.04,3.06,1.4,4.5h0.11c0.4-1.44,0.9-2.88,1.48-4.5l3.38-9.75h3.31l-6.84,17.42h-3.02
		l-6.62-17.42H830.83z"/>
	<path d="M861.5,635.97c0,1.84,0.04,3.42,0.14,4.79h-2.81l-0.18-2.84h-0.07c-0.79,1.4-2.66,3.24-5.76,3.24
		c-2.74,0-6.01-1.55-6.01-7.63v-10.19h3.17v9.61c0,3.31,1.04,5.58,3.89,5.58c2.12,0,3.6-1.48,4.18-2.92
		c0.18-0.43,0.29-1.01,0.29-1.62v-10.65h3.17V635.97z"/>
	<path d="M870.57,619.16v4.18h4.54v2.41h-4.54v9.39c0,2.16,0.61,3.38,2.38,3.38c0.86,0,1.37-0.07,1.84-0.22l0.14,2.41
		c-0.61,0.22-1.58,0.43-2.81,0.43c-1.48,0-2.66-0.5-3.42-1.33c-0.86-0.97-1.22-2.52-1.22-4.57v-9.5h-2.7v-2.41h2.7v-3.24
		L870.57,619.16z"/>
	<path d="M876.69,638.92l7.85-10.26c0.79-0.97,1.51-1.8,2.3-2.74v-0.07h-9.43v-2.52h13.25v1.98l-7.78,10.12
		c-0.76,0.97-1.44,1.87-2.23,2.74v0.07h10.15v2.52h-14.11V638.92z"/>
	<path d="M909.59,631.91c0,6.44-4.5,9.25-8.68,9.25c-4.68,0-8.35-3.46-8.35-8.96c0-5.79,3.85-9.21,8.64-9.21
		C906.21,622.98,909.59,626.61,909.59,631.91z M895.8,632.08c0,3.82,2.16,6.7,5.26,6.7c3.02,0,5.29-2.84,5.29-6.77
		c0-2.95-1.48-6.66-5.22-6.66C897.42,625.35,895.8,628.81,895.8,632.08z"/>
	<path d="M917.4,619.16v4.18h4.54v2.41h-4.54v9.39c0,2.16,0.61,3.38,2.38,3.38c0.86,0,1.37-0.07,1.84-0.22l0.14,2.41
		c-0.61,0.22-1.58,0.43-2.81,0.43c-1.48,0-2.66-0.5-3.42-1.33c-0.86-0.97-1.22-2.52-1.22-4.57v-9.5h-2.7v-2.41h2.7v-3.24
		L917.4,619.16z"/>
	<path d="M937.28,640.76l-7.96-24.26h3.42l3.78,11.95c1.01,3.28,1.91,6.23,2.59,9.07h0.07c0.68-2.81,1.66-5.87,2.77-9.04l4.1-11.99
		h3.35l-8.67,24.26H937.28z"/>
	<path d="M952.5,632.62c0.07,4.28,2.77,6.05,5.98,6.05c2.27,0,3.67-0.4,4.82-0.9l0.58,2.27c-1.12,0.5-3.06,1.12-5.83,1.12
		c-5.36,0-8.57-3.56-8.57-8.82c0-5.26,3.1-9.36,8.17-9.36c5.72,0,7.2,4.97,7.2,8.17c0,0.65-0.04,1.12-0.11,1.48H952.5z
		 M961.79,630.36c0.04-1.98-0.83-5.11-4.39-5.11c-3.24,0-4.61,2.92-4.86,5.11H961.79z"/>
	<path d="M976.12,629.89v2.3h-8.89v-2.3H976.12z"/>
	<path d="M790.96,658.4h3.17v10.91h0.07c0.5-0.9,1.3-1.73,2.27-2.27c0.94-0.54,2.05-0.86,3.24-0.86c2.34,0,6.08,1.44,6.08,7.42
		v10.37h-3.17v-10.01c0-2.81-1.04-5.15-4.03-5.15c-2.05,0-3.64,1.44-4.25,3.13c-0.18,0.47-0.21,0.94-0.21,1.51v10.51h-3.17V658.4z"
		/>
	<path d="M823.17,679.78c0,1.51,0.07,2.99,0.25,4.18h-2.84l-0.25-2.2h-0.11c-0.97,1.37-2.84,2.59-5.33,2.59
		c-3.53,0-5.33-2.48-5.33-5c0-4.21,3.74-6.52,10.47-6.48v-0.36c0-1.4-0.4-4.03-3.96-4c-1.66,0-3.35,0.47-4.57,1.3l-0.72-2.12
		c1.44-0.9,3.56-1.51,5.76-1.51c5.33,0,6.62,3.64,6.62,7.09V679.78z M820.12,675.07c-3.46-0.07-7.38,0.54-7.38,3.92
		c0,2.09,1.37,3.02,2.95,3.02c2.3,0,3.78-1.44,4.28-2.92c0.11-0.36,0.14-0.72,0.14-1.01V675.07z"/>
	<path d="M831.42,674.53h0.07c0.43-0.61,1.01-1.37,1.51-1.98l5.15-6.01h3.78l-6.7,7.16l7.67,10.26h-3.89l-5.98-8.35l-1.62,1.8v6.55
		h-3.13V658.4h3.13V674.53z"/>
	<path d="M849.31,661.64c0,1.08-0.76,1.94-2.02,1.94c-1.15,0-1.91-0.86-1.91-1.94s0.79-1.98,1.98-1.98
		C848.52,659.66,849.31,660.53,849.31,661.64z M845.78,683.96v-17.42h3.17v17.42H845.78z"/>
	<path d="M854.21,658.4h3.13v10.94h0.07c1.12-1.94,3.13-3.17,5.94-3.17c4.36,0,7.38,3.6,7.38,8.86c0,6.23-3.96,9.32-7.85,9.32
		c-2.52,0-4.54-0.97-5.87-3.24h-0.07l-0.18,2.84h-2.7c0.07-1.19,0.14-2.95,0.14-4.5V658.4z M857.34,676.98
		c0,0.4,0.04,0.79,0.14,1.15c0.58,2.2,2.45,3.71,4.75,3.71c3.35,0,5.29-2.7,5.29-6.7c0-3.49-1.8-6.48-5.22-6.48
		c-2.12,0-4.14,1.51-4.79,3.89c-0.11,0.4-0.18,0.83-0.18,1.33V676.98z"/>
	<path d="M889.27,679.17c0,1.84,0.04,3.42,0.14,4.79h-2.81l-0.18-2.84h-0.07c-0.79,1.4-2.66,3.24-5.76,3.24
		c-2.74,0-6.01-1.55-6.01-7.63v-10.19h3.17v9.61c0,3.31,1.04,5.58,3.89,5.58c2.12,0,3.6-1.48,4.18-2.92
		c0.18-0.43,0.29-1.01,0.29-1.62v-10.65h3.17V679.17z"/>
	<path d="M898.34,662.36v4.18h4.54v2.41h-4.54v9.39c0,2.16,0.61,3.38,2.38,3.38c0.86,0,1.37-0.07,1.84-0.22l0.14,2.41
		c-0.61,0.22-1.58,0.43-2.81,0.43c-1.48,0-2.66-0.5-3.42-1.33c-0.86-0.97-1.22-2.52-1.22-4.57v-9.5h-2.7v-2.41h2.7v-3.24
		L898.34,662.36z"/>
	<path d="M904.46,682.12l7.85-10.26c0.79-0.97,1.51-1.8,2.3-2.74v-0.07h-9.43v-2.52h13.25v1.98l-7.78,10.12
		c-0.76,0.97-1.44,1.87-2.23,2.74v0.07h10.15v2.52h-14.11V682.12z"/>
	<path d="M925.38,661.64c0,1.08-0.76,1.94-2.02,1.94c-1.15,0-1.91-0.86-1.91-1.94s0.79-1.98,1.98-1.98
		C924.59,659.66,925.38,660.53,925.38,661.64z M921.85,683.96v-17.42h3.17v17.42H921.85z"/>
	<path d="M930.27,671.25c0-1.84-0.07-3.28-0.14-4.72h2.77l0.14,2.84h0.11c0.97-1.66,2.59-3.2,5.51-3.2c2.34,0,4.14,1.44,4.9,3.49
		h0.07c0.54-1.01,1.26-1.73,1.98-2.27c1.04-0.79,2.16-1.22,3.82-1.22c2.34,0,5.76,1.51,5.76,7.56v10.22h-3.1v-9.83
		c0-3.38-1.26-5.36-3.78-5.36c-1.84,0-3.2,1.33-3.78,2.84c-0.14,0.47-0.25,1.01-0.25,1.58v10.76h-3.1v-10.44
		c0-2.77-1.22-4.75-3.64-4.75c-1.94,0-3.42,1.58-3.92,3.17c-0.18,0.43-0.25,1.01-0.25,1.55v10.47h-3.1V671.25z"/>
</g>
<g>
	<path class="st0" d="M898.82,178c-18.1,0-32.82-14.72-32.82-32.82V80.82C866,62.72,880.72,48,898.82,48h149.37
		c18.1,0,32.82,14.72,32.82,32.82v64.36c0,18.1-14.72,32.82-32.82,32.82H898.82z"/>
	<path d="M1048.18,49c17.54,0,31.82,14.27,31.82,31.82v64.36c0,17.54-14.27,31.82-31.82,31.82H898.82
		c-17.54,0-31.82-14.27-31.82-31.82V80.82C867,63.27,881.27,49,898.82,49H1048.18 M1048.18,47H898.82C880.14,47,865,62.14,865,80.82
		v64.36c0,18.68,15.14,33.82,33.82,33.82h149.36c18.68,0,33.82-15.14,33.82-33.82V80.82C1082,62.14,1066.86,47,1048.18,47
		L1048.18,47z"/>
</g>
<g>
	<path class="st0" d="M1175.82,178c-18.1,0-32.82-14.72-32.82-32.82V80.82c0-18.1,14.72-32.82,32.82-32.82h149.37
		c18.1,0,32.82,14.72,32.82,32.82v64.36c0,18.1-14.72,32.82-32.82,32.82H1175.82z"/>
	<path d="M1325.18,49c17.54,0,31.82,14.27,31.82,31.82v64.36c0,17.54-14.27,31.82-31.82,31.82h-149.36
		c-17.54,0-31.82-14.27-31.82-31.82V80.82c0-17.54,14.27-31.82,31.82-31.82H1325.18 M1325.18,47h-149.36
		c-18.68,0-33.82,15.14-33.82,33.82v64.36c0,18.68,15.14,33.82,33.82,33.82h149.36c18.68,0,33.82-15.14,33.82-33.82V80.82
		C1359,62.14,1343.86,47,1325.18,47L1325.18,47z"/>
</g>
<g>
	<path d="M128.52,64.77v10.15h11.73V64.77h3.17v24.26h-3.17V77.66h-11.73v11.37h-3.17V64.77H128.52z"/>
	<path d="M160.99,84.86c0,1.51,0.07,2.99,0.25,4.18h-2.84l-0.25-2.2h-0.11c-0.97,1.37-2.84,2.59-5.33,2.59c-3.53,0-5.33-2.48-5.33-5
		c0-4.21,3.74-6.52,10.47-6.48v-0.36c0-1.4-0.4-4.03-3.96-4c-1.66,0-3.35,0.47-4.57,1.3l-0.72-2.12c1.44-0.9,3.56-1.51,5.76-1.51
		c5.33,0,6.62,3.64,6.62,7.09V84.86z M157.93,80.14c-3.46-0.07-7.38,0.54-7.38,3.92c0,2.09,1.37,3.02,2.95,3.02
		c2.3,0,3.78-1.44,4.28-2.92c0.11-0.36,0.14-0.72,0.14-1.01V80.14z"/>
	<path d="M166.11,76.32c0-1.84-0.04-3.28-0.14-4.72h2.81l0.18,2.88h0.07c0.86-1.62,2.88-3.24,5.76-3.24c2.41,0,6.16,1.44,6.16,7.42
		v10.37h-3.17V78.99c0-2.81-1.04-5.15-4.03-5.15c-2.05,0-3.67,1.48-4.25,3.24c-0.14,0.4-0.22,0.94-0.22,1.48v10.47h-3.17V76.32z"/>
	<path d="M201.85,80.18c0,6.44-4.5,9.25-8.67,9.25c-4.68,0-8.35-3.46-8.35-8.96c0-5.8,3.85-9.21,8.64-9.21
		C198.47,71.25,201.85,74.88,201.85,80.18z M188.07,80.36c0,3.82,2.16,6.69,5.26,6.69c3.02,0,5.29-2.84,5.29-6.77
		c0-2.95-1.48-6.66-5.22-6.66C189.69,73.62,188.07,77.08,188.07,80.36z"/>
	<path d="M218.09,84.86c0,1.51,0.07,2.99,0.25,4.18h-2.84l-0.25-2.2h-0.11c-0.97,1.37-2.84,2.59-5.33,2.59c-3.53,0-5.33-2.48-5.33-5
		c0-4.21,3.74-6.52,10.47-6.48v-0.36c0-1.4-0.4-4.03-3.96-4c-1.66,0-3.35,0.47-4.57,1.3l-0.72-2.12c1.44-0.9,3.56-1.51,5.76-1.51
		c5.33,0,6.62,3.64,6.62,7.09V84.86z M215.03,80.14c-3.46-0.07-7.38,0.54-7.38,3.92c0,2.09,1.37,3.02,2.95,3.02
		c2.3,0,3.78-1.44,4.28-2.92c0.11-0.36,0.14-0.72,0.14-1.01V80.14z"/>
	<path d="M223.2,77.04c0-2.05-0.04-3.82-0.14-5.44h2.77l0.14,3.46h0.11c0.79-2.34,2.74-3.82,4.86-3.82c0.32,0,0.58,0.04,0.86,0.07
		v2.99c-0.32-0.07-0.65-0.07-1.08-0.07c-2.23,0-3.82,1.66-4.25,4.03c-0.07,0.43-0.11,0.97-0.11,1.48v9.29h-3.17V77.04z"/>
	<path d="M86.98,107.97v10.15h11.73v-10.15h3.17v24.26h-3.17v-11.37H86.98v11.37h-3.17v-24.26H86.98z"/>
	<path d="M119.45,128.06c0,1.51,0.07,2.99,0.25,4.18h-2.84l-0.25-2.2h-0.11c-0.97,1.37-2.84,2.59-5.33,2.59
		c-3.53,0-5.33-2.48-5.33-5c0-4.21,3.74-6.52,10.47-6.48v-0.36c0-1.4-0.4-4.03-3.96-4c-1.66,0-3.35,0.47-4.57,1.3l-0.72-2.12
		c1.44-0.9,3.56-1.51,5.76-1.51c5.33,0,6.62,3.64,6.62,7.09V128.06z M116.39,123.34c-3.46-0.07-7.38,0.54-7.38,3.92
		c0,2.09,1.37,3.02,2.95,3.02c2.3,0,3.78-1.44,4.28-2.92c0.11-0.36,0.14-0.72,0.14-1.01V123.34z"/>
	<path d="M124.67,108.33c1.37-0.32,3.56-0.54,5.72-0.54c3.13,0,5.15,0.54,6.62,1.76c1.26,0.94,2.05,2.38,2.05,4.28
		c0,2.38-1.58,4.43-4.1,5.33v0.11c2.3,0.54,5,2.45,5,6.05c0,2.09-0.83,3.71-2.09,4.86c-1.66,1.55-4.39,2.27-8.35,2.27
		c-2.16,0-3.82-0.14-4.86-0.29V108.33z M127.8,118.26h2.84c3.28,0,5.22-1.76,5.22-4.1c0-2.81-2.12-3.96-5.29-3.96
		c-1.44,0-2.27,0.11-2.77,0.22V118.26z M127.8,129.86c0.65,0.11,1.51,0.14,2.63,0.14c3.24,0,6.23-1.19,6.23-4.72
		c0-3.28-2.84-4.68-6.26-4.68h-2.59V129.86z"/>
	<path d="M159.98,123.38c0,6.44-4.5,9.25-8.67,9.25c-4.68,0-8.35-3.46-8.35-8.96c0-5.8,3.85-9.21,8.64-9.21
		C156.6,114.45,159.98,118.08,159.98,123.38z M146.2,123.56c0,3.82,2.16,6.69,5.26,6.69c3.02,0,5.29-2.84,5.29-6.77
		c0-2.95-1.48-6.66-5.22-6.66C147.82,116.82,146.2,120.28,146.2,123.56z"/>
	<path d="M163.98,120.24c0-2.05-0.04-3.82-0.14-5.44h2.77l0.14,3.46h0.11c0.79-2.34,2.74-3.82,4.86-3.82c0.32,0,0.58,0.04,0.86,0.07
		v2.99c-0.32-0.07-0.65-0.07-1.08-0.07c-2.23,0-3.82,1.66-4.25,4.03c-0.07,0.43-0.11,0.97-0.11,1.48v9.29h-3.17V120.24z"/>
	<path d="M191.16,123.38c0,6.44-4.5,9.25-8.67,9.25c-4.68,0-8.35-3.46-8.35-8.96c0-5.8,3.85-9.21,8.64-9.21
		C187.78,114.45,191.16,118.08,191.16,123.38z M177.37,123.56c0,3.82,2.16,6.69,5.26,6.69c3.02,0,5.29-2.84,5.29-6.77
		c0-2.95-1.48-6.66-5.22-6.66C178.99,116.82,177.37,120.28,177.37,123.56z"/>
	<path d="M207.58,131.62c-0.83,0.4-2.66,1.01-5,1.01c-5.26,0-8.68-3.56-8.68-8.89c0-5.36,3.67-9.29,9.36-9.29
		c1.87,0,3.53,0.47,4.39,0.94l-0.72,2.41c-0.76-0.4-1.94-0.83-3.67-0.83c-4,0-6.16,2.99-6.16,6.59c0,4.03,2.59,6.52,6.05,6.52
		c1.8,0,2.99-0.43,3.89-0.83L207.58,131.62z"/>
	<path d="M211.29,106.67h3.17v10.91h0.07c0.5-0.9,1.3-1.73,2.27-2.27c0.94-0.54,2.05-0.86,3.24-0.86c2.34,0,6.08,1.44,6.08,7.42
		v10.37h-3.17v-10.01c0-2.81-1.04-5.15-4.03-5.15c-2.05,0-3.64,1.44-4.25,3.13c-0.18,0.47-0.22,0.94-0.22,1.51v10.51h-3.17V106.67z"
		/>
	<path d="M247.03,123.38c0,6.44-4.5,9.25-8.67,9.25c-4.68,0-8.35-3.46-8.35-8.96c0-5.8,3.85-9.21,8.64-9.21
		C243.65,114.45,247.03,118.08,247.03,123.38z M233.25,123.56c0,3.82,2.16,6.69,5.26,6.69c3.02,0,5.29-2.84,5.29-6.77
		c0-2.95-1.48-6.66-5.22-6.66C234.86,116.82,233.25,120.28,233.25,123.56z"/>
	<path d="M252,114.81l3.42,9.75c0.58,1.62,1.04,3.06,1.4,4.5h0.11c0.4-1.44,0.9-2.88,1.48-4.5l3.38-9.75h3.31l-6.84,17.42h-3.02
		l-6.62-17.42H252z"/>
	<path d="M271.62,109.91c0,1.08-0.76,1.94-2.02,1.94c-1.15,0-1.91-0.86-1.91-1.94c0-1.08,0.79-1.98,1.98-1.98
		C270.83,107.93,271.62,108.8,271.62,109.91z M268.09,132.23v-17.42h3.17v17.42H268.09z"/>
</g>
<g>
	<path d="M365.8,77.37v10.15h11.73V77.37h3.17v24.26h-3.17V90.25H365.8v11.37h-3.17V77.37H365.8z"/>
	<path d="M387.8,93.49c0.07,4.28,2.77,6.05,5.98,6.05c2.27,0,3.67-0.4,4.82-0.9l0.58,2.27c-1.12,0.5-3.06,1.12-5.83,1.12
		c-5.36,0-8.57-3.56-8.57-8.82s3.1-9.36,8.17-9.36c5.72,0,7.2,4.97,7.2,8.17c0,0.65-0.04,1.12-0.11,1.48H387.8z M397.08,91.23
		c0.04-1.98-0.83-5.11-4.39-5.11c-3.24,0-4.61,2.92-4.86,5.11H397.08z"/>
	<path d="M416.49,101.02c-0.83,0.4-2.66,1.01-5,1.01c-5.26,0-8.68-3.56-8.68-8.89c0-5.36,3.67-9.29,9.36-9.29
		c1.87,0,3.53,0.47,4.39,0.94l-0.72,2.41c-0.76-0.4-1.94-0.83-3.67-0.83c-4,0-6.16,2.99-6.16,6.59c0,4.03,2.59,6.52,6.05,6.52
		c1.8,0,2.99-0.43,3.89-0.83L416.49,101.02z"/>
	<path d="M420.2,76.07h3.17v10.91h0.07c0.5-0.9,1.3-1.73,2.27-2.27c0.94-0.54,2.05-0.86,3.24-0.86c2.34,0,6.08,1.44,6.08,7.42v10.37
		h-3.17V91.62c0-2.81-1.04-5.15-4.03-5.15c-2.05,0-3.64,1.44-4.25,3.13c-0.18,0.47-0.22,0.94-0.22,1.51v10.51h-3.17V76.07z"/>
	<path d="M452.41,97.45c0,1.51,0.07,2.99,0.25,4.18h-2.84l-0.25-2.2h-0.11c-0.97,1.37-2.84,2.59-5.33,2.59c-3.53,0-5.33-2.48-5.33-5
		c0-4.21,3.74-6.52,10.47-6.48v-0.36c0-1.4-0.4-4.03-3.96-4c-1.66,0-3.35,0.47-4.57,1.3l-0.72-2.12c1.44-0.9,3.56-1.51,5.76-1.51
		c5.33,0,6.62,3.64,6.62,7.09V97.45z M449.35,92.74c-3.46-0.07-7.38,0.54-7.38,3.92c0,2.09,1.37,3.02,2.95,3.02
		c2.3,0,3.78-1.44,4.28-2.92c0.11-0.36,0.14-0.72,0.14-1.01V92.74z"/>
	<path d="M457.53,76.07h3.17v25.56h-3.17V76.07z"/>
	<path d="M480.6,96.84c0,1.84,0.04,3.42,0.14,4.79h-2.81l-0.18-2.84h-0.07c-0.79,1.4-2.66,3.24-5.76,3.24
		c-2.74,0-6.01-1.55-6.01-7.63V84.21h3.17v9.61c0,3.31,1.04,5.58,3.89,5.58c2.12,0,3.6-1.48,4.18-2.92
		c0.18-0.43,0.29-1.01,0.29-1.62V84.21h3.17V96.84z"/>
	<path d="M489.67,80.03v4.18h4.54v2.41h-4.54v9.4c0,2.16,0.61,3.38,2.38,3.38c0.86,0,1.37-0.07,1.84-0.22l0.14,2.41
		c-0.61,0.22-1.58,0.43-2.81,0.43c-1.48,0-2.66-0.5-3.42-1.33c-0.86-0.97-1.22-2.52-1.22-4.57v-9.5h-2.7v-2.41h2.7v-3.24
		L489.67,80.03z"/>
	<path d="M495.79,99.79l7.85-10.26c0.79-0.97,1.51-1.8,2.3-2.74v-0.07h-9.43v-2.52h13.25v1.98l-7.77,10.11
		c-0.76,0.97-1.44,1.87-2.23,2.74v0.07h10.15v2.52h-14.11V99.79z"/>
	<path d="M388.34,120.57v10.15h11.73v-10.15h3.17v24.26h-3.17v-11.37h-11.73v11.37h-3.17v-24.26H388.34z"/>
	<path d="M420.81,140.65c0,1.51,0.07,2.99,0.25,4.18h-2.84l-0.25-2.2h-0.11c-0.97,1.37-2.84,2.59-5.33,2.59
		c-3.53,0-5.33-2.48-5.33-5c0-4.21,3.74-6.52,10.47-6.48v-0.36c0-1.4-0.4-4.03-3.96-4c-1.66,0-3.35,0.47-4.57,1.3l-0.72-2.12
		c1.44-0.9,3.56-1.51,5.76-1.51c5.33,0,6.62,3.64,6.62,7.09V140.65z M417.75,135.94c-3.46-0.07-7.38,0.54-7.38,3.92
		c0,2.09,1.37,3.02,2.95,3.02c2.3,0,3.78-1.44,4.28-2.92c0.11-0.36,0.14-0.72,0.14-1.01V135.94z"/>
	<path d="M429.59,123.23v4.18h4.54v2.41h-4.54v9.4c0,2.16,0.61,3.38,2.38,3.38c0.86,0,1.37-0.07,1.84-0.22l0.14,2.41
		c-0.61,0.22-1.58,0.43-2.81,0.43c-1.48,0-2.66-0.5-3.42-1.33c-0.86-0.97-1.22-2.52-1.22-4.57v-9.5h-2.7v-2.41h2.7v-3.24
		L429.59,123.23z"/>
	<path d="M435.71,142.99l7.85-10.26c0.79-0.97,1.51-1.8,2.3-2.74v-0.07h-9.43v-2.52h13.25v1.98l-7.77,10.11
		c-0.76,0.97-1.44,1.87-2.23,2.74v0.07h10.15v2.52h-14.11V142.99z"/>
	<path d="M465.34,140.65c0,1.51,0.07,2.99,0.25,4.18h-2.84l-0.25-2.2h-0.11c-0.97,1.37-2.84,2.59-5.33,2.59
		c-3.53,0-5.33-2.48-5.33-5c0-4.21,3.74-6.52,10.47-6.48v-0.36c0-1.4-0.4-4.03-3.96-4c-1.66,0-3.35,0.47-4.57,1.3l-0.72-2.12
		c1.44-0.9,3.56-1.51,5.76-1.51c5.33,0,6.62,3.64,6.62,7.09V140.65z M462.28,135.94c-3.46-0.07-7.38,0.54-7.38,3.92
		c0,2.09,1.37,3.02,2.95,3.02c2.3,0,3.78-1.44,4.28-2.92c0.11-0.36,0.14-0.72,0.14-1.01V135.94z"/>
	<path d="M473.98,122.51c0,1.08-0.76,1.94-2.02,1.94c-1.15,0-1.91-0.86-1.91-1.94c0-1.08,0.79-1.98,1.98-1.98
		C473.19,120.53,473.98,121.4,473.98,122.51z M470.45,144.83v-17.42h3.17v17.42H470.45z"/>
	<path d="M478.88,132.84c0-2.05-0.04-3.82-0.14-5.44h2.77l0.14,3.46h0.11c0.79-2.34,2.74-3.82,4.86-3.82c0.32,0,0.58,0.04,0.86,0.07
		v2.99c-0.32-0.07-0.65-0.07-1.08-0.07c-2.23,0-3.82,1.66-4.25,4.03c-0.07,0.43-0.11,0.97-0.11,1.48v9.29h-3.17V132.84z"/>
</g>
<g>
	<path d="M674.18,94.37h13.07V97h-9.9v8.06h9.14v2.59h-9.14v10.98h-3.17V94.37z"/>
	<path d="M690.7,106.64c0-2.05-0.04-3.82-0.14-5.44h2.77l0.14,3.46h0.11c0.79-2.34,2.74-3.82,4.86-3.82c0.32,0,0.58,0.04,0.86,0.07
		v2.99c-0.32-0.07-0.65-0.07-1.08-0.07c-2.23,0-3.82,1.66-4.25,4.03c-0.07,0.43-0.11,0.97-0.11,1.48v9.29h-3.17V106.64z"/>
	<path d="M703.88,110.5c0.07,4.28,2.77,6.05,5.97,6.05c2.27,0,3.67-0.4,4.82-0.9l0.58,2.27c-1.12,0.5-3.06,1.12-5.83,1.12
		c-5.36,0-8.57-3.56-8.57-8.82s3.1-9.36,8.17-9.36c5.72,0,7.2,4.97,7.2,8.17c0,0.65-0.04,1.12-0.11,1.48H703.88z M713.16,108.23
		c0.04-1.98-0.83-5.11-4.39-5.11c-3.24,0-4.61,2.92-4.86,5.11H713.16z"/>
	<path d="M720.15,93.07h3.17v10.91h0.07c0.5-0.9,1.3-1.73,2.27-2.27c0.94-0.54,2.05-0.86,3.24-0.86c2.34,0,6.08,1.44,6.08,7.42
		v10.37h-3.17v-10.01c0-2.81-1.04-5.15-4.03-5.15c-2.05,0-3.64,1.44-4.25,3.13c-0.18,0.47-0.22,0.94-0.22,1.51v10.51h-3.17V93.07z"
		/>
	<path d="M741.89,110.5c0.07,4.28,2.77,6.05,5.97,6.05c2.27,0,3.67-0.4,4.82-0.9l0.58,2.27c-1.12,0.5-3.06,1.12-5.83,1.12
		c-5.36,0-8.57-3.56-8.57-8.82s3.1-9.36,8.17-9.36c5.72,0,7.2,4.97,7.2,8.17c0,0.65-0.04,1.12-0.11,1.48H741.89z M751.18,108.23
		c0.04-1.98-0.83-5.11-4.39-5.11c-3.24,0-4.61,2.92-4.86,5.11H751.18z"/>
	<path d="M761.69,96.31c0,1.08-0.76,1.94-2.02,1.94c-1.15,0-1.91-0.86-1.91-1.94c0-1.08,0.79-1.98,1.98-1.98
		C760.9,94.33,761.69,95.2,761.69,96.31z M758.17,118.63v-17.42h3.17v17.42H758.17z"/>
	<path d="M770.4,97.03v4.18h4.54v2.41h-4.54v9.4c0,2.16,0.61,3.38,2.38,3.38c0.86,0,1.37-0.07,1.83-0.22l0.14,2.41
		c-0.61,0.22-1.58,0.43-2.81,0.43c-1.48,0-2.66-0.5-3.42-1.33c-0.86-0.97-1.22-2.52-1.22-4.57v-9.5h-2.7v-2.41h2.7v-3.24
		L770.4,97.03z"/>
</g>
<g>
	<path d="M931.5,117.59c-1.4,0.54-4.21,1.33-7.49,1.33c-3.67,0-6.7-0.94-9.07-3.2c-2.09-2.02-3.38-5.26-3.38-9.03
		c0-7.24,5-12.53,13.14-12.53c2.81,0,5.04,0.61,6.08,1.12l-0.79,2.56c-1.3-0.61-2.92-1.04-5.36-1.04c-5.9,0-9.75,3.67-9.75,9.75
		c0,6.16,3.67,9.79,9.36,9.79c2.05,0,3.46-0.29,4.18-0.65v-7.23h-4.9v-2.52h7.99V117.59z"/>
	<path d="M952.1,109.82c0,6.44-4.5,9.25-8.67,9.25c-4.68,0-8.35-3.46-8.35-8.96c0-5.8,3.85-9.21,8.64-9.21
		C948.71,100.89,952.1,104.53,952.1,109.82z M938.31,110c0,3.82,2.16,6.69,5.25,6.69c3.02,0,5.29-2.84,5.29-6.77
		c0-2.95-1.48-6.66-5.22-6.66C939.93,103.27,938.31,106.72,938.31,110z"/>
	<path d="M956.09,106.69c0-2.05-0.04-3.82-0.14-5.44h2.77l0.14,3.46h0.11c0.79-2.34,2.74-3.82,4.86-3.82c0.32,0,0.58,0.04,0.86,0.07
		v2.99c-0.32-0.07-0.65-0.07-1.08-0.07c-2.23,0-3.82,1.66-4.25,4.03c-0.07,0.43-0.11,0.97-0.11,1.48v9.29h-3.17V106.69z"/>
	<path d="M982.51,93.11v21.06c0,1.55,0.07,3.31,0.14,4.5h-2.81l-0.14-3.02h-0.11c-0.94,1.94-3.02,3.42-5.87,3.42
		c-4.21,0-7.49-3.56-7.49-8.85c-0.04-5.8,3.6-9.32,7.81-9.32c2.7,0,4.46,1.26,5.26,2.63h0.07v-10.4H982.51z M979.38,108.34
		c0-0.4-0.04-0.94-0.14-1.33c-0.47-1.98-2.2-3.64-4.57-3.64c-3.28,0-5.22,2.88-5.22,6.69c0,3.53,1.76,6.44,5.15,6.44
		c2.12,0,4.07-1.44,4.64-3.78c0.11-0.43,0.14-0.86,0.14-1.37V108.34z"/>
	<path d="M1003.58,109.82c0,6.44-4.5,9.25-8.67,9.25c-4.68,0-8.35-3.46-8.35-8.96c0-5.8,3.85-9.21,8.64-9.21
		C1000.19,100.89,1003.58,104.53,1003.58,109.82z M989.79,110c0,3.82,2.16,6.69,5.25,6.69c3.02,0,5.29-2.84,5.29-6.77
		c0-2.95-1.48-6.66-5.22-6.66C991.41,103.27,989.79,106.72,989.79,110z"/>
	<path d="M1007.57,105.96c0-1.84-0.04-3.28-0.14-4.72h2.81l0.18,2.88h0.07c0.86-1.62,2.88-3.24,5.76-3.24
		c2.41,0,6.16,1.44,6.16,7.42v10.37h-3.17v-10.04c0-2.81-1.04-5.15-4.03-5.15c-2.05,0-3.67,1.48-4.25,3.24
		c-0.14,0.4-0.22,0.94-0.22,1.48v10.47h-3.17V105.96z"/>
	<path d="M1031.08,96.35c0,1.08-0.76,1.94-2.02,1.94c-1.15,0-1.91-0.86-1.91-1.94c0-1.08,0.79-1.98,1.98-1.98
		C1030.29,94.37,1031.08,95.24,1031.08,96.35z M1027.55,118.67v-17.42h3.17v17.42H1027.55z"/>
	<path d="M1048.21,114.5c0,1.51,0.07,2.99,0.25,4.18h-2.84l-0.25-2.2h-0.11c-0.97,1.37-2.84,2.59-5.33,2.59
		c-3.53,0-5.33-2.48-5.33-5c0-4.21,3.74-6.52,10.47-6.48v-0.36c0-1.4-0.4-4.03-3.96-4c-1.66,0-3.35,0.47-4.57,1.3l-0.72-2.12
		c1.44-0.9,3.56-1.51,5.76-1.51c5.33,0,6.62,3.64,6.62,7.09V114.5z M1045.15,109.78c-3.46-0.07-7.38,0.54-7.38,3.92
		c0,2.09,1.37,3.02,2.95,3.02c2.3,0,3.78-1.44,4.28-2.92c0.11-0.36,0.14-0.72,0.14-1.01V109.78z"/>
</g>
<g>
	<path d="M1186.38,97.66v10.15h11.73V97.66h3.17v24.26h-3.17v-11.38h-11.73v11.38h-3.17V97.66H1186.38z"/>
	<path d="M1218.85,117.75c0,1.51,0.07,2.99,0.25,4.18h-2.84l-0.25-2.2h-0.11c-0.97,1.37-2.84,2.59-5.33,2.59
		c-3.53,0-5.33-2.48-5.33-5c0-4.21,3.74-6.52,10.47-6.48v-0.36c0-1.4-0.4-4.03-3.96-4c-1.66,0-3.35,0.47-4.57,1.3l-0.72-2.12
		c1.44-0.9,3.56-1.51,5.76-1.51c5.33,0,6.62,3.64,6.62,7.09V117.75z M1215.79,113.03c-3.46-0.07-7.38,0.54-7.38,3.92
		c0,2.09,1.37,3.02,2.95,3.02c2.3,0,3.78-1.44,4.28-2.92c0.11-0.36,0.14-0.72,0.14-1.01V113.03z"/>
	<path d="M1223.96,96.37h3.13v10.94h0.07c1.12-1.94,3.13-3.17,5.94-3.17c4.36,0,7.38,3.6,7.38,8.86c0,6.23-3.96,9.32-7.85,9.32
		c-2.52,0-4.54-0.97-5.87-3.24h-0.07l-0.18,2.84h-2.7c0.07-1.19,0.14-2.95,0.14-4.5V96.37z M1227.1,114.94
		c0,0.4,0.04,0.79,0.14,1.15c0.58,2.2,2.45,3.71,4.75,3.71c3.35,0,5.29-2.7,5.29-6.7c0-3.49-1.8-6.48-5.22-6.48
		c-2.12,0-4.14,1.51-4.79,3.89c-0.11,0.4-0.18,0.83-0.18,1.33V114.94z"/>
	<path d="M1260.21,113.07c0,6.44-4.5,9.25-8.67,9.25c-4.68,0-8.35-3.46-8.35-8.96c0-5.79,3.85-9.21,8.64-9.21
		C1256.83,104.14,1260.21,107.78,1260.21,113.07z M1246.43,113.25c0,3.82,2.16,6.7,5.25,6.7c3.02,0,5.29-2.84,5.29-6.77
		c0-2.95-1.48-6.66-5.22-6.66C1248.05,106.52,1246.43,109.97,1246.43,113.25z"/>
	<path d="M1264.21,109.22c0-1.84-0.04-3.28-0.14-4.72h2.81l0.18,2.88h0.07c0.86-1.62,2.88-3.24,5.76-3.24
		c2.41,0,6.16,1.44,6.16,7.42v10.37h-3.17v-10.04c0-2.81-1.04-5.15-4.03-5.15c-2.05,0-3.67,1.48-4.25,3.24
		c-0.14,0.4-0.22,0.94-0.22,1.48v10.47h-3.17V109.22z"/>
	<path d="M1287.72,99.6c0,1.08-0.76,1.94-2.02,1.94c-1.15,0-1.91-0.86-1.91-1.94s0.79-1.98,1.98-1.98
		C1286.93,97.62,1287.72,98.49,1287.72,99.6z M1284.19,121.92V104.5h3.17v17.42H1284.19z"/>
	<path d="M1292.61,109.22c0-1.84-0.07-3.28-0.14-4.72h2.77l0.14,2.84h0.11c0.97-1.66,2.59-3.2,5.51-3.2c2.34,0,4.14,1.44,4.9,3.49
		h0.07c0.54-1.01,1.26-1.73,1.98-2.27c1.04-0.79,2.16-1.22,3.82-1.22c2.34,0,5.76,1.51,5.76,7.56v10.22h-3.09v-9.83
		c0-3.38-1.26-5.36-3.78-5.36c-1.84,0-3.2,1.33-3.78,2.84c-0.14,0.47-0.25,1.01-0.25,1.58v10.76h-3.1v-10.44
		c0-2.77-1.22-4.75-3.64-4.75c-1.94,0-3.42,1.58-3.92,3.17c-0.18,0.43-0.25,1.01-0.25,1.55v10.47h-3.1V109.22z"/>
</g>
<g>
	<path class="st1" d="M691.24,1071c52.35,0,94.75,42.21,94.75,94.27s-42.37,94.3-94.75,94.3s-94.75-42.21-94.75-94.27
		S638.89,1071,691.24,1071L691.24,1071z"/>
	<path class="st2" d="M685.8,1199.36l8.79,15.51h0.1l8.7,15.22l-11.96,20.59l-25.36-43.46l-50.43-0.1l11.86-20.69h27.47l0,0h9.66
		h2.97h11l0,0L685.8,1199.36L685.8,1199.36z M691.24,1076.47l25.36,43.46l50.43,0.1l-11.77,20.4h-26.41h-0.77h-1.5H715h-0.77h-1.53
		h-11.58l0,0l-23.25-40.87L691.24,1076.47L691.24,1076.47z M664.92,1120.41l1.73-1.06c0.58-0.29,1.25-0.19,1.63,0.38l13.02,21.9
		c0.29,0.58,0.19,1.34-0.38,1.63l-1.73,1.06c-0.58,0.29-1.25,0.19-1.63-0.38l-13.02-21.9
		C664.15,1121.56,664.34,1120.79,664.92,1120.41L664.92,1120.41z M673.84,1109.09c-0.48-0.77-0.48-1.92-0.1-2.49l1.06-1.92
		c0.38-0.67,1.06-0.58,1.44,0.19c6.24,10.62,15.8,26.7,22,37.32c4.6,7.83,1.82,18-6.33,22.77c-8.12,4.7-18.39,2.21-23.06-5.66
		c-6.24-10.62-16.18-27.37-22.38-37.99c-0.48-0.77-0.19-1.34,0.58-1.34h2.4c0.77,0,1.73,0.58,2.21,1.34l15.41,25.74
		c2.21,3.84,8.7,4.03,13.02,2.11c-3.45,2.88-3.93,7.26-1.63,11.29c2.59,4.41,8.31,5.95,12.73,3.36c4.41-2.59,5.95-8.22,3.36-12.63
		c-2.4-4.03-6.52-5.66-10.71-4.13c4.51-3.26,6.62-8.89,4.6-12.34L673.84,1109.09L673.84,1109.09z M708.67,1187.78l5.76-11.19
		c1.06-2.01,0.48-5.76-0.86-8.12l-6.43-10.9c-1.44-2.4-3.36-2.69-4.32-0.58l-4.41,9.85c-0.96,2.11-0.48,5.76,0.86,8.12l6.43,10.9
		C707.23,1188.17,707.8,1189.51,708.67,1187.78L708.67,1187.78z M703.68,1190.76l-12.63-0.48c-2.3-0.1-5.28-2.4-6.72-4.8l-6.43-10.9
		c-1.44-2.4-0.77-4.22,1.53-4.03l10.71,1.06c2.3,0.19,5.28,2.4,6.72,4.8l6.43,10.9C704.83,1189.61,705.6,1190.76,703.68,1190.76
		L703.68,1190.76z M706.84,1192.26l1.63-0.96c0.19-0.1,0.48-0.1,0.67,0.19l11.19,18.96c0.1,0.19,0.1,0.48-0.19,0.67l-1.63,0.96
		c-0.19,0.1-0.48,0.1-0.67-0.19l-11.19-18.96C706.56,1192.64,706.65,1192.36,706.84,1192.26L706.84,1192.26z M670.58,1111.96
		l-1.15,2.01c-0.38,0.58-0.38,1.63,0,2.4l12.25,20.79c0.38,0.67,1.06,0.77,1.44,0.19l1.25-1.82c0.38-0.58,0.38-1.63,0-2.4
		l-12.34-20.88C671.64,1111.39,670.96,1111.29,670.58,1111.96L670.58,1111.96z M656.13,1120.02h2.3c0.77,0,1.63,0.48,2.11,1.15
		l12.54,21.04c0.38,0.67,0.19,1.34-0.58,1.34l-2.3,0.19c-0.77,0.1-1.63-0.48-2.11-1.15l-12.54-21.14
		C655.07,1120.69,655.36,1120.02,656.13,1120.02L656.13,1120.02z M753.56,1143.46l-11.58,20.11l25.17,43.55l-28.04,0.1l-4.51-7.83
		l-19.63-34.47l0,0l0,0l6.97-12.25l5.18-9.18L753.56,1143.46L753.56,1143.46z M629.14,1183.47l11.48-19.92l-25.17-43.52l24.97-0.1
		l24.02,42.02l-6.91,12.25l-5.28,9.18L629.14,1183.47L629.14,1183.47z"/>
</g>
<g>
	<path d="M829.61,947.28v24.26h-3.17v-24.26H829.61z"/>
	<path d="M847.39,970.93c-0.83,0.4-2.66,1.01-5,1.01c-5.26,0-8.67-3.56-8.67-8.89c0-5.36,3.67-9.29,9.36-9.29
		c1.87,0,3.53,0.47,4.39,0.94l-0.72,2.41c-0.76-0.4-1.94-0.83-3.67-0.83c-4,0-6.16,2.99-6.16,6.59c0,4.03,2.59,6.51,6.05,6.51
		c1.8,0,2.99-0.43,3.89-0.83L847.39,970.93z"/>
	<path d="M851.1,945.99h3.17v10.91h0.07c0.5-0.9,1.3-1.73,2.27-2.27c0.94-0.54,2.05-0.86,3.24-0.86c2.34,0,6.08,1.44,6.08,7.42
		v10.37h-3.17v-10.01c0-2.81-1.04-5.15-4.03-5.15c-2.05,0-3.64,1.44-4.25,3.13c-0.18,0.47-0.22,0.94-0.22,1.51v10.51h-3.17V945.99z"
		/>
	<path d="M885.66,966.75c0,1.84,0.04,3.42,0.14,4.79h-2.81l-0.18-2.84h-0.07c-0.79,1.4-2.66,3.24-5.76,3.24
		c-2.74,0-6.01-1.55-6.01-7.63v-10.19h3.17v9.61c0,3.31,1.04,5.58,3.89,5.58c2.12,0,3.6-1.48,4.17-2.92
		c0.18-0.43,0.29-1.01,0.29-1.62v-10.65h3.17V966.75z"/>
	<path d="M905.92,945.99v21.06c0,1.55,0.07,3.31,0.14,4.5h-2.81l-0.14-3.02h-0.11c-0.94,1.94-3.02,3.42-5.87,3.42
		c-4.21,0-7.49-3.56-7.49-8.85c-0.04-5.79,3.6-9.32,7.81-9.32c2.7,0,4.46,1.26,5.26,2.63h0.07v-10.4H905.92z M902.79,961.21
		c0-0.4-0.04-0.94-0.14-1.33c-0.47-1.98-2.2-3.64-4.57-3.64c-3.28,0-5.22,2.88-5.22,6.7c0,3.53,1.76,6.44,5.15,6.44
		c2.12,0,4.07-1.44,4.64-3.78c0.11-0.43,0.14-0.86,0.14-1.37V961.21z"/>
	<path d="M802.28,990.48v10.15h11.73v-10.15h3.17v24.26h-3.17v-11.38h-11.73v11.38h-3.17v-24.26H802.28z"/>
	<path d="M834.75,1010.57c0,1.51,0.07,2.99,0.25,4.18h-2.84l-0.25-2.2h-0.11c-0.97,1.37-2.84,2.59-5.33,2.59
		c-3.53,0-5.33-2.48-5.33-5c0-4.21,3.74-6.52,10.47-6.48v-0.36c0-1.4-0.4-4.03-3.96-4c-1.66,0-3.35,0.47-4.57,1.3l-0.72-2.12
		c1.44-0.9,3.56-1.51,5.76-1.51c5.33,0,6.62,3.64,6.62,7.09V1010.57z M831.69,1005.85c-3.46-0.07-7.38,0.54-7.38,3.92
		c0,2.09,1.37,3.02,2.95,3.02c2.3,0,3.78-1.44,4.28-2.92c0.11-0.36,0.14-0.72,0.14-1.01V1005.85z"/>
	<path d="M839.87,989.19H843v10.94h0.07c1.12-1.94,3.13-3.17,5.94-3.17c4.36,0,7.38,3.6,7.38,8.86c0,6.23-3.96,9.32-7.85,9.32
		c-2.52,0-4.54-0.97-5.87-3.24h-0.07l-0.18,2.84h-2.7c0.07-1.19,0.14-2.95,0.14-4.5V989.19z M843,1007.76c0,0.4,0.04,0.79,0.14,1.15
		c0.58,2.2,2.45,3.71,4.75,3.71c3.35,0,5.29-2.7,5.29-6.7c0-3.49-1.8-6.48-5.22-6.48c-2.12,0-4.14,1.51-4.79,3.89
		c-0.11,0.4-0.18,0.83-0.18,1.33V1007.76z"/>
	<path d="M876.11,1005.89c0,6.44-4.5,9.25-8.67,9.25c-4.68,0-8.35-3.46-8.35-8.96c0-5.79,3.85-9.21,8.64-9.21
		C872.73,996.96,876.11,1000.6,876.11,1005.89z M862.33,1006.07c0,3.82,2.16,6.7,5.25,6.7c3.02,0,5.29-2.84,5.29-6.77
		c0-2.95-1.48-6.66-5.22-6.66C863.95,999.34,862.33,1002.79,862.33,1006.07z"/>
	<path d="M880.11,1002.04c0-1.84-0.04-3.28-0.14-4.72h2.81l0.18,2.88h0.07c0.86-1.62,2.88-3.24,5.76-3.24
		c2.41,0,6.16,1.44,6.16,7.42v10.37h-3.17v-10.04c0-2.81-1.04-5.15-4.03-5.15c-2.05,0-3.67,1.48-4.25,3.24
		c-0.14,0.4-0.22,0.94-0.22,1.48v10.47h-3.17V1002.04z"/>
	<path d="M903.62,992.42c0,1.08-0.76,1.94-2.02,1.94c-1.15,0-1.91-0.86-1.91-1.94s0.79-1.98,1.98-1.98
		C902.83,990.45,903.62,991.31,903.62,992.42z M900.09,1014.74v-17.42h3.17v17.42H900.09z"/>
	<path d="M908.52,1002.04c0-1.84-0.07-3.28-0.14-4.72h2.77l0.14,2.84h0.11c0.97-1.66,2.59-3.2,5.51-3.2c2.34,0,4.14,1.44,4.9,3.49
		h0.07c0.54-1.01,1.26-1.73,1.98-2.27c1.04-0.79,2.16-1.22,3.82-1.22c2.34,0,5.76,1.51,5.76,7.56v10.22h-3.09v-9.83
		c0-3.38-1.26-5.36-3.78-5.36c-1.84,0-3.2,1.33-3.78,2.84c-0.14,0.47-0.25,1.01-0.25,1.58v10.76h-3.1v-10.44
		c0-2.77-1.22-4.75-3.64-4.75c-1.94,0-3.42,1.58-3.92,3.17c-0.18,0.43-0.25,1.01-0.25,1.55v10.47h-3.1V1002.04z"/>
</g>
<g>
	<path d="M380.39,941.28c1.91-0.32,4.18-0.54,6.66-0.54c4.5,0,7.7,1.08,9.83,3.02c2.2,1.98,3.46,4.79,3.46,8.71
		c0,3.96-1.26,7.2-3.49,9.43c-2.3,2.27-6.05,3.49-10.76,3.49c-2.27,0-4.1-0.11-5.69-0.29V941.28z M383.52,962.73
		c0.79,0.11,1.94,0.14,3.17,0.14c6.73,0,10.33-3.74,10.33-10.29c0.04-5.72-3.2-9.36-9.83-9.36c-1.62,0-2.84,0.14-3.67,0.32V962.73z"
		/>
	<path d="M404.25,953.19c0-2.05-0.04-3.82-0.14-5.44h2.77l0.14,3.46h0.11c0.79-2.34,2.74-3.82,4.86-3.82c0.32,0,0.58,0.04,0.86,0.07
		v2.99c-0.32-0.07-0.65-0.07-1.08-0.07c-2.23,0-3.82,1.66-4.25,4.03c-0.07,0.43-0.11,0.97-0.11,1.48v9.29h-3.17V953.19z"/>
	<path d="M431.43,956.32c0,6.44-4.5,9.25-8.67,9.25c-4.68,0-8.35-3.46-8.35-8.96c0-5.79,3.85-9.21,8.64-9.21
		C428.05,947.4,431.43,951.03,431.43,956.32z M417.65,956.5c0,3.82,2.16,6.7,5.26,6.7c3.02,0,5.29-2.84,5.29-6.77
		c0-2.95-1.48-6.66-5.22-6.66C419.27,949.77,417.65,953.23,417.65,956.5z"/>
	<path d="M435.43,953.19c0-2.05-0.04-3.82-0.14-5.44h2.77l0.14,3.46h0.11c0.79-2.34,2.74-3.82,4.86-3.82c0.32,0,0.58,0.04,0.86,0.07
		v2.99c-0.32-0.07-0.65-0.07-1.08-0.07c-2.23,0-3.82,1.66-4.25,4.03c-0.07,0.43-0.11,0.97-0.11,1.48v9.29h-3.17V953.19z"/>
	<path d="M454.94,940.92h3.13v11.7h0.11c0.65-0.94,1.3-1.8,1.91-2.59l7.42-9.11h3.89l-8.78,10.29l9.47,13.97h-3.71l-7.96-11.91
		l-2.34,2.66v9.25h-3.13V940.92z"/>
	<path d="M478.23,942.86c0,1.08-0.76,1.94-2.02,1.94c-1.15,0-1.91-0.86-1.91-1.94s0.79-1.98,1.98-1.98
		C477.44,940.88,478.23,941.75,478.23,942.86z M474.71,965.18v-17.42h3.17v17.42H474.71z"/>
	<path d="M483.13,939.62h3.13v10.94h0.07c1.12-1.94,3.13-3.17,5.94-3.17c4.36,0,7.38,3.6,7.38,8.86c0,6.23-3.96,9.32-7.85,9.32
		c-2.52,0-4.54-0.97-5.87-3.24h-0.07l-0.18,2.84h-2.7c0.07-1.19,0.14-2.95,0.14-4.5V939.62z M486.26,958.19
		c0,0.4,0.04,0.79,0.14,1.15c0.58,2.2,2.45,3.71,4.75,3.71c3.35,0,5.29-2.7,5.29-6.7c0-3.49-1.8-6.48-5.22-6.48
		c-2.12,0-4.14,1.51-4.79,3.89c-0.11,0.4-0.18,0.83-0.18,1.33V958.19z"/>
	<path d="M518.19,960.39c0,1.84,0.04,3.42,0.14,4.79h-2.81l-0.18-2.84h-0.07c-0.79,1.4-2.66,3.24-5.76,3.24
		c-2.74,0-6.01-1.55-6.01-7.63v-10.19h3.17v9.61c0,3.31,1.04,5.58,3.89,5.58c2.12,0,3.6-1.48,4.18-2.92
		c0.18-0.43,0.29-1.01,0.29-1.62v-10.65h3.17V960.39z"/>
	<path d="M527.27,943.58v4.18h4.54v2.41h-4.54v9.39c0,2.16,0.61,3.38,2.38,3.38c0.86,0,1.37-0.07,1.84-0.22l0.14,2.41
		c-0.61,0.22-1.58,0.43-2.81,0.43c-1.48,0-2.66-0.5-3.42-1.33c-0.86-0.97-1.22-2.52-1.22-4.57v-9.5h-2.7v-2.41h2.7v-3.24
		L527.27,943.58z"/>
	<path d="M533.39,963.34l7.85-10.26c0.79-0.97,1.51-1.8,2.3-2.74v-0.07h-9.43v-2.52h13.25v1.98l-7.77,10.12
		c-0.76,0.97-1.44,1.87-2.23,2.74v0.07h10.15v2.52h-14.11V963.34z"/>
	<path d="M377.52,984.12v10.15h11.73v-10.15h3.17v24.26h-3.17V997h-11.73v11.38h-3.17v-24.26H377.52z"/>
	<path d="M410,1004.2c0,1.51,0.07,2.99,0.25,4.18h-2.84l-0.25-2.2h-0.11c-0.97,1.37-2.84,2.59-5.33,2.59c-3.53,0-5.33-2.48-5.33-5
		c0-4.21,3.74-6.52,10.47-6.48v-0.36c0-1.4-0.4-4.03-3.96-4c-1.66,0-3.35,0.47-4.57,1.3l-0.72-2.12c1.44-0.9,3.56-1.51,5.76-1.51
		c5.33,0,6.62,3.64,6.62,7.09V1004.2z M406.94,999.49c-3.46-0.07-7.38,0.54-7.38,3.92c0,2.09,1.37,3.02,2.95,3.02
		c2.3,0,3.78-1.44,4.28-2.92c0.11-0.36,0.14-0.72,0.14-1.01V999.49z"/>
	<path d="M415.11,995.67c0-1.84-0.07-3.28-0.14-4.72h2.77l0.14,2.84h0.11c0.97-1.66,2.59-3.2,5.51-3.2c2.34,0,4.14,1.44,4.9,3.49
		h0.07c0.54-1.01,1.26-1.73,1.98-2.27c1.04-0.79,2.16-1.22,3.82-1.22c2.34,0,5.76,1.51,5.76,7.56v10.22h-3.1v-9.83
		c0-3.38-1.26-5.36-3.78-5.36c-1.84,0-3.2,1.33-3.78,2.84c-0.14,0.47-0.25,1.01-0.25,1.58v10.76h-3.1v-10.44
		c0-2.77-1.22-4.75-3.64-4.75c-1.94,0-3.42,1.58-3.92,3.17c-0.18,0.43-0.25,1.01-0.25,1.55v10.47h-3.1V995.67z"/>
	<path d="M446.9,1000.24c0.07,4.28,2.77,6.05,5.98,6.05c2.27,0,3.67-0.4,4.82-0.9l0.58,2.27c-1.12,0.5-3.06,1.12-5.83,1.12
		c-5.36,0-8.57-3.56-8.57-8.82c0-5.26,3.1-9.36,8.17-9.36c5.72,0,7.2,4.97,7.2,8.17c0,0.65-0.04,1.12-0.11,1.48H446.9z
		 M456.18,997.98c0.04-1.98-0.83-5.11-4.39-5.11c-3.24,0-4.61,2.92-4.86,5.11H456.18z"/>
	<path d="M477.75,1003.59c0,1.84,0.04,3.42,0.14,4.79h-2.81l-0.18-2.84h-0.07c-0.79,1.4-2.66,3.24-5.76,3.24
		c-2.74,0-6.01-1.55-6.01-7.63v-10.19h3.17v9.61c0,3.31,1.04,5.58,3.89,5.58c2.12,0,3.6-1.48,4.18-2.92
		c0.18-0.43,0.29-1.01,0.29-1.62v-10.65h3.17V1003.59z"/>
	<path d="M495.42,1007.77c-0.83,0.4-2.66,1.01-5,1.01c-5.26,0-8.68-3.56-8.68-8.89c0-5.36,3.67-9.29,9.36-9.29
		c1.87,0,3.53,0.47,4.39,0.94l-0.72,2.41c-0.76-0.4-1.94-0.83-3.67-0.83c-4,0-6.16,2.99-6.16,6.59c0,4.03,2.59,6.51,6.05,6.51
		c1.8,0,2.99-0.43,3.89-0.83L495.42,1007.77z"/>
	<path d="M499.13,982.82h3.17v10.91h0.07c0.5-0.9,1.3-1.73,2.27-2.27c0.94-0.54,2.05-0.86,3.24-0.86c2.34,0,6.08,1.44,6.08,7.42
		v10.37h-3.17v-10.01c0-2.81-1.04-5.15-4.03-5.15c-2.05,0-3.64,1.44-4.25,3.13c-0.18,0.47-0.22,0.94-0.22,1.51v10.51h-3.17V982.82z"
		/>
	<path d="M531.35,1004.2c0,1.51,0.07,2.99,0.25,4.18h-2.84l-0.25-2.2h-0.11c-0.97,1.37-2.84,2.59-5.33,2.59
		c-3.53,0-5.33-2.48-5.33-5c0-4.21,3.74-6.52,10.47-6.48v-0.36c0-1.4-0.4-4.03-3.96-4c-1.66,0-3.35,0.47-4.57,1.3l-0.72-2.12
		c1.44-0.9,3.56-1.51,5.76-1.51c5.33,0,6.62,3.64,6.62,7.09V1004.2z M528.29,999.49c-3.46-0.07-7.38,0.54-7.38,3.92
		c0,2.09,1.37,3.02,2.95,3.02c2.3,0,3.78-1.44,4.28-2.92c0.11-0.36,0.14-0.72,0.14-1.01V999.49z"/>
	<path d="M551.47,982.82v21.06c0,1.55,0.07,3.31,0.14,4.5h-2.81l-0.14-3.02h-0.11c-0.94,1.94-3.02,3.42-5.87,3.42
		c-4.21,0-7.49-3.56-7.49-8.85c-0.04-5.79,3.6-9.32,7.81-9.32c2.7,0,4.46,1.26,5.26,2.63h0.07v-10.4H551.47z M548.34,998.05
		c0-0.4-0.04-0.94-0.14-1.33c-0.47-1.98-2.2-3.64-4.57-3.64c-3.28,0-5.22,2.88-5.22,6.7c0,3.53,1.76,6.44,5.15,6.44
		c2.12,0,4.07-1.44,4.64-3.78c0.11-0.43,0.14-0.86,0.14-1.37V998.05z"/>
</g>
<g>
	<path d="M833.21,769.08v24.26h-3.17v-24.26H833.21z"/>
	<path d="M850.99,792.73c-0.83,0.4-2.66,1.01-5,1.01c-5.26,0-8.67-3.56-8.67-8.89c0-5.36,3.67-9.29,9.36-9.29
		c1.87,0,3.53,0.47,4.39,0.94l-0.72,2.41c-0.76-0.4-1.94-0.83-3.67-0.83c-4,0-6.16,2.99-6.16,6.59c0,4.03,2.59,6.51,6.05,6.51
		c1.8,0,2.99-0.43,3.89-0.83L850.99,792.73z"/>
	<path d="M854.7,767.79h3.17v10.91h0.07c0.5-0.9,1.3-1.73,2.27-2.27c0.94-0.54,2.05-0.86,3.24-0.86c2.34,0,6.08,1.44,6.08,7.42
		v10.37h-3.17v-10.01c0-2.81-1.04-5.15-4.03-5.15c-2.05,0-3.64,1.44-4.25,3.13c-0.18,0.47-0.22,0.94-0.22,1.51v10.51h-3.17V767.79z"
		/>
	<path d="M889.25,788.56c0,1.84,0.04,3.42,0.14,4.79h-2.81l-0.18-2.84h-0.07c-0.79,1.4-2.66,3.24-5.76,3.24
		c-2.74,0-6.01-1.55-6.01-7.63v-10.19h3.17v9.61c0,3.31,1.04,5.58,3.89,5.58c2.12,0,3.6-1.48,4.17-2.92
		c0.18-0.43,0.29-1.01,0.29-1.62v-10.65h3.17V788.56z"/>
	<path d="M909.52,767.79v21.06c0,1.55,0.07,3.31,0.14,4.5h-2.81l-0.14-3.02h-0.11c-0.94,1.94-3.02,3.42-5.87,3.42
		c-4.21,0-7.49-3.56-7.49-8.85c-0.04-5.79,3.6-9.32,7.81-9.32c2.7,0,4.46,1.26,5.26,2.63h0.07v-10.4H909.52z M906.39,783.01
		c0-0.4-0.04-0.94-0.14-1.33c-0.47-1.98-2.2-3.64-4.57-3.64c-3.28,0-5.22,2.88-5.22,6.7c0,3.53,1.76,6.44,5.15,6.44
		c2.12,0,4.07-1.44,4.64-3.78c0.11-0.43,0.14-0.86,0.14-1.37V783.01z"/>
	<path d="M925.69,769.08v10.15h11.73v-10.15h3.17v24.26h-3.17v-11.38h-11.73v11.38h-3.17v-24.26H925.69z"/>
	<path d="M958.16,789.17c0,1.51,0.07,2.99,0.25,4.18h-2.84l-0.25-2.2h-0.11c-0.97,1.37-2.84,2.59-5.33,2.59
		c-3.53,0-5.33-2.48-5.33-5c0-4.21,3.74-6.52,10.47-6.48v-0.36c0-1.4-0.4-4.03-3.96-4c-1.66,0-3.35,0.47-4.57,1.3l-0.72-2.12
		c1.44-0.9,3.56-1.51,5.76-1.51c5.33,0,6.62,3.64,6.62,7.09V789.17z M955.1,784.45c-3.46-0.07-7.38,0.54-7.38,3.92
		c0,2.09,1.37,3.02,2.95,3.02c2.3,0,3.78-1.44,4.28-2.92c0.11-0.36,0.14-0.72,0.14-1.01V784.45z"/>
	<path d="M963.27,780.64c0-1.84-0.04-3.28-0.14-4.72h2.81l0.18,2.88h0.07c0.86-1.62,2.88-3.24,5.76-3.24c2.41,0,6.16,1.44,6.16,7.42
		v10.37h-3.17V783.3c0-2.81-1.04-5.15-4.03-5.15c-2.05,0-3.67,1.48-4.25,3.24c-0.14,0.4-0.22,0.94-0.22,1.48v10.47h-3.17V780.64z"/>
	<path d="M999.02,784.49c0,6.44-4.5,9.25-8.67,9.25c-4.68,0-8.35-3.46-8.35-8.96c0-5.79,3.85-9.21,8.64-9.21
		C995.63,775.56,999.02,779.2,999.02,784.49z M985.23,784.67c0,3.82,2.16,6.7,5.25,6.7c3.02,0,5.29-2.84,5.29-6.77
		c0-2.95-1.48-6.66-5.22-6.66C986.85,777.94,985.23,781.39,985.23,784.67z"/>
	<path d="M1015.25,789.17c0,1.51,0.07,2.99,0.25,4.18h-2.84l-0.25-2.2h-0.11c-0.97,1.37-2.84,2.59-5.33,2.59
		c-3.53,0-5.33-2.48-5.33-5c0-4.21,3.74-6.52,10.47-6.48v-0.36c0-1.4-0.4-4.03-3.96-4c-1.66,0-3.35,0.47-4.57,1.3l-0.72-2.12
		c1.44-0.9,3.56-1.51,5.76-1.51c5.33,0,6.62,3.64,6.62,7.09V789.17z M1012.19,784.45c-3.46-0.07-7.38,0.54-7.38,3.92
		c0,2.09,1.37,3.02,2.95,3.02c2.3,0,3.78-1.44,4.28-2.92c0.11-0.36,0.14-0.72,0.14-1.01V784.45z"/>
	<path d="M1020.37,781.36c0-2.05-0.04-3.82-0.14-5.44h2.77l0.14,3.46h0.11c0.79-2.34,2.74-3.82,4.86-3.82
		c0.32,0,0.58,0.04,0.86,0.07v2.99c-0.32-0.07-0.65-0.07-1.08-0.07c-2.23,0-3.82,1.66-4.25,4.03c-0.07,0.43-0.11,0.97-0.11,1.48
		v9.29h-3.17V781.36z"/>
	<path d="M855.11,812.28v10.15h11.73v-10.15h3.17v24.26h-3.17v-11.38h-11.73v11.38h-3.17v-24.26H855.11z"/>
	<path d="M887.58,832.37c0,1.51,0.07,2.99,0.25,4.18h-2.84l-0.25-2.2h-0.11c-0.97,1.37-2.84,2.59-5.33,2.59
		c-3.53,0-5.33-2.48-5.33-5c0-4.21,3.74-6.52,10.47-6.48v-0.36c0-1.4-0.4-4.03-3.96-4c-1.66,0-3.35,0.47-4.57,1.3l-0.72-2.12
		c1.44-0.9,3.56-1.51,5.76-1.51c5.33,0,6.62,3.64,6.62,7.09V832.37z M884.52,827.65c-3.46-0.07-7.38,0.54-7.38,3.92
		c0,2.09,1.37,3.02,2.95,3.02c2.3,0,3.78-1.44,4.28-2.92c0.11-0.36,0.14-0.72,0.14-1.01V827.65z"/>
	<path d="M905.11,835.93c-0.83,0.4-2.66,1.01-5,1.01c-5.26,0-8.67-3.56-8.67-8.89c0-5.36,3.67-9.29,9.36-9.29
		c1.87,0,3.53,0.47,4.39,0.94l-0.72,2.41c-0.76-0.4-1.94-0.83-3.67-0.83c-4,0-6.16,2.99-6.16,6.59c0,4.03,2.59,6.51,6.05,6.51
		c1.8,0,2.99-0.43,3.89-0.83L905.11,835.93z"/>
	<path d="M908.82,810.99h3.17v10.91h0.07c0.5-0.9,1.3-1.73,2.27-2.27c0.94-0.54,2.05-0.86,3.24-0.86c2.34,0,6.08,1.44,6.08,7.42
		v10.37h-3.17v-10.01c0-2.81-1.04-5.15-4.03-5.15c-2.05,0-3.64,1.44-4.25,3.13c-0.18,0.47-0.22,0.94-0.22,1.51v10.51h-3.17V810.99z"
		/>
	<path d="M941.04,832.37c0,1.51,0.07,2.99,0.25,4.18h-2.84l-0.25-2.2h-0.11c-0.97,1.37-2.84,2.59-5.33,2.59
		c-3.53,0-5.33-2.48-5.33-5c0-4.21,3.74-6.52,10.47-6.48v-0.36c0-1.4-0.4-4.03-3.96-4c-1.66,0-3.35,0.47-4.57,1.3l-0.72-2.12
		c1.44-0.9,3.56-1.51,5.76-1.51c5.33,0,6.62,3.64,6.62,7.09V832.37z M937.98,827.65c-3.46-0.07-7.38,0.54-7.38,3.92
		c0,2.09,1.37,3.02,2.95,3.02c2.3,0,3.78-1.44,4.28-2.92c0.11-0.36,0.14-0.72,0.14-1.01V827.65z"/>
	<path d="M946.15,810.99h3.17v25.56h-3.17V810.99z"/>
	<path d="M969.23,831.76c0,1.84,0.04,3.42,0.14,4.79h-2.81l-0.18-2.84h-0.07c-0.79,1.4-2.66,3.24-5.76,3.24
		c-2.74,0-6.01-1.55-6.01-7.63v-10.19h3.17v9.61c0,3.31,1.04,5.58,3.89,5.58c2.12,0,3.6-1.48,4.17-2.92
		c0.18-0.43,0.29-1.01,0.29-1.62v-10.65h3.17V831.76z"/>
	<path d="M978.3,814.95v4.18h4.54v2.41h-4.54v9.39c0,2.16,0.61,3.38,2.38,3.38c0.86,0,1.37-0.07,1.83-0.22l0.14,2.41
		c-0.61,0.22-1.58,0.43-2.81,0.43c-1.48,0-2.66-0.5-3.42-1.33c-0.86-0.97-1.22-2.52-1.22-4.57v-9.5h-2.7v-2.41h2.7v-3.24
		L978.3,814.95z"/>
	<path d="M984.42,834.71l7.85-10.26c0.79-0.97,1.51-1.8,2.3-2.74v-0.07h-9.43v-2.52h13.25v1.98l-7.78,10.12
		c-0.76,0.97-1.44,1.87-2.23,2.74v0.07h10.15v2.52h-14.11V834.71z"/>
	<path d="M1005.34,814.23c0,1.08-0.76,1.94-2.02,1.94c-1.15,0-1.91-0.86-1.91-1.94s0.79-1.98,1.98-1.98
		C1004.54,812.25,1005.34,813.11,1005.34,814.23z M1001.81,836.54v-17.42h3.17v17.42H1001.81z"/>
</g>
<g>
	<path d="M701.23,462.26c1.91-0.32,4.18-0.54,6.66-0.54c4.5,0,7.7,1.08,9.83,3.02c2.2,1.98,3.46,4.79,3.46,8.71
		c0,3.96-1.26,7.2-3.49,9.43c-2.3,2.27-6.05,3.49-10.76,3.49c-2.27,0-4.1-0.11-5.69-0.29V462.26z M704.37,483.71
		c0.79,0.11,1.94,0.14,3.17,0.14c6.73,0,10.33-3.74,10.33-10.29c0.04-5.72-3.2-9.36-9.83-9.36c-1.62,0-2.84,0.14-3.67,0.32V483.71z"
		/>
	<path d="M725.1,474.17c0-2.05-0.04-3.82-0.14-5.44h2.77l0.14,3.46h0.11c0.79-2.34,2.74-3.82,4.86-3.82c0.32,0,0.58,0.04,0.86,0.07
		v2.99c-0.32-0.07-0.65-0.07-1.08-0.07c-2.23,0-3.82,1.66-4.25,4.03c-0.07,0.43-0.11,0.97-0.11,1.48v9.29h-3.17V474.17z"/>
	<path d="M752.28,477.3c0,6.44-4.5,9.25-8.67,9.25c-4.68,0-8.35-3.46-8.35-8.96c0-5.79,3.85-9.21,8.64-9.21
		C748.9,468.38,752.28,472.01,752.28,477.3z M738.49,477.48c0,3.82,2.16,6.7,5.25,6.7c3.02,0,5.29-2.84,5.29-6.77
		c0-2.95-1.48-6.66-5.22-6.66C740.11,470.75,738.49,474.21,738.49,477.48z"/>
	<path d="M756.28,474.17c0-2.05-0.04-3.82-0.14-5.44h2.77l0.14,3.46h0.11c0.79-2.34,2.74-3.82,4.86-3.82c0.32,0,0.58,0.04,0.86,0.07
		v2.99c-0.32-0.07-0.65-0.07-1.08-0.07c-2.23,0-3.82,1.66-4.25,4.03c-0.07,0.43-0.11,0.97-0.11,1.48v9.29h-3.17V474.17z"/>
</g>
<g>
	<path d="M315.31,255.64c1.91-0.32,4.18-0.54,6.66-0.54c4.5,0,7.7,1.08,9.83,3.02c2.2,1.98,3.46,4.79,3.46,8.71
		c0,3.96-1.26,7.2-3.49,9.43c-2.3,2.27-6.05,3.49-10.76,3.49c-2.27,0-4.1-0.11-5.69-0.29V255.64z M318.44,277.09
		c0.79,0.11,1.94,0.14,3.17,0.14c6.73,0,10.33-3.74,10.33-10.29c0.04-5.72-3.2-9.36-9.83-9.36c-1.62,0-2.84,0.14-3.67,0.32V277.09z"
		/>
	<path d="M339.17,267.55c0-2.05-0.04-3.82-0.14-5.44h2.77l0.14,3.46h0.11c0.79-2.34,2.74-3.82,4.86-3.82c0.32,0,0.58,0.04,0.86,0.07
		v2.99c-0.32-0.07-0.65-0.07-1.08-0.07c-2.23,0-3.82,1.66-4.25,4.03c-0.07,0.43-0.11,0.97-0.11,1.48v9.29h-3.17V267.55z"/>
	<path d="M366.35,270.68c0,6.44-4.5,9.25-8.67,9.25c-4.68,0-8.35-3.46-8.35-8.96c0-5.8,3.85-9.21,8.64-9.21
		C362.97,261.76,366.35,265.39,366.35,270.68z M352.57,270.86c0,3.82,2.16,6.69,5.26,6.69c3.02,0,5.29-2.84,5.29-6.77
		c0-2.95-1.48-6.66-5.22-6.66C354.19,264.13,352.57,267.59,352.57,270.86z"/>
	<path d="M370.35,267.55c0-2.05-0.04-3.82-0.14-5.44h2.77l0.14,3.46h0.11c0.79-2.34,2.74-3.82,4.86-3.82c0.32,0,0.58,0.04,0.86,0.07
		v2.99c-0.32-0.07-0.65-0.07-1.08-0.07c-2.23,0-3.82,1.66-4.25,4.03c-0.07,0.43-0.11,0.97-0.11,1.48v9.29h-3.17V267.55z"/>
	<path d="M276.59,298.48v10.15h11.73v-10.15h3.17v24.26h-3.17v-11.37h-11.73v11.37h-3.17v-24.26H276.59z"/>
	<path d="M298.58,314.6c0.07,4.28,2.77,6.05,5.98,6.05c2.27,0,3.67-0.4,4.82-0.9l0.58,2.27c-1.12,0.5-3.06,1.12-5.83,1.12
		c-5.36,0-8.57-3.56-8.57-8.82s3.1-9.36,8.17-9.36c5.72,0,7.2,4.97,7.2,8.17c0,0.65-0.04,1.12-0.11,1.48H298.58z M307.87,312.33
		c0.04-1.98-0.83-5.11-4.39-5.11c-3.24,0-4.61,2.92-4.86,5.11H307.87z"/>
	<path d="M327.27,322.13c-0.83,0.4-2.66,1.01-5,1.01c-5.26,0-8.68-3.56-8.68-8.89c0-5.36,3.67-9.29,9.36-9.29
		c1.87,0,3.53,0.47,4.39,0.94l-0.72,2.41c-0.76-0.4-1.94-0.83-3.67-0.83c-4,0-6.16,2.99-6.16,6.59c0,4.03,2.59,6.52,6.05,6.52
		c1.8,0,2.99-0.43,3.89-0.83L327.27,322.13z"/>
	<path d="M330.98,297.18h3.17v10.91h0.07c0.5-0.9,1.3-1.73,2.27-2.27c0.94-0.54,2.05-0.86,3.24-0.86c2.34,0,6.08,1.44,6.08,7.42
		v10.37h-3.17v-10.01c0-2.81-1.04-5.15-4.03-5.15c-2.05,0-3.64,1.44-4.25,3.13c-0.18,0.47-0.22,0.94-0.22,1.51v10.51h-3.17V297.18z"
		/>
	<path d="M363.2,318.56c0,1.51,0.07,2.99,0.25,4.18h-2.84l-0.25-2.2h-0.11c-0.97,1.37-2.84,2.59-5.33,2.59c-3.53,0-5.33-2.48-5.33-5
		c0-4.21,3.74-6.52,10.47-6.48v-0.36c0-1.4-0.4-4.03-3.96-4c-1.66,0-3.35,0.47-4.57,1.3l-0.72-2.12c1.44-0.9,3.56-1.51,5.76-1.51
		c5.33,0,6.62,3.64,6.62,7.09V318.56z M360.14,313.85c-3.46-0.07-7.38,0.54-7.38,3.92c0,2.09,1.37,3.02,2.95,3.02
		c2.3,0,3.78-1.44,4.28-2.92c0.11-0.36,0.14-0.72,0.14-1.01V313.85z"/>
	<path d="M368.32,297.18h3.17v25.56h-3.17V297.18z"/>
	<path d="M391.39,317.95c0,1.84,0.04,3.42,0.14,4.79h-2.81l-0.18-2.84h-0.07c-0.79,1.4-2.66,3.24-5.76,3.24
		c-2.74,0-6.01-1.55-6.01-7.63v-10.19h3.17v9.61c0,3.31,1.04,5.58,3.89,5.58c2.12,0,3.6-1.48,4.18-2.92
		c0.18-0.43,0.29-1.01,0.29-1.62v-10.65h3.17V317.95z"/>
	<path d="M400.46,301.14v4.18H405v2.41h-4.54v9.4c0,2.16,0.61,3.38,2.38,3.38c0.86,0,1.37-0.07,1.84-0.22l0.14,2.41
		c-0.61,0.22-1.58,0.43-2.81,0.43c-1.48,0-2.66-0.5-3.42-1.33c-0.86-0.97-1.22-2.52-1.22-4.57v-9.5h-2.7v-2.41h2.7v-3.24
		L400.46,301.14z"/>
	<path d="M406.58,320.9l7.85-10.26c0.79-0.97,1.51-1.8,2.3-2.74v-0.07h-9.43v-2.52h13.25v1.98l-7.77,10.11
		c-0.76,0.97-1.44,1.87-2.23,2.74v0.07h10.15v2.52h-14.11V320.9z"/>
	<path d="M299.12,341.68v10.15h11.73v-10.15h3.17v24.26h-3.17v-11.37h-11.73v11.37h-3.17v-24.26H299.12z"/>
	<path d="M331.6,361.76c0,1.51,0.07,2.99,0.25,4.18H329l-0.25-2.2h-0.11c-0.97,1.37-2.84,2.59-5.33,2.59c-3.53,0-5.33-2.48-5.33-5
		c0-4.21,3.74-6.52,10.47-6.48v-0.36c0-1.4-0.4-4.03-3.96-4c-1.66,0-3.35,0.47-4.57,1.3l-0.72-2.12c1.44-0.9,3.56-1.51,5.76-1.51
		c5.33,0,6.62,3.64,6.62,7.09V361.76z M328.54,357.05c-3.46-0.07-7.38,0.54-7.38,3.92c0,2.09,1.37,3.02,2.95,3.02
		c2.3,0,3.78-1.44,4.28-2.92c0.11-0.36,0.14-0.72,0.14-1.01V357.05z"/>
	<path d="M340.38,344.34v4.18h4.54v2.41h-4.54v9.4c0,2.16,0.61,3.38,2.38,3.38c0.86,0,1.37-0.07,1.84-0.22l0.14,2.41
		c-0.61,0.22-1.58,0.43-2.81,0.43c-1.48,0-2.66-0.5-3.42-1.33c-0.86-0.97-1.22-2.52-1.22-4.57v-9.5h-2.7v-2.41h2.7v-3.24
		L340.38,344.34z"/>
	<path d="M346.5,364.1l7.85-10.26c0.79-0.97,1.51-1.8,2.3-2.74v-0.07h-9.43v-2.52h13.25v1.98l-7.77,10.11
		c-0.76,0.97-1.44,1.87-2.23,2.74v0.07h10.15v2.52H346.5V364.1z"/>
	<path d="M376.13,361.76c0,1.51,0.07,2.99,0.25,4.18h-2.84l-0.25-2.2h-0.11c-0.97,1.37-2.84,2.59-5.33,2.59
		c-3.53,0-5.33-2.48-5.33-5c0-4.21,3.74-6.52,10.47-6.48v-0.36c0-1.4-0.4-4.03-3.96-4c-1.66,0-3.35,0.47-4.57,1.3l-0.72-2.12
		c1.44-0.9,3.56-1.51,5.76-1.51c5.33,0,6.62,3.64,6.62,7.09V361.76z M373.07,357.05c-3.46-0.07-7.38,0.54-7.38,3.92
		c0,2.09,1.37,3.02,2.95,3.02c2.3,0,3.78-1.44,4.28-2.92c0.11-0.36,0.14-0.72,0.14-1.01V357.05z"/>
	<path d="M384.77,343.62c0,1.08-0.76,1.94-2.02,1.94c-1.15,0-1.91-0.86-1.91-1.94c0-1.08,0.79-1.98,1.98-1.98
		C383.98,341.64,384.77,342.5,384.77,343.62z M381.24,365.94v-17.42h3.17v17.42H381.24z"/>
	<path d="M389.66,353.95c0-2.05-0.04-3.82-0.14-5.44h2.77l0.14,3.46h0.11c0.79-2.34,2.74-3.82,4.86-3.82c0.32,0,0.58,0.04,0.86,0.07
		v2.99c-0.32-0.07-0.65-0.07-1.08-0.07c-2.23,0-3.82,1.66-4.25,4.03c-0.07,0.43-0.11,0.97-0.11,1.48v9.29h-3.17V353.95z"/>
</g>
<g>
	<path d="M292.48,470.57v10.15h11.73v-10.15h3.17v24.26h-3.17v-11.38h-11.73v11.38h-3.17v-24.26H292.48z"/>
	<path d="M314.48,486.69c0.07,4.28,2.77,6.05,5.98,6.05c2.27,0,3.67-0.4,4.82-0.9l0.58,2.27c-1.12,0.5-3.06,1.12-5.83,1.12
		c-5.36,0-8.57-3.56-8.57-8.82c0-5.26,3.1-9.36,8.17-9.36c5.72,0,7.2,4.97,7.2,8.17c0,0.65-0.04,1.12-0.11,1.48H314.48z
		 M323.76,484.43c0.04-1.98-0.83-5.11-4.39-5.11c-3.24,0-4.61,2.92-4.86,5.11H323.76z"/>
	<path d="M343.17,494.22c-0.83,0.4-2.66,1.01-5,1.01c-5.26,0-8.68-3.56-8.68-8.89c0-5.36,3.67-9.29,9.36-9.29
		c1.87,0,3.53,0.47,4.39,0.94l-0.72,2.41c-0.76-0.4-1.94-0.83-3.67-0.83c-4,0-6.16,2.99-6.16,6.59c0,4.03,2.59,6.51,6.05,6.51
		c1.8,0,2.99-0.43,3.89-0.83L343.17,494.22z"/>
	<path d="M346.88,469.27h3.17v10.91h0.07c0.5-0.9,1.3-1.73,2.27-2.27c0.94-0.54,2.05-0.86,3.24-0.86c2.34,0,6.08,1.44,6.08,7.42
		v10.37h-3.17v-10.01c0-2.81-1.04-5.15-4.03-5.15c-2.05,0-3.64,1.44-4.25,3.13c-0.18,0.47-0.22,0.94-0.22,1.51v10.51h-3.17V469.27z"
		/>
	<path d="M379.1,490.65c0,1.51,0.07,2.99,0.25,4.18h-2.84l-0.25-2.2h-0.11c-0.97,1.37-2.84,2.59-5.33,2.59c-3.53,0-5.33-2.48-5.33-5
		c0-4.21,3.74-6.52,10.47-6.48v-0.36c0-1.4-0.4-4.03-3.96-4c-1.66,0-3.35,0.47-4.57,1.3l-0.72-2.12c1.44-0.9,3.56-1.51,5.76-1.51
		c5.33,0,6.62,3.64,6.62,7.09V490.65z M376.04,485.94c-3.46-0.07-7.38,0.54-7.38,3.92c0,2.09,1.37,3.02,2.95,3.02
		c2.3,0,3.78-1.44,4.28-2.92c0.11-0.36,0.14-0.72,0.14-1.01V485.94z"/>
	<path d="M384.21,469.27h3.17v25.56h-3.17V469.27z"/>
	<path d="M407.28,490.04c0,1.84,0.04,3.42,0.14,4.79h-2.81l-0.18-2.84h-0.07c-0.79,1.4-2.66,3.24-5.76,3.24
		c-2.74,0-6.01-1.55-6.01-7.63v-10.19h3.17v9.61c0,3.31,1.04,5.58,3.89,5.58c2.12,0,3.6-1.48,4.18-2.92
		c0.18-0.43,0.29-1.01,0.29-1.62v-10.65h3.17V490.04z"/>
	<path d="M416.36,473.23v4.18h4.54v2.41h-4.54v9.39c0,2.16,0.61,3.38,2.38,3.38c0.86,0,1.37-0.07,1.84-0.22l0.14,2.41
		c-0.61,0.22-1.58,0.43-2.81,0.43c-1.48,0-2.66-0.5-3.42-1.33c-0.86-0.97-1.22-2.52-1.22-4.57v-9.5h-2.7v-2.41h2.7v-3.24
		L416.36,473.23z"/>
	<path d="M422.48,492.99l7.85-10.26c0.79-0.97,1.51-1.8,2.3-2.74v-0.07h-9.43v-2.52h13.25v1.98l-7.77,10.12
		c-0.76,0.97-1.44,1.87-2.23,2.74v0.07h10.15v2.52h-14.11V492.99z"/>
	<path d="M315.02,513.77v10.15h11.73v-10.15h3.17v24.26h-3.17v-11.38h-11.73v11.38h-3.17v-24.26H315.02z"/>
	<path d="M347.49,533.85c0,1.51,0.07,2.99,0.25,4.18h-2.84l-0.25-2.2h-0.11c-0.97,1.37-2.84,2.59-5.33,2.59
		c-3.53,0-5.33-2.48-5.33-5c0-4.21,3.74-6.52,10.47-6.48v-0.36c0-1.4-0.4-4.03-3.96-4c-1.66,0-3.35,0.47-4.57,1.3l-0.72-2.12
		c1.44-0.9,3.56-1.51,5.76-1.51c5.33,0,6.62,3.64,6.62,7.09V533.85z M344.43,529.14c-3.46-0.07-7.38,0.54-7.38,3.92
		c0,2.09,1.37,3.02,2.95,3.02c2.3,0,3.78-1.44,4.28-2.92c0.11-0.36,0.14-0.72,0.14-1.01V529.14z"/>
	<path d="M356.27,516.43v4.18h4.54v2.41h-4.54v9.39c0,2.16,0.61,3.38,2.38,3.38c0.86,0,1.37-0.07,1.84-0.22l0.14,2.41
		c-0.61,0.22-1.58,0.43-2.81,0.43c-1.48,0-2.66-0.5-3.42-1.33c-0.86-0.97-1.22-2.52-1.22-4.57v-9.5h-2.7v-2.41h2.7v-3.24
		L356.27,516.43z"/>
	<path d="M362.39,536.19l7.85-10.26c0.79-0.97,1.51-1.8,2.3-2.74v-0.07h-9.43v-2.52h13.25v1.98l-7.77,10.12
		c-0.76,0.97-1.44,1.87-2.23,2.74v0.07h10.15v2.52h-14.11V536.19z"/>
	<path d="M392.02,533.85c0,1.51,0.07,2.99,0.25,4.18h-2.84l-0.25-2.2h-0.11c-0.97,1.37-2.84,2.59-5.33,2.59
		c-3.53,0-5.33-2.48-5.33-5c0-4.21,3.74-6.52,10.47-6.48v-0.36c0-1.4-0.4-4.03-3.96-4c-1.66,0-3.35,0.47-4.57,1.3l-0.72-2.12
		c1.44-0.9,3.56-1.51,5.76-1.51c5.33,0,6.62,3.64,6.62,7.09V533.85z M388.96,529.14c-3.46-0.07-7.38,0.54-7.38,3.92
		c0,2.09,1.37,3.02,2.95,3.02c2.3,0,3.78-1.44,4.28-2.92c0.11-0.36,0.14-0.72,0.14-1.01V529.14z"/>
	<path d="M400.66,515.71c0,1.08-0.76,1.94-2.02,1.94c-1.15,0-1.91-0.86-1.91-1.94s0.79-1.98,1.98-1.98
		C399.87,513.73,400.66,514.6,400.66,515.71z M397.13,538.03v-17.42h3.17v17.42H397.13z"/>
	<path d="M405.56,526.04c0-2.05-0.04-3.82-0.14-5.44h2.77l0.14,3.46h0.11c0.79-2.34,2.74-3.82,4.86-3.82c0.32,0,0.58,0.04,0.86,0.07
		v2.99c-0.32-0.07-0.65-0.07-1.08-0.07c-2.23,0-3.82,1.66-4.25,4.03c-0.07,0.43-0.11,0.97-0.11,1.48v9.29h-3.17V526.04z"/>
</g>
<g>
	<path d="M95.67,590.66V566.4h3.46l7.74,12.27c1.76,2.84,3.2,5.4,4.32,7.88l0.11-0.04c-0.29-3.24-0.36-6.19-0.36-9.97V566.4h2.95
		v24.26h-3.17l-7.7-12.31c-1.69-2.7-3.31-5.47-4.5-8.1l-0.11,0.04c0.18,3.06,0.22,5.97,0.22,10.01v10.37H95.67z"/>
	<path d="M135.01,581.8c0,6.44-4.5,9.25-8.67,9.25c-4.68,0-8.35-3.46-8.35-8.96c0-5.79,3.85-9.21,8.64-9.21
		C131.63,572.88,135.01,576.51,135.01,581.8z M121.23,581.98c0,3.82,2.16,6.7,5.26,6.7c3.02,0,5.29-2.84,5.29-6.77
		c0-2.95-1.48-6.66-5.22-6.66C122.85,575.25,121.23,578.71,121.23,581.98z"/>
	<path d="M151.25,586.48c0,1.51,0.07,2.99,0.25,4.18h-2.84l-0.25-2.2h-0.11c-0.97,1.37-2.84,2.59-5.33,2.59
		c-3.53,0-5.33-2.48-5.33-5c0-4.21,3.74-6.52,10.47-6.48v-0.36c0-1.4-0.4-4.03-3.96-4c-1.66,0-3.35,0.47-4.57,1.3l-0.72-2.12
		c1.44-0.9,3.56-1.51,5.76-1.51c5.33,0,6.62,3.64,6.62,7.09V586.48z M148.19,581.77c-3.46-0.07-7.38,0.54-7.38,3.92
		c0,2.09,1.37,3.02,2.95,3.02c2.3,0,3.78-1.44,4.28-2.92c0.11-0.36,0.14-0.72,0.14-1.01V581.77z"/>
	<path d="M156.36,578.67c0-2.05-0.04-3.82-0.14-5.44h2.77l0.14,3.46h0.11c0.79-2.34,2.74-3.82,4.86-3.82c0.32,0,0.58,0.04,0.86,0.07
		v2.99c-0.32-0.07-0.65-0.07-1.08-0.07c-2.23,0-3.82,1.66-4.25,4.03c-0.07,0.43-0.11,0.97-0.11,1.48v9.29h-3.17V578.67z"/>
	<path d="M87.73,633.1c-1.12,0.58-3.46,1.15-6.41,1.15c-6.84,0-11.95-4.32-11.95-12.31c0-7.63,5.15-12.74,12.67-12.74
		c2.99,0,4.93,0.65,5.76,1.08l-0.79,2.56c-1.15-0.58-2.84-1.01-4.86-1.01c-5.69,0-9.47,3.64-9.47,10.01c0,5.98,3.42,9.75,9.29,9.75
		c1.94,0,3.89-0.4,5.15-1.01L87.73,633.1z"/>
	<path d="M91.58,608.3h3.17v10.91h0.07c0.5-0.9,1.3-1.73,2.27-2.27c0.94-0.54,2.05-0.86,3.24-0.86c2.34,0,6.08,1.44,6.08,7.42v10.37
		h-3.17v-10.01c0-2.81-1.04-5.15-4.03-5.15c-2.05,0-3.64,1.44-4.25,3.13c-0.18,0.47-0.22,0.94-0.22,1.51v10.51h-3.17V608.3z"/>
	<path d="M123.8,629.68c0,1.51,0.07,2.99,0.25,4.18h-2.84l-0.25-2.2h-0.11c-0.97,1.37-2.84,2.59-5.33,2.59c-3.53,0-5.33-2.48-5.33-5
		c0-4.21,3.74-6.52,10.47-6.48v-0.36c0-1.4-0.4-4.03-3.96-4c-1.66,0-3.35,0.47-4.57,1.3l-0.72-2.12c1.44-0.9,3.56-1.51,5.76-1.51
		c5.33,0,6.62,3.64,6.62,7.09V629.68z M120.74,624.97c-3.46-0.07-7.38,0.54-7.38,3.92c0,2.09,1.37,3.02,2.95,3.02
		c2.3,0,3.78-1.44,4.28-2.92c0.11-0.36,0.14-0.72,0.14-1.01V624.97z"/>
	<path d="M128.91,608.3h3.17v25.56h-3.17V608.3z"/>
	<path d="M151.99,629.07c0,1.84,0.04,3.42,0.14,4.79h-2.81l-0.18-2.84h-0.07c-0.79,1.4-2.66,3.24-5.76,3.24
		c-2.74,0-6.01-1.55-6.01-7.63v-10.19h3.17v9.61c0,3.31,1.04,5.58,3.89,5.58c2.12,0,3.6-1.48,4.18-2.92
		c0.18-0.43,0.29-1.01,0.29-1.62v-10.65h3.17V629.07z"/>
	<path d="M161.06,612.26v4.18h4.54v2.41h-4.54v9.39c0,2.16,0.61,3.38,2.38,3.38c0.86,0,1.37-0.07,1.84-0.22l0.14,2.41
		c-0.61,0.22-1.58,0.43-2.81,0.43c-1.48,0-2.66-0.5-3.42-1.33c-0.86-0.97-1.22-2.52-1.22-4.57v-9.5h-2.7v-2.41h2.7v-3.24
		L161.06,612.26z"/>
	<path d="M167.18,632.02l7.85-10.26c0.79-0.97,1.51-1.8,2.3-2.74v-0.07h-9.43v-2.52h13.25v1.98l-7.77,10.12
		c-0.76,0.97-1.44,1.87-2.23,2.74v0.07h10.15v2.52h-14.11V632.02z"/>
	<path d="M188.09,611.54c0,1.08-0.76,1.94-2.02,1.94c-1.15,0-1.91-0.86-1.91-1.94s0.79-1.98,1.98-1.98
		C187.3,609.56,188.09,610.42,188.09,611.54z M184.57,633.86v-17.42h3.17v17.42H184.57z"/>
	<path d="M55.98,653.16c1.37-0.32,3.56-0.54,5.72-0.54c3.13,0,5.15,0.54,6.62,1.76c1.26,0.94,2.05,2.38,2.05,4.28
		c0,2.38-1.58,4.43-4.1,5.33v0.11c2.3,0.54,5,2.45,5,6.05c0,2.09-0.83,3.71-2.09,4.86c-1.66,1.55-4.39,2.27-8.35,2.27
		c-2.16,0-3.82-0.14-4.86-0.29V653.16z M59.11,663.09h2.84c3.28,0,5.22-1.76,5.22-4.1c0-2.81-2.12-3.96-5.29-3.96
		c-1.44,0-2.27,0.11-2.77,0.22V663.09z M59.11,674.68c0.65,0.11,1.51,0.14,2.63,0.14c3.24,0,6.23-1.19,6.23-4.72
		c0-3.28-2.84-4.68-6.26-4.68h-2.59V674.68z"/>
	<path d="M91.29,668.2c0,6.44-4.5,9.25-8.67,9.25c-4.68,0-8.35-3.46-8.35-8.96c0-5.79,3.85-9.21,8.64-9.21
		C87.91,659.28,91.29,662.91,91.29,668.2z M77.5,668.38c0,3.82,2.16,6.7,5.26,6.7c3.02,0,5.29-2.84,5.29-6.77
		c0-2.95-1.48-6.66-5.22-6.66C79.12,661.65,77.5,665.11,77.5,668.38z"/>
	<path d="M95.29,665.07c0-2.05-0.04-3.82-0.14-5.44h2.77l0.14,3.46h0.11c0.79-2.34,2.74-3.82,4.86-3.82c0.32,0,0.58,0.04,0.86,0.07
		v2.99c-0.32-0.07-0.65-0.07-1.08-0.07c-2.23,0-3.82,1.66-4.25,4.03c-0.07,0.43-0.11,0.97-0.11,1.48v9.29h-3.17V665.07z"/>
	<path d="M122.47,668.2c0,6.44-4.5,9.25-8.67,9.25c-4.68,0-8.35-3.46-8.35-8.96c0-5.79,3.85-9.21,8.64-9.21
		C119.08,659.28,122.47,662.91,122.47,668.2z M108.68,668.38c0,3.82,2.16,6.7,5.26,6.7c3.02,0,5.29-2.84,5.29-6.77
		c0-2.95-1.48-6.66-5.22-6.66C110.3,661.65,108.68,665.11,108.68,668.38z"/>
	<path d="M138.88,676.45c-0.83,0.4-2.66,1.01-5,1.01c-5.26,0-8.68-3.56-8.68-8.89c0-5.36,3.67-9.29,9.36-9.29
		c1.87,0,3.53,0.47,4.39,0.94l-0.72,2.41c-0.76-0.4-1.94-0.83-3.67-0.83c-4,0-6.16,2.99-6.16,6.59c0,4.03,2.59,6.51,6.05,6.51
		c1.8,0,2.99-0.43,3.89-0.83L138.88,676.45z"/>
	<path d="M142.59,651.5h3.17v10.91h0.07c0.5-0.9,1.3-1.73,2.27-2.27c0.94-0.54,2.05-0.86,3.24-0.86c2.34,0,6.08,1.44,6.08,7.42
		v10.37h-3.17v-10.01c0-2.81-1.04-5.15-4.03-5.15c-2.05,0-3.64,1.44-4.25,3.13c-0.18,0.47-0.22,0.94-0.22,1.51v10.51h-3.17V651.5z"
		/>
	<path d="M178.34,668.2c0,6.44-4.5,9.25-8.67,9.25c-4.68,0-8.35-3.46-8.35-8.96c0-5.79,3.85-9.21,8.64-9.21
		C174.95,659.28,178.34,662.91,178.34,668.2z M164.55,668.38c0,3.82,2.16,6.7,5.26,6.7c3.02,0,5.29-2.84,5.29-6.77
		c0-2.95-1.48-6.66-5.22-6.66C166.17,661.65,164.55,665.11,164.55,668.38z"/>
	<path d="M183.31,659.64l3.42,9.75c0.58,1.62,1.04,3.06,1.4,4.5h0.11c0.4-1.44,0.9-2.88,1.48-4.5l3.38-9.75h3.31l-6.84,17.42h-3.02
		l-6.62-17.42H183.31z"/>
	<path d="M202.93,654.74c0,1.08-0.76,1.94-2.02,1.94c-1.15,0-1.91-0.86-1.91-1.94s0.79-1.98,1.98-1.98
		C202.14,652.76,202.93,653.62,202.93,654.74z M199.4,677.06v-17.42h3.17v17.42H199.4z"/>
</g>
<g>
	<path d="M345.73,725.65c1.91-0.32,4.18-0.54,6.66-0.54c4.5,0,7.7,1.08,9.83,3.02c2.2,1.98,3.46,4.79,3.46,8.71
		c0,3.96-1.26,7.2-3.49,9.43c-2.3,2.27-6.05,3.49-10.76,3.49c-2.27,0-4.1-0.11-5.69-0.29V725.65z M348.86,747.1
		c0.79,0.11,1.94,0.14,3.17,0.14c6.73,0,10.33-3.74,10.33-10.29c0.04-5.72-3.2-9.36-9.83-9.36c-1.62,0-2.84,0.14-3.67,0.32V747.1z"
		/>
	<path d="M369.59,737.56c0-2.05-0.04-3.82-0.14-5.44h2.77l0.14,3.46h0.11c0.79-2.34,2.74-3.82,4.86-3.82c0.32,0,0.58,0.04,0.86,0.07
		v2.99c-0.32-0.07-0.65-0.07-1.08-0.07c-2.23,0-3.82,1.66-4.25,4.03c-0.07,0.43-0.11,0.97-0.11,1.48v9.29h-3.17V737.56z"/>
	<path d="M396.77,740.7c0,6.44-4.5,9.25-8.67,9.25c-4.68,0-8.35-3.46-8.35-8.96c0-5.79,3.85-9.21,8.64-9.21
		C393.39,731.77,396.77,735.4,396.77,740.7z M382.99,740.88c0,3.82,2.16,6.7,5.26,6.7c3.02,0,5.29-2.84,5.29-6.77
		c0-2.95-1.48-6.66-5.22-6.66C384.61,734.14,382.99,737.6,382.99,740.88z"/>
	<path d="M400.77,737.56c0-2.05-0.04-3.82-0.14-5.44h2.77l0.14,3.46h0.11c0.79-2.34,2.74-3.82,4.86-3.82c0.32,0,0.58,0.04,0.86,0.07
		v2.99c-0.32-0.07-0.65-0.07-1.08-0.07c-2.23,0-3.82,1.66-4.25,4.03c-0.07,0.43-0.11,0.97-0.11,1.48v9.29h-3.17V737.56z"/>
	<path d="M423.41,725.29v10.15h11.73v-10.15h3.17v24.26h-3.17v-11.38h-11.73v11.38h-3.17v-24.26H423.41z"/>
	<path d="M455.88,745.37c0,1.51,0.07,2.99,0.25,4.18h-2.84l-0.25-2.2h-0.11c-0.97,1.37-2.84,2.59-5.33,2.59
		c-3.53,0-5.33-2.48-5.33-5c0-4.21,3.74-6.52,10.47-6.48v-0.36c0-1.4-0.4-4.03-3.96-4c-1.66,0-3.35,0.47-4.57,1.3l-0.72-2.12
		c1.44-0.9,3.56-1.51,5.76-1.51c5.33,0,6.62,3.64,6.62,7.09V745.37z M452.82,740.66c-3.46-0.07-7.38,0.54-7.38,3.92
		c0,2.09,1.37,3.02,2.95,3.02c2.3,0,3.78-1.44,4.28-2.92c0.11-0.36,0.14-0.72,0.14-1.01V740.66z"/>
	<path d="M461,736.84c0-1.84-0.04-3.28-0.14-4.72h2.81l0.18,2.88h0.07c0.86-1.62,2.88-3.24,5.76-3.24c2.41,0,6.16,1.44,6.16,7.42
		v10.37h-3.17v-10.04c0-2.81-1.04-5.15-4.03-5.15c-2.05,0-3.67,1.48-4.25,3.24c-0.14,0.4-0.22,0.94-0.22,1.48v10.47H461V736.84z"/>
	<path d="M496.74,740.7c0,6.44-4.5,9.25-8.67,9.25c-4.68,0-8.35-3.46-8.35-8.96c0-5.79,3.85-9.21,8.64-9.21
		C493.36,731.77,496.74,735.4,496.74,740.7z M482.96,740.88c0,3.82,2.16,6.7,5.26,6.7c3.02,0,5.29-2.84,5.29-6.77
		c0-2.95-1.48-6.66-5.22-6.66C484.58,734.14,482.96,737.6,482.96,740.88z"/>
	<path d="M512.98,745.37c0,1.51,0.07,2.99,0.25,4.18h-2.84l-0.25-2.2h-0.11c-0.97,1.37-2.84,2.59-5.33,2.59
		c-3.53,0-5.33-2.48-5.33-5c0-4.21,3.74-6.52,10.47-6.48v-0.36c0-1.4-0.4-4.03-3.96-4c-1.66,0-3.35,0.47-4.57,1.3l-0.72-2.12
		c1.44-0.9,3.56-1.51,5.76-1.51c5.33,0,6.62,3.64,6.62,7.09V745.37z M509.92,740.66c-3.46-0.07-7.38,0.54-7.38,3.92
		c0,2.09,1.37,3.02,2.95,3.02c2.3,0,3.78-1.44,4.28-2.92c0.11-0.36,0.14-0.72,0.14-1.01V740.66z"/>
	<path d="M518.09,737.56c0-2.05-0.04-3.82-0.14-5.44h2.77l0.14,3.46h0.11c0.79-2.34,2.74-3.82,4.86-3.82c0.32,0,0.58,0.04,0.86,0.07
		v2.99c-0.32-0.07-0.65-0.07-1.08-0.07c-2.23,0-3.82,1.66-4.25,4.03c-0.07,0.43-0.11,0.97-0.11,1.48v9.29h-3.17V737.56z"/>
	<path d="M357.93,767.19h3.17v10.91h0.07c0.5-0.9,1.3-1.73,2.27-2.27c0.94-0.54,2.05-0.86,3.24-0.86c2.34,0,6.08,1.44,6.08,7.42
		v10.37h-3.17v-10.01c0-2.81-1.04-5.15-4.03-5.15c-2.05,0-3.64,1.44-4.25,3.13c-0.18,0.47-0.22,0.94-0.22,1.51v10.51h-3.17V767.19z"
		/>
	<path d="M390.15,788.57c0,1.51,0.07,2.99,0.25,4.18h-2.84l-0.25-2.2h-0.11c-0.97,1.37-2.84,2.59-5.33,2.59
		c-3.53,0-5.33-2.48-5.33-5c0-4.21,3.74-6.52,10.47-6.48v-0.36c0-1.4-0.4-4.03-3.96-4c-1.66,0-3.35,0.47-4.57,1.3l-0.72-2.12
		c1.44-0.9,3.56-1.51,5.76-1.51c5.33,0,6.62,3.64,6.62,7.09V788.57z M387.09,783.86c-3.46-0.07-7.38,0.54-7.38,3.92
		c0,2.09,1.37,3.02,2.95,3.02c2.3,0,3.78-1.44,4.28-2.92c0.11-0.36,0.14-0.72,0.14-1.01V783.86z"/>
	<path d="M412.29,791.99c-1.12,0.58-3.46,1.15-6.41,1.15c-6.84,0-11.95-4.32-11.95-12.31c0-7.63,5.15-12.74,12.67-12.74
		c2.99,0,4.93,0.65,5.76,1.08l-0.79,2.56c-1.15-0.58-2.84-1.01-4.86-1.01c-5.69,0-9.47,3.64-9.47,10.01c0,5.98,3.42,9.75,9.29,9.75
		c1.94,0,3.89-0.4,5.15-1.01L412.29,791.99z"/>
	<path d="M416.14,767.19h3.17v10.91h0.07c0.5-0.9,1.3-1.73,2.27-2.27c0.94-0.54,2.05-0.86,3.24-0.86c2.34,0,6.08,1.44,6.08,7.42
		v10.37h-3.17v-10.01c0-2.81-1.04-5.15-4.03-5.15c-2.05,0-3.64,1.44-4.25,3.13c-0.18,0.47-0.22,0.94-0.22,1.51v10.51h-3.17V767.19z"
		/>
	<path d="M448.36,788.57c0,1.51,0.07,2.99,0.25,4.18h-2.84l-0.25-2.2h-0.11c-0.97,1.37-2.84,2.59-5.33,2.59
		c-3.53,0-5.33-2.48-5.33-5c0-4.21,3.74-6.52,10.47-6.48v-0.36c0-1.4-0.4-4.03-3.96-4c-1.66,0-3.35,0.47-4.57,1.3l-0.72-2.12
		c1.44-0.9,3.56-1.51,5.76-1.51c5.33,0,6.62,3.64,6.62,7.09V788.57z M445.3,783.86c-3.46-0.07-7.38,0.54-7.38,3.92
		c0,2.09,1.37,3.02,2.95,3.02c2.3,0,3.78-1.44,4.28-2.92c0.11-0.36,0.14-0.72,0.14-1.01V783.86z"/>
	<path d="M453.47,767.19h3.17v25.56h-3.17V767.19z"/>
	<path d="M476.55,787.96c0,1.84,0.04,3.42,0.14,4.79h-2.81l-0.18-2.84h-0.07c-0.79,1.4-2.66,3.24-5.76,3.24
		c-2.74,0-6.01-1.55-6.01-7.63v-10.19h3.17v9.61c0,3.31,1.04,5.58,3.89,5.58c2.12,0,3.6-1.48,4.18-2.92
		c0.18-0.43,0.29-1.01,0.29-1.62v-10.65h3.17V787.96z"/>
	<path d="M485.62,771.15v4.18h4.54v2.41h-4.54v9.39c0,2.16,0.61,3.38,2.38,3.38c0.86,0,1.37-0.07,1.84-0.22l0.14,2.41
		c-0.61,0.22-1.58,0.43-2.81,0.43c-1.48,0-2.66-0.5-3.42-1.33c-0.86-0.97-1.22-2.52-1.22-4.57v-9.5h-2.7v-2.41h2.7v-3.24
		L485.62,771.15z"/>
	<path d="M491.74,790.91l7.85-10.26c0.79-0.97,1.51-1.8,2.3-2.74v-0.07h-9.43v-2.52h13.25v1.98l-7.77,10.12
		c-0.76,0.97-1.44,1.87-2.23,2.74v0.07h10.15v2.52h-14.11V790.91z"/>
	<path d="M512.66,770.43c0,1.08-0.76,1.94-2.02,1.94c-1.15,0-1.91-0.86-1.91-1.94s0.79-1.98,1.98-1.98
		C511.86,768.45,512.66,769.32,512.66,770.43z M509.13,792.75v-17.42h3.17v17.42H509.13z"/>
</g>
<g>
	<path d="M682.5,263.41h13.07v2.63h-9.9v8.06h9.14v2.59h-9.14v10.98h-3.17V263.41z"/>
	<path d="M699.03,275.68c0-2.05-0.04-3.82-0.14-5.44h2.77l0.14,3.46h0.11c0.79-2.34,2.74-3.82,4.86-3.82c0.32,0,0.58,0.04,0.86,0.07
		v2.99c-0.32-0.07-0.65-0.07-1.08-0.07c-2.23,0-3.82,1.66-4.25,4.03c-0.07,0.43-0.11,0.97-0.11,1.48v9.29h-3.17V275.68z"/>
	<path d="M712.2,279.53c0.07,4.28,2.77,6.05,5.97,6.05c2.27,0,3.67-0.4,4.82-0.9l0.58,2.27c-1.12,0.5-3.06,1.12-5.83,1.12
		c-5.36,0-8.57-3.56-8.57-8.82c0-5.25,3.1-9.36,8.17-9.36c5.72,0,7.2,4.97,7.2,8.17c0,0.65-0.04,1.12-0.11,1.48H712.2z
		 M721.49,277.27c0.04-1.98-0.83-5.11-4.39-5.11c-3.24,0-4.61,2.92-4.86,5.11H721.49z"/>
	<path d="M728.47,262.11h3.17v10.91h0.07c0.5-0.9,1.3-1.73,2.27-2.27c0.94-0.54,2.05-0.86,3.24-0.86c2.34,0,6.08,1.44,6.08,7.42
		v10.37h-3.17v-10.01c0-2.81-1.04-5.15-4.03-5.15c-2.05,0-3.64,1.44-4.25,3.13c-0.18,0.47-0.22,0.94-0.22,1.51v10.51h-3.17V262.11z"
		/>
	<path d="M750.22,279.53c0.07,4.28,2.77,6.05,5.97,6.05c2.27,0,3.67-0.4,4.82-0.9l0.58,2.27c-1.12,0.5-3.06,1.12-5.83,1.12
		c-5.36,0-8.57-3.56-8.57-8.82c0-5.25,3.1-9.36,8.17-9.36c5.72,0,7.2,4.97,7.2,8.17c0,0.65-0.04,1.12-0.11,1.48H750.22z
		 M759.5,277.27c0.04-1.98-0.83-5.11-4.39-5.11c-3.24,0-4.61,2.92-4.86,5.11H759.5z"/>
	<path d="M770.02,265.35c0,1.08-0.76,1.94-2.02,1.94c-1.15,0-1.91-0.86-1.91-1.94c0-1.08,0.79-1.98,1.98-1.98
		C769.23,263.37,770.02,264.24,770.02,265.35z M766.49,287.67v-17.42h3.17v17.42H766.49z"/>
	<path d="M778.73,266.07v4.17h4.54v2.41h-4.54v9.39c0,2.16,0.61,3.38,2.38,3.38c0.86,0,1.37-0.07,1.83-0.22l0.14,2.41
		c-0.61,0.22-1.58,0.43-2.81,0.43c-1.48,0-2.66-0.5-3.42-1.33c-0.86-0.97-1.22-2.52-1.22-4.57v-9.5h-2.7v-2.41h2.7v-3.24
		L778.73,266.07z"/>
</g>
<rect x="700.33" y="1169.3" class="st3" width="434.89" height="76.37"/>
<text transform="matrix(1 0 0 1 794.3906 1203.3828)" class="st4 st5 st6">Habonim Dror</text>
<polyline class="st7" points="455.5,179 455,217 379,217 379,246 "/>
<line class="st8" x1="721.5" y1="179" x2="721.5" y2="217"/>
<polyline class="st7" points="455,217 594,217 594,142 613,142 "/>
<line class="st7" x1="347" y1="378" x2="347" y2="445"/>
<line class="st7" x1="129.5" y1="174" x2="129.5" y2="558.37"/>
<line class="st7" x1="250.55" y1="513.82" x2="129.22" y2="513.82"/>
<line class="st7" x1="723.68" y1="349" x2="723.68" y2="407"/>
<line class="st7" x1="693" y1="539" x2="649.33" y2="565"/>
<line class="st7" x1="782.33" y1="539" x2="865" y2="565"/>
<polyline class="st7" points="240,631 417,631 417,697 "/>
<line class="st7" x1="532" y1="623" x2="417" y2="631"/>
<line class="st7" x1="435.11" y1="833" x2="435.11" y2="915"/>
<line class="st7" x1="844" y1="1055" x2="777" y2="1125"/>
<line class="st7" x1="545.43" y1="1043.37" x2="613" y2="1112"/>
<polyline class="st7" points="1041,179 1041,701 973.5,745 "/>
<line class="st7" x1="974" y1="689" x2="1041" y2="701"/>
<polyline class="st7" points="1208.73,179 1209,904 974,983.33 "/>
<line class="st7" x1="1034.2" y1="858.76" x2="1209" y2="904"/>
</svg>
