<?xml version="1.0" encoding="utf-8"?>
<!-- Generator: Adobe Illustrator 24.1.2, SVG Export Plug-In . SVG Version: 6.00 Build 0)  -->
<svg version="1.1" id="Camada_1" xmlns="http://www.w3.org/2000/svg" xmlns:xlink="http://www.w3.org/1999/xlink" x="0px" y="0px"
	 viewBox="0 0 1122 535" style="enable-background:new 0 0 1122 535;" xml:space="preserve">
<style type="text/css">
	.st0{fill:#D4EDFC;}
	.st1{font-family:'AmericanTypewriter';}
	.st2{font-size:72px;}
	.st3{fill:none;}
	.st4{font-family:'AmericanTypewriter-Bold';}
	.st5{font-size:82px;}
	.st6{enable-background:new    ;}
	.st7{fill:#0B96A2;}
	.st8{fill:#E7DFD6;}
	.st9{fill:#EB8B64;}
</style>
<text transform="matrix(1 0 0 1 511.4994 146.4875)" class="st0 st1 st2">  </text>
<g>
	<rect x="470.6" y="83.5" class="st3" width="53.5" height="65.9"/>
	<text transform="matrix(1 0 0 1 470.5529 138.6855)" class="st0 st4 st5">“</text>
</g>
<rect x="971" y="330.2" class="st3" width="116.1" height="81.1"/>
<g class="st6">
	<path class="st0" d="M975.6,337.5c0-2.4,0.8-4.3,2.3-5.9s3.3-2.4,5.5-2.4c2.7,0,4.9,1.1,6.7,3.4c1.8,2.2,2.7,5,2.7,8.2
		c0,6.6-2.9,13.5-8.8,20.7c-1.4,1.8-2.7,2.6-3.9,2.6c-2,0-3-1.1-3-3.4c0-1.4,0.6-2.9,1.7-4.6c3.2-4.6,4.8-7.6,4.8-9.1
		c0-0.8-0.6-1.3-1.9-1.7C977.6,344.2,975.6,341.6,975.6,337.5z M996.5,337.5c0-2.4,0.8-4.3,2.3-5.9s3.3-2.4,5.5-2.4
		c2.7,0,4.9,1.1,6.8,3.4c1.8,2.2,2.7,5,2.7,8.2c0,6.6-2.9,13.5-8.8,20.7c-1.4,1.8-2.7,2.6-3.9,2.6c-2,0-3-1.1-3-3.4
		c0-1.4,0.6-2.9,1.7-4.6c3.1-4.6,4.7-7.7,4.7-9.1c0-0.8-0.6-1.4-1.8-1.7C998.5,344.2,996.5,341.6,996.5,337.5z"/>
</g>
<rect x="534.6" y="141.4" class="st3" width="523.4" height="238"/>
<g class="st6">
	<path class="st0" d="M537.4,167.7v-25.8h18.6v3h-15.2v7.9h14.3v3h-14.3v8.8h15.8v3H537.4z"/>
	<path class="st0" d="M573.1,167.7v-2.4c-1.2,1.9-2.9,2.8-5.2,2.8c-1.5,0-2.9-0.4-4.1-1.2s-2.2-2-2.9-3.4s-1-3.2-1-5.1
		c0-1.9,0.3-3.6,0.9-5.1s1.6-2.7,2.8-3.5s2.6-1.2,4.2-1.2c1.1,0,2.1,0.2,3,0.7s1.6,1.1,2.1,1.9v-9.2h3.1v25.8H573.1z M563.1,158.4
		c0,2.4,0.5,4.2,1.5,5.4s2.2,1.8,3.6,1.8c1.4,0,2.6-0.6,3.5-1.7s1.5-2.9,1.5-5.2c0-2.6-0.5-4.4-1.5-5.6s-2.2-1.8-3.6-1.8
		c-1.4,0-2.6,0.6-3.5,1.7S563.1,155.9,563.1,158.4z"/>
	<path class="st0" d="M593.2,167.7v-2.7c-1.5,2.1-3.4,3.2-5.9,3.2c-1.1,0-2.1-0.2-3.1-0.6s-1.7-1-2.1-1.6s-0.8-1.4-1-2.3
		c-0.1-0.6-0.2-1.6-0.2-3V149h3.2v10.4c0,1.7,0.1,2.8,0.2,3.3c0.2,0.8,0.6,1.5,1.3,2s1.4,0.7,2.4,0.7s1.8-0.2,2.7-0.7s1.4-1.1,1.8-2
		s0.5-2.1,0.5-3.6v-10h3.2v18.7H593.2z"/>
	<path class="st0" d="M613.2,160.8l3.1,0.4c-0.3,2.1-1.2,3.8-2.6,5s-3.1,1.8-5.2,1.8c-2.6,0-4.6-0.8-6.2-2.5s-2.3-4.1-2.3-7.2
		c0-2,0.3-3.8,1-5.3s1.7-2.6,3-3.4s2.9-1.1,4.5-1.1c2,0,3.7,0.5,5,1.5s2.1,2.5,2.5,4.4l-3.1,0.5c-0.3-1.3-0.8-2.2-1.6-2.8
		s-1.6-0.9-2.7-0.9c-1.6,0-2.9,0.6-3.9,1.7s-1.5,3-1.5,5.4c0,2.5,0.5,4.3,1.4,5.5s2.2,1.7,3.8,1.7c1.2,0,2.3-0.4,3.1-1.1
		S613,162.4,613.2,160.8z"/>
	<path class="st0" d="M631.2,165.4c-1.2,1-2.3,1.7-3.4,2.1s-2.2,0.6-3.5,0.6c-2.1,0-3.6-0.5-4.7-1.5s-1.7-2.3-1.7-3.8
		c0-0.9,0.2-1.7,0.6-2.5s1-1.4,1.6-1.8s1.4-0.8,2.3-1c0.6-0.2,1.6-0.3,2.8-0.5c2.6-0.3,4.4-0.7,5.6-1.1c0-0.4,0-0.7,0-0.8
		c0-1.3-0.3-2.2-0.9-2.7c-0.8-0.7-2-1.1-3.6-1.1c-1.5,0-2.6,0.3-3.3,0.8s-1.2,1.4-1.6,2.8l-3.1-0.4c0.3-1.3,0.7-2.4,1.4-3.2
		s1.6-1.4,2.8-1.9s2.6-0.7,4.2-0.7c1.6,0,2.9,0.2,3.9,0.6s1.7,0.8,2.2,1.4s0.8,1.3,1,2.2c0.1,0.5,0.2,1.5,0.2,2.9v4.2
		c0,2.9,0.1,4.8,0.2,5.6s0.4,1.5,0.8,2.2h-3.3C631.5,167,631.3,166.3,631.2,165.4z M630.9,158.3c-1.1,0.5-2.9,0.9-5.2,1.2
		c-1.3,0.2-2.2,0.4-2.8,0.6s-1,0.6-1.2,1s-0.4,1-0.4,1.5c0,0.8,0.3,1.5,1,2.1s1.6,0.8,2.8,0.8c1.2,0,2.3-0.3,3.3-0.8
		s1.6-1.3,2.1-2.2c0.3-0.7,0.5-1.8,0.5-3.2V158.3z"/>
	<path class="st0" d="M651.2,160.8l3.1,0.4c-0.3,2.1-1.2,3.8-2.6,5s-3.1,1.8-5.2,1.8c-2.6,0-4.6-0.8-6.2-2.5s-2.3-4.1-2.3-7.2
		c0-2,0.3-3.8,1-5.3s1.7-2.6,3-3.4s2.9-1.1,4.5-1.1c2,0,3.7,0.5,5,1.5s2.1,2.5,2.5,4.4L651,155c-0.3-1.3-0.8-2.2-1.6-2.8
		s-1.6-0.9-2.7-0.9c-1.6,0-2.9,0.6-3.9,1.7s-1.5,3-1.5,5.4c0,2.5,0.5,4.3,1.4,5.5s2.2,1.7,3.8,1.7c1.2,0,2.3-0.4,3.1-1.1
		S651,162.4,651.2,160.8z M643.9,170l0.9-3.1h2.4l-0.6,1.9c1,0.1,1.7,0.4,2.2,0.9s0.8,1.1,0.8,1.7c0,0.9-0.4,1.7-1.3,2.3
		s-2.1,1-3.8,1c-1,0-1.8-0.1-2.5-0.2l0.2-2.1c0.8,0,1.3,0.1,1.7,0.1c1.1,0,1.9-0.2,2.3-0.5c0.3-0.2,0.5-0.5,0.5-0.9
		c0-0.2-0.1-0.4-0.2-0.6s-0.4-0.3-0.7-0.4S644.7,170,643.9,170z"/>
	<path class="st0" d="M669.2,165.4c-1.2,1-2.3,1.7-3.4,2.1s-2.2,0.6-3.5,0.6c-2.1,0-3.6-0.5-4.7-1.5s-1.7-2.3-1.7-3.8
		c0-0.9,0.2-1.7,0.6-2.5s1-1.4,1.6-1.8s1.4-0.8,2.3-1c0.6-0.2,1.6-0.3,2.8-0.5c2.6-0.3,4.4-0.7,5.6-1.1c0-0.4,0-0.7,0-0.8
		c0-1.3-0.3-2.2-0.9-2.7c-0.8-0.7-2-1.1-3.6-1.1c-1.5,0-2.6,0.3-3.3,0.8s-1.2,1.4-1.6,2.8l-3.1-0.4c0.3-1.3,0.7-2.4,1.4-3.2
		s1.6-1.4,2.8-1.9s2.6-0.7,4.2-0.7c1.6,0,2.9,0.2,3.9,0.6s1.7,0.8,2.2,1.4s0.8,1.3,1,2.2c0.1,0.5,0.2,1.5,0.2,2.9v4.2
		c0,2.9,0.1,4.8,0.2,5.6s0.4,1.5,0.8,2.2h-3.3C669.5,167,669.3,166.3,669.2,165.4z M658.7,146.3c0-1.2,0.3-2.2,1-2.9
		c0.7-0.7,1.5-1.1,2.6-1.1c0.7,0,1.7,0.3,3,0.9c0.7,0.4,1.2,0.5,1.7,0.5c0.4,0,0.7-0.1,0.9-0.3s0.3-0.6,0.4-1.2h2.3
		c0,1.3-0.4,2.3-1,3s-1.5,1-2.4,1c-0.7,0-1.7-0.3-2.9-1c-0.8-0.4-1.4-0.6-1.7-0.6c-0.4,0-0.7,0.1-1,0.4c-0.3,0.3-0.4,0.7-0.4,1.2
		H658.7z M669,158.3c-1.1,0.5-2.9,0.9-5.2,1.2c-1.3,0.2-2.2,0.4-2.8,0.6s-1,0.6-1.2,1s-0.4,1-0.4,1.5c0,0.8,0.3,1.5,1,2.1
		s1.6,0.8,2.8,0.8c1.2,0,2.3-0.3,3.3-0.8s1.6-1.3,2.1-2.2c0.3-0.7,0.5-1.8,0.5-3.2V158.3z"/>
	<path class="st0" d="M675.9,158.3c0-3.5,1-6,2.9-7.7c1.6-1.4,3.6-2.1,5.9-2.1c2.6,0,4.7,0.8,6.3,2.5s2.4,4,2.4,7
		c0,2.4-0.4,4.3-1.1,5.7s-1.8,2.4-3.1,3.2s-2.9,1.1-4.5,1.1c-2.6,0-4.7-0.8-6.3-2.5S675.9,161.5,675.9,158.3z M679.1,158.3
		c0,2.4,0.5,4.2,1.6,5.4s2.4,1.8,3.9,1.8c1.6,0,2.9-0.6,3.9-1.8s1.6-3,1.6-5.5c0-2.3-0.5-4.1-1.6-5.2s-2.4-1.8-3.9-1.8
		c-1.6,0-2.9,0.6-3.9,1.8S679.1,156,679.1,158.3z"/>
	<path class="st0" d="M707.1,167.7V149h2.8v2.7c1.4-2.1,3.4-3.1,5.9-3.1c1.1,0,2.2,0.2,3.1,0.6s1.6,0.9,2.1,1.6s0.8,1.4,1,2.3
		c0.1,0.6,0.2,1.6,0.2,3.1v11.5h-3.2v-11.4c0-1.3-0.1-2.3-0.4-2.9s-0.7-1.1-1.3-1.5s-1.4-0.6-2.2-0.6c-1.3,0-2.5,0.4-3.5,1.3
		s-1.5,2.5-1.5,4.9v10.2H707.1z"/>
	<path class="st0" d="M739.3,165.4c-1.2,1-2.3,1.7-3.4,2.1s-2.2,0.6-3.5,0.6c-2.1,0-3.6-0.5-4.7-1.5s-1.7-2.3-1.7-3.8
		c0-0.9,0.2-1.7,0.6-2.5s1-1.4,1.6-1.8s1.4-0.8,2.3-1c0.6-0.2,1.6-0.3,2.8-0.5c2.6-0.3,4.4-0.7,5.6-1.1c0-0.4,0-0.7,0-0.8
		c0-1.3-0.3-2.2-0.9-2.7c-0.8-0.7-2-1.1-3.6-1.1c-1.5,0-2.6,0.3-3.3,0.8s-1.2,1.4-1.6,2.8l-3.1-0.4c0.3-1.3,0.7-2.4,1.4-3.2
		s1.6-1.4,2.8-1.9s2.6-0.7,4.2-0.7c1.6,0,2.9,0.2,3.9,0.6s1.7,0.8,2.2,1.4s0.8,1.3,1,2.2c0.1,0.5,0.2,1.5,0.2,2.9v4.2
		c0,2.9,0.1,4.8,0.2,5.6s0.4,1.5,0.8,2.2h-3.3C739.6,167,739.4,166.3,739.3,165.4z M728.8,146.3c0-1.2,0.3-2.2,1-2.9
		c0.7-0.7,1.5-1.1,2.6-1.1c0.7,0,1.7,0.3,3,0.9c0.7,0.4,1.2,0.5,1.7,0.5c0.4,0,0.7-0.1,0.9-0.3s0.3-0.6,0.4-1.2h2.3
		c0,1.3-0.4,2.3-1,3s-1.5,1-2.4,1c-0.7,0-1.7-0.3-2.9-1c-0.8-0.4-1.4-0.6-1.7-0.6c-0.4,0-0.7,0.1-1,0.4c-0.3,0.3-0.4,0.7-0.4,1.2
		H728.8z M739,158.3c-1.1,0.5-2.9,0.9-5.2,1.2c-1.3,0.2-2.2,0.4-2.8,0.6s-1,0.6-1.2,1s-0.4,1-0.4,1.5c0,0.8,0.3,1.5,1,2.1
		s1.6,0.8,2.8,0.8c1.2,0,2.3-0.3,3.3-0.8s1.6-1.3,2.1-2.2c0.3-0.7,0.5-1.8,0.5-3.2V158.3z"/>
	<path class="st0" d="M746,158.3c0-3.5,1-6,2.9-7.7c1.6-1.4,3.6-2.1,5.9-2.1c2.6,0,4.7,0.8,6.3,2.5s2.4,4,2.4,7
		c0,2.4-0.4,4.3-1.1,5.7s-1.8,2.4-3.1,3.2s-2.9,1.1-4.5,1.1c-2.6,0-4.7-0.8-6.3-2.5S746,161.5,746,158.3z M749.2,158.3
		c0,2.4,0.5,4.2,1.6,5.4s2.4,1.8,3.9,1.8c1.6,0,2.9-0.6,3.9-1.8s1.6-3,1.6-5.5c0-2.3-0.5-4.1-1.6-5.2s-2.4-1.8-3.9-1.8
		c-1.6,0-2.9,0.6-3.9,1.8S749.2,156,749.2,158.3z"/>
	<path class="st0" d="M784.1,164.8l0.5,2.8c-0.9,0.2-1.7,0.3-2.4,0.3c-1.1,0-2-0.2-2.7-0.5s-1.1-0.8-1.3-1.4s-0.4-1.8-0.4-3.7v-10.7
		h-2.3V149h2.3v-4.6l3.1-1.9v6.5h3.2v2.5h-3.2v10.9c0,0.9,0.1,1.5,0.2,1.7s0.3,0.5,0.5,0.6s0.6,0.2,1.1,0.2
		C783,165,783.5,164.9,784.1,164.8z"/>
	<path class="st0" d="M787.1,167.7V149h2.8v2.8c0.7-1.3,1.4-2.2,2-2.6s1.3-0.6,2-0.6c1.1,0,2.2,0.3,3.3,1l-1.1,2.9
		c-0.8-0.5-1.5-0.7-2.3-0.7c-0.7,0-1.3,0.2-1.9,0.6s-0.9,1-1.2,1.7c-0.4,1.1-0.5,2.4-0.5,3.7v9.8H787.1z"/>
	<path class="st0" d="M811.3,165.4c-1.2,1-2.3,1.7-3.4,2.1s-2.2,0.6-3.5,0.6c-2.1,0-3.6-0.5-4.7-1.5s-1.7-2.3-1.7-3.8
		c0-0.9,0.2-1.7,0.6-2.5s1-1.4,1.6-1.8s1.4-0.8,2.3-1c0.6-0.2,1.6-0.3,2.8-0.5c2.6-0.3,4.4-0.7,5.6-1.1c0-0.4,0-0.7,0-0.8
		c0-1.3-0.3-2.2-0.9-2.7c-0.8-0.7-2-1.1-3.6-1.1c-1.5,0-2.6,0.3-3.3,0.8s-1.2,1.4-1.6,2.8l-3.1-0.4c0.3-1.3,0.7-2.4,1.4-3.2
		s1.6-1.4,2.8-1.9s2.6-0.7,4.2-0.7c1.6,0,2.9,0.2,3.9,0.6s1.7,0.8,2.2,1.4s0.8,1.3,1,2.2c0.1,0.5,0.2,1.5,0.2,2.9v4.2
		c0,2.9,0.1,4.8,0.2,5.6s0.4,1.5,0.8,2.2H812C811.6,167,811.4,166.3,811.3,165.4z M811.1,158.3c-1.1,0.5-2.9,0.9-5.2,1.2
		c-1.3,0.2-2.2,0.4-2.8,0.6s-1,0.6-1.2,1s-0.4,1-0.4,1.5c0,0.8,0.3,1.5,1,2.1s1.6,0.8,2.8,0.8c1.2,0,2.3-0.3,3.3-0.8
		s1.6-1.3,2.1-2.2c0.3-0.7,0.5-1.8,0.5-3.2V158.3z"/>
	<path class="st0" d="M819.2,167.7V149h2.8v2.7c1.4-2.1,3.4-3.1,5.9-3.1c1.1,0,2.2,0.2,3.1,0.6s1.6,0.9,2.1,1.6s0.8,1.4,1,2.3
		c0.1,0.6,0.2,1.6,0.2,3.1v11.5h-3.2v-11.4c0-1.3-0.1-2.3-0.4-2.9s-0.7-1.1-1.3-1.5s-1.4-0.6-2.2-0.6c-1.3,0-2.5,0.4-3.5,1.3
		s-1.5,2.5-1.5,4.9v10.2H819.2z"/>
	<path class="st0" d="M837.9,162.1l3.1-0.5c0.2,1.3,0.7,2.2,1.5,2.9s1.9,1,3.4,1c1.5,0,2.5-0.3,3.2-0.9s1.1-1.3,1.1-2.1
		c0-0.7-0.3-1.3-0.9-1.7c-0.4-0.3-1.5-0.6-3.2-1.1c-2.3-0.6-3.9-1.1-4.8-1.5s-1.6-1-2-1.8s-0.7-1.6-0.7-2.5c0-0.8,0.2-1.6,0.6-2.3
		s0.9-1.3,1.6-1.8c0.5-0.4,1.2-0.7,2-0.9s1.8-0.4,2.7-0.4c1.5,0,2.8,0.2,3.9,0.6s1.9,1,2.5,1.7s0.9,1.7,1.1,2.9l-3.1,0.4
		c-0.1-1-0.5-1.7-1.2-2.2s-1.6-0.8-2.9-0.8c-1.5,0-2.5,0.2-3.1,0.7s-0.9,1-0.9,1.7c0,0.4,0.1,0.8,0.4,1.1c0.3,0.3,0.7,0.6,1.2,0.8
		c0.3,0.1,1.2,0.4,2.8,0.8c2.2,0.6,3.8,1.1,4.7,1.5s1.6,0.9,2.1,1.7s0.8,1.6,0.8,2.7c0,1.1-0.3,2-0.9,3s-1.5,1.7-2.7,2.2
		s-2.5,0.8-3.9,0.8c-2.4,0-4.3-0.5-5.5-1.5S838.3,164.1,837.9,162.1z"/>
	<path class="st0" d="M857.9,167.7v-16.2h-2.8V149h2.8v-2c0-1.3,0.1-2.2,0.3-2.8c0.3-0.8,0.8-1.5,1.6-2s1.8-0.8,3.2-0.8
		c0.9,0,1.9,0.1,3,0.3l-0.5,2.8c-0.7-0.1-1.3-0.2-1.9-0.2c-1,0-1.6,0.2-2,0.6s-0.6,1.2-0.6,2.3v1.7h3.6v2.5h-3.6v16.2H857.9z"/>
	<path class="st0" d="M866,158.3c0-3.5,1-6,2.9-7.7c1.6-1.4,3.6-2.1,5.9-2.1c2.6,0,4.7,0.8,6.3,2.5s2.4,4,2.4,7
		c0,2.4-0.4,4.3-1.1,5.7s-1.8,2.4-3.1,3.2s-2.9,1.1-4.5,1.1c-2.6,0-4.7-0.8-6.3-2.5S866,161.5,866,158.3z M869.3,158.3
		c0,2.4,0.5,4.2,1.6,5.4s2.4,1.8,3.9,1.8c1.6,0,2.9-0.6,3.9-1.8s1.6-3,1.6-5.5c0-2.3-0.5-4.1-1.6-5.2s-2.4-1.8-3.9-1.8
		c-1.6,0-2.9,0.6-3.9,1.8S869.3,156,869.3,158.3z"/>
	<path class="st0" d="M887.2,167.7V149h2.8v2.8c0.7-1.3,1.4-2.2,2-2.6s1.3-0.6,2-0.6c1.1,0,2.2,0.3,3.3,1l-1.1,2.9
		c-0.8-0.5-1.5-0.7-2.3-0.7c-0.7,0-1.3,0.2-1.9,0.6s-0.9,1-1.2,1.7c-0.4,1.1-0.5,2.4-0.5,3.7v9.8H887.2z"/>
	<path class="st0" d="M899.2,167.7V149h2.8v2.6c0.6-0.9,1.4-1.6,2.3-2.2s2.1-0.8,3.3-0.8c1.4,0,2.5,0.3,3.4,0.9s1.5,1.4,1.9,2.4
		c1.5-2.2,3.4-3.3,5.8-3.3c1.9,0,3.3,0.5,4.3,1.5s1.5,2.6,1.5,4.7v12.8h-3.1v-11.8c0-1.3-0.1-2.2-0.3-2.7s-0.6-1-1.1-1.3
		s-1.2-0.5-1.9-0.5c-1.3,0-2.4,0.4-3.3,1.3s-1.3,2.3-1.3,4.2v10.8h-3.2v-12.1c0-1.4-0.3-2.5-0.8-3.2s-1.4-1.1-2.5-1.1
		c-0.9,0-1.7,0.2-2.5,0.7s-1.3,1.2-1.6,2.1s-0.5,2.2-0.5,3.9v9.7H899.2z"/>
	<path class="st0" d="M941.4,165.4c-1.2,1-2.3,1.7-3.4,2.1s-2.2,0.6-3.5,0.6c-2.1,0-3.6-0.5-4.7-1.5s-1.7-2.3-1.7-3.8
		c0-0.9,0.2-1.7,0.6-2.5s1-1.4,1.6-1.8s1.4-0.8,2.3-1c0.6-0.2,1.6-0.3,2.8-0.5c2.6-0.3,4.4-0.7,5.6-1.1c0-0.4,0-0.7,0-0.8
		c0-1.3-0.3-2.2-0.9-2.7c-0.8-0.7-2-1.1-3.6-1.1c-1.5,0-2.6,0.3-3.3,0.8s-1.2,1.4-1.6,2.8l-3.1-0.4c0.3-1.3,0.7-2.4,1.4-3.2
		s1.6-1.4,2.8-1.9s2.6-0.7,4.2-0.7c1.6,0,2.9,0.2,3.9,0.6s1.7,0.8,2.2,1.4s0.8,1.3,1,2.2c0.1,0.5,0.2,1.5,0.2,2.9v4.2
		c0,2.9,0.1,4.8,0.2,5.6s0.4,1.5,0.8,2.2H942C941.7,167,941.5,166.3,941.4,165.4z M941.1,158.3c-1.1,0.5-2.9,0.9-5.2,1.2
		c-1.3,0.2-2.2,0.4-2.8,0.6s-1,0.6-1.2,1s-0.4,1-0.4,1.5c0,0.8,0.3,1.5,1,2.1s1.6,0.8,2.8,0.8c1.2,0,2.3-0.3,3.3-0.8
		s1.6-1.3,2.1-2.2c0.3-0.7,0.5-1.8,0.5-3.2V158.3z"/>
	<path class="st0" d="M958,158.3c0-3.5,1-6,2.9-7.7c1.6-1.4,3.6-2.1,5.9-2.1c2.6,0,4.7,0.8,6.3,2.5s2.4,4,2.4,7
		c0,2.4-0.4,4.3-1.1,5.7s-1.8,2.4-3.1,3.2s-2.9,1.1-4.5,1.1c-2.6,0-4.7-0.8-6.3-2.5S958,161.5,958,158.3z M961.3,158.3
		c0,2.4,0.5,4.2,1.6,5.4s2.4,1.8,3.9,1.8c1.6,0,2.9-0.6,3.9-1.8s1.6-3,1.6-5.5c0-2.3-0.5-4.1-1.6-5.2s-2.4-1.8-3.9-1.8
		c-1.6,0-2.9,0.6-3.9,1.8S961.3,156,961.3,158.3z"/>
</g>
<g class="st6">
	<path class="st0" d="M537,210.9v-18.7h2.8v2.6c0.6-0.9,1.4-1.6,2.3-2.2s2.1-0.8,3.3-0.8c1.4,0,2.5,0.3,3.4,0.9s1.5,1.4,1.9,2.4
		c1.5-2.2,3.4-3.3,5.8-3.3c1.9,0,3.3,0.5,4.3,1.5s1.5,2.6,1.5,4.7v12.8h-3.1v-11.8c0-1.3-0.1-2.2-0.3-2.7s-0.6-1-1.1-1.3
		s-1.2-0.5-1.9-0.5c-1.3,0-2.4,0.4-3.3,1.3s-1.3,2.3-1.3,4.2v10.8h-3.2v-12.1c0-1.4-0.3-2.5-0.8-3.2s-1.4-1.1-2.5-1.1
		c-0.9,0-1.7,0.2-2.5,0.7s-1.3,1.2-1.6,2.1s-0.5,2.2-0.5,3.9v9.7H537z"/>
	<path class="st0" d="M579.2,210.9v-2.7c-1.5,2.1-3.4,3.2-5.9,3.2c-1.1,0-2.1-0.2-3.1-0.6s-1.7-1-2.1-1.6s-0.8-1.4-1-2.3
		c-0.1-0.6-0.2-1.6-0.2-3v-11.6h3.2v10.4c0,1.7,0.1,2.8,0.2,3.3c0.2,0.8,0.6,1.5,1.3,2s1.4,0.7,2.4,0.7s1.8-0.2,2.7-0.7
		s1.4-1.1,1.8-2s0.5-2.1,0.5-3.6v-10h3.2v18.7H579.2z"/>
	<path class="st0" d="M587,210.9v-18.7h2.8v2.7c1.4-2.1,3.4-3.1,5.9-3.1c1.1,0,2.2,0.2,3.1,0.6s1.6,0.9,2.1,1.6s0.8,1.4,1,2.3
		c0.1,0.6,0.2,1.6,0.2,3.1v11.5H599v-11.4c0-1.3-0.1-2.3-0.4-2.9s-0.7-1.1-1.3-1.5s-1.4-0.6-2.2-0.6c-1.3,0-2.5,0.4-3.5,1.3
		s-1.5,2.5-1.5,4.9v10.2H587z"/>
	<path class="st0" d="M619.1,210.9v-2.4c-1.2,1.9-2.9,2.8-5.2,2.8c-1.5,0-2.9-0.4-4.1-1.2s-2.2-2-2.9-3.4s-1-3.2-1-5.1
		c0-1.9,0.3-3.6,0.9-5.1s1.6-2.7,2.8-3.5s2.6-1.2,4.2-1.2c1.1,0,2.1,0.2,3,0.7s1.6,1.1,2.1,1.9v-9.2h3.1v25.8H619.1z M609.1,201.6
		c0,2.4,0.5,4.2,1.5,5.4s2.2,1.8,3.6,1.8c1.4,0,2.6-0.6,3.5-1.7s1.5-2.9,1.5-5.2c0-2.6-0.5-4.4-1.5-5.6s-2.2-1.8-3.6-1.8
		c-1.4,0-2.6,0.6-3.5,1.7S609.1,199.1,609.1,201.6z"/>
	<path class="st0" d="M625.8,201.5c0-3.5,1-6,2.9-7.7c1.6-1.4,3.6-2.1,5.9-2.1c2.6,0,4.7,0.8,6.3,2.5s2.4,4,2.4,7
		c0,2.4-0.4,4.3-1.1,5.7s-1.8,2.4-3.1,3.2s-2.9,1.1-4.5,1.1c-2.6,0-4.7-0.8-6.3-2.5S625.8,204.7,625.8,201.5z M629.1,201.5
		c0,2.4,0.5,4.2,1.6,5.4s2.4,1.8,3.9,1.8c1.6,0,2.9-0.6,3.9-1.8s1.6-3,1.6-5.5c0-2.3-0.5-4.1-1.6-5.2s-2.4-1.8-3.9-1.8
		c-1.6,0-2.9,0.6-3.9,1.8S629.1,199.2,629.1,201.5z"/>
	<path class="st0" d="M647.9,210.9v-3.6h3.6v3.6H647.9z"/>
	<path class="st0" d="M667.5,210.9v-25.8h18.6v3h-15.2v7.9h14.3v3h-14.3v8.8h15.8v3H667.5z"/>
	<path class="st0" d="M703.2,210.9v-2.4c-1.2,1.9-2.9,2.8-5.2,2.8c-1.5,0-2.9-0.4-4.1-1.2s-2.2-2-2.9-3.4s-1-3.2-1-5.1
		c0-1.9,0.3-3.6,0.9-5.1s1.6-2.7,2.8-3.5s2.6-1.2,4.2-1.2c1.1,0,2.1,0.2,3,0.7s1.6,1.1,2.1,1.9v-9.2h3.1v25.8H703.2z M693.2,201.6
		c0,2.4,0.5,4.2,1.5,5.4s2.2,1.8,3.6,1.8c1.4,0,2.6-0.6,3.5-1.7s1.5-2.9,1.5-5.2c0-2.6-0.5-4.4-1.5-5.6s-2.2-1.8-3.6-1.8
		c-1.4,0-2.6,0.6-3.5,1.7S693.2,199.1,693.2,201.6z"/>
	<path class="st0" d="M723.3,210.9v-2.7c-1.5,2.1-3.4,3.2-5.9,3.2c-1.1,0-2.1-0.2-3.1-0.6s-1.7-1-2.1-1.6s-0.8-1.4-1-2.3
		c-0.1-0.6-0.2-1.6-0.2-3v-11.6h3.2v10.4c0,1.7,0.1,2.8,0.2,3.3c0.2,0.8,0.6,1.5,1.3,2s1.4,0.7,2.4,0.7s1.8-0.2,2.7-0.7
		s1.4-1.1,1.8-2s0.5-2.1,0.5-3.6v-10h3.2v18.7H723.3z"/>
	<path class="st0" d="M743.3,204l3.1,0.4c-0.3,2.1-1.2,3.8-2.6,5s-3.1,1.8-5.2,1.8c-2.6,0-4.6-0.8-6.2-2.5s-2.3-4.1-2.3-7.2
		c0-2,0.3-3.8,1-5.3s1.7-2.6,3-3.4s2.9-1.1,4.5-1.1c2,0,3.7,0.5,5,1.5s2.1,2.5,2.5,4.4l-3.1,0.5c-0.3-1.3-0.8-2.2-1.6-2.8
		s-1.6-0.9-2.7-0.9c-1.6,0-2.9,0.6-3.9,1.7s-1.5,3-1.5,5.4c0,2.5,0.5,4.3,1.4,5.5s2.2,1.7,3.8,1.7c1.2,0,2.3-0.4,3.1-1.1
		S743.1,205.6,743.3,204z"/>
	<path class="st0" d="M761.3,208.6c-1.2,1-2.3,1.7-3.4,2.1s-2.2,0.6-3.5,0.6c-2.1,0-3.6-0.5-4.7-1.5s-1.7-2.3-1.7-3.8
		c0-0.9,0.2-1.7,0.6-2.5s1-1.4,1.6-1.8s1.4-0.8,2.3-1c0.6-0.2,1.6-0.3,2.8-0.5c2.6-0.3,4.4-0.7,5.6-1.1c0-0.4,0-0.7,0-0.8
		c0-1.3-0.3-2.2-0.9-2.7c-0.8-0.7-2-1.1-3.6-1.1c-1.5,0-2.6,0.3-3.3,0.8s-1.2,1.4-1.6,2.8l-3.1-0.4c0.3-1.3,0.7-2.4,1.4-3.2
		s1.6-1.4,2.8-1.9s2.6-0.7,4.2-0.7c1.6,0,2.9,0.2,3.9,0.6s1.7,0.8,2.2,1.4s0.8,1.3,1,2.2c0.1,0.5,0.2,1.5,0.2,2.9v4.2
		c0,2.9,0.1,4.8,0.2,5.6s0.4,1.5,0.8,2.2h-3.3C761.6,210.2,761.4,209.5,761.3,208.6z M761,201.5c-1.1,0.5-2.9,0.9-5.2,1.2
		c-1.3,0.2-2.2,0.4-2.8,0.6s-1,0.6-1.2,1s-0.4,1-0.4,1.5c0,0.8,0.3,1.5,1,2.1s1.6,0.8,2.8,0.8c1.2,0,2.3-0.3,3.3-0.8
		s1.6-1.3,2.1-2.2c0.3-0.7,0.5-1.8,0.5-3.2V201.5z"/>
	<path class="st0" d="M781.3,204l3.1,0.4c-0.3,2.1-1.2,3.8-2.6,5s-3.1,1.8-5.2,1.8c-2.6,0-4.6-0.8-6.2-2.5s-2.3-4.1-2.3-7.2
		c0-2,0.3-3.8,1-5.3s1.7-2.6,3-3.4s2.9-1.1,4.5-1.1c2,0,3.7,0.5,5,1.5s2.1,2.5,2.5,4.4l-3.1,0.5c-0.3-1.3-0.8-2.2-1.6-2.8
		s-1.6-0.9-2.7-0.9c-1.6,0-2.9,0.6-3.9,1.7s-1.5,3-1.5,5.4c0,2.5,0.5,4.3,1.4,5.5s2.2,1.7,3.8,1.7c1.2,0,2.3-0.4,3.1-1.1
		S781.1,205.6,781.3,204z M774,213.2l0.9-3.1h2.4l-0.6,1.9c1,0.1,1.7,0.4,2.2,0.9s0.8,1.1,0.8,1.7c0,0.9-0.4,1.7-1.3,2.3
		s-2.1,1-3.8,1c-1,0-1.8-0.1-2.5-0.2l0.2-2.1c0.8,0,1.3,0.1,1.7,0.1c1.1,0,1.9-0.2,2.3-0.5c0.3-0.2,0.5-0.5,0.5-0.9
		c0-0.2-0.1-0.4-0.2-0.6s-0.4-0.3-0.7-0.4S774.8,213.2,774,213.2z"/>
	<path class="st0" d="M799.3,208.6c-1.2,1-2.3,1.7-3.4,2.1s-2.2,0.6-3.5,0.6c-2.1,0-3.6-0.5-4.7-1.5s-1.7-2.3-1.7-3.8
		c0-0.9,0.2-1.7,0.6-2.5s1-1.4,1.6-1.8s1.4-0.8,2.3-1c0.6-0.2,1.6-0.3,2.8-0.5c2.6-0.3,4.4-0.7,5.6-1.1c0-0.4,0-0.7,0-0.8
		c0-1.3-0.3-2.2-0.9-2.7c-0.8-0.7-2-1.1-3.6-1.1c-1.5,0-2.6,0.3-3.3,0.8s-1.2,1.4-1.6,2.8l-3.1-0.4c0.3-1.3,0.7-2.4,1.4-3.2
		s1.6-1.4,2.8-1.9s2.6-0.7,4.2-0.7c1.6,0,2.9,0.2,3.9,0.6s1.7,0.8,2.2,1.4s0.8,1.3,1,2.2c0.1,0.5,0.2,1.5,0.2,2.9v4.2
		c0,2.9,0.1,4.8,0.2,5.6s0.4,1.5,0.8,2.2h-3.3C799.6,210.2,799.4,209.5,799.3,208.6z M788.8,189.5c0-1.2,0.3-2.2,1-2.9
		c0.7-0.7,1.5-1.1,2.6-1.1c0.7,0,1.7,0.3,3,0.9c0.7,0.4,1.2,0.5,1.7,0.5c0.4,0,0.7-0.1,0.9-0.3s0.3-0.6,0.4-1.2h2.3
		c0,1.3-0.4,2.3-1,3s-1.5,1-2.4,1c-0.7,0-1.7-0.3-2.9-1c-0.8-0.4-1.4-0.6-1.7-0.6c-0.4,0-0.7,0.1-1,0.4c-0.3,0.3-0.4,0.7-0.4,1.2
		H788.8z M799,201.5c-1.1,0.5-2.9,0.9-5.2,1.2c-1.3,0.2-2.2,0.4-2.8,0.6s-1,0.6-1.2,1s-0.4,1-0.4,1.5c0,0.8,0.3,1.5,1,2.1
		s1.6,0.8,2.8,0.8c1.2,0,2.3-0.3,3.3-0.8s1.6-1.3,2.1-2.2c0.3-0.7,0.5-1.8,0.5-3.2V201.5z"/>
	<path class="st0" d="M806,201.5c0-3.5,1-6,2.9-7.7c1.6-1.4,3.6-2.1,5.9-2.1c2.6,0,4.7,0.8,6.3,2.5s2.4,4,2.4,7
		c0,2.4-0.4,4.3-1.1,5.7s-1.8,2.4-3.1,3.2s-2.9,1.1-4.5,1.1c-2.6,0-4.7-0.8-6.3-2.5S806,204.7,806,201.5z M809.2,201.5
		c0,2.4,0.5,4.2,1.6,5.4s2.4,1.8,3.9,1.8c1.6,0,2.9-0.6,3.9-1.8s1.6-3,1.6-5.5c0-2.3-0.5-4.1-1.6-5.2s-2.4-1.8-3.9-1.8
		c-1.6,0-2.9,0.6-3.9,1.8S809.2,199.2,809.2,201.5z"/>
	<path class="st0" d="M837.2,210.9v-18.7h2.8v2.6c0.6-0.9,1.4-1.6,2.3-2.2s2.1-0.8,3.3-0.8c1.4,0,2.5,0.3,3.4,0.9s1.5,1.4,1.9,2.4
		c1.5-2.2,3.4-3.3,5.8-3.3c1.9,0,3.3,0.5,4.3,1.5s1.5,2.6,1.5,4.7v12.8h-3.1v-11.8c0-1.3-0.1-2.2-0.3-2.7s-0.6-1-1.1-1.3
		s-1.2-0.5-1.9-0.5c-1.3,0-2.4,0.4-3.3,1.3s-1.3,2.3-1.3,4.2v10.8h-3.2v-12.1c0-1.4-0.3-2.5-0.8-3.2s-1.4-1.1-2.5-1.1
		c-0.9,0-1.7,0.2-2.5,0.7s-1.3,1.2-1.6,2.1s-0.5,2.2-0.5,3.9v9.7H837.2z"/>
	<path class="st0" d="M879.4,210.9v-2.7c-1.5,2.1-3.4,3.2-5.9,3.2c-1.1,0-2.1-0.2-3.1-0.6s-1.7-1-2.1-1.6s-0.8-1.4-1-2.3
		c-0.1-0.6-0.2-1.6-0.2-3v-11.6h3.2v10.4c0,1.7,0.1,2.8,0.2,3.3c0.2,0.8,0.6,1.5,1.3,2s1.4,0.7,2.4,0.7s1.8-0.2,2.7-0.7
		s1.4-1.1,1.8-2s0.5-2.1,0.5-3.6v-10h3.2v18.7H879.4z"/>
	<path class="st0" d="M899.3,210.9v-2.4c-1.2,1.9-2.9,2.8-5.2,2.8c-1.5,0-2.9-0.4-4.1-1.2s-2.2-2-2.9-3.4s-1-3.2-1-5.1
		c0-1.9,0.3-3.6,0.9-5.1s1.6-2.7,2.8-3.5s2.6-1.2,4.2-1.2c1.1,0,2.1,0.2,3,0.7s1.6,1.1,2.1,1.9v-9.2h3.1v25.8H899.3z M889.3,201.6
		c0,2.4,0.5,4.2,1.5,5.4s2.2,1.8,3.6,1.8c1.4,0,2.6-0.6,3.5-1.7s1.5-2.9,1.5-5.2c0-2.6-0.5-4.4-1.5-5.6s-2.2-1.8-3.6-1.8
		c-1.4,0-2.6,0.6-3.5,1.7S889.3,199.1,889.3,201.6z"/>
	<path class="st0" d="M919.4,208.6c-1.2,1-2.3,1.7-3.4,2.1s-2.2,0.6-3.5,0.6c-2.1,0-3.6-0.5-4.7-1.5s-1.7-2.3-1.7-3.8
		c0-0.9,0.2-1.7,0.6-2.5s1-1.4,1.6-1.8s1.4-0.8,2.3-1c0.6-0.2,1.6-0.3,2.8-0.5c2.6-0.3,4.4-0.7,5.6-1.1c0-0.4,0-0.7,0-0.8
		c0-1.3-0.3-2.2-0.9-2.7c-0.8-0.7-2-1.1-3.6-1.1c-1.5,0-2.6,0.3-3.3,0.8s-1.2,1.4-1.6,2.8l-3.1-0.4c0.3-1.3,0.7-2.4,1.4-3.2
		s1.6-1.4,2.8-1.9s2.6-0.7,4.2-0.7c1.6,0,2.9,0.2,3.9,0.6s1.7,0.8,2.2,1.4s0.8,1.3,1,2.2c0.1,0.5,0.2,1.5,0.2,2.9v4.2
		c0,2.9,0.1,4.8,0.2,5.6s0.4,1.5,0.8,2.2H920C919.7,210.2,919.5,209.5,919.4,208.6z M919.1,201.5c-1.1,0.5-2.9,0.9-5.2,1.2
		c-1.3,0.2-2.2,0.4-2.8,0.6s-1,0.6-1.2,1s-0.4,1-0.4,1.5c0,0.8,0.3,1.5,1,2.1s1.6,0.8,2.8,0.8c1.2,0,2.3-0.3,3.3-0.8
		s1.6-1.3,2.1-2.2c0.3-0.7,0.5-1.8,0.5-3.2V201.5z"/>
	<path class="st0" d="M949.4,208.6c-1.2,1-2.3,1.7-3.4,2.1s-2.2,0.6-3.5,0.6c-2.1,0-3.6-0.5-4.7-1.5s-1.7-2.3-1.7-3.8
		c0-0.9,0.2-1.7,0.6-2.5s1-1.4,1.6-1.8s1.4-0.8,2.3-1c0.6-0.2,1.6-0.3,2.8-0.5c2.6-0.3,4.4-0.7,5.6-1.1c0-0.4,0-0.7,0-0.8
		c0-1.3-0.3-2.2-0.9-2.7c-0.8-0.7-2-1.1-3.6-1.1c-1.5,0-2.6,0.3-3.3,0.8s-1.2,1.4-1.6,2.8l-3.1-0.4c0.3-1.3,0.7-2.4,1.4-3.2
		s1.6-1.4,2.8-1.9s2.6-0.7,4.2-0.7c1.6,0,2.9,0.2,3.9,0.6s1.7,0.8,2.2,1.4s0.8,1.3,1,2.2c0.1,0.5,0.2,1.5,0.2,2.9v4.2
		c0,2.9,0.1,4.8,0.2,5.6s0.4,1.5,0.8,2.2H950C949.7,210.2,949.5,209.5,949.4,208.6z M949.1,201.5c-1.1,0.5-2.9,0.9-5.2,1.2
		c-1.3,0.2-2.2,0.4-2.8,0.6s-1,0.6-1.2,1s-0.4,1-0.4,1.5c0,0.8,0.3,1.5,1,2.1s1.6,0.8,2.8,0.8c1.2,0,2.3-0.3,3.3-0.8
		s1.6-1.3,2.1-2.2c0.3-0.7,0.5-1.8,0.5-3.2V201.5z"/>
	<path class="st0" d="M956,205.3l3.1-0.5c0.2,1.3,0.7,2.2,1.5,2.9s1.9,1,3.4,1c1.5,0,2.5-0.3,3.2-0.9s1.1-1.3,1.1-2.1
		c0-0.7-0.3-1.3-0.9-1.7c-0.4-0.3-1.5-0.6-3.2-1.1c-2.3-0.6-3.9-1.1-4.8-1.5s-1.6-1-2-1.8s-0.7-1.6-0.7-2.5c0-0.8,0.2-1.6,0.6-2.3
		s0.9-1.3,1.6-1.8c0.5-0.4,1.2-0.7,2-0.9s1.8-0.4,2.7-0.4c1.5,0,2.8,0.2,3.9,0.6s1.9,1,2.5,1.7s0.9,1.7,1.1,2.9l-3.1,0.4
		c-0.1-1-0.5-1.7-1.2-2.2s-1.6-0.8-2.9-0.8c-1.5,0-2.5,0.2-3.1,0.7s-0.9,1-0.9,1.7c0,0.4,0.1,0.8,0.4,1.1c0.3,0.3,0.7,0.6,1.2,0.8
		c0.3,0.1,1.2,0.4,2.8,0.8c2.2,0.6,3.8,1.1,4.7,1.5s1.6,0.9,2.1,1.7s0.8,1.6,0.8,2.7c0,1.1-0.3,2-0.9,3s-1.5,1.7-2.7,2.2
		s-2.5,0.8-3.9,0.8c-2.4,0-4.3-0.5-5.5-1.5S956.3,207.3,956,205.3z"/>
</g>
<g class="st6">
	<path class="st0" d="M537,261.2v-25.8h2.9v2.4c0.7-0.9,1.4-1.7,2.3-2.1s1.9-0.7,3.1-0.7c1.6,0,3,0.4,4.2,1.2s2.1,2,2.8,3.5
		s0.9,3.1,0.9,4.9c0,1.9-0.3,3.6-1,5.2s-1.7,2.7-3,3.5s-2.7,1.2-4.1,1.2c-1.1,0-2-0.2-2.8-0.7s-1.5-1-2.1-1.7v9.1H537z M539.8,244.9
		c0,2.4,0.5,4.2,1.5,5.3s2.2,1.7,3.5,1.7c1.4,0,2.6-0.6,3.6-1.8s1.5-3,1.5-5.5c0-2.4-0.5-4.2-1.5-5.3s-2.1-1.8-3.5-1.8
		c-1.3,0-2.5,0.6-3.6,1.9S539.8,242.4,539.8,244.9z"/>
	<path class="st0" d="M569.8,248.1l3.3,0.4c-0.5,1.9-1.5,3.4-2.9,4.4s-3.2,1.6-5.3,1.6c-2.7,0-4.9-0.8-6.5-2.5s-2.4-4-2.4-7.1
		c0-3.1,0.8-5.6,2.4-7.3s3.7-2.6,6.3-2.6c2.5,0,4.5,0.8,6.1,2.5s2.4,4.1,2.4,7.2c0,0.2,0,0.5,0,0.8h-13.9c0.1,2.1,0.7,3.6,1.7,4.7
		s2.3,1.6,3.9,1.6c1.2,0,2.2-0.3,3-0.9S569.3,249.4,569.8,248.1z M559.4,243h10.4c-0.1-1.6-0.5-2.7-1.2-3.5c-1-1.2-2.3-1.8-3.9-1.8
		c-1.5,0-2.7,0.5-3.7,1.5C560,240,559.5,241.3,559.4,243z"/>
	<path class="st0" d="M575.8,248.5l3.1-0.5c0.2,1.3,0.7,2.2,1.5,2.9s1.9,1,3.4,1c1.5,0,2.5-0.3,3.2-0.9s1.1-1.3,1.1-2.1
		c0-0.7-0.3-1.3-0.9-1.7c-0.4-0.3-1.5-0.6-3.2-1.1c-2.3-0.6-3.9-1.1-4.8-1.5s-1.6-1-2-1.8s-0.7-1.6-0.7-2.5c0-0.8,0.2-1.6,0.6-2.3
		s0.9-1.3,1.6-1.8c0.5-0.4,1.2-0.7,2-0.9s1.8-0.4,2.7-0.4c1.5,0,2.8,0.2,3.9,0.6s1.9,1,2.5,1.7s0.9,1.7,1.1,2.9l-3.1,0.4
		c-0.1-1-0.5-1.7-1.2-2.2s-1.6-0.8-2.9-0.8c-1.5,0-2.5,0.2-3.1,0.7s-0.9,1-0.9,1.7c0,0.4,0.1,0.8,0.4,1.1c0.3,0.3,0.7,0.6,1.2,0.8
		c0.3,0.1,1.2,0.4,2.8,0.8c2.2,0.6,3.8,1.1,4.7,1.5s1.6,0.9,2.1,1.7s0.8,1.6,0.8,2.7c0,1.1-0.3,2-0.9,3s-1.5,1.7-2.7,2.2
		s-2.5,0.8-3.9,0.8c-2.4,0-4.3-0.5-5.5-1.5S576.1,250.5,575.8,248.5z"/>
	<path class="st0" d="M593.8,248.5l3.1-0.5c0.2,1.3,0.7,2.2,1.5,2.9s1.9,1,3.4,1c1.5,0,2.5-0.3,3.2-0.9s1.1-1.3,1.1-2.1
		c0-0.7-0.3-1.3-0.9-1.7c-0.4-0.3-1.5-0.6-3.2-1.1c-2.3-0.6-3.9-1.1-4.8-1.5s-1.6-1-2-1.8s-0.7-1.6-0.7-2.5c0-0.8,0.2-1.6,0.6-2.3
		s0.9-1.3,1.6-1.8c0.5-0.4,1.2-0.7,2-0.9s1.8-0.4,2.7-0.4c1.5,0,2.8,0.2,3.9,0.6s1.9,1,2.5,1.7s0.9,1.7,1.1,2.9l-3.1,0.4
		c-0.1-1-0.5-1.7-1.2-2.2s-1.6-0.8-2.9-0.8c-1.5,0-2.5,0.2-3.1,0.7s-0.9,1-0.9,1.7c0,0.4,0.1,0.8,0.4,1.1c0.3,0.3,0.7,0.6,1.2,0.8
		c0.3,0.1,1.2,0.4,2.8,0.8c2.2,0.6,3.8,1.1,4.7,1.5s1.6,0.9,2.1,1.7s0.8,1.6,0.8,2.7c0,1.1-0.3,2-0.9,3s-1.5,1.7-2.7,2.2
		s-2.5,0.8-3.9,0.8c-2.4,0-4.3-0.5-5.5-1.5S594.1,250.5,593.8,248.5z"/>
	<path class="st0" d="M611.8,244.7c0-3.5,1-6,2.9-7.7c1.6-1.4,3.6-2.1,5.9-2.1c2.6,0,4.7,0.8,6.3,2.5s2.4,4,2.4,7
		c0,2.4-0.4,4.3-1.1,5.7s-1.8,2.4-3.1,3.2s-2.9,1.1-4.5,1.1c-2.6,0-4.7-0.8-6.3-2.5S611.8,247.9,611.8,244.7z M615.1,244.7
		c0,2.4,0.5,4.2,1.6,5.4s2.4,1.8,3.9,1.8c1.6,0,2.9-0.6,3.9-1.8s1.6-3,1.6-5.5c0-2.3-0.5-4.1-1.6-5.2s-2.4-1.8-3.9-1.8
		c-1.6,0-2.9,0.6-3.9,1.8S615.1,242.4,615.1,244.7z"/>
	<path class="st0" d="M645.2,251.8c-1.2,1-2.3,1.7-3.4,2.1s-2.2,0.6-3.5,0.6c-2.1,0-3.6-0.5-4.7-1.5s-1.7-2.3-1.7-3.8
		c0-0.9,0.2-1.7,0.6-2.5s1-1.4,1.6-1.8s1.4-0.8,2.3-1c0.6-0.2,1.6-0.3,2.8-0.5c2.6-0.3,4.4-0.7,5.6-1.1c0-0.4,0-0.7,0-0.8
		c0-1.3-0.3-2.2-0.9-2.7c-0.8-0.7-2-1.1-3.6-1.1c-1.5,0-2.6,0.3-3.3,0.8s-1.2,1.4-1.6,2.8l-3.1-0.4c0.3-1.3,0.7-2.4,1.4-3.2
		s1.6-1.4,2.8-1.9s2.6-0.7,4.2-0.7c1.6,0,2.9,0.2,3.9,0.6s1.7,0.8,2.2,1.4s0.8,1.3,1,2.2c0.1,0.5,0.2,1.5,0.2,2.9v4.2
		c0,2.9,0.1,4.8,0.2,5.6s0.4,1.5,0.8,2.2h-3.3C645.5,253.4,645.3,252.7,645.2,251.8z M645,244.7c-1.1,0.5-2.9,0.9-5.2,1.2
		c-1.3,0.2-2.2,0.4-2.8,0.6s-1,0.6-1.2,1s-0.4,1-0.4,1.5c0,0.8,0.3,1.5,1,2.1s1.6,0.8,2.8,0.8c1.2,0,2.3-0.3,3.3-0.8
		s1.6-1.3,2.1-2.2c0.3-0.7,0.5-1.8,0.5-3.2V244.7z"/>
	<path class="st0" d="M651.8,248.5l3.1-0.5c0.2,1.3,0.7,2.2,1.5,2.9s1.9,1,3.4,1c1.5,0,2.5-0.3,3.2-0.9s1.1-1.3,1.1-2.1
		c0-0.7-0.3-1.3-0.9-1.7c-0.4-0.3-1.5-0.6-3.2-1.1c-2.3-0.6-3.9-1.1-4.8-1.5s-1.6-1-2-1.8s-0.7-1.6-0.7-2.5c0-0.8,0.2-1.6,0.6-2.3
		s0.9-1.3,1.6-1.8c0.5-0.4,1.2-0.7,2-0.9s1.8-0.4,2.7-0.4c1.5,0,2.8,0.2,3.9,0.6s1.9,1,2.5,1.7s0.9,1.7,1.1,2.9l-3.1,0.4
		c-0.1-1-0.5-1.7-1.2-2.2s-1.6-0.8-2.9-0.8c-1.5,0-2.5,0.2-3.1,0.7s-0.9,1-0.9,1.7c0,0.4,0.1,0.8,0.4,1.1c0.3,0.3,0.7,0.6,1.2,0.8
		c0.3,0.1,1.2,0.4,2.8,0.8c2.2,0.6,3.8,1.1,4.7,1.5s1.6,0.9,2.1,1.7s0.8,1.6,0.8,2.7c0,1.1-0.3,2-0.9,3s-1.5,1.7-2.7,2.2
		s-2.5,0.8-3.9,0.8c-2.4,0-4.3-0.5-5.5-1.5S652.1,250.5,651.8,248.5z"/>
	<path class="st0" d="M672,254.1v-3.6h3.6v3.6H672z"/>
	<path class="st0" d="M691.5,254.1v-25.8h9.7c1.7,0,3,0.1,3.9,0.2c1.3,0.2,2.3,0.6,3.2,1.2s1.5,1.4,2.1,2.5s0.8,2.2,0.8,3.5
		c0,2.2-0.7,4-2.1,5.6s-3.9,2.3-7.6,2.3h-6.6v10.5H691.5z M694.9,240.6h6.7c2.2,0,3.8-0.4,4.7-1.2s1.4-2,1.4-3.5
		c0-1.1-0.3-2-0.8-2.8s-1.3-1.3-2.2-1.5c-0.6-0.2-1.6-0.2-3.2-0.2h-6.6V240.6z"/>
	<path class="st0" d="M727.9,248.1l3.3,0.4c-0.5,1.9-1.5,3.4-2.9,4.4s-3.2,1.6-5.3,1.6c-2.7,0-4.9-0.8-6.5-2.5s-2.4-4-2.4-7.1
		c0-3.1,0.8-5.6,2.4-7.3s3.7-2.6,6.3-2.6c2.5,0,4.5,0.8,6.1,2.5s2.4,4.1,2.4,7.2c0,0.2,0,0.5,0,0.8h-13.9c0.1,2.1,0.7,3.6,1.7,4.7
		s2.3,1.6,3.9,1.6c1.2,0,2.2-0.3,3-0.9S727.4,249.4,727.9,248.1z M717.5,243h10.4c-0.1-1.6-0.5-2.7-1.2-3.5c-1-1.2-2.3-1.8-3.9-1.8
		c-1.5,0-2.7,0.5-3.7,1.5S717.6,241.3,717.5,243z"/>
	<path class="st0" d="M733.8,248.5l3.1-0.5c0.2,1.3,0.7,2.2,1.5,2.9s1.9,1,3.4,1c1.5,0,2.5-0.3,3.2-0.9s1.1-1.3,1.1-2.1
		c0-0.7-0.3-1.3-0.9-1.7c-0.4-0.3-1.5-0.6-3.2-1.1c-2.3-0.6-3.9-1.1-4.8-1.5s-1.6-1-2-1.8s-0.7-1.6-0.7-2.5c0-0.8,0.2-1.6,0.6-2.3
		s0.9-1.3,1.6-1.8c0.5-0.4,1.2-0.7,2-0.9s1.8-0.4,2.7-0.4c1.5,0,2.8,0.2,3.9,0.6s1.9,1,2.5,1.7s0.9,1.7,1.1,2.9l-3.1,0.4
		c-0.1-1-0.5-1.7-1.2-2.2s-1.6-0.8-2.9-0.8c-1.5,0-2.5,0.2-3.1,0.7s-0.9,1-0.9,1.7c0,0.4,0.1,0.8,0.4,1.1c0.3,0.3,0.7,0.6,1.2,0.8
		c0.3,0.1,1.2,0.4,2.8,0.8c2.2,0.6,3.8,1.1,4.7,1.5s1.6,0.9,2.1,1.7s0.8,1.6,0.8,2.7c0,1.1-0.3,2-0.9,3s-1.5,1.7-2.7,2.2
		s-2.5,0.8-3.9,0.8c-2.4,0-4.3-0.5-5.5-1.5S734.2,250.5,733.8,248.5z"/>
	<path class="st0" d="M751.8,248.5l3.1-0.5c0.2,1.3,0.7,2.2,1.5,2.9s1.9,1,3.4,1c1.5,0,2.5-0.3,3.2-0.9s1.1-1.3,1.1-2.1
		c0-0.7-0.3-1.3-0.9-1.7c-0.4-0.3-1.5-0.6-3.2-1.1c-2.3-0.6-3.9-1.1-4.8-1.5s-1.6-1-2-1.8s-0.7-1.6-0.7-2.5c0-0.8,0.2-1.6,0.6-2.3
		s0.9-1.3,1.6-1.8c0.5-0.4,1.2-0.7,2-0.9s1.8-0.4,2.7-0.4c1.5,0,2.8,0.2,3.9,0.6s1.9,1,2.5,1.7s0.9,1.7,1.1,2.9l-3.1,0.4
		c-0.1-1-0.5-1.7-1.2-2.2s-1.6-0.8-2.9-0.8c-1.5,0-2.5,0.2-3.1,0.7s-0.9,1-0.9,1.7c0,0.4,0.1,0.8,0.4,1.1c0.3,0.3,0.7,0.6,1.2,0.8
		c0.3,0.1,1.2,0.4,2.8,0.8c2.2,0.6,3.8,1.1,4.7,1.5s1.6,0.9,2.1,1.7s0.8,1.6,0.8,2.7c0,1.1-0.3,2-0.9,3s-1.5,1.7-2.7,2.2
		s-2.5,0.8-3.9,0.8c-2.4,0-4.3-0.5-5.5-1.5S752.2,250.5,751.8,248.5z"/>
	<path class="st0" d="M769.9,244.7c0-3.5,1-6,2.9-7.7c1.6-1.4,3.6-2.1,5.9-2.1c2.6,0,4.7,0.8,6.3,2.5s2.4,4,2.4,7
		c0,2.4-0.4,4.3-1.1,5.7s-1.8,2.4-3.1,3.2s-2.9,1.1-4.5,1.1c-2.6,0-4.7-0.8-6.3-2.5S769.9,247.9,769.9,244.7z M773.2,244.7
		c0,2.4,0.5,4.2,1.6,5.4s2.4,1.8,3.9,1.8c1.6,0,2.9-0.6,3.9-1.8s1.6-3,1.6-5.5c0-2.3-0.5-4.1-1.6-5.2s-2.4-1.8-3.9-1.8
		c-1.6,0-2.9,0.6-3.9,1.8S773.2,242.4,773.2,244.7z"/>
	<path class="st0" d="M803.3,251.8c-1.2,1-2.3,1.7-3.4,2.1s-2.2,0.6-3.5,0.6c-2.1,0-3.6-0.5-4.7-1.5s-1.7-2.3-1.7-3.8
		c0-0.9,0.2-1.7,0.6-2.5s1-1.4,1.6-1.8s1.4-0.8,2.3-1c0.6-0.2,1.6-0.3,2.8-0.5c2.6-0.3,4.4-0.7,5.6-1.1c0-0.4,0-0.7,0-0.8
		c0-1.3-0.3-2.2-0.9-2.7c-0.8-0.7-2-1.1-3.6-1.1c-1.5,0-2.6,0.3-3.3,0.8s-1.2,1.4-1.6,2.8l-3.1-0.4c0.3-1.3,0.7-2.4,1.4-3.2
		s1.6-1.4,2.8-1.9s2.6-0.7,4.2-0.7c1.6,0,2.9,0.2,3.9,0.6s1.7,0.8,2.2,1.4s0.8,1.3,1,2.2c0.1,0.5,0.2,1.5,0.2,2.9v4.2
		c0,2.9,0.1,4.8,0.2,5.6s0.4,1.5,0.8,2.2h-3.3C803.6,253.4,803.4,252.7,803.3,251.8z M803,244.7c-1.1,0.5-2.9,0.9-5.2,1.2
		c-1.3,0.2-2.2,0.4-2.8,0.6s-1,0.6-1.2,1s-0.4,1-0.4,1.5c0,0.8,0.3,1.5,1,2.1s1.6,0.8,2.8,0.8c1.2,0,2.3-0.3,3.3-0.8
		s1.6-1.3,2.1-2.2c0.3-0.7,0.5-1.8,0.5-3.2V244.7z"/>
	<path class="st0" d="M809.9,248.5l3.1-0.5c0.2,1.3,0.7,2.2,1.5,2.9s1.9,1,3.4,1c1.5,0,2.5-0.3,3.2-0.9s1.1-1.3,1.1-2.1
		c0-0.7-0.3-1.3-0.9-1.7c-0.4-0.3-1.5-0.6-3.2-1.1c-2.3-0.6-3.9-1.1-4.8-1.5s-1.6-1-2-1.8s-0.7-1.6-0.7-2.5c0-0.8,0.2-1.6,0.6-2.3
		s0.9-1.3,1.6-1.8c0.5-0.4,1.2-0.7,2-0.9s1.8-0.4,2.7-0.4c1.5,0,2.8,0.2,3.9,0.6s1.9,1,2.5,1.7s0.9,1.7,1.1,2.9l-3.1,0.4
		c-0.1-1-0.5-1.7-1.2-2.2s-1.6-0.8-2.9-0.8c-1.5,0-2.5,0.2-3.1,0.7s-0.9,1-0.9,1.7c0,0.4,0.1,0.8,0.4,1.1c0.3,0.3,0.7,0.6,1.2,0.8
		c0.3,0.1,1.2,0.4,2.8,0.8c2.2,0.6,3.8,1.1,4.7,1.5s1.6,0.9,2.1,1.7s0.8,1.6,0.8,2.7c0,1.1-0.3,2-0.9,3s-1.5,1.7-2.7,2.2
		s-2.5,0.8-3.9,0.8c-2.4,0-4.3-0.5-5.5-1.5S810.2,250.5,809.9,248.5z"/>
	<path class="st0" d="M846,251.2l0.5,2.8c-0.9,0.2-1.7,0.3-2.4,0.3c-1.1,0-2-0.2-2.7-0.5s-1.1-0.8-1.3-1.4s-0.4-1.8-0.4-3.7v-10.7
		h-2.3v-2.5h2.3v-4.6l3.1-1.9v6.5h3.2v2.5h-3.2v10.9c0,0.9,0.1,1.5,0.2,1.7s0.3,0.5,0.5,0.6s0.6,0.2,1.1,0.2
		C845,251.4,845.5,251.3,846,251.2z"/>
	<path class="st0" d="M849.1,254.1v-18.7h2.8v2.8c0.7-1.3,1.4-2.2,2-2.6s1.3-0.6,2-0.6c1.1,0,2.2,0.3,3.3,1l-1.1,2.9
		c-0.8-0.5-1.5-0.7-2.3-0.7c-0.7,0-1.3,0.2-1.9,0.6s-0.9,1-1.2,1.7c-0.4,1.1-0.5,2.4-0.5,3.7v9.8H849.1z"/>
	<path class="st0" d="M873.3,251.8c-1.2,1-2.3,1.7-3.4,2.1s-2.2,0.6-3.5,0.6c-2.1,0-3.6-0.5-4.7-1.5s-1.7-2.3-1.7-3.8
		c0-0.9,0.2-1.7,0.6-2.5s1-1.4,1.6-1.8s1.4-0.8,2.3-1c0.6-0.2,1.6-0.3,2.8-0.5c2.6-0.3,4.4-0.7,5.6-1.1c0-0.4,0-0.7,0-0.8
		c0-1.3-0.3-2.2-0.9-2.7c-0.8-0.7-2-1.1-3.6-1.1c-1.5,0-2.6,0.3-3.3,0.8s-1.2,1.4-1.6,2.8l-3.1-0.4c0.3-1.3,0.7-2.4,1.4-3.2
		s1.6-1.4,2.8-1.9s2.6-0.7,4.2-0.7c1.6,0,2.9,0.2,3.9,0.6s1.7,0.8,2.2,1.4s0.8,1.3,1,2.2c0.1,0.5,0.2,1.5,0.2,2.9v4.2
		c0,2.9,0.1,4.8,0.2,5.6s0.4,1.5,0.8,2.2h-3.3C873.6,253.4,873.4,252.7,873.3,251.8z M873,244.7c-1.1,0.5-2.9,0.9-5.2,1.2
		c-1.3,0.2-2.2,0.4-2.8,0.6s-1,0.6-1.2,1s-0.4,1-0.4,1.5c0,0.8,0.3,1.5,1,2.1s1.6,0.8,2.8,0.8c1.2,0,2.3-0.3,3.3-0.8
		s1.6-1.3,2.1-2.2c0.3-0.7,0.5-1.8,0.5-3.2V244.7z"/>
	<path class="st0" d="M881.2,254.1v-18.7h2.8v2.7c1.4-2.1,3.4-3.1,5.9-3.1c1.1,0,2.2,0.2,3.1,0.6s1.6,0.9,2.1,1.6s0.8,1.4,1,2.3
		c0.1,0.6,0.2,1.6,0.2,3.1v11.5h-3.2v-11.4c0-1.3-0.1-2.3-0.4-2.9s-0.7-1.1-1.3-1.5s-1.4-0.6-2.2-0.6c-1.3,0-2.5,0.4-3.5,1.3
		s-1.5,2.5-1.5,4.9v10.2H881.2z"/>
	<path class="st0" d="M899.9,248.5l3.1-0.5c0.2,1.3,0.7,2.2,1.5,2.9s1.9,1,3.4,1c1.5,0,2.5-0.3,3.2-0.9s1.1-1.3,1.1-2.1
		c0-0.7-0.3-1.3-0.9-1.7c-0.4-0.3-1.5-0.6-3.2-1.1c-2.3-0.6-3.9-1.1-4.8-1.5s-1.6-1-2-1.8s-0.7-1.6-0.7-2.5c0-0.8,0.2-1.6,0.6-2.3
		s0.9-1.3,1.6-1.8c0.5-0.4,1.2-0.7,2-0.9s1.8-0.4,2.7-0.4c1.5,0,2.8,0.2,3.9,0.6s1.9,1,2.5,1.7s0.9,1.7,1.1,2.9l-3.1,0.4
		c-0.1-1-0.5-1.7-1.2-2.2s-1.6-0.8-2.9-0.8c-1.5,0-2.5,0.2-3.1,0.7s-0.9,1-0.9,1.7c0,0.4,0.1,0.8,0.4,1.1c0.3,0.3,0.7,0.6,1.2,0.8
		c0.3,0.1,1.2,0.4,2.8,0.8c2.2,0.6,3.8,1.1,4.7,1.5s1.6,0.9,2.1,1.7s0.8,1.6,0.8,2.7c0,1.1-0.3,2-0.9,3s-1.5,1.7-2.7,2.2
		s-2.5,0.8-3.9,0.8c-2.4,0-4.3-0.5-5.5-1.5S900.3,250.5,899.9,248.5z"/>
	<path class="st0" d="M919.9,254.1v-16.2h-2.8v-2.5h2.8v-2c0-1.3,0.1-2.2,0.3-2.8c0.3-0.8,0.8-1.5,1.6-2s1.8-0.8,3.2-0.8
		c0.9,0,1.9,0.1,3,0.3l-0.5,2.8c-0.7-0.1-1.3-0.2-1.9-0.2c-1,0-1.6,0.2-2,0.6s-0.6,1.2-0.6,2.3v1.7h3.6v2.5h-3.6v16.2H919.9z"/>
	<path class="st0" d="M928,244.7c0-3.5,1-6,2.9-7.7c1.6-1.4,3.6-2.1,5.9-2.1c2.6,0,4.7,0.8,6.3,2.5s2.4,4,2.4,7
		c0,2.4-0.4,4.3-1.1,5.7s-1.8,2.4-3.1,3.2s-2.9,1.1-4.5,1.1c-2.6,0-4.7-0.8-6.3-2.5S928,247.9,928,244.7z M931.2,244.7
		c0,2.4,0.5,4.2,1.6,5.4s2.4,1.8,3.9,1.8c1.6,0,2.9-0.6,3.9-1.8s1.6-3,1.6-5.5c0-2.3-0.5-4.1-1.6-5.2s-2.4-1.8-3.9-1.8
		c-1.6,0-2.9,0.6-3.9,1.8S931.2,242.4,931.2,244.7z"/>
	<path class="st0" d="M949.2,254.1v-18.7h2.8v2.8c0.7-1.3,1.4-2.2,2-2.6s1.3-0.6,2-0.6c1.1,0,2.2,0.3,3.3,1l-1.1,2.9
		c-0.8-0.5-1.5-0.7-2.3-0.7c-0.7,0-1.3,0.2-1.9,0.6s-0.9,1-1.2,1.7c-0.4,1.1-0.5,2.4-0.5,3.7v9.8H949.2z"/>
	<path class="st0" d="M961.2,254.1v-18.7h2.8v2.6c0.6-0.9,1.4-1.6,2.3-2.2s2.1-0.8,3.3-0.8c1.4,0,2.5,0.3,3.4,0.9s1.5,1.4,1.9,2.4
		c1.5-2.2,3.4-3.3,5.8-3.3c1.9,0,3.3,0.5,4.3,1.5s1.5,2.6,1.5,4.7v12.8h-3.1v-11.8c0-1.3-0.1-2.2-0.3-2.7s-0.6-1-1.1-1.3
		s-1.2-0.5-1.9-0.5c-1.3,0-2.4,0.4-3.3,1.3s-1.3,2.3-1.3,4.2v10.8h-3.2V242c0-1.4-0.3-2.5-0.8-3.2s-1.4-1.1-2.5-1.1
		c-0.9,0-1.7,0.2-2.5,0.7s-1.3,1.2-1.6,2.1s-0.5,2.2-0.5,3.9v9.7H961.2z"/>
	<path class="st0" d="M1003.4,251.8c-1.2,1-2.3,1.7-3.4,2.1s-2.2,0.6-3.5,0.6c-2.1,0-3.6-0.5-4.7-1.5s-1.7-2.3-1.7-3.8
		c0-0.9,0.2-1.7,0.6-2.5s1-1.4,1.6-1.8s1.4-0.8,2.3-1c0.6-0.2,1.6-0.3,2.8-0.5c2.6-0.3,4.4-0.7,5.6-1.1c0-0.4,0-0.7,0-0.8
		c0-1.3-0.3-2.2-0.9-2.7c-0.8-0.7-2-1.1-3.6-1.1c-1.5,0-2.6,0.3-3.3,0.8s-1.2,1.4-1.6,2.8l-3.1-0.4c0.3-1.3,0.7-2.4,1.4-3.2
		s1.6-1.4,2.8-1.9s2.6-0.7,4.2-0.7c1.6,0,2.9,0.2,3.9,0.6s1.7,0.8,2.2,1.4s0.8,1.3,1,2.2c0.1,0.5,0.2,1.5,0.2,2.9v4.2
		c0,2.9,0.1,4.8,0.2,5.6s0.4,1.5,0.8,2.2h-3.3C1003.7,253.4,1003.4,252.7,1003.4,251.8z M1003.1,244.7c-1.1,0.5-2.9,0.9-5.2,1.2
		c-1.3,0.2-2.2,0.4-2.8,0.6s-1,0.6-1.2,1s-0.4,1-0.4,1.5c0,0.8,0.3,1.5,1,2.1s1.6,0.8,2.8,0.8c1.2,0,2.3-0.3,3.3-0.8
		s1.6-1.3,2.1-2.2c0.3-0.7,0.5-1.8,0.5-3.2V244.7z"/>
	<path class="st0" d="M1011.2,254.1v-18.7h2.8v2.6c0.6-0.9,1.4-1.6,2.3-2.2s2.1-0.8,3.3-0.8c1.4,0,2.5,0.3,3.4,0.9s1.5,1.4,1.9,2.4
		c1.5-2.2,3.4-3.3,5.8-3.3c1.9,0,3.3,0.5,4.3,1.5s1.5,2.6,1.5,4.7v12.8h-3.1v-11.8c0-1.3-0.1-2.2-0.3-2.7s-0.6-1-1.1-1.3
		s-1.2-0.5-1.9-0.5c-1.3,0-2.4,0.4-3.3,1.3s-1.3,2.3-1.3,4.2v10.8h-3.2V242c0-1.4-0.3-2.5-0.8-3.2s-1.4-1.1-2.5-1.1
		c-0.9,0-1.7,0.2-2.5,0.7s-1.3,1.2-1.6,2.1s-0.5,2.2-0.5,3.9v9.7H1011.2z"/>
</g>
<g class="st6">
	<path class="st0" d="M535.8,287.9c0-3.5,1-6,2.9-7.7c1.6-1.4,3.6-2.1,5.9-2.1c2.6,0,4.7,0.8,6.3,2.5s2.4,4,2.4,7
		c0,2.4-0.4,4.3-1.1,5.7s-1.8,2.4-3.1,3.2s-2.9,1.1-4.5,1.1c-2.6,0-4.7-0.8-6.3-2.5S535.8,291.1,535.8,287.9z M539,287.9
		c0,2.4,0.5,4.2,1.6,5.4s2.4,1.8,3.9,1.8c1.6,0,2.9-0.6,3.9-1.8s1.6-3,1.6-5.5c0-2.3-0.5-4.1-1.6-5.2s-2.4-1.8-3.9-1.8
		c-1.6,0-2.9,0.6-3.9,1.8S539,285.6,539,287.9z"/>
	<path class="st0" d="M567,297.3v-18.7h2.8v2.6c0.6-0.9,1.4-1.6,2.3-2.2s2.1-0.8,3.3-0.8c1.4,0,2.5,0.3,3.4,0.9s1.5,1.4,1.9,2.4
		c1.5-2.2,3.4-3.3,5.8-3.3c1.9,0,3.3,0.5,4.3,1.5s1.5,2.6,1.5,4.7v12.8h-3.1v-11.8c0-1.3-0.1-2.2-0.3-2.7s-0.6-1-1.1-1.3
		s-1.2-0.5-1.9-0.5c-1.3,0-2.4,0.4-3.3,1.3s-1.3,2.3-1.3,4.2v10.8h-3.2v-12.1c0-1.4-0.3-2.5-0.8-3.2s-1.4-1.1-2.5-1.1
		c-0.9,0-1.7,0.2-2.5,0.7s-1.3,1.2-1.6,2.1s-0.5,2.2-0.5,3.9v9.7H567z"/>
	<path class="st0" d="M609.2,297.3v-2.7c-1.5,2.1-3.4,3.2-5.9,3.2c-1.1,0-2.1-0.2-3.1-0.6s-1.7-1-2.1-1.6s-0.8-1.4-1-2.3
		c-0.1-0.6-0.2-1.6-0.2-3v-11.6h3.2V289c0,1.7,0.1,2.8,0.2,3.3c0.2,0.8,0.6,1.5,1.3,2s1.4,0.7,2.4,0.7s1.8-0.2,2.7-0.7
		s1.4-1.1,1.8-2s0.5-2.1,0.5-3.6v-10h3.2v18.7H609.2z"/>
	<path class="st0" d="M617,297.3v-18.7h2.8v2.7c1.4-2.1,3.4-3.1,5.9-3.1c1.1,0,2.2,0.2,3.1,0.6s1.6,0.9,2.1,1.6s0.8,1.4,1,2.3
		c0.1,0.6,0.2,1.6,0.2,3.1v11.5H629v-11.4c0-1.3-0.1-2.3-0.4-2.9s-0.7-1.1-1.3-1.5s-1.4-0.6-2.2-0.6c-1.3,0-2.5,0.4-3.5,1.3
		s-1.5,2.5-1.5,4.9v10.2H617z"/>
	<path class="st0" d="M649.1,297.3v-2.4c-1.2,1.9-2.9,2.8-5.2,2.8c-1.5,0-2.9-0.4-4.1-1.2s-2.2-2-2.9-3.4s-1-3.2-1-5.1
		c0-1.9,0.3-3.6,0.9-5.1s1.6-2.7,2.8-3.5s2.6-1.2,4.2-1.2c1.1,0,2.1,0.2,3,0.7s1.6,1.1,2.1,1.9v-9.2h3.1v25.8H649.1z M639.1,288
		c0,2.4,0.5,4.2,1.5,5.4s2.2,1.8,3.6,1.8c1.4,0,2.6-0.6,3.5-1.7s1.5-2.9,1.5-5.2c0-2.6-0.5-4.4-1.5-5.6s-2.2-1.8-3.6-1.8
		c-1.4,0-2.6,0.6-3.5,1.7S639.1,285.5,639.1,288z"/>
	<path class="st0" d="M655.9,287.9c0-3.5,1-6,2.9-7.7c1.6-1.4,3.6-2.1,5.9-2.1c2.6,0,4.7,0.8,6.3,2.5s2.4,4,2.4,7
		c0,2.4-0.4,4.3-1.1,5.7s-1.8,2.4-3.1,3.2s-2.9,1.1-4.5,1.1c-2.6,0-4.7-0.8-6.3-2.5S655.9,291.1,655.9,287.9z M659.1,287.9
		c0,2.4,0.5,4.2,1.6,5.4s2.4,1.8,3.9,1.8c1.6,0,2.9-0.6,3.9-1.8s1.6-3,1.6-5.5c0-2.3-0.5-4.1-1.6-5.2s-2.4-1.8-3.9-1.8
		c-1.6,0-2.9,0.6-3.9,1.8S659.1,285.6,659.1,287.9z"/>
	<path class="st0" d="M678,297.3v-3.6h3.6v3.6H678z"/>
</g>
<rect x="414" y="418" class="st3" width="305" height="74"/>
<g class="st6">
	<path class="st0" d="M416.8,444.3v-25.8h9.7c1.7,0,3,0.1,3.9,0.2c1.3,0.2,2.3,0.6,3.2,1.2s1.5,1.4,2.1,2.5s0.8,2.2,0.8,3.5
		c0,2.2-0.7,4-2.1,5.6s-3.9,2.3-7.6,2.3h-6.6v10.5H416.8z M420.2,430.8h6.7c2.2,0,3.8-0.4,4.7-1.2s1.4-2,1.4-3.5
		c0-1.1-0.3-2-0.8-2.8s-1.3-1.3-2.2-1.5c-0.6-0.2-1.6-0.2-3.2-0.2h-6.6V430.8z"/>
	<path class="st0" d="M452.6,442c-1.2,1-2.3,1.7-3.4,2.1s-2.2,0.6-3.5,0.6c-2.1,0-3.6-0.5-4.7-1.5s-1.7-2.3-1.7-3.8
		c0-0.9,0.2-1.7,0.6-2.5s1-1.4,1.6-1.8s1.4-0.8,2.3-1c0.6-0.2,1.6-0.3,2.8-0.5c2.6-0.3,4.4-0.7,5.6-1.1c0-0.4,0-0.7,0-0.8
		c0-1.3-0.3-2.2-0.9-2.7c-0.8-0.7-2-1.1-3.6-1.1c-1.5,0-2.6,0.3-3.3,0.8s-1.2,1.4-1.6,2.8l-3.1-0.4c0.3-1.3,0.7-2.4,1.4-3.2
		s1.6-1.4,2.8-1.9s2.6-0.7,4.2-0.7c1.6,0,2.9,0.2,3.9,0.6s1.7,0.8,2.2,1.4s0.8,1.3,1,2.2c0.1,0.5,0.2,1.5,0.2,2.9v4.2
		c0,2.9,0.1,4.8,0.2,5.6s0.4,1.5,0.8,2.2h-3.3C452.9,443.6,452.7,442.9,452.6,442z M452.3,434.9c-1.1,0.5-2.9,0.9-5.2,1.2
		c-1.3,0.2-2.2,0.4-2.8,0.6s-1,0.6-1.2,1s-0.4,1-0.4,1.5c0,0.8,0.3,1.5,1,2.1s1.6,0.8,2.8,0.8c1.2,0,2.3-0.3,3.3-0.8
		s1.6-1.3,2.1-2.2c0.3-0.7,0.5-1.8,0.5-3.2V434.9z"/>
	<path class="st0" d="M472.6,444.3v-2.7c-1.5,2.1-3.4,3.2-5.9,3.2c-1.1,0-2.1-0.2-3.1-0.6s-1.7-1-2.1-1.6s-0.8-1.4-1-2.3
		c-0.1-0.6-0.2-1.6-0.2-3v-11.6h3.2V436c0,1.7,0.1,2.8,0.2,3.3c0.2,0.8,0.6,1.5,1.3,2s1.4,0.7,2.4,0.7s1.8-0.2,2.7-0.7
		s1.4-1.1,1.8-2s0.5-2.1,0.5-3.6v-10h3.2v18.7H472.6z"/>
	<path class="st0" d="M480.4,444.3v-25.8h3.2v25.8H480.4z"/>
	<path class="st0" d="M487.2,434.9c0-3.5,1-6,2.9-7.7c1.6-1.4,3.6-2.1,5.9-2.1c2.6,0,4.7,0.8,6.3,2.5s2.4,4,2.4,7
		c0,2.4-0.4,4.3-1.1,5.7s-1.8,2.4-3.1,3.2s-2.9,1.1-4.5,1.1c-2.6,0-4.7-0.8-6.3-2.5S487.2,438.1,487.2,434.9z M490.5,434.9
		c0,2.4,0.5,4.2,1.6,5.4s2.4,1.8,3.9,1.8c1.6,0,2.9-0.6,3.9-1.8s1.6-3,1.6-5.5c0-2.3-0.5-4.1-1.6-5.2s-2.4-1.8-3.9-1.8
		c-1.6,0-2.9,0.6-3.9,1.8S490.5,432.6,490.5,434.9z"/>
	<path class="st0" d="M519,444.3v-25.8h17.4v3h-14v8h12.1v3h-12.1v11.7H519z"/>
	<path class="st0" d="M540.4,444.3v-18.7h2.8v2.8c0.7-1.3,1.4-2.2,2-2.6s1.3-0.6,2-0.6c1.1,0,2.2,0.3,3.3,1l-1.1,2.9
		c-0.8-0.5-1.5-0.7-2.3-0.7c-0.7,0-1.3,0.2-1.9,0.6s-0.9,1-1.2,1.7c-0.4,1.1-0.5,2.4-0.5,3.7v9.8H540.4z"/>
	<path class="st0" d="M565.2,438.3l3.3,0.4c-0.5,1.9-1.5,3.4-2.9,4.4s-3.2,1.6-5.3,1.6c-2.7,0-4.9-0.8-6.5-2.5s-2.4-4-2.4-7.1
		c0-3.1,0.8-5.6,2.4-7.3s3.7-2.6,6.3-2.6c2.5,0,4.5,0.8,6.1,2.5s2.4,4.1,2.4,7.2c0,0.2,0,0.5,0,0.8h-13.9c0.1,2.1,0.7,3.6,1.7,4.7
		s2.3,1.6,3.9,1.6c1.2,0,2.2-0.3,3-0.9S564.7,439.6,565.2,438.3z M554.8,433.2h10.4c-0.1-1.6-0.5-2.7-1.2-3.5
		c-1-1.2-2.3-1.8-3.9-1.8c-1.5,0-2.7,0.5-3.7,1.5S554.9,431.5,554.8,433.2z"/>
	<path class="st0" d="M572.5,422.1v-3.6h3.2v3.6H572.5z M572.5,444.3v-18.7h3.2v18.7H572.5z"/>
	<path class="st0" d="M580.4,444.3v-18.7h2.8v2.8c0.7-1.3,1.4-2.2,2-2.6s1.3-0.6,2-0.6c1.1,0,2.2,0.3,3.3,1l-1.1,2.9
		c-0.8-0.5-1.5-0.7-2.3-0.7c-0.7,0-1.3,0.2-1.9,0.6s-0.9,1-1.2,1.7c-0.4,1.1-0.5,2.4-0.5,3.7v9.8H580.4z"/>
	<path class="st0" d="M605.2,438.3l3.3,0.4c-0.5,1.9-1.5,3.4-2.9,4.4s-3.2,1.6-5.3,1.6c-2.7,0-4.9-0.8-6.5-2.5s-2.4-4-2.4-7.1
		c0-3.1,0.8-5.6,2.4-7.3s3.7-2.6,6.3-2.6c2.5,0,4.5,0.8,6.1,2.5s2.4,4.1,2.4,7.2c0,0.2,0,0.5,0,0.8h-13.9c0.1,2.1,0.7,3.6,1.7,4.7
		s2.3,1.6,3.9,1.6c1.2,0,2.2-0.3,3-0.9S604.7,439.6,605.2,438.3z M594.8,433.2h10.4c-0.1-1.6-0.5-2.7-1.2-3.5
		c-1-1.2-2.3-1.8-3.9-1.8c-1.5,0-2.7,0.5-3.7,1.5S594.9,431.5,594.8,433.2z"/>
</g>
<g>
	<path class="st7" d="M169.9,44.3L169.9,44.3c-0.3,0.1-0.7,0.1-1,0.2c-12.8,5.9-23.8,14.2-33.8,24c-11.7,11.4-20,25.2-27,39.8
		c-4.5,9.3-8.1,19.1-13.5,28c-1.9,3-3.5,6.3-7.4,7.5c3.2,3.8,4,8,3.6,12.6c-0.9,9.8-5.7,18.7-6.5,28.6c-0.4,4.8-2.5,9.4-3.6,14.2
		c-0.8,3.6-2.2,7.1-2.3,10.8c-0.1,1.1-0.9,2-0.6,3.2c-2.6,4.1-2.8,8.9-3.9,13.5c-3.8,15.4-7.1,30.8-9.8,46.5
		c-1.6,9.5-3.2,19-3.1,28.7c0,2.3,0.4,4.6,1.1,6.8c2.4,7.4,6.5,13.9,11.1,20.1c11.2,15.1,24.7,28,38.5,40.7c1,0.9,1.5,1.8,1.7,3
		c1.8,9.6,5.5,18.4,10.9,26.5c3.4,5.1,6.5,10.5,6.2,16.9c-0.4,9.2,3,16.5,9.6,22.7c8.1,7.7,15.8,15.6,21.3,25.5
		c5.3,9.5,13.1,15.8,23.4,19.3c9.6,3.3,19.4,5.4,29.3,7.1c11.1,1.9,22.2,3.1,33.4,3.5c14.3,0.5,28.4-1.1,42.5-3.3
		c10.3-1.7,20.5-3.7,30.4-7.2c8.6-3,16-7.6,21.1-15.4c2.4-3.6,4.7-7.3,7.1-10.9c4.9-7.2,11.4-13.1,17.5-19.3
		c5.4-5.3,8.9-11.4,8.7-19.1c-0.2-7,2-13.1,5.8-18.8c5.8-8.7,10.1-18.1,11.6-28.5c0.1-0.7,0.4-1.2,1-1.6
		c7.7-6.8,15.2-13.8,22.3-21.3c9.3-9.9,18.4-20,24.7-32.3c2.9-5.6,4.8-11.4,4.3-17.8c-0.6-8-1.7-16-3-23.9
		c-2.8-17.3-6.9-34.3-10.7-51.3c-3.3-14.7-8.3-29-10.5-43.9c-0.8-5.5-3.2-10.6-4.5-16c-1.6-6.7-2.7-13.3,2.3-19.4
		c-3.7-1.1-5.4-4.1-7.2-7c-4.9-7.9-8.4-16.5-12.1-24.9C387.6,87,371.7,66,348,51.3c-4.2-2.6-8.4-5.2-13.2-6.7v0.1
		c-0.1-1.1-1.1-1-1.8-1.3c-4.2-3.7-8.7-6.8-13.4-9.7c-12.1-7.4-25.1-12.8-39-15.9c-8.1-1.8-16.3-3.2-24.6-3.1
		c-6.3,0.1-12.5-0.1-18.9,0.8c-5.3,0.7-10.6,1.5-15.7,2.8c-8.1,2-15.9,4.9-23.4,8.6c-9.3,4.5-18,9.9-25.9,16.5
		C171.2,43.1,170.3,43.4,169.9,44.3z"/>
	<path class="st8" d="M78.2,209.9c0.1-3.8,1.5-7.2,2.3-10.8c1.1-4.8,3.2-9.4,3.6-14.2c0.9-9.9,5.6-18.8,6.5-28.6
		c0.4-4.6-0.4-8.8-3.6-12.6c3.9-1.2,5.5-4.5,7.4-7.5c5.5-8.8,9-18.6,13.5-28c7-14.6,15.3-28.4,27-39.8c10-9.7,21-18.1,33.8-24
		c0.3-0.1,0.7-0.1,1.1-0.2c0.3,1.9-1.5,2.4-2.4,3.3c-11.9,11.9-21.4,25.4-27.2,41.4c-1.5,4.1-2.8,8.4-1.9,12.8
		c1.2,5.9,2,11.8,2.4,17.9c0.6,11.2-1.2,21.9-4.8,32.4c-3.1,9-8.9,16.6-12.5,25.3c-1.5,4.5-2.5,9-2.8,13.7c-0.5,7-0.6,14.1,0.1,21.1
		c1.5,14.5,4.8,28.7,9.5,42.5c1.9,5.6,3.8,11.5,7.5,16.1c6.7,8.2,11.1,17.7,17.2,26.2c3.4,4.7,6.8,9.6,12.1,12.5
		c3.7,2,7.4,1.6,10.5-1.3c1.5-1.4,2.8-3,3.7-4.9c4-8.6,10.4-15,17.9-20.4c10-7.2,21.3-11.8,32.9-15.7c1-0.3,2.7-0.4,2.6-1.5
		c0-1.3-1.7-1.5-2.8-1.8c-1.3-0.4-2.7-0.6-4.1-0.6c-2.5-0.1-5-0.2-7.5-0.6c-2.9-0.4-5.5-1.9-6.2-4.9c-1.6-6.9-1.3-12.4,6.7-14.9
		c2.8-0.9,4.7-3,4.9-5.9c0.3-4.8,2.6-8.5,6.2-11.4c6.1-4.9,5.8-11.5,5.4-18.2c0.5-4.5,1.4-9,1.2-13.5c-0.1-1.3,0.4-1.8,1.8-1.8
		c8.1,0.1,16.3,0.1,24.5,0c1.6,0,1.8,0.7,1.9,2c0.2,3.3,0.4,6.6,0.7,10c-0.1,0.5,0.1,0.8,0.5,1.1c0,0.2,0,0.4,0,0.6
		c-0.9,6.7-1.3,13.3,3.9,18.7c3.1,3.2,6.8,6.1,7.2,10.9c0.4,4.7,2.9,7.2,7.1,8.6c3.7,1.2,5.4,4.1,5.5,7.6c0.1,3.7-0.3,7.5-3.9,9.9
		c-2.1,1.4-4.6,1.4-7,1.6c-2.8,0.2-5.6,0-8.3,0.9c-1,0.3-2.1,0.8-2.1,1.9c0,1.3,1.3,1.3,2.3,1.5c0.5,0.1,1.1,0.2,1.6,0.4
		c9.7,3.6,19.4,7.2,28.2,13c8.9,5.8,16.6,12.8,21.4,22.5c0.7,1.5,1.7,2.9,2.8,4.1c3.7,4.4,8.3,4.9,13.1,1.5c3.6-2.6,6.4-5.9,9-9.4
		c5.1-6.9,9.3-14.5,13.8-21.8c1.9-3,4.6-5.3,6.3-8.5c4.1-7.5,6.9-15.6,9.3-23.8c5.1-17.7,8.2-35.6,6.5-54.1
		c-0.1-4.7-1.3-9.2-2.6-13.6c-1.3-3.1-2.5-6.2-4.3-9c-12.2-19.6-15.8-40.7-11.1-63.3c0.9-4.4,1-8.7-0.3-12.9
		c-3.8-12.9-10.6-24.2-18.9-34.7c-3.8-4.8-8.5-8.8-12.4-13.5c4.8,1.5,9,4.1,13.2,6.7c23.6,14.7,39.6,35.7,50.8,60.8
		c3.8,8.4,7.2,17.1,12.1,24.9c1.8,2.9,3.4,5.9,7.2,7c-5.1,6.1-3.9,12.7-2.3,19.4c1.3,5.4,3.7,10.5,4.5,16
		c2.2,14.9,7.2,29.2,10.5,43.9c3.8,17.1,7.9,34.1,10.7,51.3c1.3,8,2.4,15.9,3,23.9c0.5,6.5-1.4,12.2-4.3,17.8
		c-6.3,12.2-15.4,22.3-24.7,32.3c-7,7.5-14.5,14.5-22.3,21.3c-0.5,0.5-0.9,0.9-1,1.6c-1.5,10.5-5.8,19.8-11.6,28.5
		c-3.8,5.7-5.9,11.8-5.8,18.8c0.2,7.7-3.4,13.8-8.7,19.1c-6.2,6.1-12.6,12-17.5,19.3c-2.4,3.6-4.7,7.3-7.1,10.9
		c-5.1,7.8-12.5,12.4-21.1,15.4c-9.9,3.4-20.1,5.5-30.4,7.2c-14.1,2.3-28.3,3.8-42.5,3.3c-11.2-0.4-22.3-1.6-33.4-3.5
		c-9.9-1.7-19.7-3.8-29.3-7.1c-10.3-3.5-18.1-9.8-23.4-19.3c-5.5-9.8-13.2-17.8-21.3-25.5c-6.6-6.2-10-13.6-9.6-22.7
		c0.3-6.4-2.8-11.8-6.2-16.9c-5.4-8.1-9.1-16.9-10.9-26.5c-0.2-1.2-0.7-2.1-1.7-3c-13.8-12.7-27.3-25.6-38.5-40.7
		c-4.6-6.2-8.7-12.7-11.1-20.1c-0.7-2.2-1.1-4.5-1.1-6.8c-0.1-9.7,1.5-19.2,3.1-28.7c2.7-15.6,6-31.1,9.8-46.5
		c1.1-4.5,1.3-9.3,3.9-13.5c1,1.2,0.5,2.7,0.5,4c0.1,4.7,0.9,9.4,1.7,14c1.3,7.3,3.4,14.3,5.8,21.3c4,11.9,9.4,23.1,16.1,33.6
		c0.7,1,1.4,1.1,2.1,0.1c0.9-1.3,1.4-2.8,1.9-4.3c3.4-10.1,2.6-20.5,1.8-30.9c-0.7-10-2.3-19.9-2.5-29.9c0-2.2-0.5-4.4-1.3-6.5
		c-2.3-6.5-7.2-11.1-11.6-16.1c-0.3-0.4-1-0.7-1.5-0.7c-3.3,0.2-6.3,1-8.6,3.7C80.1,204,80,207.4,78.2,209.9z M396.7,263.4
		c0.1,2.6,0.1,5.4,0.4,8.3c0.5,4.8,1.6,9.5,3.6,13.9c0.8,1.9,1.8,2.3,3.1,0.4c3.6-5.3,6.8-10.8,9.4-16.6c4-8.8,7.4-17.7,10-27
		c2.8-10.4,4.9-21,3.5-31.8c-1-7.7-3.8-11.7-10.8-12.9c-1.8-0.3-3,0.1-4,1.6c-1.4,1.9-2.9,3.6-4.5,5.3c-5.1,5.8-8.1,12.3-7.5,20.2
		c0.1,1.7-0.2,3.5-0.3,5.3C398.6,241.1,396.9,252,396.7,263.4z M252.5,322.5c3.1,0.1,6.1-0.4,9.2-0.7c11-1,22-2.5,32.3-6.6
		c5.5-2.2,10.2-3.2,14.9,1c0.4,0.4,1.2,0.8,1.8,0.4c0.6-0.5,0.4-1.2,0.1-1.8c-2.3-5.7-4.5-9.4-11.9-10.5c-5.1-0.7-10.4-0.4-15.5-1.5
		c-7.7-1.6-15.4-1.6-23.2-0.3c-3.7,0.6-7.2,1.9-11.2,0.9c-5.3-1.4-10.8-2-16.3-1.7c-9.1,0.6-18.2,2.2-27.3,2.9
		c-6.1,0.5-9.1,5.1-11,10.5c-0.2,0.5-0.3,1.2,0.2,1.5c0.5,0.4,1.1,0,1.5-0.3c2-1,3.9-2.1,5.8-3.2c1.1-0.6,2.2-0.8,3.4-0.2
		C220.4,319.7,236.4,321.1,252.5,322.5z"/>
	<path class="st9" d="M334.8,44.2c3.9,4.7,8.6,8.7,12.4,13.5c8.3,10.5,15.1,21.8,18.9,34.7c1.2,4.2,1.2,8.5,0.3,12.9
		c-4.7,22.5-1,43.7,11.1,63.3c1.8,2.8,3,6,4.3,9c-0.6-0.6-1.4-0.7-2.1-0.5c-2.3,0.4-3.6-0.6-4.8-2.7c-4.4-7.7-11.3-11.7-20.1-11.8
		c-15.1-0.2-30.2-0.1-45.3-0.2c-0.9,0-2,0.4-2.8-0.4c0.3-1,1-1.5,1.7-2c4.7-3.7,10-5.9,15.9-6.9c4.4-0.7,8.8-0.8,13.3-0.7
		c0.7,0,2.3,0.9,1.9-1.1c3,2,6,4,9,5.9c0.6,0.4,1.1,1.2,1.9,0.7c0.6-0.4,0.3-1.2,0.2-1.8c-0.8-6.3-1.3-12.6-2.4-18.8
		c-3.5-19-9-37.3-19.3-53.9c-11.2-18-26.6-30.7-47-37c-9-2.8-18.2-3.8-27.7-4.1c-26.2-0.9-49,7-67.2,26.3
		c-12.1,12.9-19.7,28.4-24.8,45.2c-4.2,13.8-6.9,27.9-7.9,42.3c-0.2,2.2-0.5,4-2.5,5.2c-0.5,0.3-0.9,0.7,0,1.1c-1,0.1-2,0.2-3,0.3
		c-6.9,0.7-13,3.4-17,9.2c-2.1,3.2-3.9,6.1-8.3,5.5c-0.1,0-0.1,0.1-0.2,0.2c3.7-8.7,9.4-16.3,12.5-25.3c3.6-10.5,5.4-21.3,4.8-32.4
		c-0.3-6-1.2-12-2.4-17.9c-0.9-4.4,0.4-8.7,1.9-12.8c5.7-16,15.2-29.5,27.2-41.4c0.9-0.9,2.7-1.4,2.4-3.3l0,0
		c1.3,0.4,1.9-0.2,2.3-1.3c7.9-6.6,16.6-12,25.9-16.5c7.5-3.6,15.3-6.6,23.4-8.6c5.1-1.3,10.4-2.1,15.7-2.8
		c6.3-0.9,12.6-0.8,18.9-0.8c8.3-0.1,16.5,1.3,24.6,3.1c14,3,26.9,8.4,39,15.9c4.7,2.9,9.3,6.1,13.4,9.7
		C333.4,43.7,333.9,44.4,334.8,44.2L334.8,44.2z"/>
	<path class="st9" d="M78.2,209.9c1.9-2.5,1.9-5.9,4.1-8.4c2.4-2.7,5.4-3.5,8.6-3.7c0.5,0,1.1,0.3,1.5,0.7c4.4,5,9.3,9.6,11.6,16.1
		c0.8,2.1,1.3,4.3,1.3,6.5c0.1,10,1.7,19.9,2.5,29.9c0.7,10.3,1.6,20.7-1.8,30.9c-0.5,1.5-1,3-1.9,4.3c-0.8,1.1-1.5,1-2.1-0.1
		c-6.7-10.6-12.1-21.7-16.1-33.6c-2.4-7-4.4-14.1-5.8-21.3c-0.8-4.6-1.6-9.3-1.7-14c0-1.3,0.5-2.8-0.5-4C77.2,212,78,211,78.2,209.9
		z"/>
	<path class="st7" d="M123.5,177.5c0.1-0.1,0.2-0.2,0.2-0.2c4.4,0.6,6.2-2.3,8.3-5.5c4-5.9,10-8.5,17-9.2c1-0.1,2-0.2,3-0.3
		c15.5,0,31,0,47.2,0c-10.1-9.7-22.2-10.4-34.6-10c8.5-5.5,17.4-9.1,27.4-9.2c13.8-0.2,24.2,6.6,32.4,17.1c1.2,1.5,2.3,2.2,4.3,2.2
		c14.2-0.1,28.4-0.3,42.6,0.1c5.3,0.1,8.8-1.4,12.3-5.5c8.7-10.3,20-15.3,33.8-13.6c8,1,15.2,3.9,22.1,7.9c0.4,2.1-1.2,1.2-1.9,1.1
		c-4.5-0.2-8.9-0.1-13.3,0.7c-5.9,1-11.2,3.2-15.9,6.9c-0.7,0.5-1.3,1-1.7,2c0.8,0.8,1.9,0.4,2.8,0.4c15.1,0.1,30.2,0,45.3,0.2
		c8.8,0.1,15.7,4.1,20.1,11.8c1.2,2.1,2.4,3,4.8,2.7c0.7-0.1,1.5,0,2.1,0.5c1.4,4.5,2.5,9,2.6,13.7c-4.8,0.3-4.7,0.3-4.8,5.2
		c-0.2,8.1-0.3,16.3-1.9,24.3c-2.9,14.3-11.5,22.7-26,25.2c-16.6,2.8-33,2.6-49.2-2.3c-12-3.7-22-10.4-28.6-21.5
		c-3.1-5.2-4.6-10.8-6.2-16.5c0-0.2,0-0.4,0-0.6c-0.2-0.4-0.3-0.7-0.5-1.1c-0.2-3.3-0.5-6.6-0.7-10c-0.1-1.3-0.3-2-1.9-2
		c-8.1,0.1-16.3,0-24.5,0c-1.3,0-1.8,0.5-1.8,1.8c0.2,4.6-0.7,9-1.2,13.5c-0.8,0.6-0.9,1.6-1.1,2.5c-4.4,16.4-14.9,27.1-30.7,32.8
		c-7.3,2.7-14.9,4.1-22.8,4.6c-11.3,0.8-22.6,0.8-33.6-2.4c-14.1-4-19.8-12.9-22.1-25.4c-1.4-7.5-1.3-15.1-1.4-22.7
		c0-5.2,0-5.2-5-5.6C121,186.5,122,181.9,123.5,177.5z M185.8,165.8c-1.4-0.8-2.9-0.5-4.4-0.4c-1.8,0.1-3.5,0.1-5.3,0.2
		c-10.1,0.4-20.2-0.2-30.2,1.8c-7.8,1.2-12.5,6-14.4,13.3c-3.5,13.3-4.3,26.9-1.1,40.4c2.6,10.9,9.6,18.3,20.8,21.2
		c1.4,0.6,2.8,1.1,4.4,1.1c0.4,0.2,0.8,0.3,1.1,0.5h0.3h0.3c0.6,0.2,1.2,0.5,1.9,0.6c15.1,1.9,30.1,1.6,44.7-3.7
		c24.1-8.7,33.9-30,30.7-52.3c-1.6-11.5-8.3-18.9-19.7-21.8c-5.2-1.3-10.5-0.6-15.8-0.8c-2.9-0.1-5.9-0.8-8.8,0.2
		C188.8,165.8,187.3,165.8,185.8,165.8z M321.8,165.8C321.8,165.7,321.8,165.7,321.8,165.8c-9,0-18-0.5-27,0.1
		c-10.1,0.6-17.9,5.5-22.1,15.2c-2.9,6.9-3,14-2.1,21.3c1.8,15.5,9.4,27,23,34.6c11.1,6.2,23.3,8.2,35.9,8.4
		c7.9,0.1,15.8-0.5,23.4-2.7c11.6-3.3,19.5-10.5,22.1-22.5c2.9-13.1,2.1-26.2-1.1-39.1c-1.8-7.5-6.6-12.3-14.3-13.9
		c-4-0.8-8-1.3-12.1-1.4C338.9,165.7,330.4,165.8,321.8,165.8z M230.1,168.8c0,0.1-0.1,0.3-0.1,0.4c4.1,4.1,6.7,9,7.8,14.7
		c0.2,1.1,0.7,1.3,1.7,1.3c8.7,0,17.4,0,26.2,0c0.9,0,1.5-0.1,1.7-1.2c1.1-5.7,3.7-10.8,8.3-15.2
		C260.1,168.8,245.1,168.8,230.1,168.8z"/>
	<path class="st9" d="M120.7,191.2c5,0.4,5,0.4,5,5.6c0,7.6,0,15.2,1.4,22.7c2.3,12.5,8,21.4,22.1,25.4c11,3.2,22.3,3.1,33.6,2.4
		c7.8-0.5,15.4-1.9,22.8-4.6c15.7-5.8,26.3-16.5,30.7-32.8c0.2-0.9,0.3-1.9,1.1-2.5c0.4,6.7,0.7,13.3-5.4,18.2
		c-3.6,2.9-5.8,6.6-6.2,11.4c-0.2,2.9-2.1,5-4.9,5.9c-8,2.5-8.3,8.1-6.7,14.9c0.7,3,3.2,4.5,6.2,4.9c2.5,0.4,5,0.5,7.5,0.6
		c1.4,0.1,2.8,0.2,4.1,0.6c1.1,0.4,2.8,0.5,2.8,1.8c0,1.2-1.6,1.2-2.6,1.5c-11.6,3.9-22.9,8.5-32.9,15.7c-7.5,5.4-14,11.8-17.9,20.4
		c-0.9,1.8-2.2,3.4-3.7,4.9c-3,2.9-6.7,3.4-10.5,1.3c-5.3-2.9-8.7-7.8-12.1-12.5c-6.2-8.4-10.5-18-17.2-26.2
		c-3.7-4.6-5.5-10.5-7.5-16.1c-4.8-13.8-8.1-27.9-9.5-42.5C120.1,205.3,120.3,198.2,120.7,191.2z M165.1,289.7
		c11.4-0.5,19.2-9,18.7-20.2c-0.5-10.8-9.3-18.4-20.6-18c-9.9,0.4-18.2,9.7-17.6,20C146.2,282.2,154.8,290.2,165.1,289.7z"/>
	<path class="st9" d="M267.8,205.6c1.6,5.7,3.2,11.4,6.2,16.5c6.6,11.1,16.5,17.8,28.6,21.5c16.2,4.9,32.6,5.1,49.2,2.3
		c14.5-2.5,23.1-10.9,26-25.2c1.6-8,1.7-16.2,1.9-24.3c0.1-4.9,0-4.9,4.8-5.2c1.8,18.5-1.3,36.4-6.5,54.1
		c-2.4,8.2-5.2,16.2-9.3,23.8c-1.7,3.1-4.4,5.5-6.3,8.5c-4.5,7.3-8.7,14.9-13.8,21.8c-2.6,3.5-5.4,6.8-9,9.4
		c-4.7,3.4-9.3,2.9-13.1-1.5c-1.1-1.3-2-2.7-2.8-4.1c-4.8-9.7-12.5-16.7-21.4-22.5c-8.8-5.7-18.5-9.4-28.2-13
		c-0.5-0.2-1.1-0.4-1.6-0.4c-1-0.1-2.3-0.1-2.3-1.5c0-1.2,1.1-1.6,2.1-1.9c2.7-1,5.5-0.7,8.3-0.9c2.4-0.2,4.9-0.2,7-1.6
		c3.6-2.4,4-6.2,3.9-9.9c-0.1-3.5-1.8-6.4-5.5-7.6c-4.2-1.4-6.6-3.9-7.1-8.6c-0.4-4.7-4.1-7.7-7.2-10.9
		C266.5,218.9,266.9,212.3,267.8,205.6z M339.6,289.4c10.4,0.7,19.3-7.2,20-17.8c0.6-9.5-7.5-19.1-16.9-19.9
		c-10.9-0.9-20.2,6.8-21,17.6C320.9,279.8,329.5,289.4,339.6,289.4z"/>
	<path class="st9" d="M396.7,263.4c0.2-11.4,1.9-22.3,2.8-33.3c0.1-1.8,0.5-3.5,0.3-5.3c-0.6-7.9,2.5-14.5,7.5-20.2
		c1.5-1.7,3.1-3.5,4.5-5.3c1.1-1.4,2.2-1.9,4-1.6c7,1.2,9.8,5.2,10.8,12.9c1.4,10.8-0.7,21.4-3.5,31.8c-2.5,9.3-6,18.3-10,27
		c-2.6,5.8-5.7,11.4-9.4,16.6c-1.3,1.9-2.3,1.4-3.1-0.4c-2-4.4-3.1-9.1-3.6-13.9C396.8,268.8,396.8,265.9,396.7,263.4z"/>
	<path class="st9" d="M252.5,322.5c-16.1-1.4-32.2-2.8-47.1-9.7c-1.3-0.6-2.3-0.4-3.4,0.2c-2,1.1-3.9,2.2-5.8,3.2
		c-0.5,0.2-1,0.7-1.5,0.3c-0.5-0.4-0.4-1-0.2-1.5c2-5.3,4.9-10,11-10.5c9.1-0.7,18.2-2.3,27.3-2.9c5.5-0.4,11,0.3,16.3,1.7
		c4,1,7.6-0.3,11.2-0.9c7.8-1.2,15.5-1.3,23.2,0.3c5.1,1.1,10.3,0.8,15.5,1.5c7.5,1,9.6,4.8,11.9,10.5c0.2,0.6,0.5,1.4-0.1,1.8
		c-0.6,0.5-1.3,0-1.8-0.4c-4.8-4.1-9.5-3.2-14.9-1c-10.3,4.1-21.3,5.6-32.3,6.6C258.6,322.1,255.6,322.7,252.5,322.5z"/>
	<path class="st9" d="M267.4,203.9c0.2,0.4,0.3,0.7,0.5,1.1C267.4,204.8,267.3,204.4,267.4,203.9z"/>
	<path class="st8" d="M339.5,151.2c-6.9-3.9-14.1-6.9-22.1-7.9c-13.8-1.7-25.1,3.3-33.8,13.6c-3.5,4.2-7,5.7-12.3,5.5
		c-14.2-0.4-28.4-0.2-42.6-0.1c-2,0-3.1-0.7-4.3-2.2c-8.2-10.6-18.5-17.3-32.4-17.1c-10,0.1-18.9,3.8-27.4,9.2
		c12.4-0.4,24.4,0.2,34.6,10c-16.1,0-31.7,0-47.2,0c-0.9-0.4-0.5-0.8,0-1.1c1.9-1.2,2.3-3,2.5-5.2c1-14.4,3.7-28.5,7.9-42.3
		c5.2-16.8,12.7-32.3,24.8-45.2c18.2-19.3,40.9-27.2,67.2-26.3c9.4,0.3,18.7,1.3,27.7,4.1c20.4,6.3,35.8,19,47,37
		c10.3,16.6,15.8,34.9,19.3,53.9c1.1,6.2,1.6,12.5,2.4,18.8c0.1,0.6,0.4,1.4-0.2,1.8c-0.8,0.5-1.3-0.3-1.9-0.7
		C345.5,155.2,342.5,153.2,339.5,151.2z M328.1,112.8c-0.6-0.5-0.9-0.9-1.2-1.1c-2.4-1.3-4.9-2.3-7.5-3c-17.4-4.7-35.2-6.3-53.1-6.6
		c-18.3-0.3-36.5,0-54.7,2.1c-9.8,1.2-19.5,2.5-28.8,5.8c-3.3,1.2-4.1,1.6-5.2,3c0.3,0,0.6,0.1,0.8,0c17.3-5.1,35-6.4,52.8-6.4
		c8.3,0,16.5,1.2,24.7,1.2c5.5,0,11.1-0.7,16.6-1c9-0.3,18,0.1,26.9,1.2c8.4,1,16.9,1.9,25.1,4.7
		C325.6,113.2,326.7,113.7,328.1,112.8z M175.9,127.7c9.3-2.9,18.9-4.6,28.5-5.7c11.3-1.3,22.6-1.7,33.9-1c9.3,0.6,18.7,1,28,0.4
		c20.3-1.3,40.4,0,60,6c0.8,0.2,1.7,0.9,2.7,0c-0.7-1.1-1.8-1.4-2.9-2c-8.2-4.1-17.2-5.2-26-6.5c-16.4-2.3-32.8-3.1-49.4-2.8
		c-20,0.4-39.9,1.2-59.4,5.4C185.9,122.7,180.6,124.4,175.9,127.7z"/>
	<path class="st9" d="M321.8,165.8c8.5,0,17.1,0,25.6,0c4.1,0,8.1,0.6,12.1,1.4c7.6,1.6,12.5,6.4,14.3,13.9c3.2,12.9,4,26,1.1,39.1
		c-2.7,12-10.5,19.2-22.1,22.5c-7.6,2.2-15.5,2.8-23.4,2.7c-12.5-0.2-24.7-2.2-35.9-8.4c-13.6-7.6-21.2-19.2-23-34.6
		c-0.8-7.3-0.8-14.4,2.1-21.3c4.1-9.7,11.9-14.6,22.1-15.2C303.8,165.3,312.8,165.7,321.8,165.8
		C321.8,165.7,321.8,165.7,321.8,165.8z M327,177.8c2.8,0.1,5,1.7,7.2,3.2c2.3,1.7,4.3,3.8,6.9,5.2c1.4,0.7,2.7,0.6,3.9-0.3
		c1.3-1,1.7-2.4,1.2-4c-0.6-2-1.7-3.7-3.2-5.1c-4-4-8.8-6.6-14.2-8.4c-15.3-5.2-28.4,2-37.2,12.4c-1.1,1.3-1.6,3-0.3,4.3
		c1.3,1.3,2.5,0,3.7-0.7c0.5-0.3,0.8-0.7,1.3-1.1c4.7-3.3,9.4-6.7,15.5-6.6c-1.3,0.6-2.4,1.2-3.1,2.6c-2.4,4.5-0.8,10.6,2.7,13.3
		c-1.9,0.1-3.6-0.2-5.4-0.8c-3.5-1.1-6.8-2.8-10.5-3.5c-6.3-1.1-9.8,2.3-8.7,8.5c0.6,3.4,1.9,6.5,4.1,9.3c3.3,4.2,7.4,7.3,12,9.7
		c10.9,5.7,22.5,6.2,34.4,5.2c3-0.3,5.9-0.5,8.7-1.8c3.5-1.6,3.8-3.8,1-6.4c-1.8-1.7-3.8-3.2-5.5-5.1c-3.2-3.7-3.1-5.5,0.3-9
		c0.6-0.6,1.2-1.2,1.7-1.8c1.4-2,1.5-4.2,0.1-6.2s-3.5-2.3-5.7-1.6c-1.3,0.4-2.5,1.1-3.8,1.7c-3.1,1.4-6.3,2.7-9.8,2.3
		C330.1,190.1,331.5,182.3,327,177.8z"/>
	<path class="st8" d="M146,167.3c10-2,20.1-1.3,30.2-1.8c1.8-0.1,3.5-0.1,5.3-0.2c1.4,0.8,2.9,1.2,4.4,0.4c1.5,0,2.9,0,4.4,0
		c0.4,0.9,1.3,1,2.1,1.1c5.4,1.1,10.3,3.5,14.6,7c2.6,2.1,5.2,4.2,7.1,7c0.9,1.4,1.4,3.1,0.2,4.4c-1.2,1.4-2.6,0-3.7-0.6
		c-0.7-0.4-1.4-0.9-2-1.4c-4.4-3.3-9-6.2-14.7-6.5c-0.2,0-0.5,0-0.7,0c-4.3-1.5-8.6-1.4-12.8,0.5c-0.9,0.2-1.9,0.4-2.8,0.6
		c-5.4,1.1-6.5,6-8.9,9.8c-0.5,0.8,0.1,1.5,0.9,1.9c3.5,2,7.2,3.2,11.2,3.4c3.1,0,6.3,0,9.4,0c0.4,0,0.8,0,1.2,0
		c0.3-0.1,0.5-0.2,0.8-0.3c3.4,0.2,6.6-1,9.7-2.1c2.7-1,5.4-2.1,8.2-2.5c6.3-0.9,9.7,2.9,8.6,9.1c-0.9,4.9-3.2,9.1-6.9,12.4
		c-15.1,13.4-32.8,13.8-51.3,10.4c-2.8-0.5-3-0.6-3.4,2.3c-0.7,5.1-0.9,10.3-1.1,15.5c-0.1,2.2,0,4.2,1.4,6h-0.3h-0.3
		c-0.3-0.4-0.7-0.5-1.1-0.5c-1.6,0-3-0.5-4.4-1.1c-2.1-3.8-3.9-7.8-5.1-12c-2.7-9.5-5.5-19.1-6-29C139.5,189.5,139,177.7,146,167.3z
		 M159.9,210.9c0.9-0.7,2.1-1.3,2.8-2.2c1.6-2,3.6-3.8,2.9-6.8c-0.2-0.9-0.7-1.8-1.8-1.9c-1.1-0.1-1.3,0.9-1.6,1.6
		C161.2,204.6,160.2,207.7,159.9,210.9L159.9,210.9z"/>
	<path class="st9" d="M193.8,176.8c5.7,0.3,10.3,3.3,14.7,6.5c0.7,0.5,1.3,1,2,1.4c1.2,0.6,2.5,1.9,3.7,0.6c1.2-1.3,0.7-3-0.2-4.4
		c-1.9-2.8-4.5-4.9-7.1-7c-4.3-3.5-9.2-5.9-14.6-7c-0.8-0.2-1.7-0.2-2.1-1.1c2.9-0.9,5.9-0.2,8.8-0.2c5.3,0.1,10.6-0.5,15.8,0.8
		c11.4,2.9,18.1,10.3,19.7,21.8c3.2,22.3-6.6,43.6-30.7,52.3c-14.6,5.3-29.5,5.6-44.7,3.7c-0.6-0.1-1.2-0.4-1.9-0.6
		c-1.4-1.8-1.4-3.8-1.4-6c0.2-5.2,0.4-10.3,1.1-15.5c0.4-2.9,0.6-2.8,3.4-2.3c18.5,3.4,36.3,3,51.3-10.4c3.7-3.3,6-7.4,6.9-12.4
		c1.1-6.3-2.3-10-8.6-9.1c-2.9,0.4-5.5,1.6-8.2,2.5c-3.1,1.1-6.3,2.3-9.7,2.1c4-0.9,5.1-4.1,5.3-7.5
		C197.8,181.9,197.4,178.5,193.8,176.8z"/>
	<path class="st9" d="M146,167.3c-7,10.4-6.5,22.2-5.8,33.8c0.6,9.9,3.3,19.5,6,29c1.2,4.1,2.9,8.2,5.1,12
		c-11.2-2.9-18.2-10.2-20.8-21.2c-3.2-13.4-2.4-27,1.1-40.4C133.5,173.3,138.2,168.5,146,167.3z"/>
	<path class="st8" d="M230.1,168.8c15,0,30,0,45.5,0c-4.6,4.4-7.2,9.4-8.3,15.2c-0.2,1.2-0.8,1.2-1.7,1.2c-8.7,0-17.4,0-26.2,0
		c-1,0-1.5-0.2-1.7-1.3c-1.1-5.7-3.7-10.6-7.8-14.7C230,169.1,230.1,168.9,230.1,168.8z"/>
	<path class="st9" d="M185.8,165.8c-1.6,0.8-3,0.4-4.4-0.4C182.9,165.3,184.4,165,185.8,165.8z"/>
	<path class="st9" d="M155.7,243.2c0.5,0,0.8,0.1,1.1,0.5C156.4,243.5,156,243.3,155.7,243.2z"/>
	<path class="st8" d="M165.1,289.7c-10.4,0.5-18.9-7.4-19.5-18.2c-0.6-10.2,7.6-19.6,17.6-20c11.3-0.5,20.1,7.2,20.6,18
		C184.3,280.7,176.5,289.2,165.1,289.7z"/>
	<path class="st8" d="M339.6,289.4c-10.1,0-18.7-9.6-17.9-20c0.8-10.8,10.1-18.5,21-17.6c9.4,0.8,17.6,10.3,16.9,19.9
		C358.9,282.2,350,290.1,339.6,289.4z"/>
	<path class="st9" d="M328.1,112.8c-1.4,0.9-2.5,0.4-3.5,0c-8.1-2.8-16.6-3.7-25.1-4.7c-8.9-1-17.9-1.5-26.9-1.2
		c-5.5,0.2-11.1,0.9-16.6,1c-8.2,0-16.4-1.2-24.7-1.2c-17.9,0-35.6,1.3-52.8,6.4c-0.2,0.1-0.5,0-0.8,0c1.1-1.4,1.9-1.8,5.2-3
		c9.3-3.3,19-4.6,28.8-5.8c18.2-2.2,36.5-2.4,54.7-2.1c17.9,0.3,35.7,1.9,53.1,6.6c2.6,0.7,5.1,1.7,7.5,3
		C327.3,112,327.5,112.3,328.1,112.8z"/>
	<path class="st9" d="M175.9,127.7c4.7-3.3,10-5,15.4-6.2c19.6-4.2,39.5-5,59.4-5.4c16.5-0.3,33,0.4,49.4,2.8
		c8.9,1.3,17.8,2.4,26,6.5c1,0.5,2.2,0.8,2.9,2c-1,0.9-1.9,0.3-2.7,0c-19.6-6-39.7-7.3-60-6c-9.4,0.6-18.7,0.2-28-0.4
		c-11.3-0.7-22.6-0.3-33.9,1C194.8,123,185.2,124.8,175.9,127.7z"/>
	<path class="st8" d="M324.2,193.1c3.6,0.4,6.7-1,9.9-2.3c1.3-0.6,2.5-1.2,3.8-1.7c2.2-0.7,4.3-0.4,5.7,1.6c1.4,2,1.3,4.2-0.1,6.2
		c-0.5,0.7-1.1,1.2-1.7,1.8c-3.4,3.5-3.6,5.3-0.3,9c1.6,1.9,3.6,3.4,5.5,5.1c2.8,2.6,2.4,4.8-1,6.4c-2.7,1.3-5.7,1.5-8.7,1.8
		c-11.9,1.1-23.5,0.5-34.4-5.2c-4.6-2.4-8.7-5.5-12-9.7c-2.2-2.8-3.5-5.9-4.1-9.3c-1.1-6.2,2.5-9.6,8.7-8.5c3.7,0.6,7,2.3,10.5,3.5
		c1.8,0.6,3.6,0.9,5.4,0.8C315.7,193.3,319.9,193.3,324.2,193.1z"/>
	<path class="st8" d="M311.8,176.7c-6.1-0.1-10.8,3.3-15.5,6.6c-0.5,0.3-0.8,0.8-1.3,1.1c-1.2,0.7-2.4,2-3.7,0.7
		c-1.3-1.3-0.8-3,0.3-4.3c8.8-10.5,21.9-17.6,37.2-12.4c5.3,1.8,10.1,4.5,14.2,8.4c1.5,1.5,2.6,3.1,3.2,5.1c0.4,1.6,0.1,3-1.2,4
		c-1.2,0.9-2.5,1-3.9,0.3c-2.6-1.3-4.5-3.5-6.9-5.2c-2.2-1.6-4.4-3.1-7.2-3.2C322,176.1,317,175.9,311.8,176.7z"/>
	<path class="st7" d="M311.8,176.7c5.1-0.8,10.2-0.6,15.2,1.1c4.5,4.5,3.1,12.3-2.8,15.3c-4.3,0.2-8.6,0.2-12.8-0.5
		c-3.5-2.7-5.1-8.8-2.7-13.3C309.4,178,310.6,177.3,311.8,176.7z"/>
	<path class="st7" d="M193.8,176.8c3.6,1.7,4,5.1,3.8,8.4c-0.3,3.4-1.4,6.5-5.3,7.5c-0.3,0.1-0.6,0.2-0.8,0.3c-0.4,0-0.8,0-1.2,0
		c-3.1,0-6.3,0-9.4,0c-3.1-1.3-4.4-4-5-7.1c-0.6-2.9,0.5-5.4,1.7-8c0.9-0.2,1.9-0.4,2.8-0.6c4.2-0.9,8.5-0.6,12.8-0.5
		C193.3,176.8,193.5,176.8,193.8,176.8z"/>
	<path class="st9" d="M177.5,178c-1.2,2.5-2.3,5.1-1.7,8c0.6,3.1,1.9,5.8,5,7.1c-4-0.2-7.7-1.4-11.2-3.4c-0.9-0.5-1.5-1.1-0.9-1.9
		C170.9,184,172.1,179.1,177.5,178z"/>
	<path class="st9" d="M159.9,210.9c0.2-3.2,1.2-6.3,2.3-9.3c0.3-0.8,0.5-1.7,1.6-1.6c1,0.1,1.5,1,1.8,1.9c0.7,3-1.3,4.8-2.9,6.8
		C162,209.6,160.9,210.2,159.9,210.9L159.9,210.9z"/>
	<path class="st9" d="M193,176.8c-4.3-0.1-8.5-0.4-12.8,0.5C184.4,175.4,188.7,175.3,193,176.8z"/>
	<path class="st9" d="M190.2,193.1c0.4,0,0.8,0,1.2,0C191,193.1,190.6,193.1,190.2,193.1z"/>
	<path class="st9" d="M159.9,210.9L159.9,210.9L159.9,210.9z"/>
</g>
</svg>
