<?xml version="1.0" encoding="utf-8"?>
<!-- Generator: Adobe Illustrator 24.1.2, SVG Export Plug-In . SVG Version: 6.00 Build 0)  -->
<svg version="1.1" id="Layer_1" xmlns="http://www.w3.org/2000/svg" xmlns:xlink="http://www.w3.org/1999/xlink" x="0px" y="0px"
	 viewBox="0 0 762.6 229.9" style="enable-background:new 0 0 762.6 229.9;" xml:space="preserve">
<style type="text/css">
	.st0{fill:#294999;}
	.st1{fill:#B16127;}
	.st2{fill-rule:evenodd;clip-rule:evenodd;fill:#733140;}
	.st3{fill-rule:evenodd;clip-rule:evenodd;fill:#FFFFFF;}
	.st4{fill:none;}
	.st5{enable-background:new    ;}
	.st6{fill:#787676;}
</style>
<rect class="st0" width="762.6" height="229.9"/>
<g>
	<path class="st1" d="M297.5,105.9h-18.1v2.3h18.1V105.9z M296.8,107.6h-16.7v-1h16.6L296.8,107.6L296.8,107.6z"/>
	<path class="st1" d="M297.3,167.9v-59.3h-17.8v59.3H297.3z M280.3,109.3h16.3v57.9h-16.3V109.3z"/>
	<path class="st1" d="M279.4,99.6v0.3h17.7h0.4v-0.3c0-0.1,0.1-1.3,1.6-1.9l0.2-0.1v-2.2h-21.9v2.2l0.2,0.1
		C279.3,98.3,279.4,99.6,279.4,99.6z M278.3,96.1h20.3v1.1c-1.3,0.6-1.7,1.6-1.8,2.1h-16.7c-0.1-0.5-0.5-1.5-1.8-2.1V96.1z"/>
	<path class="st1" d="M300.9,92.5H276V95h24.8L300.9,92.5L300.9,92.5z M300.2,94.4h-23.4v-1.2h23.4V94.4z"/>
	<path class="st1" d="M303.9,180.6l-0.3-0.1c-3.5-0.7-4.9-3.9-4.9-3.9l-0.1-0.2h-20.1h-0.2l-0.1,0.2c0,0.1-1.4,3.1-4.9,3.9l-0.3,0.1
		v2.6h30.9V180.6L303.9,180.6z M303.2,182.7h-29.4v-1.5c3.2-0.8,4.6-3.3,5-4h19.4c0.4,0.7,1.8,3.3,5,4V182.7z"/>
	<path class="st1" d="M270.5,186.7h36v-3h-36V186.7z M271.2,184.3h34.5v1.7h-34.5V184.3z"/>
	<path class="st1" d="M282.1,110.1c-0.7,0-1.3,0.5-1.3,1.2v53.5c0,0.7,0.5,1.2,1.3,1.2s1.3-0.5,1.3-1.2v-53.5
		C283.3,110.6,282.8,110.1,282.1,110.1z"/>
	<path class="st1" d="M285.3,110.1c-0.7,0-1.3,0.5-1.3,1.2v53.5c0,0.7,0.5,1.2,1.3,1.2s1.3-0.5,1.3-1.2v-53.5
		C286.6,110.6,286,110.1,285.3,110.1z"/>
	<path class="st1" d="M288.5,110.1c-0.7,0-1.3,0.5-1.3,1.2v53.5c0,0.7,0.5,1.2,1.3,1.2s1.3-0.5,1.3-1.2v-53.5
		C289.7,110.6,289.2,110.1,288.5,110.1z"/>
	<path class="st1" d="M291.6,110.1c-0.7,0-1.3,0.5-1.3,1.2v53.5c0,0.7,0.5,1.2,1.3,1.2s1.3-0.5,1.3-1.2v-53.5
		C292.9,110.6,292.4,110.1,291.6,110.1z"/>
	<path class="st1" d="M294.9,110.1c-0.7,0-1.3,0.5-1.3,1.2v53.5c0,0.7,0.5,1.2,1.3,1.2s1.3-0.5,1.3-1.2v-53.5
		C296.1,110.6,295.5,110.1,294.9,110.1z"/>
	<path class="st1" d="M277.2,101.9L277.2,101.9v2v0.1l0,0c0.1,0.9,0.9,1.6,1.8,1.6h18.9c1,0,1.8-0.7,1.8-1.6l0,0v-0.1V102v-0.1l0,0
		c-0.1-0.9-0.9-1.6-1.8-1.6H279C278.1,100.2,277.3,101,277.2,101.9L277.2,101.9z M279.1,100.9H298c0.6,0,1,0.4,1.2,0.9h-21.3
		C278,101.3,278.5,100.9,279.1,100.9z M299.2,104c-0.1,0.5-0.5,0.9-1.2,0.9h-18.9c-0.6,0-1-0.4-1.2-0.9H299.2z"/>
	<path class="st1" d="M300.5,172.2L300.5,172.2V172v-1.9V170l0,0c-0.1-1-0.9-1.7-1.9-1.7h-20c-1,0-1.9,0.7-1.9,1.7l0,0v0.1v2v0.1
		l0,0c0.1,1,0.9,1.7,1.9,1.7h20C299.6,173.8,300.5,173.1,300.5,172.2z M298.6,173.2h-20c-0.6,0-1.2-0.4-1.2-1h22.5
		C299.7,172.8,299.2,173.2,298.6,173.2z M277.3,170c0.1-0.6,0.6-1,1.2-1h20c0.6,0,1.2,0.4,1.2,1H277.3z"/>
	<path class="st1" d="M278.3,176.2h20.5v-2h-20.5V176.2z M279,174.9h19.1v0.7H279V174.9z"/>
</g>
<g>
	<path class="st2" d="M288.6,37c15.4,0,27.7,12,27.7,26.8s-12.4,26.8-27.7,26.8c-15.3,0-27.8-12-27.8-26.8S273.2,37,288.6,37
		L288.6,37z"/>
	<path class="st3" d="M286.9,73.8l2.5,4.4l0,0l2.5,4.3l-3.5,5.9L281,76.1h-14.8l3.5-5.9h8l0,0h2.9h0.8h3.2l0,0L286.9,73.8
		L286.9,73.8z M288.6,39l7.4,12.3h14.8l-3.5,5.8h-7.8h-0.2h-0.5h-3.5h-0.2h-0.5h-3.5l0,0l-6.8-11.6L288.6,39L288.6,39z M280.8,51.5
		l0.5-0.3c0.1-0.1,0.4-0.1,0.5,0.1l3.8,6.1c0.1,0.1,0.1,0.4-0.1,0.5l-0.5,0.3c-0.1,0.1-0.4,0.1-0.5-0.1l-3.8-6.1
		C280.6,51.8,280.7,51.7,280.8,51.5L280.8,51.5z M283.5,48.3c-0.1-0.3-0.1-0.5,0-0.8l0.2-0.5c0.1-0.3,0.2-0.1,0.5,0.1
		c1.8,3,4.7,7.6,6.4,10.5c1.4,2.3,0.5,5.1-1.8,6.5s-5.4,0.6-6.8-1.6c-1.8-3-4.8-7.8-6.6-10.8c-0.1-0.3-0.1-0.4,0.1-0.4h0.6
		c0.2,0,0.5,0.1,0.6,0.4l4.5,7.3c0.6,1,2.5,1.1,3.8,0.5c-1.1,0.9-1.2,2-0.5,3.1c0.7,1.3,2.4,1.6,3.7,0.9c1.3-0.8,1.8-2.4,1-3.6
		c-0.6-1.1-1.9-1.6-3.1-1.3c1.3-0.9,1.9-2.5,1.3-3.5L283.5,48.3L283.5,48.3z M293.6,70.6l1.7-3.1c0.2-0.5,0.1-1.6-0.2-2.4l-1.9-3.1
		c-0.5-0.8-1-0.8-1.2-0.1l-1.3,2.8c-0.2,0.5-0.1,1.6,0.2,2.4l1.9,3.1C293.3,70.7,293.4,71.1,293.6,70.6L293.6,70.6z M292.2,71.4
		l-3.7-0.1c-0.6,0-1.6-0.8-1.9-1.4l-1.9-3.1c-0.5-0.8-0.2-1.3,0.5-1.1l3.1,0.3c0.6,0.1,1.6,0.8,1.9,1.4l1.9,3.1
		C292.5,71.1,292.8,71.4,292.2,71.4L292.2,71.4z M293.1,71.8l0.5-0.3c0.1-0.1,0.1,0,0.2,0.1L297,77c0.1,0.1,0,0.1-0.1,0.3l-0.5,0.3
		c-0.1,0.1-0.1,0-0.2-0.1l-3.2-5.4C293,71.9,293.1,71.8,293.1,71.8L293.1,71.8z M282.5,49.1l-0.4,0.5c-0.1,0.3-0.1,0.5,0,0.6
		l3.6,5.9c0.1,0.3,0.2,0.3,0.5,0.1l0.4-0.5c0.1-0.1,0.1-0.5,0-0.6l-3.6-5.9C282.9,49,282.6,48.9,282.5,49.1L282.5,49.1z M278.2,51.4
		h0.6c0.2,0,0.5,0.1,0.6,0.4l3.6,6c0.1,0.3,0.1,0.4-0.1,0.4l-0.6,0.1c-0.2,0-0.5-0.1-0.6-0.4l-3.6-6C278,51.7,278,51.4,278.2,51.4
		L278.2,51.4z M306.7,58l-3.5,5.8l7.4,12.3h-8.2l-1.3-2.1l-5.7-9.9l0,0l0,0l2-3.5L299,58H306.7L306.7,58L306.7,58z M270.3,69.3
		l3.3-5.6l-7.4-12.3h7.3l7,11.9l-2,3.5l-1.6,2.6L270.3,69.3L270.3,69.3z"/>
</g>
<rect x="333.7" y="94.4" class="st4" width="154.4" height="34.2"/>
<g class="st5">
	<path class="st6" d="M355.2,104.7c0,1.9-0.4,3.4-1.1,4.8c-0.7,1.3-1.7,2.4-2.9,3.2c-1.2,0.8-2.6,1.4-4.3,1.8
		c-1.6,0.4-3.4,0.6-5.2,0.6v6.4h-9.3v-27h9.3c1.9,0,3.6,0.2,5.2,0.6c1.6,0.4,3,1,4.3,1.8c1.2,0.8,2.2,1.9,2.9,3.2
		S355.2,102.8,355.2,104.7z M350.9,104.7c0-1.2-0.2-2.3-0.7-3.2s-1.1-1.6-1.9-2.2c-0.8-0.6-1.8-1-2.9-1.3c-1.1-0.3-2.3-0.4-3.7-0.4
		h-5v20.5h1.1v-6.4h3.8c1.3,0,2.5-0.1,3.7-0.4c1.1-0.3,2.1-0.7,2.9-1.3s1.5-1.3,1.9-2.2S350.9,105.9,350.9,104.7z M349.7,104.7
		c0,1.2-0.2,2.1-0.7,2.9s-1,1.4-1.8,1.9c-0.7,0.5-1.6,0.8-2.5,1c-1,0.2-2,0.3-3,0.3h-3.8V98.6h3.8c1.1,0,2.1,0.1,3,0.3
		c1,0.2,1.8,0.5,2.5,1c0.7,0.5,1.3,1.1,1.8,1.9S349.7,103.5,349.7,104.7z M341.8,107.7h0.4c1.2,0,2.1-0.3,2.7-0.8s0.8-1.3,0.8-2.2
		c0-0.9-0.3-1.7-0.8-2.2c-0.5-0.5-1.4-0.8-2.7-0.8h-0.4V107.7z"/>
	<path class="st6" d="M357.4,94.4h9.9v27h-9.9V94.4z M362.9,118.1V97.6h-1.1v20.5H362.9z"/>
	<path class="st6" d="M370.4,94.4h9.7v19.9h8.1v7.1h-17.8V94.4z M385.7,118.1v-1h-9.8V97.6h-1.1v20.5H385.7z"/>
	<path class="st6" d="M399.9,94.4h7l11.1,27h-9.2l-1-2.4H399l-1,2.4h-9.2L399.9,94.4z M395.4,118.1l0.8-2h14.5l0.8,2h1.2l-8.5-20.5
		h-1.7l-8.5,20.5H395.4z M403.4,98.6l6.8,16.6h-13.7L403.4,98.6z M405.4,113l-2-4.7l-2,4.7H405.4z"/>
	<path class="st6" d="M418.7,94.4h10.1c1.9,0,3.6,0.2,5.2,0.7c1.6,0.5,3,1.1,4.1,2c1.2,0.9,2.1,2,2.7,3.3c0.7,1.3,1,2.8,1,4.5
		c0,1.3-0.2,2.5-0.6,3.4c-0.4,0.9-0.9,1.7-1.4,2.3c-0.6,0.7-1.2,1.3-2,1.8l5.5,8.9h-11l-4.4-6.8v6.8h-9.3V94.4z M427.8,112
		c1.1,0,2.3-0.1,3.3-0.3l4.2,6.5h1.4l-4.4-6.8c1.6-0.5,2.8-1.3,3.8-2.4c0.9-1.1,1.4-2.4,1.4-4.1c0-1.2-0.2-2.2-0.7-3.1
		s-1.2-1.6-2-2.2c-0.9-0.6-1.9-1.1-3-1.4c-1.2-0.3-2.4-0.5-3.8-0.5h-4.7v20.5h1.1V112H427.8z M424.2,111V98.6h3.6
		c2.7,0,4.7,0.5,6.2,1.6c1.5,1.1,2.3,2.6,2.3,4.6c0,2-0.8,3.5-2.3,4.6c-1.5,1.1-3.6,1.6-6.2,1.6H424.2z M428,107.7h0.5
		c1.1,0,2.1-0.2,2.8-0.7c0.8-0.5,1.2-1.2,1.2-2.3c0-1.1-0.4-1.8-1.2-2.3c-0.8-0.5-1.7-0.7-2.8-0.7H428V107.7z"/>
	<path class="st6" d="M444.3,94.4h17.2v7.1h-7.9v3h7.8v6.7h-7.8v3.1h8.2v7.1h-17.5V94.4z M458.6,118.1v-1h-8.8v-8.9h8.3v-1h-8.3
		v-8.7h8.8v-1h-9.9v20.5H458.6z"/>
	<path class="st6" d="M463.2,113c0.6,0.2,1.3,0.3,2,0.4c0.6,0.1,1.2,0.2,2,0.3c0.7,0.1,1.5,0.1,2.3,0.1c1.3,0,2-0.5,2-1.4
		c0-0.4-0.2-0.7-0.6-1.1s-0.9-0.8-1.6-1.2c-0.6-0.4-1.3-0.9-2-1.5c-0.7-0.5-1.4-1.2-2-1.9c-0.6-0.7-1.1-1.5-1.6-2.4s-0.6-1.9-0.6-3
		c0-1.3,0.2-2.4,0.7-3.4s1.2-1.8,2.1-2.4c0.9-0.6,1.9-1.1,3.1-1.5c1.2-0.3,2.4-0.5,3.8-0.5c0.7,0,1.4,0,2.1,0.1
		c0.7,0.1,1.3,0.1,1.9,0.2c0.6,0.1,1.3,0.2,1.9,0.2v7.6c-0.2,0-0.5-0.1-0.8-0.1c-0.2,0-0.5-0.1-0.8-0.1c-0.3,0-0.6,0-0.9,0
		c-0.2,0-0.4,0-0.7,0c-0.3,0-0.5,0-0.7,0.1c-0.2,0.1-0.4,0.1-0.6,0.3c-0.2,0.1-0.3,0.3-0.3,0.6c0,0.2,0.2,0.5,0.6,0.8
		c0.4,0.3,0.9,0.7,1.4,1.1c0.6,0.4,1.2,0.9,1.9,1.5c0.7,0.6,1.3,1.2,1.9,1.9s1.1,1.6,1.4,2.5c0.4,0.9,0.6,1.9,0.6,3.1
		c0,1.2-0.2,2.3-0.6,3.3c-0.4,1-1,1.9-1.9,2.7c-0.9,0.8-2,1.4-3.3,1.8s-2.9,0.7-4.8,0.7c-1.1,0-2.1,0-3.1-0.1
		c-1-0.1-1.8-0.2-2.5-0.3c-0.8-0.1-1.6-0.3-2.3-0.5V113z M466.9,117.9c0.4,0.1,0.8,0.1,1.3,0.2c0.4,0.1,0.8,0.1,1.3,0.1
		c0.5,0,0.9,0.1,1.4,0.1c0.8,0,1.6-0.1,2.4-0.3c0.8-0.2,1.5-0.5,2.1-0.9c0.6-0.4,1.1-0.9,1.5-1.6c0.4-0.6,0.5-1.4,0.5-2.3
		c0-0.8-0.2-1.5-0.6-2.2s-1-1.4-1.6-2c-0.7-0.6-1.4-1.3-2.1-1.9c-0.7-0.6-1.4-1.2-2.1-1.8c-0.7-0.6-1.2-1.2-1.6-1.8
		s-0.6-1.2-0.6-1.9c0-1,0.3-1.7,1-2.2c0.7-0.5,1.8-0.8,3.2-0.8c0.2,0,0.5,0,0.7,0s0.5,0,0.7,0.1c0.2,0,0.5,0,0.7,0v-1.1
		c-0.2,0-0.4,0-0.7,0c-0.2,0-0.4,0-0.7-0.1c-0.2,0-0.5,0-0.8,0c-1.6,0-2.9,0.3-3.9,1c-1,0.7-1.5,1.7-1.5,3.1c0,0.8,0.2,1.5,0.6,2.1
		c0.4,0.7,1,1.3,1.6,1.9c0.7,0.6,1.4,1.2,2.1,1.8c0.7,0.6,1.4,1.2,2.1,1.8c0.7,0.6,1.2,1.2,1.6,1.9c0.4,0.6,0.6,1.3,0.6,2
		c0,1.3-0.5,2.3-1.4,3c-1,0.7-2.3,1-3.9,1c-1,0-1.9-0.1-2.7-0.2c-0.4-0.1-0.9-0.1-1.3-0.2V117.9z"/>
</g>
<g>
	<g>
		<path class="st6" d="M335.4,141.5h-4.5v-3.1h4.5V141.5z M335.3,157h-4.4c0-0.4,0-1.3,0-2.7s0-2.6,0-3.8c0-1,0-2.1,0-3.1
			s0-2.4-0.1-3.8h4.4c0,1.2,0,2.4-0.1,3.4s0,2.1,0,3.4c0,2,0,3.5,0,4.6C335.2,155.8,335.3,156.6,335.3,157z"/>
		<path class="st6" d="M352.7,157.1c-0.2,0-0.5,0-1,0c-0.4,0-0.8,0-1.2,0c-2,0-3.7-0.1-4.9-0.3c-1.2-0.2-2.3-0.4-3.2-0.9
			c-1.3-0.6-2.3-1.3-3-2.3s-1-2-1-3.3c0-1.2,0.4-2.4,1.1-3.4s1.9-1.8,3.4-2.4c0.8-0.3,1.6-0.6,2.6-0.7c1-0.2,1.9-0.3,2.9-0.3
			l-0.1-5.9h4.4c0,0.3,0,1.3,0,3.4c0,2,0,4.2,0,6.7c0,2.2,0,4,0,5.5C352.7,154.8,352.7,156.1,352.7,157.1z M348.5,148.8
			c0-0.3,0-0.7,0-1.1c0-0.4,0-0.7,0-1.1c-0.7,0-1.3,0.1-1.9,0.1c-0.6,0.1-1.2,0.2-1.6,0.5c-0.7,0.3-1.2,0.7-1.6,1.3s-0.5,1.2-0.5,2
			c0,0.7,0.2,1.3,0.5,1.8s0.8,1,1.4,1.2c0.5,0.3,1,0.4,1.6,0.6s1.2,0.2,1.9,0.2c0.1,0,0.1,0,0.1,0h0.1c0-0.1,0-0.6,0-1.6
			C348.4,151.8,348.5,150.5,348.5,148.8z"/>
		<path class="st6" d="M369.9,150.2H360c0,0.7,0.2,1.3,0.6,1.9s1,1.1,1.8,1.4c0.6,0.2,1.2,0.4,1.8,0.5s1.3,0.2,2.1,0.2
			c0.6,0,1.2,0,1.6,0s0.8-0.1,1-0.1l-0.4,2.9c-0.2,0-0.5,0.1-1,0.1s-1,0.1-1.6,0.1c-1.6,0-3.1-0.2-4.4-0.5s-2.4-0.8-3.3-1.5
			c-0.7-0.6-1.4-1.3-1.8-2.1s-0.7-1.8-0.7-2.8s0.2-1.9,0.5-2.8s0.9-1.6,1.6-2.3c0.6-0.6,1.4-1.1,2.4-1.4c1-0.3,1.9-0.5,2.9-0.5
			s1.9,0.1,2.7,0.4s1.5,0.7,2.1,1.2c0.7,0.6,1.2,1.4,1.5,2.3C369.6,147.9,369.9,149,369.9,150.2z M365.8,148.5
			c-0.1-0.8-0.4-1.6-0.9-2.1s-1.2-0.8-2-0.8c-0.9,0-1.5,0.2-2.1,0.7c-0.5,0.5-0.9,1.2-1,2.1L365.8,148.5L365.8,148.5z"/>
		<path class="st6" d="M387.2,150.3c0,1-0.2,2-0.6,2.9c-0.4,1-1,1.7-1.9,2.4c-0.7,0.6-1.5,1-2.4,1.3s-1.8,0.4-2.9,0.4
			c-1,0-1.9-0.2-2.9-0.4c-0.9-0.3-1.7-0.7-2.4-1.3c-0.8-0.7-1.4-1.5-1.8-2.4c-0.4-1-0.7-1.9-0.7-3c0-1,0.2-2,0.5-2.8s1-1.6,1.7-2.3
			c0.7-0.6,1.5-1.1,2.4-1.5s1.9-0.5,3-0.5s2.1,0.2,3,0.4c0.9,0.3,1.7,0.8,2.4,1.4c0.8,0.7,1.4,1.5,1.8,2.4
			C387,148.3,387.2,149.2,387.2,150.3z M382.8,150.3c0-0.6-0.1-1.2-0.3-1.9c-0.2-0.6-0.5-1.1-1-1.5c-0.2-0.2-0.6-0.4-1-0.6
			c-0.4-0.1-0.7-0.2-1.2-0.2s-0.9,0.1-1.2,0.2c-0.3,0.2-0.7,0.3-1,0.7c-0.4,0.3-0.7,0.8-0.9,1.4c-0.2,0.6-0.3,1.2-0.3,1.7
			c0,0.7,0.1,1.3,0.3,1.9c0.2,0.6,0.5,1.1,1,1.5c0.2,0.2,0.6,0.4,0.9,0.6c0.3,0.1,0.7,0.2,1.2,0.2c0.4,0,0.8-0.1,1.2-0.2
			c0.4-0.2,0.7-0.3,1-0.6c0.4-0.4,0.7-0.8,0.9-1.5C382.8,151.5,382.8,151,382.8,150.3z"/>
		<path class="st6" d="M394.7,157h-4.4c0-0.6,0-1.9,0-3.9s0-4,0-6.1c0-1.2,0-2.6,0-4.2c0-1.6,0-3.3-0.1-5.1h4.4c0,1.5,0,3,0,4.6
			s0,3.1,0,4.5c0,2.3,0,4.3,0,6C394.7,154.6,394.7,156,394.7,157z"/>
		<path class="st6" d="M413.7,150.3c0,1-0.2,2-0.6,2.9s-1,1.7-1.9,2.4c-0.7,0.6-1.5,1-2.4,1.3s-1.8,0.4-2.9,0.4
			c-1,0-1.9-0.2-2.9-0.4c-0.9-0.3-1.7-0.7-2.4-1.3c-0.8-0.7-1.4-1.5-1.8-2.4c-0.4-1-0.7-1.9-0.7-3c0-1,0.2-2,0.5-2.8s1-1.6,1.7-2.3
			c0.7-0.6,1.5-1.1,2.4-1.5c0.9-0.3,1.9-0.5,3-0.5s2.1,0.2,3,0.4c0.9,0.3,1.7,0.8,2.4,1.4c0.8,0.7,1.4,1.5,1.8,2.4
			C413.5,148.3,413.7,149.2,413.7,150.3z M411.2,139.7l-7.7,2.6l-1-2.2l7.6-3.1L411.2,139.7z M409.4,150.3c0-0.6-0.1-1.2-0.3-1.9
			s-0.5-1.1-1-1.5c-0.2-0.2-0.6-0.4-1-0.6c-0.4-0.1-0.7-0.2-1.2-0.2s-0.9,0.1-1.2,0.2c-0.3,0.2-0.7,0.3-1,0.7
			c-0.4,0.3-0.7,0.8-0.9,1.4c-0.2,0.6-0.3,1.2-0.3,1.7c0,0.7,0.1,1.3,0.3,1.9c0.2,0.6,0.5,1.1,1,1.5c0.2,0.2,0.6,0.4,0.9,0.6
			c0.3,0.1,0.7,0.2,1.2,0.2c0.4,0,0.8-0.1,1.2-0.2c0.4-0.2,0.7-0.3,1-0.6c0.4-0.4,0.7-0.8,0.9-1.5
			C409.3,151.5,409.4,151,409.4,150.3z"/>
		<path class="st6" d="M429.1,143.5c0,0.4,0,1.2,0,2.5s0,2.6,0,3.8c0,0.8,0,1.7,0,2.8c0,1,0,2.1,0,3.2c0,1.5-0.3,2.6-0.9,3.5
			s-1.5,1.6-2.6,2.2c-1.3,0.6-2.7,1-4.3,1.2c-1.6,0.2-3,0.3-4.5,0.3l-0.5-2.9c1.2,0,2.3-0.1,3.2-0.2s1.8-0.2,2.4-0.4
			c1-0.3,1.6-0.6,2.1-1.1c0.4-0.4,0.6-1,0.6-1.6c-0.1,0-0.2,0-0.2,0c-0.1,0-0.2,0-0.3,0c-1,0-2.1-0.1-3.2-0.4
			c-1.2-0.3-2.1-0.6-2.9-1.1c-1-0.6-1.8-1.3-2.3-2.1s-0.9-1.9-0.9-3.2c0-1.2,0.4-2.3,1.1-3.3s1.8-1.7,3.2-2.2
			c0.9-0.4,1.9-0.7,3.1-0.8s2.6-0.2,4.4-0.2c0.4,0,0.7,0,1.2,0C428.3,143.5,428.7,143.5,429.1,143.5z M424.9,150.3
			c0-0.4,0-1.1,0-1.7s0-1.4,0-2.1c-0.1,0-0.1,0-0.2,0s-0.1,0-0.2,0c-0.6,0-1.2,0.1-1.6,0.1c-0.4,0.1-1,0.2-1.5,0.4
			c-0.7,0.3-1.2,0.7-1.6,1.3s-0.5,1.2-0.5,2s0.2,1.3,0.5,1.9c0.3,0.6,0.9,1,1.5,1.3c0.4,0.2,1,0.4,1.5,0.5s1.2,0.2,1.8,0.2
			c0.1,0,0.1,0,0.2,0s0.1,0,0.2,0c0-0.1,0-0.6,0-1.3C424.9,152.1,424.9,151.2,424.9,150.3z"/>
		<path class="st6" d="M437.8,141.5h-4.5v-3.1h4.5V141.5z M437.7,157h-4.4c0-0.4,0-1.3,0-2.7s0-2.6,0-3.8c0-1,0-2.1,0-3.1
			s0-2.4-0.1-3.8h4.4c0,1.2,0,2.4-0.1,3.4s0,2.1,0,3.4c0,2,0,3.5,0,4.6C437.6,155.8,437.7,156.6,437.7,157z"/>
		<path class="st6" d="M452.8,153.9l-0.4,3.2c-0.1,0-0.2,0-0.4,0c-0.1,0-0.2,0-0.4,0c-1.6,0-3-0.1-4.3-0.4c-1.2-0.3-2.3-0.7-3.2-1.2
			c-1.1-0.6-1.9-1.3-2.5-2.2s-0.9-1.9-0.9-3s0.3-2.1,0.9-2.9c0.5-0.8,1.3-1.6,2.3-2.1c1-0.6,2.1-1,3.4-1.3s2.7-0.4,4.3-0.4
			c0.2,0,0.3,0,0.4,0s0.2,0,0.2,0l0.4,3.2c-0.1,0-0.2,0-0.3,0c-0.1,0-0.2,0-0.2,0c-0.7,0-1.4,0.1-2.1,0.1c-0.7,0.1-1.3,0.2-2,0.4
			c-0.9,0.3-1.5,0.7-2,1.2c-0.5,0.6-0.7,1.2-0.7,1.9c0,0.8,0.2,1.4,0.7,1.9s1.1,0.9,1.9,1.2c0.6,0.2,1.3,0.3,2.1,0.4
			s1.5,0.1,2.1,0.1c0.1,0,0.3,0,0.5,0S452.8,153.9,452.8,153.9z"/>
		<path class="st6" d="M470.1,150.3c0,1-0.2,2-0.6,2.9s-1,1.7-1.9,2.4c-0.7,0.6-1.5,1-2.4,1.3s-1.8,0.4-2.9,0.4
			c-1,0-1.9-0.2-2.9-0.4s-1.7-0.7-2.4-1.3c-0.8-0.7-1.4-1.5-1.8-2.4s-0.7-1.9-0.7-3c0-1,0.2-2,0.5-2.8c0.4-0.8,1-1.6,1.7-2.3
			c0.7-0.6,1.5-1.1,2.4-1.5c0.9-0.3,1.9-0.5,3-0.5s2.1,0.2,3,0.4c0.9,0.3,1.7,0.8,2.4,1.4c0.8,0.7,1.4,1.5,1.8,2.4
			C469.8,148.3,470.1,149.2,470.1,150.3z M465.7,150.3c0-0.6-0.1-1.2-0.3-1.9s-0.5-1.1-1-1.5c-0.2-0.2-0.6-0.4-1-0.6
			c-0.4-0.1-0.7-0.2-1.2-0.2s-0.9,0.1-1.2,0.2c-0.3,0.2-0.7,0.3-1,0.7c-0.4,0.3-0.7,0.8-0.9,1.4c-0.2,0.6-0.3,1.2-0.3,1.7
			c0,0.7,0.1,1.3,0.3,1.9c0.2,0.6,0.5,1.1,1,1.5c0.2,0.2,0.6,0.4,0.9,0.6c0.3,0.1,0.7,0.2,1.2,0.2c0.4,0,0.8-0.1,1.2-0.2
			c0.4-0.2,0.7-0.3,1-0.6c0.4-0.4,0.7-0.8,0.9-1.5S465.7,151,465.7,150.3z"/>
		<path class="st6" d="M483.2,152.9c0,0.7-0.2,1.3-0.7,1.9s-1,1-1.6,1.3s-1.5,0.6-2.6,0.8c-1,0.2-2.1,0.2-3.1,0.2
			c-0.7,0-1.3,0-1.9,0c-0.5,0-0.9-0.1-1.2-0.1l-0.4-2.9c0.2,0,0.6,0,1.1,0.1s1,0.1,1.6,0.1c0.3,0,0.7,0,1.1-0.1s0.8-0.1,1.2-0.2
			c0.5-0.1,0.9-0.3,1-0.5c0.2-0.2,0.2-0.4,0.2-0.7s-0.1-0.4-0.3-0.6s-0.5-0.3-0.9-0.6c-0.3-0.2-0.7-0.4-1.3-0.6
			c-0.5-0.2-1-0.4-1.4-0.7c-0.7-0.4-1.2-0.8-1.5-1.3s-0.5-1.1-0.5-1.7c0-0.7,0.2-1.3,0.6-1.8s1-1,1.9-1.3c0.7-0.3,1.5-0.5,2.4-0.6
			c1-0.1,1.8-0.2,2.6-0.2c0.7,0,1.3,0,1.7,0s0.7,0,0.9,0l0.4,2.9c-0.1,0-0.4,0-0.8-0.1s-0.9-0.1-1.5-0.1c-0.4,0-0.8,0-1.2,0.1
			c-0.4,0.1-0.7,0.1-1,0.2c-0.4,0.1-0.6,0.3-0.8,0.4s-0.2,0.4-0.2,0.6c0,0.3,0.1,0.4,0.4,0.7s0.5,0.3,0.9,0.5s0.8,0.4,1.3,0.6
			s1,0.4,1.3,0.6c0.7,0.4,1.2,0.8,1.5,1.3C483.1,151.8,483.2,152.2,483.2,152.9z"/>
	</g>
</g>
</svg>
