<?xml version="1.0" encoding="utf-8"?>
<!-- Generator: Adobe Illustrator 24.1.2, SVG Export Plug-In . SVG Version: 6.00 Build 0)  -->
<svg version="1.1" id="Layer_1" xmlns="http://www.w3.org/2000/svg" xmlns:xlink="http://www.w3.org/1999/xlink" x="0px" y="0px"
	 viewBox="0 0 142 80.8" style="enable-background:new 0 0 142 80.8;" xml:space="preserve">
<style type="text/css">
	.st0{fill-rule:evenodd;clip-rule:evenodd;fill:#C1272D;}
	.st1{fill-rule:evenodd;clip-rule:evenodd;fill:#FFFFFF;}
	.st2{fill:none;}
	.st3{fill:#A2272D;}
	.st4{font-family:'Phosphate-Inline';}
	.st5{font-size:9px;}
	.st6{enable-background:new    ;}
	.st7{fill:#414242;}
	.st8{fill:none;stroke:#2300D0;stroke-miterlimit:10;}
</style>
<g>
	<path class="st0" d="M65.7,14.4C78.6,14.4,89,24.8,89,37.6S78.6,60.8,65.7,60.8S42.4,50.4,42.4,37.6S52.8,14.4,65.7,14.4L65.7,14.4
		z"/>
	<path class="st1" d="M64.4,46l2.2,3.8l0,0l2.1,3.7l-2.9,5.1l-6.2-10.7H47.2l2.9-5.1h6.8l0,0h2.4H60h2.7l0,0L64.4,46L64.4,46z
		 M65.7,15.7L72,26.4h12.4l-2.9,5H75h-0.2h-0.4h-2.8h-0.2H71h-2.8l0,0l-5.7-10L65.7,15.7L65.7,15.7z M59.2,26.5l0.4-0.3
		c0.1-0.1,0.3,0,0.4,0.1l3.2,5.4c0.1,0.1,0,0.3-0.1,0.4l-0.4,0.3c-0.1,0.1-0.3,0-0.4-0.1l-3.2-5.4C59.1,26.8,59.1,26.6,59.2,26.5
		L59.2,26.5z M61.4,23.8c-0.1-0.2-0.1-0.5,0-0.6l0.3-0.5c0.1-0.2,0.3-0.1,0.3,0c1.5,2.6,3.9,6.6,5.4,9.2c1.1,1.9,0.4,4.4-1.6,5.6
		c-2,1.2-4.5,0.5-5.7-1.4c-1.5-2.6-4-6.7-5.5-9.4c-0.1-0.2,0-0.3,0.1-0.3h0.6c0.2,0,0.4,0.1,0.5,0.3l3.8,6.3c0.5,0.9,2.1,1,3.2,0.5
		c-0.8,0.7-1,1.8-0.4,2.8c0.6,1.1,2.1,1.5,3.1,0.8c1.1-0.6,1.5-2,0.8-3.1c-0.6-1-1.6-1.4-2.6-1c1.1-0.8,1.6-2.2,1.1-3L61.4,23.8
		L61.4,23.8z M70,43.1l1.4-2.8c0.3-0.5,0.1-1.4-0.2-2l-1.6-2.7c-0.3-0.6-0.8-0.7-1.1-0.1l-1,2.5c-0.2,0.5-0.1,1.4,0.2,2l1.6,2.7
		C69.7,43.2,69.8,43.5,70,43.1L70,43.1z M68.8,43.8l-3.1-0.1c-0.6,0-1.3-0.6-1.7-1.2l-1.6-2.7c-0.3-0.6-0.2-1,0.4-1l2.6,0.3
		c0.6,0,1.3,0.6,1.7,1.2l1.6,2.7C69.1,43.5,69.3,43.8,68.8,43.8L68.8,43.8z M69.6,44.2L70,44c0.1,0,0.1,0,0.2,0l2.8,4.7
		c0,0,0,0.1-0.1,0.2l-0.4,0.2c-0.1,0-0.1,0-0.2,0l-2.8-4.7C69.5,44.3,69.5,44.2,69.6,44.2L69.6,44.2z M60.6,24.5L60.3,25
		c-0.1,0.1-0.1,0.4,0,0.6l3,5.1c0.1,0.2,0.3,0.2,0.3,0l0.3-0.5c0.1-0.1,0.1-0.4,0-0.6l-3-5.1C60.9,24.3,60.7,24.3,60.6,24.5
		L60.6,24.5z M57.1,26.4h0.6c0.2,0,0.4,0.1,0.5,0.3l3.1,5.2c0.1,0.2,0,0.3-0.1,0.3h-0.6c-0.2,0-0.4-0.1-0.5-0.3L57,26.8
		C56.8,26.6,56.9,26.4,57.1,26.4L57.1,26.4z M81.1,32.2l-2.8,4.9l6.2,10.7h-6.9l-1.1-1.9l-4.8-8.5l0,0l0,0l1.7-3l1.3-2.3L81.1,32.2
		L81.1,32.2z M50.5,42l2.8-4.9l-6.2-10.7h6.2l5.9,10.3l-1.7,3L56.2,42H50.5L50.5,42z"/>
</g>
<path class="st0" d="M71.9,66.1c3.6,0,6.4,2.9,6.4,6.4s-2.9,6.4-6.4,6.4s-6.4-2.9-6.4-6.4C65.5,68.9,68.3,66.1,71.9,66.1L71.9,66.1z
	"/>
<rect x="4.4" y="4.3" class="st2" width="94.6" height="5.8"/>
<text transform="matrix(1 0 0 1 4.3563 8.0102)" class="st3 st4 st5">Semel Habonim Dror</text>
<rect x="2.7" y="60.3" class="st2" width="73.9" height="8.7"/>
<g class="st6">
	<path d="M3.3,64.6v-4.3h0.6v4.3H3.3z"/>
	<path d="M4.8,64.6v-3.1h0.5v0.4c0.2-0.3,0.6-0.5,1-0.5c0.2,0,0.4,0,0.5,0.1c0.2,0.1,0.3,0.2,0.4,0.3s0.1,0.2,0.2,0.4
		c0,0.1,0,0.3,0,0.5v1.9H6.8v-1.9c0-0.2,0-0.4-0.1-0.5c0-0.1-0.1-0.2-0.2-0.3s-0.2-0.1-0.4-0.1c-0.2,0-0.4,0.1-0.6,0.2
		s-0.2,0.4-0.2,0.8v1.7H4.8z"/>
	<path d="M10.2,63.4l0.5,0.1c-0.1,0.4-0.2,0.6-0.4,0.8c-0.2,0.2-0.5,0.3-0.9,0.3c-0.4,0-0.8-0.1-1-0.4C8.1,64,8,63.6,8,63
		c0-0.3,0.1-0.6,0.2-0.9s0.3-0.4,0.5-0.6c0.2-0.1,0.5-0.2,0.7-0.2c0.3,0,0.6,0.1,0.8,0.3c0.2,0.2,0.4,0.4,0.4,0.7l-0.5,0.1
		c0-0.2-0.1-0.4-0.3-0.5s-0.3-0.2-0.4-0.2c-0.3,0-0.5,0.1-0.6,0.3c-0.2,0.2-0.2,0.5-0.2,0.9c0,0.4,0.1,0.7,0.2,0.9s0.4,0.3,0.6,0.3
		c0.2,0,0.4-0.1,0.5-0.2S10.1,63.7,10.2,63.4z"/>
	<path d="M11.1,64.6v-4.3h0.5v4.3H11.1z"/>
	<path d="M12.5,60.9v-0.6H13v0.6H12.5z M12.5,64.6v-3.1H13v3.1H12.5z"/>
	<path d="M13.8,64.6v-3.1h0.5v0.4c0.2-0.3,0.6-0.5,1-0.5c0.2,0,0.4,0,0.5,0.1c0.2,0.1,0.3,0.2,0.4,0.3s0.1,0.2,0.2,0.4
		c0,0.1,0,0.3,0,0.5v1.9h-0.5v-1.9c0-0.2,0-0.4-0.1-0.5c0-0.1-0.1-0.2-0.2-0.3s-0.2-0.1-0.4-0.1c-0.2,0-0.4,0.1-0.6,0.2
		s-0.2,0.4-0.2,0.8v1.7H13.8z"/>
	<path d="M19.2,64.2c-0.2,0.2-0.4,0.3-0.6,0.4s-0.4,0.1-0.6,0.1c-0.3,0-0.6-0.1-0.8-0.2C17.1,64.2,17,64,17,63.8
		c0-0.2,0-0.3,0.1-0.4c0.1-0.1,0.2-0.2,0.3-0.3s0.2-0.1,0.4-0.2c0.1,0,0.3-0.1,0.5-0.1c0.4-0.1,0.7-0.1,0.9-0.2c0-0.1,0-0.1,0-0.1
		c0-0.2,0-0.4-0.1-0.5c-0.1-0.1-0.3-0.2-0.6-0.2c-0.2,0-0.4,0-0.5,0.1c-0.1,0.1-0.2,0.2-0.3,0.5l-0.5-0.1c0-0.2,0.1-0.4,0.2-0.5
		s0.3-0.2,0.5-0.3c0.2-0.1,0.4-0.1,0.7-0.1c0.3,0,0.5,0,0.6,0.1s0.3,0.1,0.4,0.2s0.1,0.2,0.2,0.4c0,0.1,0,0.3,0,0.5v0.7
		c0,0.5,0,0.8,0,0.9s0.1,0.3,0.1,0.4h-0.6C19.2,64.5,19.2,64.4,19.2,64.2z M19.1,63c-0.2,0.1-0.5,0.1-0.9,0.2
		c-0.2,0-0.4,0.1-0.5,0.1s-0.2,0.1-0.2,0.2c0,0.1-0.1,0.2-0.1,0.3c0,0.1,0.1,0.3,0.2,0.4s0.3,0.1,0.5,0.1c0.2,0,0.4,0,0.5-0.1
		c0.2-0.1,0.3-0.2,0.3-0.4c0.1-0.1,0.1-0.3,0.1-0.5V63z"/>
	<path d="M22.5,63.4l0.5,0.1c-0.1,0.4-0.2,0.6-0.4,0.8c-0.2,0.2-0.5,0.3-0.9,0.3c-0.4,0-0.8-0.1-1-0.4c-0.3-0.3-0.4-0.7-0.4-1.2
		c0-0.3,0.1-0.6,0.2-0.9s0.3-0.4,0.5-0.6c0.2-0.1,0.5-0.2,0.7-0.2c0.3,0,0.6,0.1,0.8,0.3c0.2,0.2,0.4,0.4,0.4,0.7l-0.5,0.1
		c0-0.2-0.1-0.4-0.3-0.5s-0.3-0.2-0.4-0.2c-0.3,0-0.5,0.1-0.6,0.3c-0.2,0.2-0.2,0.5-0.2,0.9c0,0.4,0.1,0.7,0.2,0.9s0.4,0.3,0.6,0.3
		c0.2,0,0.4-0.1,0.5-0.2S22.5,63.7,22.5,63.4z M21.3,65l0.2-0.5h0.4l-0.1,0.3c0.2,0,0.3,0.1,0.4,0.2c0.1,0.1,0.1,0.2,0.1,0.3
		c0,0.1-0.1,0.3-0.2,0.4s-0.4,0.2-0.6,0.2c-0.2,0-0.3,0-0.4,0l0-0.3c0.1,0,0.2,0,0.3,0c0.2,0,0.3,0,0.4-0.1c0.1,0,0.1-0.1,0.1-0.1
		c0,0,0-0.1,0-0.1S21.7,65,21.6,65S21.4,65,21.3,65z"/>
	<path d="M25.5,64.2c-0.2,0.2-0.4,0.3-0.6,0.4s-0.4,0.1-0.6,0.1c-0.3,0-0.6-0.1-0.8-0.2c-0.2-0.2-0.3-0.4-0.3-0.6
		c0-0.2,0-0.3,0.1-0.4c0.1-0.1,0.2-0.2,0.3-0.3s0.2-0.1,0.4-0.2c0.1,0,0.3-0.1,0.5-0.1c0.4-0.1,0.7-0.1,0.9-0.2c0-0.1,0-0.1,0-0.1
		c0-0.2,0-0.4-0.1-0.5c-0.1-0.1-0.3-0.2-0.6-0.2c-0.2,0-0.4,0-0.5,0.1c-0.1,0.1-0.2,0.2-0.3,0.5l-0.5-0.1c0-0.2,0.1-0.4,0.2-0.5
		s0.3-0.2,0.5-0.3c0.2-0.1,0.4-0.1,0.7-0.1c0.3,0,0.5,0,0.6,0.1s0.3,0.1,0.4,0.2s0.1,0.2,0.2,0.4c0,0.1,0,0.3,0,0.5v0.7
		c0,0.5,0,0.8,0,0.9s0.1,0.3,0.1,0.4h-0.6C25.6,64.5,25.5,64.4,25.5,64.2z M23.8,61c0-0.2,0.1-0.4,0.2-0.5c0.1-0.1,0.3-0.2,0.4-0.2
		c0.1,0,0.3,0.1,0.5,0.2c0.1,0.1,0.2,0.1,0.3,0.1c0.1,0,0.1,0,0.1-0.1c0,0,0.1-0.1,0.1-0.2h0.4c0,0.2-0.1,0.4-0.2,0.5
		S25.3,61,25.1,61c-0.1,0-0.3-0.1-0.5-0.2c-0.1-0.1-0.2-0.1-0.3-0.1c-0.1,0-0.1,0-0.2,0.1c0,0-0.1,0.1-0.1,0.2H23.8z M25.5,63
		c-0.2,0.1-0.5,0.1-0.9,0.2c-0.2,0-0.4,0.1-0.5,0.1s-0.2,0.1-0.2,0.2c0,0.1-0.1,0.2-0.1,0.3c0,0.1,0.1,0.3,0.2,0.4s0.3,0.1,0.5,0.1
		c0.2,0,0.4,0,0.5-0.1c0.2-0.1,0.3-0.2,0.3-0.4c0.1-0.1,0.1-0.3,0.1-0.5V63z"/>
	<path d="M26.6,63c0-0.6,0.2-1,0.5-1.3c0.3-0.2,0.6-0.3,1-0.3c0.4,0,0.8,0.1,1,0.4c0.3,0.3,0.4,0.7,0.4,1.2c0,0.4-0.1,0.7-0.2,0.9
		s-0.3,0.4-0.5,0.5s-0.5,0.2-0.8,0.2c-0.4,0-0.8-0.1-1.1-0.4S26.6,63.6,26.6,63z M27.2,63c0,0.4,0.1,0.7,0.3,0.9s0.4,0.3,0.7,0.3
		c0.3,0,0.5-0.1,0.7-0.3S29,63.4,29,63c0-0.4-0.1-0.7-0.3-0.9s-0.4-0.3-0.7-0.3c-0.3,0-0.5,0.1-0.7,0.3S27.2,62.6,27.2,63z"/>
	<path d="M33.9,64.2c-0.2,0.2-0.4,0.3-0.6,0.4s-0.4,0.1-0.6,0.1c-0.3,0-0.6-0.1-0.8-0.2c-0.2-0.2-0.3-0.4-0.3-0.6
		c0-0.2,0-0.3,0.1-0.4c0.1-0.1,0.2-0.2,0.3-0.3s0.2-0.1,0.4-0.2c0.1,0,0.3-0.1,0.5-0.1c0.4-0.1,0.7-0.1,0.9-0.2c0-0.1,0-0.1,0-0.1
		c0-0.2,0-0.4-0.1-0.5c-0.1-0.1-0.3-0.2-0.6-0.2c-0.2,0-0.4,0-0.5,0.1c-0.1,0.1-0.2,0.2-0.3,0.5l-0.5-0.1c0-0.2,0.1-0.4,0.2-0.5
		s0.3-0.2,0.5-0.3c0.2-0.1,0.4-0.1,0.7-0.1c0.3,0,0.5,0,0.6,0.1s0.3,0.1,0.4,0.2s0.1,0.2,0.2,0.4c0,0.1,0,0.3,0,0.5v0.7
		c0,0.5,0,0.8,0,0.9s0.1,0.3,0.1,0.4H34C33.9,64.5,33.9,64.4,33.9,64.2z M33.8,63c-0.2,0.1-0.5,0.1-0.9,0.2c-0.2,0-0.4,0.1-0.5,0.1
		s-0.2,0.1-0.2,0.2c0,0.1-0.1,0.2-0.1,0.3c0,0.1,0.1,0.3,0.2,0.4s0.3,0.1,0.5,0.1c0.2,0,0.4,0,0.5-0.1c0.2-0.1,0.3-0.2,0.3-0.4
		c0.1-0.1,0.1-0.3,0.1-0.5V63z M33.5,61.1h-0.4l-0.7-0.8h0.7L33.5,61.1z"/>
	<path d="M39,63.6l0.5,0.1c-0.1,0.3-0.2,0.6-0.5,0.7s-0.5,0.3-0.9,0.3c-0.5,0-0.8-0.1-1.1-0.4s-0.4-0.7-0.4-1.2
		c0-0.5,0.1-0.9,0.4-1.2s0.6-0.4,1-0.4c0.4,0,0.8,0.1,1,0.4s0.4,0.7,0.4,1.2c0,0,0,0.1,0,0.1h-2.3c0,0.3,0.1,0.6,0.3,0.8
		s0.4,0.3,0.7,0.3c0.2,0,0.4-0.1,0.5-0.2S38.9,63.8,39,63.6z M37.2,62.7H39c0-0.3-0.1-0.5-0.2-0.6c-0.2-0.2-0.4-0.3-0.7-0.3
		c-0.2,0-0.4,0.1-0.6,0.2S37.2,62.5,37.2,62.7z"/>
	<path d="M40,63.7l0.5-0.1c0,0.2,0.1,0.4,0.2,0.5s0.3,0.2,0.6,0.2c0.2,0,0.4,0,0.5-0.1c0.1-0.1,0.2-0.2,0.2-0.3
		c0-0.1-0.1-0.2-0.2-0.3c-0.1,0-0.3-0.1-0.5-0.2c-0.4-0.1-0.7-0.2-0.8-0.3c-0.1-0.1-0.3-0.2-0.3-0.3c-0.1-0.1-0.1-0.3-0.1-0.4
		c0-0.1,0-0.3,0.1-0.4s0.1-0.2,0.3-0.3c0.1-0.1,0.2-0.1,0.3-0.2c0.1,0,0.3-0.1,0.5-0.1c0.2,0,0.5,0,0.6,0.1s0.3,0.2,0.4,0.3
		c0.1,0.1,0.1,0.3,0.2,0.5l-0.5,0.1c0-0.2-0.1-0.3-0.2-0.4s-0.3-0.1-0.5-0.1c-0.2,0-0.4,0-0.5,0.1s-0.2,0.2-0.2,0.3
		c0,0.1,0,0.1,0.1,0.2c0,0.1,0.1,0.1,0.2,0.1c0.1,0,0.2,0.1,0.5,0.1c0.4,0.1,0.6,0.2,0.8,0.2c0.1,0.1,0.3,0.2,0.3,0.3
		s0.1,0.3,0.1,0.5c0,0.2-0.1,0.3-0.2,0.5c-0.1,0.2-0.3,0.3-0.4,0.4c-0.2,0.1-0.4,0.1-0.7,0.1c-0.4,0-0.7-0.1-0.9-0.3S40,64,40,63.7z
		"/>
	<path d="M45.1,65.8v-1.5c-0.1,0.1-0.2,0.2-0.3,0.3s-0.3,0.1-0.5,0.1c-0.4,0-0.7-0.1-1-0.4S43,63.5,43,63c0-0.3,0.1-0.6,0.2-0.8
		s0.3-0.4,0.5-0.6c0.2-0.1,0.4-0.2,0.7-0.2c0.4,0,0.7,0.2,0.9,0.5v-0.4h0.5v4.3H45.1z M43.5,63c0,0.4,0.1,0.7,0.3,0.9
		c0.2,0.2,0.4,0.3,0.6,0.3c0.2,0,0.4-0.1,0.6-0.3c0.2-0.2,0.2-0.5,0.2-0.9c0-0.4-0.1-0.7-0.3-0.9s-0.4-0.3-0.6-0.3
		c-0.2,0-0.4,0.1-0.6,0.3C43.6,62.3,43.5,62.6,43.5,63z"/>
	<path d="M48.5,64.6v-0.5c-0.2,0.4-0.6,0.5-1,0.5c-0.2,0-0.4,0-0.5-0.1s-0.3-0.2-0.4-0.3c-0.1-0.1-0.1-0.2-0.2-0.4
		c0-0.1,0-0.3,0-0.5v-1.9H47v1.7c0,0.3,0,0.5,0,0.6c0,0.1,0.1,0.2,0.2,0.3c0.1,0.1,0.2,0.1,0.4,0.1s0.3,0,0.4-0.1
		c0.1-0.1,0.2-0.2,0.3-0.3s0.1-0.3,0.1-0.6v-1.7H49v3.1H48.5z"/>
	<path d="M52,63.6l0.5,0.1c-0.1,0.3-0.2,0.6-0.5,0.7s-0.5,0.3-0.9,0.3c-0.5,0-0.8-0.1-1.1-0.4s-0.4-0.7-0.4-1.2
		c0-0.5,0.1-0.9,0.4-1.2s0.6-0.4,1-0.4c0.4,0,0.8,0.1,1,0.4s0.4,0.7,0.4,1.2c0,0,0,0.1,0,0.1h-2.3c0,0.3,0.1,0.6,0.3,0.8
		s0.4,0.3,0.7,0.3c0.2,0,0.4-0.1,0.5-0.2S51.9,63.8,52,63.6z M50.2,62.7H52c0-0.3-0.1-0.5-0.2-0.6c-0.2-0.2-0.4-0.3-0.7-0.3
		c-0.2,0-0.4,0.1-0.6,0.2S50.3,62.5,50.2,62.7z"/>
	<path d="M53.2,64.6v-3.1h0.5v0.5c0.1-0.2,0.2-0.4,0.3-0.4s0.2-0.1,0.3-0.1c0.2,0,0.4,0.1,0.5,0.2l-0.2,0.5C54.5,62,54.4,62,54.3,62
		c-0.1,0-0.2,0-0.3,0.1c-0.1,0.1-0.2,0.2-0.2,0.3c-0.1,0.2-0.1,0.4-0.1,0.6v1.6H53.2z"/>
	<path d="M57.2,64.6v-0.4c-0.2,0.3-0.5,0.5-0.9,0.5c-0.2,0-0.5-0.1-0.7-0.2s-0.4-0.3-0.5-0.6S55,63.4,55,63c0-0.3,0.1-0.6,0.2-0.8
		c0.1-0.3,0.3-0.4,0.5-0.6s0.4-0.2,0.7-0.2c0.2,0,0.4,0,0.5,0.1c0.1,0.1,0.3,0.2,0.4,0.3v-1.5h0.5v4.3H57.2z M55.5,63
		c0,0.4,0.1,0.7,0.3,0.9s0.4,0.3,0.6,0.3c0.2,0,0.4-0.1,0.6-0.3c0.2-0.2,0.2-0.5,0.2-0.9c0-0.4-0.1-0.7-0.2-0.9s-0.4-0.3-0.6-0.3
		c-0.2,0-0.4,0.1-0.6,0.3S55.5,62.6,55.5,63z"/>
	<path d="M60.5,64.2c-0.2,0.2-0.4,0.3-0.6,0.4s-0.4,0.1-0.6,0.1c-0.3,0-0.6-0.1-0.8-0.2c-0.2-0.2-0.3-0.4-0.3-0.6
		c0-0.2,0-0.3,0.1-0.4c0.1-0.1,0.2-0.2,0.3-0.3s0.2-0.1,0.4-0.2c0.1,0,0.3-0.1,0.5-0.1c0.4-0.1,0.7-0.1,0.9-0.2c0-0.1,0-0.1,0-0.1
		c0-0.2,0-0.4-0.1-0.5c-0.1-0.1-0.3-0.2-0.6-0.2c-0.2,0-0.4,0-0.5,0.1c-0.1,0.1-0.2,0.2-0.3,0.5l-0.5-0.1c0-0.2,0.1-0.4,0.2-0.5
		s0.3-0.2,0.5-0.3c0.2-0.1,0.4-0.1,0.7-0.1c0.3,0,0.5,0,0.6,0.1s0.3,0.1,0.4,0.2S61,62,61,62.1c0,0.1,0,0.3,0,0.5v0.7
		c0,0.5,0,0.8,0,0.9s0.1,0.3,0.1,0.4h-0.6C60.6,64.5,60.6,64.4,60.5,64.2z M60.5,63c-0.2,0.1-0.5,0.1-0.9,0.2
		c-0.2,0-0.4,0.1-0.5,0.1S59,63.4,59,63.5c0,0.1-0.1,0.2-0.1,0.3c0,0.1,0.1,0.3,0.2,0.4s0.3,0.1,0.5,0.1c0.2,0,0.4,0,0.5-0.1
		c0.2-0.1,0.3-0.2,0.3-0.4c0.1-0.1,0.1-0.3,0.1-0.5V63z"/>
</g>
<rect x="2.7" y="66.7" class="st2" width="55.9" height="4.6"/>
<g class="st6">
	<path class="st7" d="M3,68.8v-2.1h1c0.2,0,0.3,0,0.4,0.1c0.1,0,0.2,0.1,0.2,0.2s0.1,0.2,0.1,0.3c0,0.2,0,0.3-0.1,0.4
		s-0.3,0.2-0.5,0.2c0.1,0,0.1,0.1,0.2,0.1c0.1,0.1,0.2,0.2,0.2,0.3l0.4,0.6H4.5l-0.3-0.4c-0.1-0.1-0.2-0.2-0.2-0.3S3.9,68,3.9,67.9
		c0,0-0.1,0-0.1-0.1c0,0-0.1,0-0.2,0H3.3v1H3z M3.3,67.6h0.6c0.1,0,0.2,0,0.3,0c0.1,0,0.1-0.1,0.2-0.1c0-0.1,0.1-0.1,0.1-0.2
		c0-0.1,0-0.2-0.1-0.3c-0.1-0.1-0.2-0.1-0.3-0.1H3.3V67.6z"/>
	<path class="st7" d="M6.2,68.3l0.3,0c0,0.2-0.1,0.3-0.2,0.4s-0.3,0.1-0.4,0.1c-0.2,0-0.4-0.1-0.5-0.2C5.1,68.5,5,68.3,5,68.1
		c0-0.3,0.1-0.5,0.2-0.6s0.3-0.2,0.5-0.2c0.2,0,0.4,0.1,0.5,0.2c0.1,0.1,0.2,0.3,0.2,0.6c0,0,0,0,0,0.1H5.3c0,0.2,0.1,0.3,0.1,0.4
		c0.1,0.1,0.2,0.1,0.3,0.1c0.1,0,0.2,0,0.2-0.1S6.1,68.4,6.2,68.3z M5.3,67.9h0.9c0-0.1,0-0.2-0.1-0.3c-0.1-0.1-0.2-0.2-0.3-0.2
		c-0.1,0-0.2,0-0.3,0.1C5.4,67.7,5.3,67.8,5.3,67.9z"/>
	<path class="st7" d="M6.8,69.4v-2.2H7v0.2c0.1-0.1,0.1-0.1,0.2-0.2c0.1,0,0.2-0.1,0.3-0.1c0.1,0,0.2,0,0.4,0.1S8,67.5,8,67.6
		c0.1,0.1,0.1,0.3,0.1,0.4c0,0.2,0,0.3-0.1,0.4c-0.1,0.1-0.1,0.2-0.2,0.3c-0.1,0.1-0.2,0.1-0.3,0.1c-0.1,0-0.2,0-0.2-0.1
		c-0.1,0-0.1-0.1-0.2-0.1v0.8H6.8z M7,68.1c0,0.2,0,0.3,0.1,0.4s0.2,0.1,0.3,0.1c0.1,0,0.2,0,0.3-0.1c0.1-0.1,0.1-0.3,0.1-0.5
		c0-0.2,0-0.3-0.1-0.4s-0.2-0.1-0.3-0.1c-0.1,0-0.2,0.1-0.3,0.2C7.1,67.7,7,67.9,7,68.1z"/>
	<path class="st7" d="M8.4,68.8v-1.6h0.2v0.2c0.1-0.1,0.1-0.2,0.2-0.2c0.1,0,0.1-0.1,0.2-0.1c0.1,0,0.2,0,0.3,0.1l-0.1,0.2
		c-0.1,0-0.1-0.1-0.2-0.1c-0.1,0-0.1,0-0.2,0.1c0,0-0.1,0.1-0.1,0.1c0,0.1,0,0.2,0,0.3v0.8H8.4z"/>
	<path class="st7" d="M10.5,68.3l0.3,0c0,0.2-0.1,0.3-0.2,0.4s-0.3,0.1-0.4,0.1c-0.2,0-0.4-0.1-0.5-0.2c-0.1-0.1-0.2-0.3-0.2-0.6
		c0-0.3,0.1-0.5,0.2-0.6s0.3-0.2,0.5-0.2c0.2,0,0.4,0.1,0.5,0.2c0.1,0.1,0.2,0.3,0.2,0.6c0,0,0,0,0,0.1H9.6c0,0.2,0.1,0.3,0.1,0.4
		c0.1,0.1,0.2,0.1,0.3,0.1c0.1,0,0.2,0,0.2-0.1S10.5,68.4,10.5,68.3z M9.6,67.9h0.9c0-0.1,0-0.2-0.1-0.3c-0.1-0.1-0.2-0.2-0.3-0.2
		c-0.1,0-0.2,0-0.3,0.1C9.7,67.7,9.6,67.8,9.6,67.9z"/>
	<path class="st7" d="M11,68.4l0.3,0c0,0.1,0.1,0.2,0.1,0.2c0.1,0.1,0.2,0.1,0.3,0.1c0.1,0,0.2,0,0.3-0.1c0.1,0,0.1-0.1,0.1-0.2
		c0-0.1,0-0.1-0.1-0.1c0,0-0.1-0.1-0.3-0.1c-0.2,0-0.3-0.1-0.4-0.1c-0.1,0-0.1-0.1-0.2-0.1c0-0.1-0.1-0.1-0.1-0.2c0-0.1,0-0.1,0-0.2
		c0-0.1,0.1-0.1,0.1-0.1c0,0,0.1-0.1,0.2-0.1c0.1,0,0.1,0,0.2,0c0.1,0,0.2,0,0.3,0.1c0.1,0,0.2,0.1,0.2,0.1c0,0.1,0.1,0.1,0.1,0.2
		l-0.3,0c0-0.1,0-0.1-0.1-0.2s-0.1-0.1-0.2-0.1c-0.1,0-0.2,0-0.3,0.1c-0.1,0-0.1,0.1-0.1,0.1c0,0,0,0.1,0,0.1c0,0,0.1,0.1,0.1,0.1
		c0,0,0.1,0,0.2,0.1c0.2,0,0.3,0.1,0.4,0.1c0.1,0,0.1,0.1,0.2,0.1s0.1,0.1,0.1,0.2c0,0.1,0,0.2-0.1,0.2c-0.1,0.1-0.1,0.1-0.2,0.2
		c-0.1,0-0.2,0.1-0.3,0.1c-0.2,0-0.4,0-0.5-0.1S11,68.5,11,68.4z"/>
	<path class="st7" d="M13.7,68.3l0.3,0c0,0.2-0.1,0.3-0.2,0.4s-0.3,0.1-0.4,0.1c-0.2,0-0.4-0.1-0.5-0.2c-0.1-0.1-0.2-0.3-0.2-0.6
		c0-0.3,0.1-0.5,0.2-0.6s0.3-0.2,0.5-0.2c0.2,0,0.4,0.1,0.5,0.2c0.1,0.1,0.2,0.3,0.2,0.6c0,0,0,0,0,0.1h-1.2c0,0.2,0.1,0.3,0.1,0.4
		c0.1,0.1,0.2,0.1,0.3,0.1c0.1,0,0.2,0,0.2-0.1S13.6,68.4,13.7,68.3z M12.8,67.9h0.9c0-0.1,0-0.2-0.1-0.3c-0.1-0.1-0.2-0.2-0.3-0.2
		c-0.1,0-0.2,0-0.3,0.1C12.9,67.7,12.8,67.8,12.8,67.9z"/>
	<path class="st7" d="M14.3,68.8v-1.6h0.2v0.2c0.1-0.2,0.3-0.3,0.5-0.3c0.1,0,0.2,0,0.3,0.1c0.1,0,0.1,0.1,0.2,0.1
		c0,0.1,0.1,0.1,0.1,0.2c0,0,0,0.1,0,0.3v1h-0.3v-0.9c0-0.1,0-0.2,0-0.2c0-0.1-0.1-0.1-0.1-0.1c-0.1,0-0.1,0-0.2,0
		c-0.1,0-0.2,0-0.3,0.1c-0.1,0.1-0.1,0.2-0.1,0.4v0.8H14.3z"/>
	<path class="st7" d="M16.5,68.6l0,0.2c-0.1,0-0.1,0-0.2,0c-0.1,0-0.2,0-0.2,0c-0.1,0-0.1-0.1-0.1-0.1c0,0,0-0.2,0-0.3v-0.9h-0.2
		v-0.2H16v-0.4l0.3-0.2v0.5h0.3v0.2h-0.3v0.9c0,0.1,0,0.1,0,0.1c0,0,0,0,0,0.1s0.1,0,0.1,0C16.4,68.6,16.5,68.6,16.5,68.6z"/>
	<path class="st7" d="M17.8,68.6c-0.1,0.1-0.2,0.1-0.3,0.2c-0.1,0-0.2,0.1-0.3,0.1c-0.2,0-0.3,0-0.4-0.1c-0.1-0.1-0.1-0.2-0.1-0.3
		c0-0.1,0-0.1,0.1-0.2c0-0.1,0.1-0.1,0.1-0.2c0.1,0,0.1-0.1,0.2-0.1c0.1,0,0.1,0,0.2,0c0.2,0,0.4-0.1,0.5-0.1c0,0,0-0.1,0-0.1
		c0-0.1,0-0.2-0.1-0.2c-0.1-0.1-0.2-0.1-0.3-0.1c-0.1,0-0.2,0-0.3,0.1c-0.1,0-0.1,0.1-0.1,0.2l-0.3,0c0-0.1,0.1-0.2,0.1-0.3
		c0.1-0.1,0.1-0.1,0.2-0.2c0.1,0,0.2-0.1,0.4-0.1c0.1,0,0.2,0,0.3,0s0.1,0.1,0.2,0.1c0,0,0.1,0.1,0.1,0.2c0,0,0,0.1,0,0.2v0.4
		c0,0.2,0,0.4,0,0.5c0,0.1,0,0.1,0.1,0.2h-0.3C17.8,68.8,17.8,68.7,17.8,68.6z M17.8,68c-0.1,0-0.2,0.1-0.4,0.1
		c-0.1,0-0.2,0-0.2,0.1c0,0-0.1,0-0.1,0.1c0,0,0,0.1,0,0.1c0,0.1,0,0.1,0.1,0.2c0.1,0,0.1,0.1,0.2,0.1c0.1,0,0.2,0,0.3-0.1
		c0.1,0,0.1-0.1,0.2-0.2C17.8,68.3,17.8,68.3,17.8,68L17.8,68z"/>
	<path class="st7" d="M19.9,68.6l0,0.2c-0.1,0-0.1,0-0.2,0c-0.1,0-0.2,0-0.2,0c-0.1,0-0.1-0.1-0.1-0.1c0,0,0-0.2,0-0.3v-0.9h-0.2
		v-0.2h0.2v-0.4l0.3-0.2v0.5h0.3v0.2h-0.3v0.9c0,0.1,0,0.1,0,0.1c0,0,0,0,0,0.1s0.1,0,0.1,0C19.8,68.6,19.8,68.6,19.9,68.6z"/>
	<path class="st7" d="M21.2,68.3l0.3,0c0,0.2-0.1,0.3-0.2,0.4s-0.3,0.1-0.4,0.1c-0.2,0-0.4-0.1-0.5-0.2c-0.1-0.1-0.2-0.3-0.2-0.6
		c0-0.3,0.1-0.5,0.2-0.6s0.3-0.2,0.5-0.2c0.2,0,0.4,0.1,0.5,0.2c0.1,0.1,0.2,0.3,0.2,0.6c0,0,0,0,0,0.1h-1.2c0,0.2,0.1,0.3,0.1,0.4
		c0.1,0.1,0.2,0.1,0.3,0.1c0.1,0,0.2,0,0.2-0.1S21.1,68.4,21.2,68.3z M20.3,67.9h0.9c0-0.1,0-0.2-0.1-0.3c-0.1-0.1-0.2-0.2-0.3-0.2
		c-0.1,0-0.2,0-0.3,0.1C20.4,67.7,20.3,67.8,20.3,67.9z"/>
	<path class="st7" d="M21.8,68.8v-1.6H22v0.2c0.1-0.2,0.3-0.3,0.5-0.3c0.1,0,0.2,0,0.3,0.1c0.1,0,0.1,0.1,0.2,0.1
		c0,0.1,0.1,0.1,0.1,0.2c0,0,0,0.1,0,0.3v1h-0.3v-0.9c0-0.1,0-0.2,0-0.2c0-0.1-0.1-0.1-0.1-0.1c-0.1,0-0.1,0-0.2,0
		c-0.1,0-0.2,0-0.3,0.1C22.1,67.6,22,67.8,22,68v0.8H21.8z"/>
	<path class="st7" d="M24.5,68.8v-0.2c-0.1,0.2-0.2,0.2-0.4,0.2c-0.1,0-0.2,0-0.3-0.1c-0.1-0.1-0.2-0.2-0.2-0.3
		c-0.1-0.1-0.1-0.3-0.1-0.4c0-0.2,0-0.3,0.1-0.4c0.1-0.1,0.1-0.2,0.2-0.3c0.1-0.1,0.2-0.1,0.3-0.1c0.1,0,0.2,0,0.3,0.1
		c0.1,0,0.1,0.1,0.2,0.2v-0.8h0.3v2.1H24.5z M23.6,68c0,0.2,0,0.3,0.1,0.4c0.1,0.1,0.2,0.1,0.3,0.1c0.1,0,0.2,0,0.3-0.1
		c0.1-0.1,0.1-0.2,0.1-0.4c0-0.2,0-0.4-0.1-0.5s-0.2-0.2-0.3-0.2c-0.1,0-0.2,0-0.3,0.1S23.6,67.8,23.6,68z"/>
	<path class="st7" d="M26.2,68.3l0.3,0c0,0.2-0.1,0.3-0.2,0.4s-0.3,0.1-0.4,0.1c-0.2,0-0.4-0.1-0.5-0.2c-0.1-0.1-0.2-0.3-0.2-0.6
		c0-0.3,0.1-0.5,0.2-0.6s0.3-0.2,0.5-0.2c0.2,0,0.4,0.1,0.5,0.2c0.1,0.1,0.2,0.3,0.2,0.6c0,0,0,0,0,0.1h-1.2c0,0.2,0.1,0.3,0.1,0.4
		c0.1,0.1,0.2,0.1,0.3,0.1c0.1,0,0.2,0,0.2-0.1S26.1,68.4,26.2,68.3z M25.8,66.8l-0.2,0.2h-0.3l0.3-0.4h0.3l0.3,0.4h-0.3L25.8,66.8z
		 M25.3,67.9h0.9c0-0.1,0-0.2-0.1-0.3c-0.1-0.1-0.2-0.2-0.3-0.2c-0.1,0-0.2,0-0.3,0.1C25.4,67.7,25.3,67.8,25.3,67.9z"/>
	<path class="st7" d="M26.8,68.8v-1.6H27v0.2c0.1-0.2,0.3-0.3,0.5-0.3c0.1,0,0.2,0,0.3,0.1c0.1,0,0.1,0.1,0.2,0.1
		c0,0.1,0.1,0.1,0.1,0.2c0,0,0,0.1,0,0.3v1h-0.3v-0.9c0-0.1,0-0.2,0-0.2c0-0.1-0.1-0.1-0.1-0.1c-0.1,0-0.1,0-0.2,0
		c-0.1,0-0.2,0-0.3,0.1c-0.1,0.1-0.1,0.2-0.1,0.4v0.8H26.8z"/>
	<path class="st7" d="M29.5,68.3l0.3,0c0,0.2-0.1,0.3-0.2,0.4c-0.1,0.1-0.3,0.2-0.4,0.2c-0.2,0-0.4-0.1-0.5-0.2
		c-0.1-0.1-0.2-0.3-0.2-0.6c0-0.2,0-0.3,0.1-0.4s0.1-0.2,0.3-0.3c0.1-0.1,0.2-0.1,0.4-0.1c0.2,0,0.3,0,0.4,0.1
		c0.1,0.1,0.2,0.2,0.2,0.4l-0.3,0c0-0.1-0.1-0.2-0.1-0.2c-0.1-0.1-0.1-0.1-0.2-0.1c-0.1,0-0.2,0-0.3,0.1c-0.1,0.1-0.1,0.2-0.1,0.5
		c0,0.2,0,0.4,0.1,0.5c0.1,0.1,0.2,0.1,0.3,0.1c0.1,0,0.2,0,0.3-0.1C29.4,68.5,29.5,68.4,29.5,68.3z"/>
	<path class="st7" d="M30,67v-0.3h0.3V67H30z M30,68.8v-1.6h0.3v1.6H30z"/>
	<path class="st7" d="M31.6,68.6c-0.1,0.1-0.2,0.1-0.3,0.2c-0.1,0-0.2,0.1-0.3,0.1c-0.2,0-0.3,0-0.4-0.1c-0.1-0.1-0.1-0.2-0.1-0.3
		c0-0.1,0-0.1,0.1-0.2c0-0.1,0.1-0.1,0.1-0.2c0.1,0,0.1-0.1,0.2-0.1c0.1,0,0.1,0,0.2,0c0.2,0,0.4-0.1,0.5-0.1c0,0,0-0.1,0-0.1
		c0-0.1,0-0.2-0.1-0.2c-0.1-0.1-0.2-0.1-0.3-0.1c-0.1,0-0.2,0-0.3,0.1c-0.1,0-0.1,0.1-0.1,0.2l-0.3,0c0-0.1,0.1-0.2,0.1-0.3
		c0.1-0.1,0.1-0.1,0.2-0.2c0.1,0,0.2-0.1,0.4-0.1c0.1,0,0.2,0,0.3,0s0.1,0.1,0.2,0.1c0,0,0.1,0.1,0.1,0.2c0,0,0,0.1,0,0.2v0.4
		c0,0.2,0,0.4,0,0.5c0,0.1,0,0.1,0.1,0.2h-0.3C31.7,68.8,31.6,68.7,31.6,68.6z M31.6,68c-0.1,0-0.2,0.1-0.4,0.1
		c-0.1,0-0.2,0-0.2,0.1c0,0-0.1,0-0.1,0.1c0,0,0,0.1,0,0.1c0,0.1,0,0.1,0.1,0.2c0.1,0,0.1,0.1,0.2,0.1c0.1,0,0.2,0,0.3-0.1
		c0.1,0,0.1-0.1,0.2-0.2C31.6,68.3,31.6,68.3,31.6,68L31.6,68z"/>
	<path class="st7" d="M33.1,69.4v-2.2h0.2v0.2c0.1-0.1,0.1-0.1,0.2-0.2c0.1,0,0.2-0.1,0.3-0.1c0.1,0,0.2,0,0.4,0.1s0.2,0.2,0.2,0.3
		c0.1,0.1,0.1,0.3,0.1,0.4c0,0.2,0,0.3-0.1,0.4c-0.1,0.1-0.1,0.2-0.2,0.3c-0.1,0.1-0.2,0.1-0.3,0.1c-0.1,0-0.2,0-0.2-0.1
		c-0.1,0-0.1-0.1-0.2-0.1v0.8H33.1z M33.4,68.1c0,0.2,0,0.3,0.1,0.4s0.2,0.1,0.3,0.1c0.1,0,0.2,0,0.3-0.1c0.1-0.1,0.1-0.3,0.1-0.5
		c0-0.2,0-0.3-0.1-0.4s-0.2-0.1-0.3-0.1c-0.1,0-0.2,0.1-0.3,0.2C33.4,67.7,33.4,67.9,33.4,68.1z"/>
	<path class="st7" d="M34.7,68c0-0.3,0.1-0.5,0.2-0.6c0.1-0.1,0.3-0.2,0.5-0.2c0.2,0,0.4,0.1,0.5,0.2c0.1,0.1,0.2,0.3,0.2,0.6
		c0,0.2,0,0.4-0.1,0.5c-0.1,0.1-0.1,0.2-0.3,0.3c-0.1,0.1-0.2,0.1-0.4,0.1c-0.2,0-0.4-0.1-0.5-0.2S34.7,68.3,34.7,68z M35,68
		c0,0.2,0,0.3,0.1,0.4c0.1,0.1,0.2,0.1,0.3,0.1c0.1,0,0.2,0,0.3-0.1s0.1-0.3,0.1-0.5c0-0.2,0-0.3-0.1-0.4c-0.1-0.1-0.2-0.1-0.3-0.1
		c-0.1,0-0.2,0-0.3,0.1S35,67.8,35,68z"/>
	<path class="st7" d="M36.5,68.8v-2.1h0.3v2.1H36.5z"/>
	<path class="st7" d="M37.2,67.1l0.2-0.4h0.3l-0.3,0.4H37.2z M37.2,68.8v-1.6h0.3v1.6H37.2z"/>
	<path class="st7" d="M38.5,68.6l0,0.2c-0.1,0-0.1,0-0.2,0c-0.1,0-0.2,0-0.2,0c-0.1,0-0.1-0.1-0.1-0.1c0,0,0-0.2,0-0.3v-0.9h-0.2
		v-0.2H38v-0.4l0.3-0.2v0.5h0.3v0.2h-0.3v0.9c0,0.1,0,0.1,0,0.1c0,0,0,0,0,0.1s0.1,0,0.1,0C38.5,68.6,38.5,68.6,38.5,68.6z"/>
	<path class="st7" d="M38.8,67v-0.3h0.3V67H38.8z M38.8,68.8v-1.6h0.3v1.6H38.8z"/>
	<path class="st7" d="M40.5,68.3l0.3,0c0,0.2-0.1,0.3-0.2,0.4c-0.1,0.1-0.3,0.2-0.4,0.2c-0.2,0-0.4-0.1-0.5-0.2
		c-0.1-0.1-0.2-0.3-0.2-0.6c0-0.2,0-0.3,0.1-0.4s0.1-0.2,0.3-0.3c0.1-0.1,0.2-0.1,0.4-0.1c0.2,0,0.3,0,0.4,0.1
		c0.1,0.1,0.2,0.2,0.2,0.4l-0.3,0c0-0.1-0.1-0.2-0.1-0.2c-0.1-0.1-0.1-0.1-0.2-0.1c-0.1,0-0.2,0-0.3,0.1c-0.1,0.1-0.1,0.2-0.1,0.5
		c0,0.2,0,0.4,0.1,0.5c0.1,0.1,0.2,0.1,0.3,0.1c0.1,0,0.2,0,0.3-0.1C40.4,68.5,40.5,68.4,40.5,68.3z"/>
	<path class="st7" d="M40.9,68c0-0.3,0.1-0.5,0.2-0.6c0.1-0.1,0.3-0.2,0.5-0.2c0.2,0,0.4,0.1,0.5,0.2c0.1,0.1,0.2,0.3,0.2,0.6
		c0,0.2,0,0.4-0.1,0.5c-0.1,0.1-0.1,0.2-0.3,0.3c-0.1,0.1-0.2,0.1-0.4,0.1c-0.2,0-0.4-0.1-0.5-0.2S40.9,68.3,40.9,68z M41.1,68
		c0,0.2,0,0.3,0.1,0.4c0.1,0.1,0.2,0.1,0.3,0.1c0.1,0,0.2,0,0.3-0.1s0.1-0.3,0.1-0.5c0-0.2,0-0.3-0.1-0.4c-0.1-0.1-0.2-0.1-0.3-0.1
		c-0.1,0-0.2,0-0.3,0.1S41.1,67.8,41.1,68z"/>
	<path class="st7" d="M42.5,68.2v-0.3h0.8v0.3H42.5z"/>
	<path class="st7" d="M43.6,67v-0.3h0.3V67H43.6z M43.6,68.8v-1.6h0.3v1.6H43.6z"/>
	<path class="st7" d="M45.3,68.8v-0.2c-0.1,0.2-0.2,0.2-0.4,0.2c-0.1,0-0.2,0-0.3-0.1c-0.1-0.1-0.2-0.2-0.2-0.3
		c-0.1-0.1-0.1-0.3-0.1-0.4c0-0.2,0-0.3,0.1-0.4c0.1-0.1,0.1-0.2,0.2-0.3c0.1-0.1,0.2-0.1,0.3-0.1c0.1,0,0.2,0,0.3,0.1
		c0.1,0,0.1,0.1,0.2,0.2v-0.8h0.3v2.1H45.3z M44.5,68c0,0.2,0,0.3,0.1,0.4c0.1,0.1,0.2,0.1,0.3,0.1c0.1,0,0.2,0,0.3-0.1
		c0.1-0.1,0.1-0.2,0.1-0.4c0-0.2,0-0.4-0.1-0.5s-0.2-0.2-0.3-0.2c-0.1,0-0.2,0-0.3,0.1S44.5,67.8,44.5,68z"/>
	<path class="st7" d="M47,68.3l0.3,0c0,0.2-0.1,0.3-0.2,0.4s-0.3,0.1-0.4,0.1c-0.2,0-0.4-0.1-0.5-0.2c-0.1-0.1-0.2-0.3-0.2-0.6
		c0-0.3,0.1-0.5,0.2-0.6s0.3-0.2,0.5-0.2c0.2,0,0.4,0.1,0.5,0.2c0.1,0.1,0.2,0.3,0.2,0.6c0,0,0,0,0,0.1h-1.2c0,0.2,0.1,0.3,0.1,0.4
		c0.1,0.1,0.2,0.1,0.3,0.1c0.1,0,0.2,0,0.2-0.1S47,68.4,47,68.3z M46.2,67.9H47c0-0.1,0-0.2-0.1-0.3c-0.1-0.1-0.2-0.2-0.3-0.2
		c-0.1,0-0.2,0-0.3,0.1C46.2,67.7,46.2,67.8,46.2,67.9z"/>
	<path class="st7" d="M47.6,68.8v-2.1h0.3v2.1H47.6z"/>
	<path class="st7" d="M48.2,68c0-0.3,0.1-0.5,0.2-0.6c0.1-0.1,0.3-0.2,0.5-0.2c0.2,0,0.4,0.1,0.5,0.2c0.1,0.1,0.2,0.3,0.2,0.6
		c0,0.2,0,0.4-0.1,0.5c-0.1,0.1-0.1,0.2-0.3,0.3c-0.1,0.1-0.2,0.1-0.4,0.1c-0.2,0-0.4-0.1-0.5-0.2S48.2,68.3,48.2,68z M48.5,68
		c0,0.2,0,0.3,0.1,0.4c0.1,0.1,0.2,0.1,0.3,0.1c0.1,0,0.2,0,0.3-0.1s0.1-0.3,0.1-0.5c0-0.2,0-0.3-0.1-0.4c-0.1-0.1-0.2-0.1-0.3-0.1
		c-0.1,0-0.2,0-0.3,0.1S48.5,67.8,48.5,68z M48.8,67.1l0.2-0.4h0.3L49,67.1H48.8z"/>
	<path class="st7" d="M49.9,69l0.3,0c0,0.1,0,0.1,0.1,0.2c0.1,0,0.2,0.1,0.3,0.1c0.1,0,0.2,0,0.3-0.1S50.9,69,51,69
		c0-0.1,0-0.2,0-0.3c-0.1,0.1-0.3,0.2-0.4,0.2c-0.2,0-0.4-0.1-0.5-0.2s-0.2-0.3-0.2-0.6c0-0.1,0-0.3,0.1-0.4
		c0.1-0.1,0.1-0.2,0.2-0.3c0.1-0.1,0.2-0.1,0.4-0.1c0.2,0,0.3,0.1,0.5,0.2v-0.2h0.2v1.3c0,0.2,0,0.4-0.1,0.5c0,0.1-0.1,0.2-0.2,0.2
		c-0.1,0.1-0.2,0.1-0.4,0.1c-0.2,0-0.3,0-0.4-0.1C50,69.2,49.9,69.1,49.9,69z M50.1,68c0,0.2,0,0.4,0.1,0.4s0.2,0.1,0.3,0.1
		c0.1,0,0.2,0,0.3-0.1C51,68.4,51,68.2,51,68c0-0.2,0-0.3-0.1-0.4s-0.2-0.1-0.3-0.1c-0.1,0-0.2,0-0.3,0.1
		C50.2,67.7,50.1,67.8,50.1,68z"/>
	<path class="st7" d="M51.6,67v-0.3h0.3V67H51.6z M51.6,68.8v-1.6h0.3v1.6H51.6z"/>
	<path class="st7" d="M53.3,68.3l0.3,0c0,0.2-0.1,0.3-0.2,0.4c-0.1,0.1-0.3,0.2-0.4,0.2c-0.2,0-0.4-0.1-0.5-0.2
		c-0.1-0.1-0.2-0.3-0.2-0.6c0-0.2,0-0.3,0.1-0.4s0.1-0.2,0.3-0.3c0.1-0.1,0.2-0.1,0.4-0.1c0.2,0,0.3,0,0.4,0.1
		c0.1,0.1,0.2,0.2,0.2,0.4l-0.3,0c0-0.1-0.1-0.2-0.1-0.2c-0.1-0.1-0.1-0.1-0.2-0.1c-0.1,0-0.2,0-0.3,0.1c-0.1,0.1-0.1,0.2-0.1,0.5
		c0,0.2,0,0.4,0.1,0.5c0.1,0.1,0.2,0.1,0.3,0.1c0.1,0,0.2,0,0.3-0.1C53.3,68.5,53.3,68.4,53.3,68.3z"/>
	<path class="st7" d="M54.8,68.6c-0.1,0.1-0.2,0.1-0.3,0.2c-0.1,0-0.2,0.1-0.3,0.1c-0.2,0-0.3,0-0.4-0.1c-0.1-0.1-0.1-0.2-0.1-0.3
		c0-0.1,0-0.1,0.1-0.2c0-0.1,0.1-0.1,0.1-0.2C54,68,54,68,54.1,68c0.1,0,0.1,0,0.2,0c0.2,0,0.4-0.1,0.5-0.1c0,0,0-0.1,0-0.1
		c0-0.1,0-0.2-0.1-0.2c-0.1-0.1-0.2-0.1-0.3-0.1c-0.1,0-0.2,0-0.3,0.1c-0.1,0-0.1,0.1-0.1,0.2l-0.3,0c0-0.1,0.1-0.2,0.1-0.3
		c0.1-0.1,0.1-0.1,0.2-0.2c0.1,0,0.2-0.1,0.4-0.1c0.1,0,0.2,0,0.3,0s0.1,0.1,0.2,0.1c0,0,0.1,0.1,0.1,0.2c0,0,0,0.1,0,0.2v0.4
		c0,0.2,0,0.4,0,0.5c0,0.1,0,0.1,0.1,0.2h-0.3C54.8,68.8,54.8,68.7,54.8,68.6z M54.8,68c-0.1,0-0.2,0.1-0.4,0.1
		c-0.1,0-0.2,0-0.2,0.1c0,0-0.1,0-0.1,0.1c0,0,0,0.1,0,0.1c0,0.1,0,0.1,0.1,0.2c0.1,0,0.1,0.1,0.2,0.1c0.1,0,0.2,0,0.3-0.1
		c0.1,0,0.1-0.1,0.2-0.2C54.8,68.3,54.8,68.3,54.8,68L54.8,68z"/>
</g>
<rect x="79.1" y="65.5" class="st2" width="26.7" height="7"/>
<g class="st6">
	<path d="M80.7,69.8l-1.7-4.3h0.6l1.1,3.1c0.1,0.2,0.2,0.5,0.2,0.7c0.1-0.2,0.1-0.5,0.2-0.7l1.2-3.1H83l-1.7,4.3H80.7z"/>
	<path d="M85.3,68.8l0.5,0.1c-0.1,0.3-0.2,0.6-0.5,0.7s-0.5,0.3-0.9,0.3c-0.5,0-0.8-0.1-1.1-0.4s-0.4-0.7-0.4-1.2
		c0-0.5,0.1-0.9,0.4-1.2s0.6-0.4,1-0.4c0.4,0,0.8,0.1,1,0.4s0.4,0.7,0.4,1.2c0,0,0,0.1,0,0.1h-2.3c0,0.3,0.1,0.6,0.3,0.8
		s0.4,0.3,0.7,0.3c0.2,0,0.4-0.1,0.5-0.2S85.2,69,85.3,68.8z M83.5,67.9h1.7c0-0.3-0.1-0.5-0.2-0.6c-0.2-0.2-0.4-0.3-0.7-0.3
		c-0.2,0-0.4,0.1-0.6,0.2S83.5,67.6,83.5,67.9z"/>
	<path d="M86.5,69.8v-3.1h0.5v0.5c0.1-0.2,0.2-0.4,0.3-0.4s0.2-0.1,0.3-0.1c0.2,0,0.4,0.1,0.5,0.2L88,67.2c-0.1-0.1-0.3-0.1-0.4-0.1
		c-0.1,0-0.2,0-0.3,0.1c-0.1,0.1-0.2,0.2-0.2,0.3C87,67.7,87,67.9,87,68.1v1.6H86.5z"/>
	<path d="M88.5,69.8v-3.1h0.5v0.4c0.1-0.2,0.2-0.3,0.4-0.4c0.2-0.1,0.3-0.1,0.6-0.1c0.2,0,0.4,0,0.6,0.1s0.3,0.2,0.3,0.4
		c0.2-0.4,0.6-0.5,1-0.5c0.3,0,0.5,0.1,0.7,0.3c0.2,0.2,0.2,0.4,0.2,0.8v2.1h-0.5v-2c0-0.2,0-0.4-0.1-0.5c0-0.1-0.1-0.2-0.2-0.2
		S91.7,67,91.6,67c-0.2,0-0.4,0.1-0.5,0.2s-0.2,0.4-0.2,0.7v1.8h-0.5v-2c0-0.2,0-0.4-0.1-0.5S90,67,89.8,67c-0.1,0-0.3,0-0.4,0.1
		s-0.2,0.2-0.3,0.3S89,67.9,89,68.1v1.6H88.5z"/>
	<path d="M95.6,68.8l0.5,0.1c-0.1,0.3-0.2,0.6-0.5,0.7s-0.5,0.3-0.9,0.3c-0.5,0-0.8-0.1-1.1-0.4s-0.4-0.7-0.4-1.2
		c0-0.5,0.1-0.9,0.4-1.2s0.6-0.4,1-0.4c0.4,0,0.8,0.1,1,0.4s0.4,0.7,0.4,1.2c0,0,0,0.1,0,0.1h-2.3c0,0.3,0.1,0.6,0.3,0.8
		s0.4,0.3,0.7,0.3c0.2,0,0.4-0.1,0.5-0.2S95.5,69,95.6,68.8z M93.9,67.9h1.7c0-0.3-0.1-0.5-0.2-0.6C95.2,67.1,95,67,94.7,67
		c-0.2,0-0.4,0.1-0.6,0.2S93.9,67.6,93.9,67.9z"/>
	<path d="M96.8,69.8v-4.3h0.5v4.3H96.8z"/>
	<path d="M98.1,69.8v-4.3h0.5V67c0.2-0.3,0.6-0.4,0.9-0.4c0.2,0,0.4,0,0.6,0.1c0.2,0.1,0.3,0.2,0.4,0.4s0.1,0.4,0.1,0.7v2h-0.5v-2
		c0-0.3-0.1-0.5-0.2-0.6c-0.1-0.1-0.3-0.2-0.5-0.2c-0.2,0-0.3,0-0.4,0.1s-0.2,0.2-0.3,0.3s-0.1,0.3-0.1,0.6v1.7H98.1z"/>
	<path d="M101.3,68.2c0-0.6,0.2-1,0.5-1.3c0.3-0.2,0.6-0.3,1-0.3c0.4,0,0.8,0.1,1,0.4c0.3,0.3,0.4,0.7,0.4,1.2
		c0,0.4-0.1,0.7-0.2,0.9s-0.3,0.4-0.5,0.5s-0.5,0.2-0.8,0.2c-0.4,0-0.8-0.1-1.1-0.4S101.3,68.7,101.3,68.2z M101.8,68.2
		c0,0.4,0.1,0.7,0.3,0.9s0.4,0.3,0.7,0.3c0.3,0,0.5-0.1,0.7-0.3s0.3-0.5,0.3-0.9c0-0.4-0.1-0.7-0.3-0.9S103,67,102.7,67
		c-0.3,0-0.5,0.1-0.7,0.3S101.8,67.8,101.8,68.2z"/>
</g>
<rect x="79.4" y="71.2" class="st2" width="28.7" height="9.6"/>
<g class="st6">
	<path class="st7" d="M79.6,73.3v-2.1h1c0.2,0,0.3,0,0.4,0.1c0.1,0,0.2,0.1,0.2,0.2s0.1,0.2,0.1,0.3c0,0.2,0,0.3-0.1,0.4
		s-0.3,0.2-0.5,0.2c0.1,0,0.1,0.1,0.2,0.1c0.1,0.1,0.2,0.2,0.2,0.3l0.4,0.6h-0.4l-0.3-0.4c-0.1-0.1-0.2-0.2-0.2-0.3
		s-0.1-0.1-0.1-0.1c0,0-0.1,0-0.1-0.1c0,0-0.1,0-0.2,0h-0.3v1H79.6z M79.9,72.1h0.6c0.1,0,0.2,0,0.3,0c0.1,0,0.1-0.1,0.2-0.1
		c0-0.1,0.1-0.1,0.1-0.2c0-0.1,0-0.2-0.1-0.3c-0.1-0.1-0.2-0.1-0.3-0.1h-0.7V72.1z"/>
	<path class="st7" d="M82.8,72.8l0.3,0c0,0.2-0.1,0.3-0.2,0.4s-0.3,0.1-0.4,0.1c-0.2,0-0.4-0.1-0.5-0.2c-0.1-0.1-0.2-0.3-0.2-0.6
		c0-0.3,0.1-0.5,0.2-0.6s0.3-0.2,0.5-0.2c0.2,0,0.4,0.1,0.5,0.2c0.1,0.1,0.2,0.3,0.2,0.6c0,0,0,0,0,0.1h-1.2c0,0.2,0.1,0.3,0.1,0.4
		c0.1,0.1,0.2,0.1,0.3,0.1c0.1,0,0.2,0,0.2-0.1S82.8,72.9,82.8,72.8z M81.9,72.4h0.9c0-0.1,0-0.2-0.1-0.3c-0.1-0.1-0.2-0.2-0.3-0.2
		c-0.1,0-0.2,0-0.3,0.1C82,72.1,82,72.2,81.9,72.4z"/>
	<path class="st7" d="M83.4,73.9v-2.2h0.2V72c0.1-0.1,0.1-0.1,0.2-0.2c0.1,0,0.2-0.1,0.3-0.1c0.1,0,0.2,0,0.4,0.1s0.2,0.2,0.2,0.3
		c0.1,0.1,0.1,0.3,0.1,0.4c0,0.2,0,0.3-0.1,0.4c-0.1,0.1-0.1,0.2-0.2,0.3c-0.1,0.1-0.2,0.1-0.3,0.1c-0.1,0-0.2,0-0.2-0.1
		c-0.1,0-0.1-0.1-0.2-0.1v0.8H83.4z M83.7,72.5c0,0.2,0,0.3,0.1,0.4s0.2,0.1,0.3,0.1c0.1,0,0.2,0,0.3-0.1c0.1-0.1,0.1-0.3,0.1-0.5
		c0-0.2,0-0.3-0.1-0.4c-0.1-0.1-0.2-0.1-0.3-0.1c-0.1,0-0.2,0.1-0.3,0.2C83.7,72.2,83.7,72.3,83.7,72.5z"/>
	<path class="st7" d="M85.1,73.3v-1.6h0.2V72c0.1-0.1,0.1-0.2,0.2-0.2c0.1,0,0.1-0.1,0.2-0.1c0.1,0,0.2,0,0.3,0.1L85.8,72
		c-0.1,0-0.1-0.1-0.2-0.1c-0.1,0-0.1,0-0.2,0.1c0,0-0.1,0.1-0.1,0.1c0,0.1,0,0.2,0,0.3v0.8H85.1z"/>
	<path class="st7" d="M87.1,72.8l0.3,0c0,0.2-0.1,0.3-0.2,0.4s-0.3,0.1-0.4,0.1c-0.2,0-0.4-0.1-0.5-0.2C86.1,73,86,72.8,86,72.5
		c0-0.3,0.1-0.5,0.2-0.6s0.3-0.2,0.5-0.2c0.2,0,0.4,0.1,0.5,0.2c0.1,0.1,0.2,0.3,0.2,0.6c0,0,0,0,0,0.1h-1.2c0,0.2,0.1,0.3,0.1,0.4
		c0.1,0.1,0.2,0.1,0.3,0.1c0.1,0,0.2,0,0.2-0.1S87.1,72.9,87.1,72.8z M86.3,72.4h0.9c0-0.1,0-0.2-0.1-0.3c-0.1-0.1-0.2-0.2-0.3-0.2
		c-0.1,0-0.2,0-0.3,0.1C86.3,72.1,86.3,72.2,86.3,72.4z"/>
	<path class="st7" d="M87.6,72.8l0.3,0c0,0.1,0.1,0.2,0.1,0.2c0.1,0.1,0.2,0.1,0.3,0.1c0.1,0,0.2,0,0.3-0.1c0.1,0,0.1-0.1,0.1-0.2
		c0-0.1,0-0.1-0.1-0.1c0,0-0.1-0.1-0.3-0.1c-0.2,0-0.3-0.1-0.4-0.1c-0.1,0-0.1-0.1-0.2-0.1c0-0.1-0.1-0.1-0.1-0.2c0-0.1,0-0.1,0-0.2
		c0-0.1,0.1-0.1,0.1-0.1c0,0,0.1-0.1,0.2-0.1c0.1,0,0.1,0,0.2,0c0.1,0,0.2,0,0.3,0.1c0.1,0,0.2,0.1,0.2,0.1c0,0.1,0.1,0.1,0.1,0.2
		l-0.3,0c0-0.1,0-0.1-0.1-0.2c-0.1,0-0.1-0.1-0.2-0.1c-0.1,0-0.2,0-0.3,0.1c-0.1,0-0.1,0.1-0.1,0.1c0,0,0,0.1,0,0.1
		c0,0,0.1,0.1,0.1,0.1c0,0,0.1,0,0.2,0.1c0.2,0,0.3,0.1,0.4,0.1c0.1,0,0.1,0.1,0.2,0.1s0.1,0.1,0.1,0.2c0,0.1,0,0.2-0.1,0.2
		c-0.1,0.1-0.1,0.1-0.2,0.2c-0.1,0-0.2,0.1-0.3,0.1c-0.2,0-0.4,0-0.5-0.1C87.7,73.1,87.7,73,87.6,72.8z"/>
	<path class="st7" d="M90.3,72.8l0.3,0c0,0.2-0.1,0.3-0.2,0.4s-0.3,0.1-0.4,0.1c-0.2,0-0.4-0.1-0.5-0.2c-0.1-0.1-0.2-0.3-0.2-0.6
		c0-0.3,0.1-0.5,0.2-0.6s0.3-0.2,0.5-0.2c0.2,0,0.4,0.1,0.5,0.2c0.1,0.1,0.2,0.3,0.2,0.6c0,0,0,0,0,0.1h-1.2c0,0.2,0.1,0.3,0.1,0.4
		c0.1,0.1,0.2,0.1,0.3,0.1c0.1,0,0.2,0,0.2-0.1S90.3,72.9,90.3,72.8z M89.5,72.4h0.9c0-0.1,0-0.2-0.1-0.3c-0.1-0.1-0.2-0.2-0.3-0.2
		c-0.1,0-0.2,0-0.3,0.1C89.5,72.1,89.5,72.2,89.5,72.4z"/>
	<path class="st7" d="M90.9,73.3v-1.6h0.2V72c0.1-0.2,0.3-0.3,0.5-0.3c0.1,0,0.2,0,0.3,0.1c0.1,0,0.1,0.1,0.2,0.1
		c0,0.1,0.1,0.1,0.1,0.2c0,0,0,0.1,0,0.3v1h-0.3v-0.9c0-0.1,0-0.2,0-0.2c0-0.1-0.1-0.1-0.1-0.1c-0.1,0-0.1,0-0.2,0
		c-0.1,0-0.2,0-0.3,0.1c-0.1,0.1-0.1,0.2-0.1,0.4v0.8H90.9z"/>
	<path class="st7" d="M93.2,73.1l0,0.2c-0.1,0-0.1,0-0.2,0c-0.1,0-0.2,0-0.2,0c-0.1,0-0.1-0.1-0.1-0.1c0,0,0-0.2,0-0.3V72h-0.2v-0.2
		h0.2v-0.4l0.3-0.2v0.5h0.3V72h-0.3v0.9c0,0.1,0,0.1,0,0.1c0,0,0,0,0,0.1c0,0,0.1,0,0.1,0C93.1,73.1,93.1,73.1,93.2,73.1z"/>
	<path class="st7" d="M94.4,73.1c-0.1,0.1-0.2,0.1-0.3,0.2c-0.1,0-0.2,0.1-0.3,0.1c-0.2,0-0.3,0-0.4-0.1c-0.1-0.1-0.1-0.2-0.1-0.3
		c0-0.1,0-0.1,0.1-0.2c0-0.1,0.1-0.1,0.1-0.2c0.1,0,0.1-0.1,0.2-0.1c0.1,0,0.1,0,0.2,0c0.2,0,0.4-0.1,0.5-0.1c0,0,0-0.1,0-0.1
		c0-0.1,0-0.2-0.1-0.2c-0.1-0.1-0.2-0.1-0.3-0.1c-0.1,0-0.2,0-0.3,0.1c-0.1,0-0.1,0.1-0.1,0.2l-0.3,0c0-0.1,0.1-0.2,0.1-0.3
		c0.1-0.1,0.1-0.1,0.2-0.2c0.1,0,0.2-0.1,0.4-0.1c0.1,0,0.2,0,0.3,0s0.1,0.1,0.2,0.1c0,0,0.1,0.1,0.1,0.2c0,0,0,0.1,0,0.2v0.4
		c0,0.2,0,0.4,0,0.5c0,0.1,0,0.1,0.1,0.2h-0.3C94.5,73.3,94.4,73.2,94.4,73.1z M94.4,72.5c-0.1,0-0.2,0.1-0.4,0.1
		c-0.1,0-0.2,0-0.2,0.1c0,0-0.1,0-0.1,0.1c0,0,0,0.1,0,0.1c0,0.1,0,0.1,0.1,0.2c0.1,0,0.1,0.1,0.2,0.1c0.1,0,0.2,0,0.3-0.1
		c0.1,0,0.1-0.1,0.2-0.2C94.4,72.8,94.4,72.7,94.4,72.5L94.4,72.5z"/>
	<path class="st7" d="M95.8,72.5c0-0.3,0.1-0.5,0.2-0.6c0.1-0.1,0.3-0.2,0.5-0.2c0.2,0,0.4,0.1,0.5,0.2c0.1,0.1,0.2,0.3,0.2,0.6
		c0,0.2,0,0.4-0.1,0.5c-0.1,0.1-0.1,0.2-0.3,0.3c-0.1,0.1-0.2,0.1-0.4,0.1c-0.2,0-0.4-0.1-0.5-0.2C95.9,73,95.8,72.8,95.8,72.5z
		 M96.1,72.5c0,0.2,0,0.3,0.1,0.4c0.1,0.1,0.2,0.1,0.3,0.1c0.1,0,0.2,0,0.3-0.1s0.1-0.3,0.1-0.5c0-0.2,0-0.3-0.1-0.4
		c-0.1-0.1-0.2-0.1-0.3-0.1c-0.1,0-0.2,0-0.3,0.1S96.1,72.3,96.1,72.5z"/>
</g>
<g class="st6">
	<path class="st7" d="M79.5,76.4l0.3,0c0,0.1,0.1,0.2,0.1,0.2c0.1,0.1,0.2,0.1,0.3,0.1c0.1,0,0.2,0,0.3-0.1c0.1,0,0.1-0.1,0.1-0.2
		c0-0.1,0-0.1-0.1-0.1c0,0-0.1-0.1-0.3-0.1c-0.2,0-0.3-0.1-0.4-0.1c-0.1,0-0.1-0.1-0.2-0.1c0-0.1-0.1-0.1-0.1-0.2c0-0.1,0-0.1,0-0.2
		c0-0.1,0.1-0.1,0.1-0.1c0,0,0.1-0.1,0.2-0.1c0.1,0,0.1,0,0.2,0c0.1,0,0.2,0,0.3,0.1c0.1,0,0.2,0.1,0.2,0.1c0,0.1,0.1,0.1,0.1,0.2
		l-0.3,0c0-0.1,0-0.1-0.1-0.2c-0.1,0-0.1-0.1-0.2-0.1c-0.1,0-0.2,0-0.3,0.1c-0.1,0-0.1,0.1-0.1,0.1c0,0,0,0.1,0,0.1
		c0,0,0.1,0.1,0.1,0.1c0,0,0.1,0,0.2,0.1c0.2,0,0.3,0.1,0.4,0.1c0.1,0,0.1,0.1,0.2,0.1s0.1,0.1,0.1,0.2c0,0.1,0,0.2-0.1,0.2
		c-0.1,0.1-0.1,0.1-0.2,0.2c-0.1,0-0.2,0.1-0.3,0.1c-0.2,0-0.4,0-0.5-0.1C79.6,76.7,79.5,76.6,79.5,76.4z"/>
	<path class="st7" d="M81,76.1c0-0.3,0.1-0.5,0.2-0.6c0.1-0.1,0.3-0.2,0.5-0.2c0.2,0,0.4,0.1,0.5,0.2c0.1,0.1,0.2,0.3,0.2,0.6
		c0,0.2,0,0.4-0.1,0.5c-0.1,0.1-0.1,0.2-0.3,0.3c-0.1,0.1-0.2,0.1-0.4,0.1c-0.2,0-0.4-0.1-0.5-0.2C81,76.6,81,76.4,81,76.1z
		 M81.3,76.1c0,0.2,0,0.3,0.1,0.4c0.1,0.1,0.2,0.1,0.3,0.1c0.1,0,0.2,0,0.3-0.1s0.1-0.3,0.1-0.5c0-0.2,0-0.3-0.1-0.4
		c-0.1-0.1-0.2-0.1-0.3-0.1c-0.1,0-0.2,0-0.3,0.1S81.3,75.9,81.3,76.1z"/>
	<path class="st7" d="M83.8,76.3l0.3,0c0,0.2-0.1,0.3-0.2,0.4c-0.1,0.1-0.3,0.2-0.4,0.2c-0.2,0-0.4-0.1-0.5-0.2
		c-0.1-0.1-0.2-0.3-0.2-0.6c0-0.2,0-0.3,0.1-0.4s0.1-0.2,0.3-0.3c0.1-0.1,0.2-0.1,0.4-0.1c0.2,0,0.3,0,0.4,0.1
		c0.1,0.1,0.2,0.2,0.2,0.4l-0.3,0c0-0.1-0.1-0.2-0.1-0.2c-0.1-0.1-0.1-0.1-0.2-0.1c-0.1,0-0.2,0-0.3,0.1c-0.1,0.1-0.1,0.2-0.1,0.5
		c0,0.2,0,0.4,0.1,0.5c0.1,0.1,0.2,0.1,0.3,0.1c0.1,0,0.2,0,0.3-0.1C83.7,76.6,83.7,76.5,83.8,76.3z"/>
	<path class="st7" d="M84.2,75.1v-0.3h0.3v0.3H84.2z M84.2,76.9v-1.6h0.3v1.6H84.2z"/>
	<path class="st7" d="M85.9,76.7c-0.1,0.1-0.2,0.1-0.3,0.2c-0.1,0-0.2,0.1-0.3,0.1c-0.2,0-0.3,0-0.4-0.1c-0.1-0.1-0.1-0.2-0.1-0.3
		c0-0.1,0-0.1,0.1-0.2c0-0.1,0.1-0.1,0.1-0.2c0.1,0,0.1-0.1,0.2-0.1c0.1,0,0.1,0,0.2,0c0.2,0,0.4-0.1,0.5-0.1c0,0,0-0.1,0-0.1
		c0-0.1,0-0.2-0.1-0.2c-0.1-0.1-0.2-0.1-0.3-0.1c-0.1,0-0.2,0-0.3,0.1c-0.1,0-0.1,0.1-0.1,0.2l-0.3,0c0-0.1,0.1-0.2,0.1-0.3
		c0.1-0.1,0.1-0.1,0.2-0.2c0.1,0,0.2-0.1,0.4-0.1c0.1,0,0.2,0,0.3,0s0.1,0.1,0.2,0.1c0,0,0.1,0.1,0.1,0.2c0,0,0,0.1,0,0.2v0.4
		c0,0.2,0,0.4,0,0.5c0,0.1,0,0.1,0.1,0.2H86C86,76.9,85.9,76.8,85.9,76.7z M85.9,76.1c-0.1,0-0.2,0.1-0.4,0.1c-0.1,0-0.2,0-0.2,0.1
		c0,0-0.1,0-0.1,0.1c0,0,0,0.1,0,0.1c0,0.1,0,0.1,0.1,0.2c0.1,0,0.1,0.1,0.2,0.1c0.1,0,0.2,0,0.3-0.1c0.1,0,0.1-0.1,0.2-0.2
		C85.9,76.4,85.9,76.3,85.9,76.1L85.9,76.1z"/>
	<path class="st7" d="M86.6,76.9v-2.1h0.3v2.1H86.6z"/>
	<path class="st7" d="M87.3,75.1v-0.3h0.3v0.3H87.3z M87.3,76.9v-1.6h0.3v1.6H87.3z"/>
	<path class="st7" d="M87.8,76.4l0.3,0c0,0.1,0.1,0.2,0.1,0.2c0.1,0.1,0.2,0.1,0.3,0.1c0.1,0,0.2,0,0.3-0.1c0.1,0,0.1-0.1,0.1-0.2
		c0-0.1,0-0.1-0.1-0.1c0,0-0.1-0.1-0.3-0.1c-0.2,0-0.3-0.1-0.4-0.1C88,76.1,88,76,87.9,76c0-0.1-0.1-0.1-0.1-0.2c0-0.1,0-0.1,0-0.2
		c0-0.1,0.1-0.1,0.1-0.1c0,0,0.1-0.1,0.2-0.1c0.1,0,0.1,0,0.2,0c0.1,0,0.2,0,0.3,0.1c0.1,0,0.2,0.1,0.2,0.1c0,0.1,0.1,0.1,0.1,0.2
		l-0.3,0c0-0.1,0-0.1-0.1-0.2c-0.1,0-0.1-0.1-0.2-0.1c-0.1,0-0.2,0-0.3,0.1c-0.1,0-0.1,0.1-0.1,0.1c0,0,0,0.1,0,0.1
		c0,0,0.1,0.1,0.1,0.1c0,0,0.1,0,0.2,0.1c0.2,0,0.3,0.1,0.4,0.1c0.1,0,0.1,0.1,0.2,0.1s0.1,0.1,0.1,0.2c0,0.1,0,0.2-0.1,0.2
		c-0.1,0.1-0.1,0.1-0.2,0.2c-0.1,0-0.2,0.1-0.3,0.1c-0.2,0-0.4,0-0.5-0.1C87.9,76.7,87.8,76.6,87.8,76.4z"/>
	<path class="st7" d="M89.4,76.9v-1.6h0.2v0.2c0-0.1,0.1-0.1,0.2-0.2c0.1,0,0.2-0.1,0.3-0.1c0.1,0,0.2,0,0.3,0.1
		c0.1,0,0.1,0.1,0.2,0.2c0.1-0.2,0.3-0.3,0.5-0.3c0.2,0,0.3,0,0.4,0.1c0.1,0.1,0.1,0.2,0.1,0.4v1.1h-0.3v-1c0-0.1,0-0.2,0-0.2
		c0,0,0-0.1-0.1-0.1c0,0-0.1,0-0.2,0c-0.1,0-0.2,0-0.3,0.1c-0.1,0.1-0.1,0.2-0.1,0.3v0.9h-0.3v-1c0-0.1,0-0.2-0.1-0.3
		s-0.1-0.1-0.2-0.1c-0.1,0-0.1,0-0.2,0.1c-0.1,0-0.1,0.1-0.1,0.2c0,0.1,0,0.2,0,0.3v0.8H89.4z"/>
	<path class="st7" d="M91.8,76.1c0-0.3,0.1-0.5,0.2-0.6c0.1-0.1,0.3-0.2,0.5-0.2c0.2,0,0.4,0.1,0.5,0.2c0.1,0.1,0.2,0.3,0.2,0.6
		c0,0.2,0,0.4-0.1,0.5c-0.1,0.1-0.1,0.2-0.3,0.3c-0.1,0.1-0.2,0.1-0.4,0.1c-0.2,0-0.4-0.1-0.5-0.2C91.9,76.6,91.8,76.4,91.8,76.1z
		 M92.1,76.1c0,0.2,0,0.3,0.1,0.4c0.1,0.1,0.2,0.1,0.3,0.1c0.1,0,0.2,0,0.3-0.1s0.1-0.3,0.1-0.5c0-0.2,0-0.3-0.1-0.4
		c-0.1-0.1-0.2-0.1-0.3-0.1c-0.1,0-0.2,0-0.3,0.1S92.1,75.9,92.1,76.1z"/>
</g>
<g>
	<path class="st0" d="M108.9,45.1c3.7,0,6.8,3,6.8,6.7s-3,6.7-6.8,6.7s-6.8-3-6.8-6.7S105.1,45.1,108.9,45.1L108.9,45.1z"/>
	<g>
		<path class="st1" d="M110,52.6l0.9-1.8c0.2-0.3,0.1-0.9-0.1-1.3l-1-1.8c-0.2-0.4-0.5-0.4-0.7-0.1l-0.7,1.6
			c-0.2,0.3-0.1,0.9,0.1,1.3l1,1.8C109.8,52.7,109.9,52.9,110,52.6L110,52.6z"/>
		<path class="st1" d="M109.2,53.1l-2-0.1c-0.4,0-0.9-0.4-1.1-0.8l-1-1.8c-0.2-0.4-0.1-0.7,0.2-0.7L107,50c0.4,0,0.9,0.4,1.1,0.8
			l1,1.8C109.4,52.9,109.5,53.1,109.2,53.1L109.2,53.1z"/>
		<path class="st1" d="M109.7,53.3l0.3-0.2h0.1l1.8,3.1v0.1l-0.3,0.2h-0.1L109.7,53.3C109.7,53.4,109.7,53.3,109.7,53.3L109.7,53.3z
			"/>
	</g>
	<path class="st1" d="M106.9,46.8c0.7,0,1.3,0.6,1.3,1.3s-0.6,1.3-1.3,1.3s-1.3-0.6-1.3-1.3S106.2,46.8,106.9,46.8L106.9,46.8z"/>
</g>
<rect x="116.8" y="44" class="st2" width="18.4" height="5.7"/>
<g class="st6">
	<path d="M120.3,46.7l0.6,0.1c-0.1,0.5-0.3,0.8-0.6,1.1c-0.3,0.2-0.7,0.4-1.1,0.4c-0.5,0-0.8-0.1-1.1-0.3s-0.5-0.5-0.7-0.8
		s-0.2-0.7-0.2-1.2c0-0.4,0.1-0.8,0.3-1.2s0.4-0.6,0.7-0.8c0.3-0.2,0.7-0.3,1-0.3c0.4,0,0.8,0.1,1.1,0.3s0.5,0.5,0.6,0.9l-0.6,0.1
		c-0.1-0.3-0.2-0.5-0.4-0.7s-0.4-0.2-0.7-0.2c-0.3,0-0.6,0.1-0.8,0.2s-0.4,0.4-0.5,0.6c-0.1,0.3-0.1,0.5-0.1,0.8
		c0,0.4,0.1,0.7,0.2,1c0.1,0.3,0.3,0.5,0.5,0.6s0.5,0.2,0.7,0.2c0.3,0,0.6-0.1,0.8-0.3S120.2,47.1,120.3,46.7z"/>
	<path d="M121.5,48.2v-4.3h0.5v1.5c0.2-0.3,0.6-0.4,0.9-0.4c0.2,0,0.4,0,0.6,0.1c0.2,0.1,0.3,0.2,0.4,0.4s0.1,0.4,0.1,0.7v2h-0.5v-2
		c0-0.3-0.1-0.5-0.2-0.6c-0.1-0.1-0.3-0.2-0.5-0.2c-0.2,0-0.3,0-0.4,0.1s-0.2,0.2-0.3,0.3s-0.1,0.3-0.1,0.6v1.7H121.5z"/>
	<path d="M126.8,47.8c-0.2,0.2-0.4,0.3-0.6,0.4s-0.4,0.1-0.6,0.1c-0.3,0-0.6-0.1-0.8-0.2c-0.2-0.2-0.3-0.4-0.3-0.6
		c0-0.2,0-0.3,0.1-0.4c0.1-0.1,0.2-0.2,0.3-0.3s0.2-0.1,0.4-0.2c0.1,0,0.3-0.1,0.5-0.1c0.4-0.1,0.7-0.1,0.9-0.2c0-0.1,0-0.1,0-0.1
		c0-0.2,0-0.4-0.1-0.5c-0.1-0.1-0.3-0.2-0.6-0.2c-0.2,0-0.4,0-0.5,0.1c-0.1,0.1-0.2,0.2-0.3,0.5l-0.5-0.1c0-0.2,0.1-0.4,0.2-0.5
		s0.3-0.2,0.5-0.3c0.2-0.1,0.4-0.1,0.7-0.1c0.3,0,0.5,0,0.6,0.1s0.3,0.1,0.4,0.2s0.1,0.2,0.2,0.4c0,0.1,0,0.3,0,0.5v0.7
		c0,0.5,0,0.8,0,0.9s0.1,0.3,0.1,0.4h-0.6C126.9,48.1,126.9,48,126.8,47.8z M126.8,46.7c-0.2,0.1-0.5,0.1-0.9,0.2
		c-0.2,0-0.4,0.1-0.5,0.1s-0.2,0.1-0.2,0.2c0,0.1-0.1,0.2-0.1,0.3c0,0.1,0.1,0.3,0.2,0.4s0.3,0.1,0.5,0.1c0.2,0,0.4,0,0.5-0.1
		c0.2-0.1,0.3-0.2,0.3-0.4c0.1-0.1,0.1-0.3,0.1-0.5V46.7z"/>
	<path d="M129,48.2l-1.2-3.1h0.6l0.7,1.9c0.1,0.2,0.1,0.4,0.2,0.6c0-0.2,0.1-0.4,0.2-0.6l0.7-1.9h0.5l-1.2,3.1H129z"/>
	<path d="M133.3,47.2l0.5,0.1c-0.1,0.3-0.2,0.6-0.5,0.7s-0.5,0.3-0.9,0.3c-0.5,0-0.8-0.1-1.1-0.4s-0.4-0.7-0.4-1.2
		c0-0.5,0.1-0.9,0.4-1.2s0.6-0.4,1-0.4c0.4,0,0.8,0.1,1,0.4s0.4,0.7,0.4,1.2c0,0,0,0.1,0,0.1h-2.3c0,0.3,0.1,0.6,0.3,0.8
		s0.4,0.3,0.7,0.3c0.2,0,0.4-0.1,0.5-0.2S133.2,47.5,133.3,47.2z M131.5,46.4h1.7c0-0.3-0.1-0.5-0.2-0.6c-0.2-0.2-0.4-0.3-0.7-0.3
		c-0.2,0-0.4,0.1-0.6,0.2S131.6,46.1,131.5,46.4z"/>
	<path d="M134.5,48.2v-3.1h0.5v0.5c0.1-0.2,0.2-0.4,0.3-0.4s0.2-0.1,0.3-0.1c0.2,0,0.4,0.1,0.5,0.2l-0.2,0.5
		c-0.1-0.1-0.3-0.1-0.4-0.1c-0.1,0-0.2,0-0.3,0.1c-0.1,0.1-0.2,0.2-0.2,0.3c-0.1,0.2-0.1,0.4-0.1,0.6v1.6H134.5z"/>
</g>
<rect x="116.4" y="50" class="st2" width="19.1" height="9.7"/>
<g class="st6">
	<path class="st7" d="M116.6,52.1V50h1c0.2,0,0.3,0,0.4,0.1c0.1,0,0.2,0.1,0.2,0.2s0.1,0.2,0.1,0.3c0,0.2,0,0.3-0.1,0.4
		s-0.3,0.2-0.5,0.2c0.1,0,0.1,0.1,0.2,0.1c0.1,0.1,0.2,0.2,0.2,0.3l0.4,0.6h-0.4l-0.3-0.4c-0.1-0.1-0.2-0.2-0.2-0.3
		s-0.1-0.1-0.1-0.1c0,0-0.1,0-0.1-0.1c0,0-0.1,0-0.2,0h-0.3v1H116.6z M116.9,50.9h0.6c0.1,0,0.2,0,0.3,0c0.1,0,0.1-0.1,0.2-0.1
		c0-0.1,0.1-0.1,0.1-0.2c0-0.1,0-0.2-0.1-0.3c-0.1-0.1-0.2-0.1-0.3-0.1h-0.7V50.9z"/>
	<path class="st7" d="M119.8,51.6l0.3,0c0,0.2-0.1,0.3-0.2,0.4s-0.3,0.1-0.4,0.1c-0.2,0-0.4-0.1-0.5-0.2c-0.1-0.1-0.2-0.3-0.2-0.6
		c0-0.3,0.1-0.5,0.2-0.6s0.3-0.2,0.5-0.2c0.2,0,0.4,0.1,0.5,0.2c0.1,0.1,0.2,0.3,0.2,0.6c0,0,0,0,0,0.1H119c0,0.2,0.1,0.3,0.1,0.4
		c0.1,0.1,0.2,0.1,0.3,0.1c0.1,0,0.2,0,0.2-0.1S119.8,51.8,119.8,51.6z M119,51.2h0.9c0-0.1,0-0.2-0.1-0.3c-0.1-0.1-0.2-0.2-0.3-0.2
		c-0.1,0-0.2,0-0.3,0.1C119,51,119,51.1,119,51.2z"/>
	<path class="st7" d="M120.4,52.7v-2.2h0.2v0.2c0.1-0.1,0.1-0.1,0.2-0.2c0.1,0,0.2-0.1,0.3-0.1c0.1,0,0.2,0,0.4,0.1s0.2,0.2,0.2,0.3
		c0.1,0.1,0.1,0.3,0.1,0.4c0,0.2,0,0.3-0.1,0.4c-0.1,0.1-0.1,0.2-0.2,0.3c-0.1,0.1-0.2,0.1-0.3,0.1c-0.1,0-0.2,0-0.2-0.1
		c-0.1,0-0.1-0.1-0.2-0.1v0.8H120.4z M120.7,51.4c0,0.2,0,0.3,0.1,0.4s0.2,0.1,0.3,0.1c0.1,0,0.2,0,0.3-0.1c0.1-0.1,0.1-0.3,0.1-0.5
		c0-0.2,0-0.3-0.1-0.4c-0.1-0.1-0.2-0.1-0.3-0.1c-0.1,0-0.2,0.1-0.3,0.2C120.7,51,120.7,51.2,120.7,51.4z"/>
	<path class="st7" d="M122.1,52.1v-1.6h0.2v0.2c0.1-0.1,0.1-0.2,0.2-0.2c0.1,0,0.1-0.1,0.2-0.1c0.1,0,0.2,0,0.3,0.1l-0.1,0.2
		c-0.1,0-0.1-0.1-0.2-0.1c-0.1,0-0.1,0-0.2,0.1c0,0-0.1,0.1-0.1,0.1c0,0.1,0,0.2,0,0.3v0.8H122.1z"/>
	<path class="st7" d="M124.2,51.6l0.3,0c0,0.2-0.1,0.3-0.2,0.4s-0.3,0.1-0.4,0.1c-0.2,0-0.4-0.1-0.5-0.2c-0.1-0.1-0.2-0.3-0.2-0.6
		c0-0.3,0.1-0.5,0.2-0.6s0.3-0.2,0.5-0.2c0.2,0,0.4,0.1,0.5,0.2c0.1,0.1,0.2,0.3,0.2,0.6c0,0,0,0,0,0.1h-1.2c0,0.2,0.1,0.3,0.1,0.4
		c0.1,0.1,0.2,0.1,0.3,0.1c0.1,0,0.2,0,0.2-0.1S124.1,51.8,124.2,51.6z M123.3,51.2h0.9c0-0.1,0-0.2-0.1-0.3
		c-0.1-0.1-0.2-0.2-0.3-0.2c-0.1,0-0.2,0-0.3,0.1C123.4,51,123.3,51.1,123.3,51.2z"/>
	<path class="st7" d="M124.7,51.7l0.3,0c0,0.1,0.1,0.2,0.1,0.2c0.1,0.1,0.2,0.1,0.3,0.1c0.1,0,0.2,0,0.3-0.1c0.1,0,0.1-0.1,0.1-0.2
		c0-0.1,0-0.1-0.1-0.1c0,0-0.1-0.1-0.3-0.1c-0.2,0-0.3-0.1-0.4-0.1c-0.1,0-0.1-0.1-0.2-0.1c0-0.1-0.1-0.1-0.1-0.2c0-0.1,0-0.1,0-0.2
		c0-0.1,0.1-0.1,0.1-0.1c0,0,0.1-0.1,0.2-0.1c0.1,0,0.1,0,0.2,0c0.1,0,0.2,0,0.3,0.1c0.1,0,0.2,0.1,0.2,0.1c0,0.1,0.1,0.1,0.1,0.2
		l-0.3,0c0-0.1,0-0.1-0.1-0.2c-0.1,0-0.1-0.1-0.2-0.1c-0.1,0-0.2,0-0.3,0.1c-0.1,0-0.1,0.1-0.1,0.1c0,0,0,0.1,0,0.1
		c0,0,0.1,0.1,0.1,0.1c0,0,0.1,0,0.2,0.1c0.2,0,0.3,0.1,0.4,0.1c0.1,0,0.1,0.1,0.2,0.1s0.1,0.1,0.1,0.2c0,0.1,0,0.2-0.1,0.2
		c-0.1,0.1-0.1,0.1-0.2,0.2c-0.1,0-0.2,0.1-0.3,0.1c-0.2,0-0.4,0-0.5-0.1C124.8,52,124.7,51.8,124.7,51.7z"/>
	<path class="st7" d="M127.3,51.6l0.3,0c0,0.2-0.1,0.3-0.2,0.4s-0.3,0.1-0.4,0.1c-0.2,0-0.4-0.1-0.5-0.2c-0.1-0.1-0.2-0.3-0.2-0.6
		c0-0.3,0.1-0.5,0.2-0.6s0.3-0.2,0.5-0.2c0.2,0,0.4,0.1,0.5,0.2c0.1,0.1,0.2,0.3,0.2,0.6c0,0,0,0,0,0.1h-1.2c0,0.2,0.1,0.3,0.1,0.4
		c0.1,0.1,0.2,0.1,0.3,0.1c0.1,0,0.2,0,0.2-0.1S127.3,51.8,127.3,51.6z M126.5,51.2h0.9c0-0.1,0-0.2-0.1-0.3
		c-0.1-0.1-0.2-0.2-0.3-0.2c-0.1,0-0.2,0-0.3,0.1C126.5,51,126.5,51.1,126.5,51.2z"/>
	<path class="st7" d="M127.9,52.1v-1.6h0.2v0.2c0.1-0.2,0.3-0.3,0.5-0.3c0.1,0,0.2,0,0.3,0.1c0.1,0,0.1,0.1,0.2,0.1
		c0,0.1,0.1,0.1,0.1,0.2c0,0,0,0.1,0,0.3v1h-0.3v-0.9c0-0.1,0-0.2,0-0.2c0-0.1-0.1-0.1-0.1-0.1c-0.1,0-0.1,0-0.2,0
		c-0.1,0-0.2,0-0.3,0.1c-0.1,0.1-0.1,0.2-0.1,0.4v0.8H127.9z"/>
	<path class="st7" d="M130.2,51.9l0,0.2c-0.1,0-0.1,0-0.2,0c-0.1,0-0.2,0-0.2,0c-0.1,0-0.1-0.1-0.1-0.1c0,0,0-0.2,0-0.3v-0.9h-0.2
		v-0.2h0.2v-0.4l0.3-0.2v0.5h0.3v0.2h-0.3v0.9c0,0.1,0,0.1,0,0.1c0,0,0,0,0,0.1c0,0,0.1,0,0.1,0C130.1,51.9,130.1,51.9,130.2,51.9z"
		/>
	<path class="st7" d="M131.5,51.9c-0.1,0.1-0.2,0.1-0.3,0.2c-0.1,0-0.2,0.1-0.3,0.1c-0.2,0-0.3,0-0.4-0.1c-0.1-0.1-0.1-0.2-0.1-0.3
		c0-0.1,0-0.1,0.1-0.2c0-0.1,0.1-0.1,0.1-0.2c0.1,0,0.1-0.1,0.2-0.1c0.1,0,0.1,0,0.2,0c0.2,0,0.4-0.1,0.5-0.1c0,0,0-0.1,0-0.1
		c0-0.1,0-0.2-0.1-0.2c-0.1-0.1-0.2-0.1-0.3-0.1c-0.1,0-0.2,0-0.3,0.1c-0.1,0-0.1,0.1-0.1,0.2l-0.3,0c0-0.1,0.1-0.2,0.1-0.3
		c0.1-0.1,0.1-0.1,0.2-0.2c0.1,0,0.2-0.1,0.4-0.1c0.1,0,0.2,0,0.3,0s0.1,0.1,0.2,0.1c0,0,0.1,0.1,0.1,0.2c0,0,0,0.1,0,0.2v0.4
		c0,0.2,0,0.4,0,0.5c0,0.1,0,0.1,0.1,0.2h-0.3C131.5,52.1,131.5,52,131.5,51.9z M131.4,51.4c-0.1,0-0.2,0.1-0.4,0.1
		c-0.1,0-0.2,0-0.2,0.1c0,0-0.1,0-0.1,0.1c0,0,0,0.1,0,0.1c0,0.1,0,0.1,0.1,0.2c0.1,0,0.1,0.1,0.2,0.1c0.1,0,0.2,0,0.3-0.1
		c0.1,0,0.1-0.1,0.2-0.2C131.4,51.7,131.4,51.6,131.4,51.4L131.4,51.4z"/>
	<path class="st7" d="M132.8,51.4c0-0.3,0.1-0.5,0.2-0.6c0.1-0.1,0.3-0.2,0.5-0.2c0.2,0,0.4,0.1,0.5,0.2c0.1,0.1,0.2,0.3,0.2,0.6
		c0,0.2,0,0.4-0.1,0.5c-0.1,0.1-0.1,0.2-0.3,0.3c-0.1,0.1-0.2,0.1-0.4,0.1c-0.2,0-0.4-0.1-0.5-0.2C132.9,51.8,132.8,51.6,132.8,51.4
		z M133.1,51.4c0,0.2,0,0.3,0.1,0.4c0.1,0.1,0.2,0.1,0.3,0.1c0.1,0,0.2,0,0.3-0.1s0.1-0.3,0.1-0.5c0-0.2,0-0.3-0.1-0.4
		c-0.1-0.1-0.2-0.1-0.3-0.1c-0.1,0-0.2,0-0.3,0.1S133.1,51.2,133.1,51.4z"/>
</g>
<g class="st6">
	<path class="st7" d="M117.6,55.2l0.3,0c0,0.2-0.1,0.3-0.2,0.4c-0.1,0.1-0.3,0.2-0.4,0.2c-0.2,0-0.4-0.1-0.5-0.2
		c-0.1-0.1-0.2-0.3-0.2-0.6c0-0.2,0-0.3,0.1-0.4s0.1-0.2,0.3-0.3c0.1-0.1,0.2-0.1,0.4-0.1c0.2,0,0.3,0,0.4,0.1
		c0.1,0.1,0.2,0.2,0.2,0.4l-0.3,0c0-0.1-0.1-0.2-0.1-0.2c-0.1-0.1-0.1-0.1-0.2-0.1c-0.1,0-0.2,0-0.3,0.1c-0.1,0.1-0.1,0.2-0.1,0.5
		c0,0.2,0,0.4,0.1,0.5c0.1,0.1,0.2,0.1,0.3,0.1c0.1,0,0.2,0,0.3-0.1C117.6,55.4,117.6,55.3,117.6,55.2z"/>
	<path class="st7" d="M118.1,55.7v-2.1h0.3v0.8c0.1-0.1,0.3-0.2,0.5-0.2c0.1,0,0.2,0,0.3,0.1c0.1,0,0.1,0.1,0.2,0.2
		c0,0.1,0.1,0.2,0.1,0.3v1h-0.3v-1c0-0.1,0-0.2-0.1-0.3c-0.1-0.1-0.1-0.1-0.2-0.1c-0.1,0-0.2,0-0.2,0.1c-0.1,0-0.1,0.1-0.1,0.2
		c0,0.1,0,0.2,0,0.3v0.9H118.1z"/>
	<path class="st7" d="M120.8,55.5c-0.1,0.1-0.2,0.1-0.3,0.2c-0.1,0-0.2,0.1-0.3,0.1c-0.2,0-0.3,0-0.4-0.1c-0.1-0.1-0.1-0.2-0.1-0.3
		c0-0.1,0-0.1,0.1-0.2c0-0.1,0.1-0.1,0.1-0.2c0.1,0,0.1-0.1,0.2-0.1c0.1,0,0.1,0,0.2,0c0.2,0,0.4-0.1,0.5-0.1c0,0,0-0.1,0-0.1
		c0-0.1,0-0.2-0.1-0.2c-0.1-0.1-0.2-0.1-0.3-0.1c-0.1,0-0.2,0-0.3,0.1c-0.1,0-0.1,0.1-0.1,0.2l-0.3,0c0-0.1,0.1-0.2,0.1-0.3
		c0.1-0.1,0.1-0.1,0.2-0.2c0.1,0,0.2-0.1,0.4-0.1c0.1,0,0.2,0,0.3,0s0.1,0.1,0.2,0.1c0,0,0.1,0.1,0.1,0.2c0,0,0,0.1,0,0.2v0.4
		c0,0.2,0,0.4,0,0.5c0,0.1,0,0.1,0.1,0.2h-0.3C120.8,55.7,120.8,55.6,120.8,55.5z M120.8,55c-0.1,0-0.2,0.1-0.4,0.1
		c-0.1,0-0.2,0-0.2,0.1c0,0-0.1,0-0.1,0.1c0,0,0,0.1,0,0.1c0,0.1,0,0.1,0.1,0.2c0.1,0,0.1,0.1,0.2,0.1c0.1,0,0.2,0,0.3-0.1
		c0.1,0,0.1-0.1,0.2-0.2C120.8,55.3,120.8,55.2,120.8,55L120.8,55z"/>
	<path class="st7" d="M121.9,55.7l-0.6-1.6h0.3l0.3,0.9c0,0.1,0.1,0.2,0.1,0.3c0-0.1,0.1-0.2,0.1-0.3l0.3-0.9h0.3l-0.6,1.6H121.9z"
		/>
	<path class="st7" d="M124,55.2l0.3,0c0,0.2-0.1,0.3-0.2,0.4s-0.3,0.1-0.4,0.1c-0.2,0-0.4-0.1-0.5-0.2c-0.1-0.1-0.2-0.3-0.2-0.6
		c0-0.3,0.1-0.5,0.2-0.6s0.3-0.2,0.5-0.2c0.2,0,0.4,0.1,0.5,0.2c0.1,0.1,0.2,0.3,0.2,0.6c0,0,0,0,0,0.1h-1.2c0,0.2,0.1,0.3,0.1,0.4
		c0.1,0.1,0.2,0.1,0.3,0.1c0.1,0,0.2,0,0.2-0.1S124,55.3,124,55.2z M123.1,54.8h0.9c0-0.1,0-0.2-0.1-0.3c-0.1-0.1-0.2-0.2-0.3-0.2
		c-0.1,0-0.2,0-0.3,0.1C123.2,54.6,123.1,54.7,123.1,54.8z"/>
	<path class="st7" d="M124.6,55.7v-1.6h0.2v0.2c0.1-0.1,0.1-0.2,0.2-0.2c0.1,0,0.1-0.1,0.2-0.1c0.1,0,0.2,0,0.3,0.1l-0.1,0.2
		c-0.1,0-0.1-0.1-0.2-0.1c-0.1,0-0.1,0-0.2,0.1c0,0-0.1,0.1-0.1,0.1c0,0.1,0,0.2,0,0.3v0.8H124.6z"/>
	<path class="st7" d="M127.5,55.7v-0.2c-0.1,0.2-0.2,0.2-0.4,0.2c-0.1,0-0.2,0-0.3-0.1c-0.1-0.1-0.2-0.2-0.2-0.3
		c-0.1-0.1-0.1-0.3-0.1-0.4c0-0.2,0-0.3,0.1-0.4c0.1-0.1,0.1-0.2,0.2-0.3c0.1-0.1,0.2-0.1,0.3-0.1c0.1,0,0.2,0,0.3,0.1
		c0.1,0,0.1,0.1,0.2,0.2v-0.8h0.3v2.1H127.5z M126.6,55c0,0.2,0,0.3,0.1,0.4c0.1,0.1,0.2,0.1,0.3,0.1c0.1,0,0.2,0,0.3-0.1
		c0.1-0.1,0.1-0.2,0.1-0.4c0-0.2,0-0.4-0.1-0.5s-0.2-0.2-0.3-0.2c-0.1,0-0.2,0-0.3,0.1C126.7,54.6,126.6,54.8,126.6,55z"/>
	<path class="st7" d="M129.2,55.2l0.3,0c0,0.2-0.1,0.3-0.2,0.4s-0.3,0.1-0.4,0.1c-0.2,0-0.4-0.1-0.5-0.2c-0.1-0.1-0.2-0.3-0.2-0.6
		c0-0.3,0.1-0.5,0.2-0.6s0.3-0.2,0.5-0.2c0.2,0,0.4,0.1,0.5,0.2c0.1,0.1,0.2,0.3,0.2,0.6c0,0,0,0,0,0.1h-1.2c0,0.2,0.1,0.3,0.1,0.4
		c0.1,0.1,0.2,0.1,0.3,0.1c0.1,0,0.2,0,0.2-0.1S129.1,55.3,129.2,55.2z M128.3,54.8h0.9c0-0.1,0-0.2-0.1-0.3
		c-0.1-0.1-0.2-0.2-0.3-0.2c-0.1,0-0.2,0-0.3,0.1C128.4,54.6,128.3,54.7,128.3,54.8z"/>
	<path class="st7" d="M129.8,55.7v-1.6h0.2v0.2c0.1-0.2,0.3-0.3,0.5-0.3c0.1,0,0.2,0,0.3,0.1c0.1,0,0.1,0.1,0.2,0.1
		c0,0.1,0.1,0.1,0.1,0.2c0,0,0,0.1,0,0.3v1h-0.3v-0.9c0-0.1,0-0.2,0-0.2c0-0.1-0.1-0.1-0.1-0.1c-0.1,0-0.1,0-0.2,0
		c-0.1,0-0.2,0-0.3,0.1c-0.1,0.1-0.1,0.2-0.1,0.4v0.8H129.8z"/>
	<path class="st7" d="M132,55.5l0,0.2c-0.1,0-0.1,0-0.2,0c-0.1,0-0.2,0-0.2,0c-0.1,0-0.1-0.1-0.1-0.1c0,0,0-0.2,0-0.3v-0.9h-0.2
		v-0.2h0.2v-0.4l0.3-0.2v0.5h0.3v0.2h-0.3v0.9c0,0.1,0,0.1,0,0.1c0,0,0,0,0,0.1c0,0,0.1,0,0.1,0C131.9,55.5,132,55.5,132,55.5z"/>
	<path class="st7" d="M132.3,55.7v-1.6h0.2v0.2c0.1-0.1,0.1-0.2,0.2-0.2c0.1,0,0.1-0.1,0.2-0.1c0.1,0,0.2,0,0.3,0.1l-0.1,0.2
		c-0.1,0-0.1-0.1-0.2-0.1c-0.1,0-0.1,0-0.2,0.1c0,0-0.1,0.1-0.1,0.1c0,0.1,0,0.2,0,0.3v0.8H132.3z"/>
	<path class="st7" d="M133.2,55c0-0.3,0.1-0.5,0.2-0.6c0.1-0.1,0.3-0.2,0.5-0.2c0.2,0,0.4,0.1,0.5,0.2c0.1,0.1,0.2,0.3,0.2,0.6
		c0,0.2,0,0.4-0.1,0.5c-0.1,0.1-0.1,0.2-0.3,0.3c-0.1,0.1-0.2,0.1-0.4,0.1c-0.2,0-0.4-0.1-0.5-0.2C133.2,55.4,133.2,55.2,133.2,55z
		 M133.5,55c0,0.2,0,0.3,0.1,0.4c0.1,0.1,0.2,0.1,0.3,0.1c0.1,0,0.2,0,0.3-0.1s0.1-0.3,0.1-0.5c0-0.2,0-0.3-0.1-0.4
		c-0.1-0.1-0.2-0.1-0.3-0.1c-0.1,0-0.2,0-0.3,0.1S133.5,54.8,133.5,55z"/>
</g>
<g class="st6">
	<path class="st7" d="M117.6,59.3v-0.2c-0.1,0.2-0.2,0.2-0.4,0.2c-0.1,0-0.2,0-0.3-0.1c-0.1-0.1-0.2-0.2-0.2-0.3
		c-0.1-0.1-0.1-0.3-0.1-0.4c0-0.2,0-0.3,0.1-0.4c0.1-0.1,0.1-0.2,0.2-0.3c0.1-0.1,0.2-0.1,0.3-0.1c0.1,0,0.2,0,0.3,0.1
		c0.1,0,0.1,0.1,0.2,0.2v-0.8h0.3v2.1H117.6z M116.8,58.6c0,0.2,0,0.3,0.1,0.4c0.1,0.1,0.2,0.1,0.3,0.1c0.1,0,0.2,0,0.3-0.1
		c0.1-0.1,0.1-0.2,0.1-0.4c0-0.2,0-0.4-0.1-0.5s-0.2-0.2-0.3-0.2c-0.1,0-0.2,0-0.3,0.1C116.8,58.2,116.8,58.4,116.8,58.6z"/>
	<path class="st7" d="M119.3,59.1c-0.1,0.1-0.2,0.1-0.3,0.2c-0.1,0-0.2,0.1-0.3,0.1c-0.2,0-0.3,0-0.4-0.1c-0.1-0.1-0.1-0.2-0.1-0.3
		c0-0.1,0-0.1,0.1-0.2c0-0.1,0.1-0.1,0.1-0.2c0.1,0,0.1-0.1,0.2-0.1c0.1,0,0.1,0,0.2,0c0.2,0,0.4-0.1,0.5-0.1c0,0,0-0.1,0-0.1
		c0-0.1,0-0.2-0.1-0.2c-0.1-0.1-0.2-0.1-0.3-0.1c-0.1,0-0.2,0-0.3,0.1c-0.1,0-0.1,0.1-0.1,0.2l-0.3,0c0-0.1,0.1-0.2,0.1-0.3
		c0.1-0.1,0.1-0.1,0.2-0.2c0.1,0,0.2-0.1,0.4-0.1c0.1,0,0.2,0,0.3,0s0.1,0.1,0.2,0.1c0,0,0.1,0.1,0.1,0.2c0,0,0,0.1,0,0.2v0.4
		c0,0.2,0,0.4,0,0.5c0,0.1,0,0.1,0.1,0.2h-0.3C119.3,59.3,119.3,59.2,119.3,59.1z M119.3,58.6c-0.1,0-0.2,0.1-0.4,0.1
		c-0.1,0-0.2,0-0.2,0.1c0,0-0.1,0-0.1,0.1c0,0,0,0.1,0,0.1c0,0.1,0,0.1,0.1,0.2c0.1,0,0.1,0.1,0.2,0.1c0.1,0,0.2,0,0.3-0.1
		c0.1,0,0.1-0.1,0.2-0.2C119.3,58.9,119.3,58.8,119.3,58.6L119.3,58.6z"/>
	<path class="st7" d="M121.3,59.3v-1.9h-0.7v-0.3h1.7v0.3h-0.7v1.9H121.3z"/>
	<path class="st7" d="M122.6,59.3v-1.6h0.2V58c0.1-0.2,0.3-0.3,0.5-0.3c0.1,0,0.2,0,0.3,0.1c0.1,0,0.1,0.1,0.2,0.1
		c0,0.1,0.1,0.1,0.1,0.2c0,0,0,0.1,0,0.3v1h-0.3v-0.9c0-0.1,0-0.2,0-0.2c0-0.1-0.1-0.1-0.1-0.1c-0.1,0-0.1,0-0.2,0
		c-0.1,0-0.2,0-0.3,0.1c-0.1,0.1-0.1,0.2-0.1,0.4v0.8H122.6z"/>
	<path class="st7" d="M125.2,59.3v-0.2c-0.1,0.2-0.3,0.3-0.5,0.3c-0.1,0-0.2,0-0.3-0.1c-0.1,0-0.1-0.1-0.2-0.1
		c0-0.1-0.1-0.1-0.1-0.2c0-0.1,0-0.1,0-0.2v-1h0.3v0.9c0,0.1,0,0.2,0,0.3c0,0.1,0.1,0.1,0.1,0.2c0.1,0,0.1,0.1,0.2,0.1
		s0.2,0,0.2-0.1c0.1,0,0.1-0.1,0.1-0.2c0-0.1,0-0.2,0-0.3v-0.8h0.3v1.6H125.2z"/>
	<path class="st7" d="M126.9,59.1c-0.1,0.1-0.2,0.1-0.3,0.2c-0.1,0-0.2,0.1-0.3,0.1c-0.2,0-0.3,0-0.4-0.1c-0.1-0.1-0.1-0.2-0.1-0.3
		c0-0.1,0-0.1,0.1-0.2c0-0.1,0.1-0.1,0.1-0.2c0.1,0,0.1-0.1,0.2-0.1c0.1,0,0.1,0,0.2,0c0.2,0,0.4-0.1,0.5-0.1c0,0,0-0.1,0-0.1
		c0-0.1,0-0.2-0.1-0.2c-0.1-0.1-0.2-0.1-0.3-0.1c-0.1,0-0.2,0-0.3,0.1c-0.1,0-0.1,0.1-0.1,0.2l-0.3,0c0-0.1,0.1-0.2,0.1-0.3
		c0.1-0.1,0.1-0.1,0.2-0.2c0.1,0,0.2-0.1,0.4-0.1c0.1,0,0.2,0,0.3,0s0.1,0.1,0.2,0.1c0,0,0.1,0.1,0.1,0.2c0,0,0,0.1,0,0.2v0.4
		c0,0.2,0,0.4,0,0.5c0,0.1,0,0.1,0.1,0.2H127C126.9,59.3,126.9,59.2,126.9,59.1z M126.9,58.6c-0.1,0-0.2,0.1-0.4,0.1
		c-0.1,0-0.2,0-0.2,0.1c0,0-0.1,0-0.1,0.1c0,0,0,0.1,0,0.1c0,0.1,0,0.1,0.1,0.2c0.1,0,0.1,0.1,0.2,0.1c0.1,0,0.2,0,0.3-0.1
		c0.1,0,0.1-0.1,0.2-0.2C126.9,58.9,126.9,58.8,126.9,58.6L126.9,58.6z M126.4,57.6l0.2-0.4h0.3l-0.3,0.4H126.4z"/>
</g>
<g>
	<path class="st0" d="M27,18.4c3.8,0,6.9,3,6.9,6.8S30.8,32,27,32s-6.9-3-6.9-6.8S23.2,18.4,27,18.4L27,18.4z"/>
	<g>
		<path class="st1" d="M24.7,21.8l0.2-0.1c0.1,0,0.1,0,0.2,0l1.3,2.1c0,0.1,0,0.1,0,0.2l-0.2,0.1c-0.1,0-0.1,0-0.2,0L24.7,22
			C24.6,21.9,24.7,21.9,24.7,21.8L24.7,21.8z"/>
		<path class="st1" d="M25.6,20.7c0-0.1,0-0.2,0-0.2l0.1-0.2c0-0.1,0.1-0.1,0.1,0c0.6,1,1.5,2.6,2.1,3.6c0.5,0.8,0.2,1.8-0.6,2.2
			c-0.8,0.5-1.8,0.2-2.2-0.5c-0.6-1-1.6-2.7-2.2-3.7c0-0.1,0-0.1,0.1-0.1h0.2c0.1,0,0.2,0.1,0.2,0.1l1.5,2.5
			c0.2,0.4,0.9,0.4,1.3,0.2c-0.3,0.3-0.4,0.7-0.2,1.1c0.2,0.4,0.8,0.6,1.2,0.3s0.6-0.8,0.3-1.2c-0.2-0.4-0.6-0.5-1-0.4
			c0.4-0.3,0.6-0.9,0.5-1.2L25.6,20.7L25.6,20.7z"/>
		<path class="st1" d="M29,28.4l0.6-1.1c0.1-0.2,0-0.6-0.1-0.8l-0.6-1.1c-0.1-0.2-0.3-0.3-0.4-0.1l-0.4,1c-0.1,0.2,0,0.6,0.1,0.8
			l0.6,1.1C28.8,28.4,28.9,28.5,29,28.4L29,28.4z"/>
		<path class="st1" d="M28.5,28.7h-1.2c-0.2,0-0.5-0.2-0.6-0.5L26,27.1c-0.1-0.2-0.1-0.4,0.1-0.4l1,0.1c0.2,0,0.5,0.2,0.6,0.5
			l0.6,1.1C28.6,28.6,28.7,28.7,28.5,28.7L28.5,28.7z"/>
		<path class="st1" d="M28.8,28.8l0.2-0.1c0,0,0,0,0.1,0l1.1,1.9c0,0,0,0,0,0.1L30,30.8c0,0,0,0-0.1,0L28.8,28.8
			C28.8,28.9,28.8,28.8,28.8,28.8L28.8,28.8z"/>
		<path class="st1" d="M25.3,21l-0.1,0.2c0,0.1,0,0.2,0,0.2l1.2,2c0,0.1,0.1,0.1,0.1,0l0.1-0.2c0-0.1,0-0.2,0-0.2l-1.2-2
			C25.4,20.9,25.3,20.9,25.3,21L25.3,21z"/>
		<path class="st1" d="M23.9,21.8h0.2c0.1,0,0.2,0,0.2,0.1l1.2,2c0,0.1,0,0.1-0.1,0.1h-0.2c-0.1,0-0.2,0-0.2-0.1l-1.2-2.1
			C23.8,21.8,23.8,21.8,23.9,21.8L23.9,21.8z"/>
	</g>
</g>
<rect x="4.4" y="21.2" class="st2" width="14.7" height="5.7"/>
<g class="st6">
	<path d="M5.9,25.4v-3.8H4.5v-0.5h3.4v0.5H6.5v3.8H5.9z"/>
	<path d="M8.2,25.4v-3.1h0.5v0.5c0.1-0.2,0.2-0.4,0.3-0.4s0.2-0.1,0.3-0.1c0.2,0,0.4,0.1,0.5,0.2l-0.2,0.5c-0.1-0.1-0.3-0.1-0.4-0.1
		c-0.1,0-0.2,0-0.3,0.1c-0.1,0.1-0.2,0.2-0.2,0.3c-0.1,0.2-0.1,0.4-0.1,0.6v1.6H8.2z"/>
	<path d="M10.2,21.7v-0.6h0.5v0.6H10.2z M10.2,25.4v-3.1h0.5v3.1H10.2z"/>
	<path d="M11.4,25.7l0.5,0.1c0,0.2,0.1,0.3,0.2,0.3c0.1,0.1,0.3,0.1,0.5,0.1c0.2,0,0.4,0,0.6-0.1s0.2-0.2,0.3-0.4c0-0.1,0-0.3,0-0.7
		c-0.2,0.3-0.5,0.4-0.9,0.4c-0.4,0-0.8-0.2-1-0.5s-0.4-0.7-0.4-1.1c0-0.3,0.1-0.6,0.2-0.8s0.3-0.4,0.5-0.6s0.4-0.2,0.7-0.2
		c0.4,0,0.7,0.1,0.9,0.4v-0.4h0.5V25c0,0.5,0,0.8-0.1,1c-0.1,0.2-0.3,0.4-0.5,0.5s-0.5,0.2-0.8,0.2c-0.4,0-0.7-0.1-0.9-0.3
		C11.5,26.3,11.4,26,11.4,25.7z M11.9,23.8c0,0.4,0.1,0.7,0.2,0.9s0.4,0.3,0.6,0.3c0.2,0,0.4-0.1,0.6-0.3c0.2-0.2,0.2-0.5,0.2-0.9
		c0-0.4-0.1-0.7-0.3-0.9s-0.4-0.3-0.6-0.3c-0.2,0-0.4,0.1-0.6,0.3C11.9,23.2,11.9,23.4,11.9,23.8z"/>
	<path d="M14.7,23.9c0-0.6,0.2-1,0.5-1.3c0.3-0.2,0.6-0.3,1-0.3c0.4,0,0.8,0.1,1,0.4c0.3,0.3,0.4,0.7,0.4,1.2c0,0.4-0.1,0.7-0.2,0.9
		s-0.3,0.4-0.5,0.5s-0.5,0.2-0.8,0.2c-0.4,0-0.8-0.1-1.1-0.4S14.7,24.4,14.7,23.9z M15.2,23.9c0,0.4,0.1,0.7,0.3,0.9
		s0.4,0.3,0.7,0.3c0.3,0,0.5-0.1,0.7-0.3s0.3-0.5,0.3-0.9c0-0.4-0.1-0.7-0.3-0.9s-0.4-0.3-0.7-0.3c-0.3,0-0.5,0.1-0.7,0.3
		S15.2,23.5,15.2,23.9z"/>
</g>
<g>
	<path class="st0" d="M95.9,9c3.7,0,6.8,3,6.8,6.7s-3,6.7-6.8,6.7s-6.8-3-6.8-6.7S92.1,9,95.9,9L95.9,9z"/>
	<g>
		<polygon class="st1" points="95.5,18 96.1,19 96.1,19 96.7,20 95.9,21.4 94.2,18.5 90.8,18.5 91.6,17.2 93.4,17.2 93.4,17.2 
			94.1,17.2 94.3,17.2 95,17.2 95,17.2 		"/>
		<polygon class="st1" points="95.9,10.1 97.6,12.9 101,12.9 100.2,14.2 98.4,14.2 98.4,14.2 98.3,14.2 97.5,14.2 97.4,14.2 
			97.3,14.2 96.5,14.2 96.5,14.2 95,11.6 		"/>
		<polygon class="st1" points="100.1,14.4 99.3,15.7 101,18.5 99.1,18.5 98.8,18 97.5,15.8 97.5,15.8 97.5,15.8 97.9,15 98.3,14.4 
					"/>
		<polygon class="st1" points="91.7,17 92.4,15.7 90.8,12.9 92.4,12.9 94.1,15.6 93.6,16.4 93.2,17 		"/>
	</g>
</g>
<rect x="103.4" y="10.4" class="st2" width="45.1" height="7.5"/>
<g class="st6">
	<path d="M103.8,14.7v-4.3h0.9l1,3c0.1,0.3,0.2,0.5,0.2,0.6c0-0.2,0.1-0.4,0.2-0.7l1-3h0.8v4.3h-0.5v-3.6l-1.2,3.6h-0.5l-1.2-3.7
		v3.7H103.8z"/>
	<path d="M110.8,14.3c-0.2,0.2-0.4,0.3-0.6,0.4s-0.4,0.1-0.6,0.1c-0.3,0-0.6-0.1-0.8-0.2c-0.2-0.2-0.3-0.4-0.3-0.6
		c0-0.2,0-0.3,0.1-0.4c0.1-0.1,0.2-0.2,0.3-0.3s0.2-0.1,0.4-0.2c0.1,0,0.3-0.1,0.5-0.1c0.4-0.1,0.7-0.1,0.9-0.2c0-0.1,0-0.1,0-0.1
		c0-0.2,0-0.4-0.1-0.5c-0.1-0.1-0.3-0.2-0.6-0.2c-0.2,0-0.4,0-0.5,0.1c-0.1,0.1-0.2,0.2-0.3,0.5l-0.5-0.1c0-0.2,0.1-0.4,0.2-0.5
		s0.3-0.2,0.5-0.3c0.2-0.1,0.4-0.1,0.7-0.1c0.3,0,0.5,0,0.6,0.1s0.3,0.1,0.4,0.2s0.1,0.2,0.2,0.4c0,0.1,0,0.3,0,0.5v0.7
		c0,0.5,0,0.8,0,0.9s0.1,0.3,0.1,0.4h-0.6C110.9,14.6,110.8,14.5,110.8,14.3z M110.8,13.1c-0.2,0.1-0.5,0.1-0.9,0.2
		c-0.2,0-0.4,0.1-0.5,0.1s-0.2,0.1-0.2,0.2c0,0.1-0.1,0.2-0.1,0.3c0,0.1,0.1,0.3,0.2,0.4s0.3,0.1,0.5,0.1c0.2,0,0.4,0,0.5-0.1
		c0.2-0.1,0.3-0.2,0.3-0.4c0.1-0.1,0.1-0.3,0.1-0.5V13.1z"/>
	<path d="M112,15l0.5,0.1c0,0.2,0.1,0.3,0.2,0.3c0.1,0.1,0.3,0.1,0.5,0.1c0.2,0,0.4,0,0.6-0.1s0.2-0.2,0.3-0.4c0-0.1,0-0.3,0-0.7
		c-0.2,0.3-0.5,0.4-0.9,0.4c-0.4,0-0.8-0.2-1-0.5s-0.4-0.7-0.4-1.1c0-0.3,0.1-0.6,0.2-0.8s0.3-0.4,0.5-0.6s0.4-0.2,0.7-0.2
		c0.4,0,0.7,0.1,0.9,0.4v-0.4h0.5v2.7c0,0.5,0,0.8-0.1,1c-0.1,0.2-0.3,0.4-0.5,0.5s-0.5,0.2-0.8,0.2c-0.4,0-0.7-0.1-0.9-0.3
		C112.1,15.5,112,15.3,112,15z M112.5,13.1c0,0.4,0.1,0.7,0.2,0.9s0.4,0.3,0.6,0.3c0.2,0,0.4-0.1,0.6-0.3c0.2-0.2,0.2-0.5,0.2-0.9
		c0-0.4-0.1-0.7-0.3-0.9s-0.4-0.3-0.6-0.3c-0.2,0-0.4,0.1-0.6,0.3C112.6,12.4,112.5,12.7,112.5,13.1z"/>
	<path d="M117.5,14.7v-0.5c-0.2,0.4-0.6,0.5-1,0.5c-0.2,0-0.4,0-0.5-0.1s-0.3-0.2-0.4-0.3c-0.1-0.1-0.1-0.2-0.2-0.4
		c0-0.1,0-0.3,0-0.5v-1.9h0.5v1.7c0,0.3,0,0.5,0,0.6c0,0.1,0.1,0.2,0.2,0.3c0.1,0.1,0.2,0.1,0.4,0.1s0.3,0,0.4-0.1
		c0.1-0.1,0.2-0.2,0.3-0.3s0.1-0.3,0.1-0.6v-1.7h0.5v3.1H117.5z"/>
	<path d="M120.9,13.7l0.5,0.1c-0.1,0.3-0.2,0.6-0.5,0.7s-0.5,0.3-0.9,0.3c-0.5,0-0.8-0.1-1.1-0.4s-0.4-0.7-0.4-1.2
		c0-0.5,0.1-0.9,0.4-1.2s0.6-0.4,1-0.4c0.4,0,0.8,0.1,1,0.4s0.4,0.7,0.4,1.2c0,0,0,0.1,0,0.1h-2.3c0,0.3,0.1,0.6,0.3,0.8
		s0.4,0.3,0.7,0.3c0.2,0,0.4-0.1,0.5-0.2S120.9,13.9,120.9,13.7z M119.2,12.8h1.7c0-0.3-0.1-0.5-0.2-0.6c-0.2-0.2-0.4-0.3-0.7-0.3
		c-0.2,0-0.4,0.1-0.6,0.2S119.2,12.6,119.2,12.8z"/>
	<path d="M122.1,14.7v-3.1h0.5V12c0.2-0.3,0.6-0.5,1-0.5c0.2,0,0.4,0,0.5,0.1c0.2,0.1,0.3,0.2,0.4,0.3s0.1,0.2,0.2,0.4
		c0,0.1,0,0.3,0,0.5v1.9h-0.5v-1.9c0-0.2,0-0.4-0.1-0.5c0-0.1-0.1-0.2-0.2-0.3s-0.2-0.1-0.4-0.1c-0.2,0-0.4,0.1-0.6,0.2
		s-0.2,0.4-0.2,0.8v1.7H122.1z"/>
	<path d="M127.2,14.7v-4.3h1.5c0.3,0,0.6,0,0.8,0.1c0.2,0.1,0.5,0.2,0.6,0.3c0.2,0.2,0.4,0.4,0.5,0.7s0.2,0.6,0.2,1
		c0,0.3,0,0.6-0.1,0.9s-0.2,0.5-0.3,0.6s-0.2,0.3-0.4,0.4c-0.1,0.1-0.3,0.2-0.5,0.2s-0.4,0.1-0.7,0.1H127.2z M127.8,14.2h0.9
		c0.3,0,0.5,0,0.7-0.1s0.3-0.1,0.4-0.2c0.1-0.1,0.2-0.3,0.3-0.5s0.1-0.5,0.1-0.8c0-0.4-0.1-0.8-0.2-1s-0.3-0.4-0.5-0.5
		c-0.2-0.1-0.4-0.1-0.7-0.1h-0.9V14.2z"/>
	<path d="M133.5,14.3c-0.2,0.2-0.4,0.3-0.6,0.4s-0.4,0.1-0.6,0.1c-0.3,0-0.6-0.1-0.8-0.2c-0.2-0.2-0.3-0.4-0.3-0.6
		c0-0.2,0-0.3,0.1-0.4c0.1-0.1,0.2-0.2,0.3-0.3s0.2-0.1,0.4-0.2c0.1,0,0.3-0.1,0.5-0.1c0.4-0.1,0.7-0.1,0.9-0.2c0-0.1,0-0.1,0-0.1
		c0-0.2,0-0.4-0.1-0.5c-0.1-0.1-0.3-0.2-0.6-0.2c-0.2,0-0.4,0-0.5,0.1c-0.1,0.1-0.2,0.2-0.3,0.5l-0.5-0.1c0-0.2,0.1-0.4,0.2-0.5
		s0.3-0.2,0.5-0.3c0.2-0.1,0.4-0.1,0.7-0.1c0.3,0,0.5,0,0.6,0.1s0.3,0.1,0.4,0.2s0.1,0.2,0.2,0.4c0,0.1,0,0.3,0,0.5v0.7
		c0,0.5,0,0.8,0,0.9s0.1,0.3,0.1,0.4h-0.6C133.6,14.6,133.5,14.5,133.5,14.3z M133.5,13.1c-0.2,0.1-0.5,0.1-0.9,0.2
		c-0.2,0-0.4,0.1-0.5,0.1s-0.2,0.1-0.2,0.2c0,0.1-0.1,0.2-0.1,0.3c0,0.1,0.1,0.3,0.2,0.4s0.3,0.1,0.5,0.1c0.2,0,0.4,0,0.5-0.1
		c0.2-0.1,0.3-0.2,0.3-0.4c0.1-0.1,0.1-0.3,0.1-0.5V13.1z"/>
	<path d="M135.7,14.7l-1.2-3.1h0.6l0.7,1.9c0.1,0.2,0.1,0.4,0.2,0.6c0-0.2,0.1-0.4,0.2-0.6l0.7-1.9h0.5l-1.2,3.1H135.7z"/>
	<path d="M137.8,11v-0.6h0.5V11H137.8z M137.8,14.7v-3.1h0.5v3.1H137.8z"/>
	<path d="M141.2,14.7v-0.4c-0.2,0.3-0.5,0.5-0.9,0.5c-0.2,0-0.5-0.1-0.7-0.2s-0.4-0.3-0.5-0.6s-0.2-0.5-0.2-0.8
		c0-0.3,0.1-0.6,0.2-0.8c0.1-0.3,0.3-0.4,0.5-0.6s0.4-0.2,0.7-0.2c0.2,0,0.4,0,0.5,0.1c0.1,0.1,0.3,0.2,0.4,0.3v-1.5h0.5v4.3H141.2z
		 M139.5,13.1c0,0.4,0.1,0.7,0.3,0.9s0.4,0.3,0.6,0.3c0.2,0,0.4-0.1,0.6-0.3c0.2-0.2,0.2-0.5,0.2-0.9c0-0.4-0.1-0.7-0.2-0.9
		s-0.4-0.3-0.6-0.3c-0.2,0-0.4,0.1-0.6,0.3S139.5,12.7,139.5,13.1z"/>
</g>
<rect x="3.5" y="27.3" class="st2" width="20.4" height="9.8"/>
<g class="st6">
	<path class="st7" d="M3,29.6v-2.1h0.9c0.2,0,0.3,0,0.4,0.1c0.1,0,0.2,0.1,0.2,0.2s0.1,0.2,0.1,0.3c0,0.2,0,0.3-0.1,0.4
		S4.2,28.6,4,28.7c0.1,0,0.1,0.1,0.2,0.1c0.1,0.1,0.1,0.2,0.2,0.3l0.3,0.6H4.4l-0.3-0.4C4,29.1,4,29,3.9,28.9s-0.1-0.1-0.1-0.1
		c0,0-0.1,0-0.1-0.1c0,0-0.1,0-0.1,0H3.2v1H3z M3.2,28.5h0.6c0.1,0,0.2,0,0.3,0c0.1,0,0.1-0.1,0.2-0.1c0-0.1,0.1-0.1,0.1-0.2
		c0-0.1,0-0.2-0.1-0.3S4,27.7,3.8,27.7H3.2V28.5z"/>
	<path class="st7" d="M5.9,29.1l0.3,0c0,0.2-0.1,0.3-0.2,0.4s-0.2,0.1-0.4,0.1c-0.2,0-0.4-0.1-0.5-0.2c-0.1-0.1-0.2-0.3-0.2-0.6
		c0-0.3,0.1-0.5,0.2-0.6c0.1-0.1,0.3-0.2,0.5-0.2c0.2,0,0.3,0.1,0.5,0.2s0.2,0.3,0.2,0.6c0,0,0,0,0,0.1H5.1c0,0.2,0.1,0.3,0.1,0.4
		c0.1,0.1,0.2,0.1,0.3,0.1c0.1,0,0.2,0,0.2-0.1C5.8,29.3,5.9,29.3,5.9,29.1z M5.1,28.7h0.8c0-0.1,0-0.2-0.1-0.3
		c-0.1-0.1-0.2-0.2-0.3-0.2c-0.1,0-0.2,0-0.3,0.1S5.1,28.6,5.1,28.7z"/>
	<path class="st7" d="M6.5,30.2v-2.2h0.2v0.2c0.1-0.1,0.1-0.1,0.2-0.2c0.1,0,0.1-0.1,0.2-0.1c0.1,0,0.2,0,0.3,0.1
		c0.1,0.1,0.2,0.2,0.2,0.3c0,0.1,0.1,0.3,0.1,0.4c0,0.2,0,0.3-0.1,0.4c-0.1,0.1-0.1,0.2-0.2,0.3c-0.1,0.1-0.2,0.1-0.3,0.1
		c-0.1,0-0.2,0-0.2-0.1c-0.1,0-0.1-0.1-0.2-0.1v0.8H6.5z M6.7,28.9c0,0.2,0,0.3,0.1,0.4c0.1,0.1,0.2,0.1,0.3,0.1
		c0.1,0,0.2,0,0.3-0.1c0.1-0.1,0.1-0.3,0.1-0.5c0-0.2,0-0.3-0.1-0.4c-0.1-0.1-0.2-0.1-0.3-0.1c-0.1,0-0.2,0.1-0.3,0.2
		S6.7,28.7,6.7,28.9z"/>
	<path class="st7" d="M8,29.6v-1.6h0.2v0.2c0.1-0.1,0.1-0.2,0.2-0.2s0.1-0.1,0.2-0.1c0.1,0,0.2,0,0.3,0.1l-0.1,0.2
		c-0.1,0-0.1-0.1-0.2-0.1c-0.1,0-0.1,0-0.1,0.1c0,0-0.1,0.1-0.1,0.1c0,0.1,0,0.2,0,0.3v0.8H8z"/>
	<path class="st7" d="M9.9,29.1l0.3,0c0,0.2-0.1,0.3-0.2,0.4s-0.2,0.1-0.4,0.1c-0.2,0-0.4-0.1-0.5-0.2c-0.1-0.1-0.2-0.3-0.2-0.6
		c0-0.3,0.1-0.5,0.2-0.6c0.1-0.1,0.3-0.2,0.5-0.2c0.2,0,0.3,0.1,0.5,0.2s0.2,0.3,0.2,0.6c0,0,0,0,0,0.1H9.1c0,0.2,0.1,0.3,0.1,0.4
		c0.1,0.1,0.2,0.1,0.3,0.1c0.1,0,0.2,0,0.2-0.1C9.8,29.3,9.9,29.3,9.9,29.1z M9.1,28.7h0.8c0-0.1,0-0.2-0.1-0.3
		c-0.1-0.1-0.2-0.2-0.3-0.2c-0.1,0-0.2,0-0.3,0.1S9.1,28.6,9.1,28.7z"/>
	<path class="st7" d="M10.4,29.2l0.2,0c0,0.1,0.1,0.2,0.1,0.2s0.1,0.1,0.3,0.1c0.1,0,0.2,0,0.2-0.1c0.1,0,0.1-0.1,0.1-0.2
		c0-0.1,0-0.1-0.1-0.1c0,0-0.1-0.1-0.2-0.1c-0.2,0-0.3-0.1-0.4-0.1c-0.1,0-0.1-0.1-0.2-0.1c0-0.1-0.1-0.1-0.1-0.2c0-0.1,0-0.1,0-0.2
		c0-0.1,0.1-0.1,0.1-0.1c0,0,0.1-0.1,0.2-0.1c0.1,0,0.1,0,0.2,0c0.1,0,0.2,0,0.3,0.1s0.1,0.1,0.2,0.1c0,0.1,0.1,0.1,0.1,0.2l-0.2,0
		c0-0.1,0-0.1-0.1-0.2c-0.1,0-0.1-0.1-0.2-0.1c-0.1,0-0.2,0-0.2,0.1s-0.1,0.1-0.1,0.1c0,0,0,0.1,0,0.1c0,0,0.1,0.1,0.1,0.1
		c0,0,0.1,0,0.2,0.1c0.2,0,0.3,0.1,0.4,0.1c0.1,0,0.1,0.1,0.2,0.1c0,0.1,0.1,0.1,0.1,0.2c0,0.1,0,0.2-0.1,0.2c0,0.1-0.1,0.1-0.2,0.2
		c-0.1,0-0.2,0.1-0.3,0.1c-0.2,0-0.3,0-0.4-0.1C10.5,29.5,10.4,29.4,10.4,29.2z"/>
	<path class="st7" d="M12.9,29.1l0.3,0c0,0.2-0.1,0.3-0.2,0.4s-0.2,0.1-0.4,0.1c-0.2,0-0.4-0.1-0.5-0.2c-0.1-0.1-0.2-0.3-0.2-0.6
		c0-0.3,0.1-0.5,0.2-0.6c0.1-0.1,0.3-0.2,0.5-0.2c0.2,0,0.3,0.1,0.5,0.2s0.2,0.3,0.2,0.6c0,0,0,0,0,0.1H12c0,0.2,0.1,0.3,0.1,0.4
		c0.1,0.1,0.2,0.1,0.3,0.1c0.1,0,0.2,0,0.2-0.1C12.8,29.3,12.8,29.3,12.9,29.1z M12.1,28.7h0.8c0-0.1,0-0.2-0.1-0.3
		c-0.1-0.1-0.2-0.2-0.3-0.2c-0.1,0-0.2,0-0.3,0.1S12.1,28.6,12.1,28.7z"/>
	<path class="st7" d="M13.4,29.6v-1.6h0.2v0.2c0.1-0.2,0.3-0.3,0.5-0.3c0.1,0,0.2,0,0.2,0.1c0.1,0,0.1,0.1,0.2,0.1s0.1,0.1,0.1,0.2
		c0,0,0,0.1,0,0.3v1h-0.2v-0.9c0-0.1,0-0.2,0-0.2c0-0.1-0.1-0.1-0.1-0.1s-0.1,0-0.2,0c-0.1,0-0.2,0-0.3,0.1
		c-0.1,0.1-0.1,0.2-0.1,0.4v0.8H13.4z"/>
	<path class="st7" d="M15.5,29.4l0,0.2c-0.1,0-0.1,0-0.2,0c-0.1,0-0.2,0-0.2,0c0,0-0.1-0.1-0.1-0.1c0,0,0-0.2,0-0.3v-0.9h-0.2v-0.2
		H15v-0.4l0.2-0.2v0.5h0.2v0.2h-0.2v0.9c0,0.1,0,0.1,0,0.1c0,0,0,0,0,0.1s0,0,0.1,0C15.4,29.4,15.4,29.4,15.5,29.4z"/>
	<path class="st7" d="M16.7,29.5c-0.1,0.1-0.2,0.1-0.3,0.2s-0.2,0.1-0.3,0.1c-0.2,0-0.3,0-0.4-0.1c-0.1-0.1-0.1-0.2-0.1-0.3
		c0-0.1,0-0.1,0-0.2c0-0.1,0.1-0.1,0.1-0.2c0.1,0,0.1-0.1,0.2-0.1c0,0,0.1,0,0.2,0c0.2,0,0.3-0.1,0.4-0.1c0,0,0-0.1,0-0.1
		c0-0.1,0-0.2-0.1-0.2c-0.1-0.1-0.2-0.1-0.3-0.1c-0.1,0-0.2,0-0.3,0.1c-0.1,0-0.1,0.1-0.1,0.2l-0.2,0c0-0.1,0.1-0.2,0.1-0.3
		s0.1-0.1,0.2-0.2c0.1,0,0.2-0.1,0.3-0.1c0.1,0,0.2,0,0.3,0s0.1,0.1,0.2,0.1s0.1,0.1,0.1,0.2c0,0,0,0.1,0,0.2V29c0,0.2,0,0.4,0,0.5
		c0,0.1,0,0.1,0.1,0.2h-0.3C16.7,29.6,16.7,29.5,16.7,29.5z M16.6,28.9c-0.1,0-0.2,0.1-0.4,0.1c-0.1,0-0.2,0-0.2,0.1s-0.1,0-0.1,0.1
		c0,0,0,0.1,0,0.1c0,0.1,0,0.1,0.1,0.2s0.1,0.1,0.2,0.1c0.1,0,0.2,0,0.3-0.1c0.1,0,0.1-0.1,0.2-0.2C16.6,29.2,16.6,29.1,16.6,28.9
		L16.6,28.9z"/>
	<path class="st7" d="M18,28.9c0-0.3,0.1-0.5,0.2-0.6c0.1-0.1,0.3-0.2,0.5-0.2c0.2,0,0.4,0.1,0.5,0.2c0.1,0.1,0.2,0.3,0.2,0.6
		c0,0.2,0,0.4-0.1,0.5c-0.1,0.1-0.1,0.2-0.2,0.3c-0.1,0.1-0.2,0.1-0.3,0.1c-0.2,0-0.4-0.1-0.5-0.2C18,29.3,18,29.1,18,28.9z
		 M18.2,28.9c0,0.2,0,0.3,0.1,0.4c0.1,0.1,0.2,0.1,0.3,0.1c0.1,0,0.2,0,0.3-0.1c0.1-0.1,0.1-0.3,0.1-0.5c0-0.2,0-0.3-0.1-0.4
		s-0.2-0.1-0.3-0.1c-0.1,0-0.2,0-0.3,0.1C18.2,28.5,18.2,28.7,18.2,28.9z"/>
</g>
<g class="st6">
	<path class="st7" d="M3.5,33l0,0.2c-0.1,0-0.1,0-0.2,0c-0.1,0-0.2,0-0.2,0c0,0-0.1-0.1-0.1-0.1c0,0,0-0.2,0-0.3v-0.9H2.8v-0.2H3
		v-0.4l0.2-0.2v0.5h0.2v0.2H3.2v0.9c0,0.1,0,0.1,0,0.1c0,0,0,0,0,0.1s0,0,0.1,0C3.4,33,3.4,33,3.5,33z"/>
	<path class="st7" d="M3.7,33.2v-1.6h0.2v0.2C4,31.8,4,31.7,4.1,31.7s0.1-0.1,0.2-0.1c0.1,0,0.2,0,0.3,0.1L4.4,32
		c-0.1,0-0.1-0.1-0.2-0.1c-0.1,0-0.1,0-0.1,0.1C4,32,4,32.1,4,32.1c0,0.1,0,0.2,0,0.3v0.8H3.7z"/>
	<path class="st7" d="M5.6,33.1c-0.1,0.1-0.2,0.1-0.3,0.2S5.1,33.3,5,33.3c-0.2,0-0.3,0-0.4-0.1c-0.1-0.1-0.1-0.2-0.1-0.3
		c0-0.1,0-0.1,0-0.2c0-0.1,0.1-0.1,0.1-0.2c0.1,0,0.1-0.1,0.2-0.1c0,0,0.1,0,0.2,0c0.2,0,0.3-0.1,0.4-0.1c0,0,0-0.1,0-0.1
		c0-0.1,0-0.2-0.1-0.2c-0.1-0.1-0.2-0.1-0.3-0.1c-0.1,0-0.2,0-0.3,0.1c-0.1,0-0.1,0.1-0.1,0.2l-0.2,0c0-0.1,0.1-0.2,0.1-0.3
		s0.1-0.1,0.2-0.2c0.1,0,0.2-0.1,0.3-0.1c0.1,0,0.2,0,0.3,0s0.1,0.1,0.2,0.1s0.1,0.1,0.1,0.2c0,0,0,0.1,0,0.2v0.4c0,0.2,0,0.4,0,0.5
		c0,0.1,0,0.1,0.1,0.2H5.6C5.6,33.2,5.6,33.1,5.6,33.1z M5.5,32.5c-0.1,0-0.2,0.1-0.4,0.1c-0.1,0-0.2,0-0.2,0.1s-0.1,0-0.1,0.1
		c0,0,0,0.1,0,0.1c0,0.1,0,0.1,0.1,0.2s0.1,0.1,0.2,0.1c0.1,0,0.2,0,0.3-0.1c0.1,0,0.1-0.1,0.2-0.2C5.5,32.8,5.5,32.7,5.5,32.5
		L5.5,32.5z"/>
	<path class="st7" d="M6.4,33.2H6.2v-2.1h0.2v0.8c0.1-0.1,0.2-0.2,0.4-0.2c0.1,0,0.2,0,0.3,0.1c0.1,0,0.1,0.1,0.2,0.2
		c0.1,0.1,0.1,0.2,0.1,0.3s0,0.2,0,0.3c0,0.3-0.1,0.5-0.2,0.6S7,33.3,6.8,33.3c-0.2,0-0.3-0.1-0.4-0.2V33.2z M6.4,32.5
		c0,0.2,0,0.3,0.1,0.4c0.1,0.1,0.2,0.2,0.3,0.2c0.1,0,0.2,0,0.3-0.2c0.1-0.1,0.1-0.2,0.1-0.4c0-0.2,0-0.4-0.1-0.4s-0.2-0.1-0.3-0.1
		c-0.1,0-0.2,0.1-0.3,0.2S6.4,32.3,6.4,32.5z"/>
	<path class="st7" d="M8.6,33.1c-0.1,0.1-0.2,0.1-0.3,0.2s-0.2,0.1-0.3,0.1c-0.2,0-0.3,0-0.4-0.1c-0.1-0.1-0.1-0.2-0.1-0.3
		c0-0.1,0-0.1,0-0.2c0-0.1,0.1-0.1,0.1-0.2c0.1,0,0.1-0.1,0.2-0.1c0,0,0.1,0,0.2,0c0.2,0,0.3-0.1,0.4-0.1c0,0,0-0.1,0-0.1
		c0-0.1,0-0.2-0.1-0.2c-0.1-0.1-0.2-0.1-0.3-0.1c-0.1,0-0.2,0-0.3,0.1c-0.1,0-0.1,0.1-0.1,0.2l-0.2,0c0-0.1,0.1-0.2,0.1-0.3
		s0.1-0.1,0.2-0.2c0.1,0,0.2-0.1,0.3-0.1c0.1,0,0.2,0,0.3,0s0.1,0.1,0.2,0.1s0.1,0.1,0.1,0.2c0,0,0,0.1,0,0.2v0.4c0,0.2,0,0.4,0,0.5
		c0,0.1,0,0.1,0.1,0.2H8.7C8.7,33.2,8.7,33.1,8.6,33.1z M8.6,32.5c-0.1,0-0.2,0.1-0.4,0.1c-0.1,0-0.2,0-0.2,0.1s-0.1,0-0.1,0.1
		c0,0,0,0.1,0,0.1c0,0.1,0,0.1,0.1,0.2s0.1,0.1,0.2,0.1c0.1,0,0.2,0,0.3-0.1c0.1,0,0.1-0.1,0.2-0.2C8.6,32.8,8.6,32.7,8.6,32.5
		L8.6,32.5z"/>
	<path class="st7" d="M9.2,33.2v-2.1h0.2v2.1H9.2z"/>
	<path class="st7" d="M9.9,33.2v-2.1h0.2v0.8c0.1-0.1,0.3-0.2,0.4-0.2c0.1,0,0.2,0,0.3,0.1c0.1,0,0.1,0.1,0.2,0.2s0.1,0.2,0.1,0.3v1
		h-0.2v-1c0-0.1,0-0.2-0.1-0.3c-0.1-0.1-0.1-0.1-0.2-0.1c-0.1,0-0.1,0-0.2,0.1c-0.1,0-0.1,0.1-0.1,0.2c0,0.1,0,0.2,0,0.3v0.9H9.9z"
		/>
	<path class="st7" d="M11.3,32.5c0-0.3,0.1-0.5,0.2-0.6c0.1-0.1,0.3-0.2,0.5-0.2c0.2,0,0.4,0.1,0.5,0.2c0.1,0.1,0.2,0.3,0.2,0.6
		c0,0.2,0,0.4-0.1,0.5c-0.1,0.1-0.1,0.2-0.2,0.3c-0.1,0.1-0.2,0.1-0.3,0.1c-0.2,0-0.4-0.1-0.5-0.2C11.4,32.9,11.3,32.7,11.3,32.5z
		 M11.6,32.5c0,0.2,0,0.3,0.1,0.4c0.1,0.1,0.2,0.1,0.3,0.1c0.1,0,0.2,0,0.3-0.1c0.1-0.1,0.1-0.3,0.1-0.5c0-0.2,0-0.3-0.1-0.4
		s-0.2-0.1-0.3-0.1c-0.1,0-0.2,0-0.3,0.1C11.6,32.1,11.6,32.3,11.6,32.5z"/>
</g>
<rect x="103.3" y="16.4" class="st2" width="33.1" height="4.3"/>
<g class="st6">
	<path class="st7" d="M103.6,18.5v-2.1h1c0.2,0,0.3,0,0.4,0.1c0.1,0,0.2,0.1,0.2,0.2s0.1,0.2,0.1,0.3c0,0.2,0,0.3-0.1,0.4
		s-0.3,0.2-0.5,0.2c0.1,0,0.1,0.1,0.2,0.1c0.1,0.1,0.2,0.2,0.2,0.3l0.4,0.6h-0.4l-0.3-0.4c-0.1-0.1-0.2-0.2-0.2-0.3
		s-0.1-0.1-0.1-0.1c0,0-0.1,0-0.1-0.1c0,0-0.1,0-0.2,0h-0.3v1H103.6z M103.9,17.3h0.6c0.1,0,0.2,0,0.3,0c0.1,0,0.1-0.1,0.2-0.1
		c0-0.1,0.1-0.1,0.1-0.2c0-0.1,0-0.2-0.1-0.3c-0.1-0.1-0.2-0.1-0.3-0.1h-0.7V17.3z"/>
	<path class="st7" d="M106.8,18l0.3,0c0,0.2-0.1,0.3-0.2,0.4s-0.3,0.1-0.4,0.1c-0.2,0-0.4-0.1-0.5-0.2c-0.1-0.1-0.2-0.3-0.2-0.6
		c0-0.3,0.1-0.5,0.2-0.6s0.3-0.2,0.5-0.2c0.2,0,0.4,0.1,0.5,0.2c0.1,0.1,0.2,0.3,0.2,0.6c0,0,0,0,0,0.1h-1.2c0,0.2,0.1,0.3,0.1,0.4
		c0.1,0.1,0.2,0.1,0.3,0.1c0.1,0,0.2,0,0.2-0.1S106.7,18.1,106.8,18z M105.9,17.6h0.9c0-0.1,0-0.2-0.1-0.3c-0.1-0.1-0.2-0.2-0.3-0.2
		c-0.1,0-0.2,0-0.3,0.1C106,17.3,105.9,17.5,105.9,17.6z"/>
	<path class="st7" d="M107.4,19.1V17h0.2v0.2c0.1-0.1,0.1-0.1,0.2-0.2c0.1,0,0.2-0.1,0.3-0.1c0.1,0,0.2,0,0.4,0.1s0.2,0.2,0.2,0.3
		c0.1,0.1,0.1,0.3,0.1,0.4c0,0.2,0,0.3-0.1,0.4c-0.1,0.1-0.1,0.2-0.2,0.3c-0.1,0.1-0.2,0.1-0.3,0.1c-0.1,0-0.2,0-0.2-0.1
		c-0.1,0-0.1-0.1-0.2-0.1v0.8H107.4z M107.6,17.8c0,0.2,0,0.3,0.1,0.4s0.2,0.1,0.3,0.1c0.1,0,0.2,0,0.3-0.1c0.1-0.1,0.1-0.3,0.1-0.5
		c0-0.2,0-0.3-0.1-0.4c-0.1-0.1-0.2-0.1-0.3-0.1c-0.1,0-0.2,0.1-0.3,0.2C107.6,17.4,107.6,17.6,107.6,17.8z"/>
	<path class="st7" d="M109,18.5V17h0.2v0.2c0.1-0.1,0.1-0.2,0.2-0.2c0.1,0,0.1-0.1,0.2-0.1c0.1,0,0.2,0,0.3,0.1l-0.1,0.2
		c-0.1,0-0.1-0.1-0.2-0.1c-0.1,0-0.1,0-0.2,0.1c0,0-0.1,0.1-0.1,0.1c0,0.1,0,0.2,0,0.3v0.8H109z"/>
	<path class="st7" d="M111.1,18l0.3,0c0,0.2-0.1,0.3-0.2,0.4s-0.3,0.1-0.4,0.1c-0.2,0-0.4-0.1-0.5-0.2c-0.1-0.1-0.2-0.3-0.2-0.6
		c0-0.3,0.1-0.5,0.2-0.6s0.3-0.2,0.5-0.2c0.2,0,0.4,0.1,0.5,0.2c0.1,0.1,0.2,0.3,0.2,0.6c0,0,0,0,0,0.1h-1.2c0,0.2,0.1,0.3,0.1,0.4
		c0.1,0.1,0.2,0.1,0.3,0.1c0.1,0,0.2,0,0.2-0.1S111.1,18.1,111.1,18z M110.2,17.6h0.9c0-0.1,0-0.2-0.1-0.3c-0.1-0.1-0.2-0.2-0.3-0.2
		c-0.1,0-0.2,0-0.3,0.1C110.3,17.3,110.2,17.5,110.2,17.6z"/>
	<path class="st7" d="M111.6,18.1l0.3,0c0,0.1,0.1,0.2,0.1,0.2c0.1,0.1,0.2,0.1,0.3,0.1c0.1,0,0.2,0,0.3-0.1c0.1,0,0.1-0.1,0.1-0.2
		c0-0.1,0-0.1-0.1-0.1c0,0-0.1-0.1-0.3-0.1c-0.2,0-0.3-0.1-0.4-0.1c-0.1,0-0.1-0.1-0.2-0.1c0-0.1-0.1-0.1-0.1-0.2c0-0.1,0-0.1,0-0.2
		c0-0.1,0.1-0.1,0.1-0.1c0,0,0.1-0.1,0.2-0.1c0.1,0,0.1,0,0.2,0c0.1,0,0.2,0,0.3,0.1c0.1,0,0.2,0.1,0.2,0.1c0,0.1,0.1,0.1,0.1,0.2
		l-0.3,0c0-0.1,0-0.1-0.1-0.2c-0.1,0-0.1-0.1-0.2-0.1c-0.1,0-0.2,0-0.3,0.1c-0.1,0-0.1,0.1-0.1,0.1c0,0,0,0.1,0,0.1
		c0,0,0.1,0.1,0.1,0.1c0,0,0.1,0,0.2,0.1c0.2,0,0.3,0.1,0.4,0.1c0.1,0,0.1,0.1,0.2,0.1s0.1,0.1,0.1,0.2c0,0.1,0,0.2-0.1,0.2
		c-0.1,0.1-0.1,0.1-0.2,0.2c-0.1,0-0.2,0.1-0.3,0.1c-0.2,0-0.4,0-0.5-0.1C111.7,18.3,111.6,18.2,111.6,18.1z"/>
	<path class="st7" d="M114.3,18l0.3,0c0,0.2-0.1,0.3-0.2,0.4s-0.3,0.1-0.4,0.1c-0.2,0-0.4-0.1-0.5-0.2c-0.1-0.1-0.2-0.3-0.2-0.6
		c0-0.3,0.1-0.5,0.2-0.6s0.3-0.2,0.5-0.2c0.2,0,0.4,0.1,0.5,0.2c0.1,0.1,0.2,0.3,0.2,0.6c0,0,0,0,0,0.1h-1.2c0,0.2,0.1,0.3,0.1,0.4
		c0.1,0.1,0.2,0.1,0.3,0.1c0.1,0,0.2,0,0.2-0.1S114.2,18.1,114.3,18z M113.4,17.6h0.9c0-0.1,0-0.2-0.1-0.3c-0.1-0.1-0.2-0.2-0.3-0.2
		c-0.1,0-0.2,0-0.3,0.1C113.5,17.3,113.4,17.5,113.4,17.6z"/>
	<path class="st7" d="M114.9,18.5V17h0.2v0.2c0.1-0.2,0.3-0.3,0.5-0.3c0.1,0,0.2,0,0.3,0.1c0.1,0,0.1,0.1,0.2,0.1
		c0,0.1,0.1,0.1,0.1,0.2c0,0,0,0.1,0,0.3v1h-0.3v-0.9c0-0.1,0-0.2,0-0.2c0-0.1-0.1-0.1-0.1-0.1c-0.1,0-0.1,0-0.2,0
		c-0.1,0-0.2,0-0.3,0.1c-0.1,0.1-0.1,0.2-0.1,0.4v0.8H114.9z"/>
	<path class="st7" d="M117.1,18.3l0,0.2c-0.1,0-0.1,0-0.2,0c-0.1,0-0.2,0-0.2,0c-0.1,0-0.1-0.1-0.1-0.1c0,0,0-0.2,0-0.3v-0.9h-0.2
		V17h0.2v-0.4l0.3-0.2V17h0.3v0.2h-0.3v0.9c0,0.1,0,0.1,0,0.1c0,0,0,0,0,0.1c0,0,0.1,0,0.1,0C117,18.3,117.1,18.3,117.1,18.3z"/>
	<path class="st7" d="M118.4,18.3c-0.1,0.1-0.2,0.1-0.3,0.2c-0.1,0-0.2,0.1-0.3,0.1c-0.2,0-0.3,0-0.4-0.1c-0.1-0.1-0.1-0.2-0.1-0.3
		c0-0.1,0-0.1,0.1-0.2c0-0.1,0.1-0.1,0.1-0.2c0.1,0,0.1-0.1,0.2-0.1c0.1,0,0.1,0,0.2,0c0.2,0,0.4-0.1,0.5-0.1c0,0,0-0.1,0-0.1
		c0-0.1,0-0.2-0.1-0.2c-0.1-0.1-0.2-0.1-0.3-0.1c-0.1,0-0.2,0-0.3,0.1c-0.1,0-0.1,0.1-0.1,0.2l-0.3,0c0-0.1,0.1-0.2,0.1-0.3
		c0.1-0.1,0.1-0.1,0.2-0.2c0.1,0,0.2-0.1,0.4-0.1c0.1,0,0.2,0,0.3,0s0.1,0.1,0.2,0.1c0,0,0.1,0.1,0.1,0.2c0,0,0,0.1,0,0.2v0.4
		c0,0.2,0,0.4,0,0.5c0,0.1,0,0.1,0.1,0.2h-0.3C118.4,18.5,118.4,18.4,118.4,18.3z M118.4,17.7c-0.1,0-0.2,0.1-0.4,0.1
		c-0.1,0-0.2,0-0.2,0.1c0,0-0.1,0-0.1,0.1c0,0,0,0.1,0,0.1c0,0.1,0,0.1,0.1,0.2c0.1,0,0.1,0.1,0.2,0.1c0.1,0,0.2,0,0.3-0.1
		c0.1,0,0.1-0.1,0.2-0.2C118.4,18,118.4,18,118.4,17.7L118.4,17.7z"/>
	<path class="st7" d="M119.8,17.7c0-0.3,0.1-0.5,0.2-0.6c0.1-0.1,0.3-0.2,0.5-0.2c0.2,0,0.4,0.1,0.5,0.2c0.1,0.1,0.2,0.3,0.2,0.6
		c0,0.2,0,0.4-0.1,0.5c-0.1,0.1-0.1,0.2-0.3,0.3c-0.1,0.1-0.2,0.1-0.4,0.1c-0.2,0-0.4-0.1-0.5-0.2C119.8,18.2,119.8,18,119.8,17.7z
		 M120,17.7c0,0.2,0,0.3,0.1,0.4c0.1,0.1,0.2,0.1,0.3,0.1c0.1,0,0.2,0,0.3-0.1s0.1-0.3,0.1-0.5c0-0.2,0-0.3-0.1-0.4
		c-0.1-0.1-0.2-0.1-0.3-0.1c-0.1,0-0.2,0-0.3,0.1S120,17.5,120,17.7z"/>
	<path class="st7" d="M122,19.1l0-0.2c0.1,0,0.1,0,0.1,0c0.1,0,0.1,0,0.1-0.1c0,0,0-0.1,0-0.3V17h0.3v1.6c0,0.2,0,0.3-0.1,0.4
		c-0.1,0.1-0.2,0.1-0.3,0.1C122.2,19.2,122.1,19.1,122,19.1z M122.4,16.7v-0.3h0.3v0.3H122.4z"/>
	<path class="st7" d="M124.1,18.5v-0.2c-0.1,0.2-0.3,0.3-0.5,0.3c-0.1,0-0.2,0-0.3-0.1c-0.1,0-0.1-0.1-0.2-0.1
		c0-0.1-0.1-0.1-0.1-0.2c0-0.1,0-0.1,0-0.2v-1h0.3v0.9c0,0.1,0,0.2,0,0.3c0,0.1,0.1,0.1,0.1,0.2c0.1,0,0.1,0.1,0.2,0.1
		s0.2,0,0.2-0.1c0.1,0,0.1-0.1,0.1-0.2c0-0.1,0-0.2,0-0.3V17h0.3v1.6H124.1z"/>
	<path class="st7" d="M125.7,18.5v-0.2c-0.1,0.2-0.2,0.2-0.4,0.2c-0.1,0-0.2,0-0.3-0.1c-0.1-0.1-0.2-0.2-0.2-0.3
		c-0.1-0.1-0.1-0.3-0.1-0.4c0-0.2,0-0.3,0.1-0.4c0.1-0.1,0.1-0.2,0.2-0.3c0.1-0.1,0.2-0.1,0.3-0.1c0.1,0,0.2,0,0.3,0.1
		c0.1,0,0.1,0.1,0.2,0.2v-0.8h0.3v2.1H125.7z M124.9,17.7c0,0.2,0,0.3,0.1,0.4c0.1,0.1,0.2,0.1,0.3,0.1c0.1,0,0.2,0,0.3-0.1
		c0.1-0.1,0.1-0.2,0.1-0.4c0-0.2,0-0.4-0.1-0.5s-0.2-0.2-0.3-0.2c-0.1,0-0.2,0-0.3,0.1C124.9,17.4,124.9,17.5,124.9,17.7z"/>
	<path class="st7" d="M127.4,18.3c-0.1,0.1-0.2,0.1-0.3,0.2c-0.1,0-0.2,0.1-0.3,0.1c-0.2,0-0.3,0-0.4-0.1c-0.1-0.1-0.1-0.2-0.1-0.3
		c0-0.1,0-0.1,0.1-0.2c0-0.1,0.1-0.1,0.1-0.2c0.1,0,0.1-0.1,0.2-0.1c0.1,0,0.1,0,0.2,0c0.2,0,0.4-0.1,0.5-0.1c0,0,0-0.1,0-0.1
		c0-0.1,0-0.2-0.1-0.2c-0.1-0.1-0.2-0.1-0.3-0.1c-0.1,0-0.2,0-0.3,0.1c-0.1,0-0.1,0.1-0.1,0.2l-0.3,0c0-0.1,0.1-0.2,0.1-0.3
		c0.1-0.1,0.1-0.1,0.2-0.2c0.1,0,0.2-0.1,0.4-0.1c0.1,0,0.2,0,0.3,0s0.1,0.1,0.2,0.1c0,0,0.1,0.1,0.1,0.2c0,0,0,0.1,0,0.2v0.4
		c0,0.2,0,0.4,0,0.5c0,0.1,0,0.1,0.1,0.2h-0.3C127.4,18.5,127.4,18.4,127.4,18.3z M127.4,17.7c-0.1,0-0.2,0.1-0.4,0.1
		c-0.1,0-0.2,0-0.2,0.1c0,0-0.1,0-0.1,0.1c0,0,0,0.1,0,0.1c0,0.1,0,0.1,0.1,0.2c0.1,0,0.1,0.1,0.2,0.1c0.1,0,0.2,0,0.3-0.1
		c0.1,0,0.1-0.1,0.2-0.2C127.4,18,127.4,18,127.4,17.7L127.4,17.7z"/>
	<path class="st7" d="M128.1,16.8l0.2-0.4h0.3l-0.3,0.4H128.1z M128.1,18.5V17h0.3v1.6H128.1z"/>
	<path class="st7" d="M128.8,18.1l0.3,0c0,0.1,0.1,0.2,0.1,0.2c0.1,0.1,0.2,0.1,0.3,0.1c0.1,0,0.2,0,0.3-0.1c0.1,0,0.1-0.1,0.1-0.2
		c0-0.1,0-0.1-0.1-0.1c0,0-0.1-0.1-0.3-0.1c-0.2,0-0.3-0.1-0.4-0.1c-0.1,0-0.1-0.1-0.2-0.1c0-0.1-0.1-0.1-0.1-0.2c0-0.1,0-0.1,0-0.2
		c0-0.1,0.1-0.1,0.1-0.1c0,0,0.1-0.1,0.2-0.1c0.1,0,0.1,0,0.2,0c0.1,0,0.2,0,0.3,0.1c0.1,0,0.2,0.1,0.2,0.1c0,0.1,0.1,0.1,0.1,0.2
		l-0.3,0c0-0.1,0-0.1-0.1-0.2c-0.1,0-0.1-0.1-0.2-0.1c-0.1,0-0.2,0-0.3,0.1c-0.1,0-0.1,0.1-0.1,0.1c0,0,0,0.1,0,0.1
		c0,0,0.1,0.1,0.1,0.1c0,0,0.1,0,0.2,0.1c0.2,0,0.3,0.1,0.4,0.1c0.1,0,0.1,0.1,0.2,0.1s0.1,0.1,0.1,0.2c0,0.1,0,0.2-0.1,0.2
		c-0.1,0.1-0.1,0.1-0.2,0.2c-0.1,0-0.2,0.1-0.3,0.1c-0.2,0-0.4,0-0.5-0.1C128.9,18.3,128.8,18.2,128.8,18.1z"/>
	<path class="st7" d="M130.4,18.5V17h0.2v0.2c0-0.1,0.1-0.1,0.2-0.2c0.1,0,0.2-0.1,0.3-0.1c0.1,0,0.2,0,0.3,0.1
		c0.1,0,0.1,0.1,0.2,0.2c0.1-0.2,0.3-0.3,0.5-0.3c0.2,0,0.3,0,0.4,0.1c0.1,0.1,0.1,0.2,0.1,0.4v1.1h-0.3v-1c0-0.1,0-0.2,0-0.2
		c0,0,0-0.1-0.1-0.1c0,0-0.1,0-0.2,0c-0.1,0-0.2,0-0.3,0.1c-0.1,0.1-0.1,0.2-0.1,0.3v0.9h-0.3v-1c0-0.1,0-0.2-0.1-0.3
		s-0.1-0.1-0.2-0.1c-0.1,0-0.1,0-0.2,0.1c-0.1,0-0.1,0.1-0.1,0.2c0,0.1,0,0.2,0,0.3v0.8H130.4z"/>
	<path class="st7" d="M132.8,17.7c0-0.3,0.1-0.5,0.2-0.6c0.1-0.1,0.3-0.2,0.5-0.2c0.2,0,0.4,0.1,0.5,0.2c0.1,0.1,0.2,0.3,0.2,0.6
		c0,0.2,0,0.4-0.1,0.5c-0.1,0.1-0.1,0.2-0.3,0.3c-0.1,0.1-0.2,0.1-0.4,0.1c-0.2,0-0.4-0.1-0.5-0.2C132.9,18.2,132.8,18,132.8,17.7z
		 M133.1,17.7c0,0.2,0,0.3,0.1,0.4c0.1,0.1,0.2,0.1,0.3,0.1c0.1,0,0.2,0,0.3-0.1s0.1-0.3,0.1-0.5c0-0.2,0-0.3-0.1-0.4
		c-0.1-0.1-0.2-0.1-0.3-0.1c-0.1,0-0.2,0-0.3,0.1S133.1,17.5,133.1,17.7z"/>
</g>
<polyline class="st8" points="55.9,25.2 55.9,21.4 34.3,21.4 "/>
<polyline class="st8" points="45.8,46.5 31.5,46.5 31.5,58.6 "/>
<polyline class="st8" points="73.4,50.3 73.4,53.4 101,53.4 "/>
<polyline class="st8" points="78,25.2 77.6,15.7 87.2,15.7 "/>
<line class="st8" x1="74" y1="57.4" x2="74" y2="65.5"/>
</svg>
